<svg xmlns="http://www.w3.org/2000/svg" xmlns:xlink="http://www.w3.org/1999/xlink" width="424.077" height="409.371" viewBox="0 0 424.077 409.371">
  <defs>
    <linearGradient id="linear-gradient" x1="-0.081" y1="0.659" x2="0.803" y2="0.417" gradientUnits="objectBoundingBox">
      <stop offset="0" stop-color="#323547"/>
      <stop offset="1" stop-color="#313445" stop-opacity="0"/>
    </linearGradient>
  </defs>
  <g id="Grupo_54067" data-name="Grupo 54067" transform="translate(-37.723 -50.646)">
    <g id="BACKGROUND">
      <path id="Trazado_101032" data-name="Trazado 101032" d="M261.105,428.328c-160.825,0-259.462-176.665-211-237.844,44.514-56.19,135.36-18.443,181.69-29.341S309.809,31.095,405.18,53.427C500.763,75.808,489.429,428.328,261.105,428.328Z" fill="#fff" opacity="0.2"/>
    </g>
    <g id="OBJECTS">
      <g id="Grupo_54066" data-name="Grupo 54066">
        <path id="Trazado_101033" data-name="Trazado 101033" d="M412.83,439.577c0,11.29-72.9,20.44-162.83,20.44s-162.83-9.15-162.83-20.44c0-8.52,41.48-15.82,100.46-18.89-4.32-1.6-6.7-3.35-6.7-5.18,0-7.58,40.85-13.73,91.23-13.73s91.24,6.15,91.24,13.73c0,2.85-5.79,5.51-15.7,7.71C387.25,426.947,412.83,432.887,412.83,439.577Z" fill="#039be5"/>
        <g id="Grupo_54011" data-name="Grupo 54011">
          <path id="Trazado_101034" data-name="Trazado 101034" d="M97.423,187.34a2.4,2.4,0,0,1,.018-2.519c.128-.211.25-.426.368-.646s.231-.444.337-.668a2.4,2.4,0,0,1,2.081-1.4l3.1-.1-.314-10.09-3.1.095a2.4,2.4,0,0,1-2.176-1.267,14.06,14.06,0,0,0-.791-1.279,2.4,2.4,0,0,1-.16-2.506l1.461-2.724-8.9-4.773-1.461,2.724a2.4,2.4,0,0,1-2.175,1.253,14.222,14.222,0,0,0-1.5.049,2.4,2.4,0,0,1-2.259-1.112l-1.634-2.631-8.579,5.321,1.64,2.646a2.4,2.4,0,0,1-.019,2.507c-.128.211-.25.426-.368.645s-.229.441-.334.664a2.4,2.4,0,0,1-2.089,1.407l-3.1.094.313,10.09,3.09-.1a2.4,2.4,0,0,1,2.177,1.265,13.945,13.945,0,0,0,.8,1.283A2.4,2.4,0,0,1,74,188.078l-1.46,2.723,8.9,4.773,1.46-2.724a2.4,2.4,0,0,1,2.178-1.252,14.05,14.05,0,0,0,1.509-.048,2.4,2.4,0,0,1,2.258,1.114l1.628,2.627,8.579-5.321Zm-15.934-2.529a8.269,8.269,0,1,1,11.195-3.384A8.277,8.277,0,0,1,81.489,184.811Z" fill="#fff"/>
          <g id="Grupo_53986" data-name="Grupo 53986">
            <rect id="Rectángulo_5321" data-name="Rectángulo 5321" width="63.278" height="29.118" transform="translate(196.273 67.642)" fill="#624970"/>
            <rect id="Rectángulo_5322" data-name="Rectángulo 5322" width="63.278" height="29.118" transform="translate(192.273 63.641)" fill="#ffca28"/>
            <g id="Grupo_53985" data-name="Grupo 53985">
              <path id="Trazado_101035" data-name="Trazado 101035" d="M202.923,73.676v5.641h6.522V73.676h1.76V87.159h-1.76V80.837h-6.522v6.322h-1.74V73.676Z" fill="#fff"/>
              <path id="Trazado_101036" data-name="Trazado 101036" d="M216.784,75.156h-4.1v-1.48h9.982v1.48h-4.121v12h-1.76Z" fill="#fff"/>
              <path id="Trazado_101037" data-name="Trazado 101037" d="M235.525,81.237c-.1-1.88-.219-4.14-.2-5.821h-.059c-.46,1.581-1.021,3.261-1.7,5.121l-2.379,6.542h-1.321l-2.18-6.422c-.641-1.9-1.181-3.64-1.56-5.241h-.041c-.04,1.681-.14,3.941-.26,5.961l-.36,5.782H223.8l.94-13.483h2.22l2.3,6.521c.56,1.66,1.02,3.141,1.361,4.541h.059c.34-1.36.821-2.841,1.42-4.541l2.4-6.521h2.221l.839,13.483h-1.7Z" fill="#fff"/>
              <path id="Trazado_101038" data-name="Trazado 101038" d="M240.242,73.676h1.74V85.7h5.761v1.461h-7.5Z" fill="#fff"/>
            </g>
          </g>
          <g id="Grupo_53988" data-name="Grupo 53988">
            <rect id="Rectángulo_5323" data-name="Rectángulo 5323" width="49.461" height="29.118" transform="translate(129.567 151.68)" fill="#624970"/>
            <rect id="Rectángulo_5324" data-name="Rectángulo 5324" width="49.461" height="29.118" transform="translate(125.567 147.68)" fill="#ffde55"/>
            <g id="Grupo_53987" data-name="Grupo 53987">
              <path id="Trazado_101039" data-name="Trazado 101039" d="M134.658,158.425a20.167,20.167,0,0,1,3.34-.26,5.539,5.539,0,0,1,3.781,1.12,3.626,3.626,0,0,1,1.18,2.821,3.971,3.971,0,0,1-1.04,2.881,5.586,5.586,0,0,1-4.121,1.48,5.989,5.989,0,0,1-1.4-.12v5.4h-1.74Zm1.74,6.5a5.841,5.841,0,0,0,1.44.139c2.1,0,3.381-1.02,3.381-2.88,0-1.78-1.261-2.641-3.181-2.641a7.226,7.226,0,0,0-1.64.141Z" fill="#fff"/>
              <path id="Trazado_101040" data-name="Trazado 101040" d="M147.038,158.265v5.641h6.522v-5.641h1.76v13.483h-1.76v-6.321h-6.522v6.321H145.3V158.265Z" fill="#fff"/>
              <path id="Trazado_101041" data-name="Trazado 101041" d="M158.337,158.425a20.18,20.18,0,0,1,3.341-.26,5.542,5.542,0,0,1,3.781,1.12,3.626,3.626,0,0,1,1.18,2.821,3.971,3.971,0,0,1-1.04,2.881,5.586,5.586,0,0,1-4.121,1.48,6,6,0,0,1-1.4-.12v5.4h-1.74Zm1.74,6.5a5.85,5.85,0,0,0,1.441.139c2.1,0,3.38-1.02,3.38-2.88,0-1.78-1.259-2.641-3.18-2.641a7.243,7.243,0,0,0-1.641.141Z" fill="#fff"/>
            </g>
          </g>
          <g id="Grupo_53990" data-name="Grupo 53990">
            <rect id="Rectángulo_5325" data-name="Rectángulo 5325" width="52.226" height="29.118" transform="translate(156.298 110.202)" fill="#624970"/>
            <rect id="Rectángulo_5326" data-name="Rectángulo 5326" width="52.226" height="29.118" transform="translate(152.297 106.201)" fill="#fff"/>
            <g id="Grupo_53989" data-name="Grupo 53989">
              <path id="Trazado_101042" data-name="Trazado 101042" d="M170.449,129.839a8.639,8.639,0,0,1-3.561.64c-3.8,0-6.661-2.4-6.661-6.821a6.71,6.71,0,0,1,7.042-7.082,7.24,7.24,0,0,1,3.2.6l-.42,1.421a6.338,6.338,0,0,0-2.72-.56c-3.161,0-5.262,2.02-5.262,5.561,0,3.3,1.9,5.421,5.182,5.421a6.965,6.965,0,0,0,2.84-.56Z" fill="#4dd0e1"/>
              <path id="Trazado_101043" data-name="Trazado 101043" d="M183.989,124.358c-.1-1.88-.22-4.141-.2-5.821h-.06c-.46,1.58-1.02,3.26-1.7,5.121l-2.381,6.541h-1.32l-2.181-6.421c-.64-1.9-1.18-3.641-1.56-5.241h-.04c-.04,1.68-.14,3.941-.26,5.961l-.36,5.781h-1.66l.94-13.483h2.22l2.3,6.522c.56,1.66,1.02,3.14,1.36,4.541h.06c.34-1.36.82-2.841,1.42-4.541l2.4-6.522h2.22l.84,13.483h-1.7Z" fill="#4dd0e1"/>
              <path id="Trazado_101044" data-name="Trazado 101044" d="M188.467,128.159a6.167,6.167,0,0,0,3.121.88c1.78,0,2.82-.94,2.82-2.3,0-1.261-.721-1.981-2.541-2.681-2.2-.78-3.56-1.92-3.56-3.821,0-2.1,1.74-3.661,4.361-3.661a6.125,6.125,0,0,1,2.98.66l-.48,1.421a5.366,5.366,0,0,0-2.561-.64c-1.839,0-2.54,1.1-2.54,2.02,0,1.26.821,1.88,2.681,2.6,2.28.88,3.44,1.98,3.44,3.961,0,2.08-1.54,3.88-4.72,3.88a6.974,6.974,0,0,1-3.442-.86Z" fill="#4dd0e1"/>
            </g>
          </g>
          <g id="Grupo_53995" data-name="Grupo 53995">
            <g id="Grupo_53991" data-name="Grupo 53991">
              <path id="Trazado_101045" data-name="Trazado 101045" d="M115.676,225.675a.432.432,0,0,1-.062,0c-.031,0-.762-.1-2-.344a.5.5,0,1,1,.2-.98c1.2.24,1.922.331,1.93.332a.5.5,0,0,1-.061,1Z" fill="#907dff"/>
            </g>
            <g id="Grupo_53992" data-name="Grupo 53992">
              <path id="Trazado_101046" data-name="Trazado 101046" d="M109.9,224.411a.5.5,0,0,1-.137-.019c-1.273-.362-2.542-.775-3.771-1.227a.5.5,0,1,1,.344-.938c1.207.443,2.451.848,3.7,1.2a.5.5,0,0,1-.137.981Zm-7.364-2.719a.511.511,0,0,1-.21-.046c-1.223-.568-2.409-1.185-3.524-1.833a.5.5,0,0,1,.5-.865c1.088.633,2.246,1.236,3.442,1.79a.5.5,0,0,1-.211.954Zm-6.771-3.956a.5.5,0,0,1-.295-.1A33.38,33.38,0,0,1,92.4,215.1a.5.5,0,1,1,.684-.73,32.084,32.084,0,0,0,2.976,2.462.5.5,0,0,1-.3.9Zm-5.7-5.365a.5.5,0,0,1-.388-.185A27.059,27.059,0,0,1,87.4,208.91a.5.5,0,0,1,.861-.509,25.957,25.957,0,0,0,2.2,3.154.5.5,0,0,1-.388.816ZM86.1,205.64a.5.5,0,0,1-.465-.314,27.047,27.047,0,0,1-1.2-3.806.5.5,0,1,1,.972-.23,26.208,26.208,0,0,0,1.159,3.664.5.5,0,0,1-.278.65A.488.488,0,0,1,86.1,205.64Zm-1.819-7.6a.5.5,0,0,1-.5-.452c-.1-1.03-.151-2.1-.151-3.168q0-.4.01-.809a.489.489,0,0,1,.511-.488.5.5,0,0,1,.489.511q-.01.4-.01.786c0,1.04.049,2.074.146,3.072a.5.5,0,0,1-.449.546Zm.158-7.829q-.031,0-.063,0a.5.5,0,0,1-.434-.559c.168-1.339.392-2.655.666-3.91a.5.5,0,1,1,.977.213c-.268,1.226-.486,2.511-.651,3.822A.5.5,0,0,1,84.435,190.211Zm1.691-7.647a.516.516,0,0,1-.158-.025.5.5,0,0,1-.317-.633,32.389,32.389,0,0,1,1.484-3.7.5.5,0,0,1,.9.431,31.435,31.435,0,0,0-1.436,3.58A.5.5,0,0,1,86.126,182.564Zm3.384-7.051a.5.5,0,0,1-.417-.776,26.835,26.835,0,0,1,2.444-3.158.5.5,0,0,1,.742.67,25.823,25.823,0,0,0-2.352,3.04A.5.5,0,0,1,89.51,175.513Zm5.24-5.8a.5.5,0,0,1-.317-.887,27.235,27.235,0,0,1,3.276-2.285.5.5,0,1,1,.511.861,26.057,26.057,0,0,0-3.155,2.2A.5.5,0,0,1,94.75,169.714Zm6.718-4.006a.5.5,0,0,1-.195-.96,32.75,32.75,0,0,1,3.76-1.321.5.5,0,1,1,.274.962,31.938,31.938,0,0,0-3.644,1.279A.5.5,0,0,1,101.468,165.708Z" fill="#907dff"/>
            </g>
            <g id="Grupo_53993" data-name="Grupo 53993">
              <path id="Trazado_101047" data-name="Trazado 101047" d="M109.055,163.533a.5.5,0,0,1-.083-.993c.691-.117,1.36-.21,2-.285a.5.5,0,0,1,.115.994c-.624.072-1.276.163-1.949.277A.621.621,0,0,1,109.055,163.533Z" fill="#907dff"/>
            </g>
            <g id="Grupo_53994" data-name="Grupo 53994">
              <path id="Trazado_101048" data-name="Trazado 101048" d="M109.756,167.913l8.445-5.3-8.813-4.664Z" fill="#907dff"/>
            </g>
          </g>
          <g id="Grupo_54000" data-name="Grupo 54000">
            <g id="Grupo_53996" data-name="Grupo 53996">
              <path id="Trazado_101049" data-name="Trazado 101049" d="M194.238,172.119a.51.51,0,0,1-.138-.019c-1.212-.349-1.91-.609-1.938-.621a.5.5,0,0,1,.351-.936c.007,0,.693.26,1.863.6a.5.5,0,0,1-.138.98Z" fill="#907dff"/>
            </g>
            <g id="Grupo_53997" data-name="Grupo 53997">
              <path id="Trazado_101050" data-name="Trazado 101050" d="M206.273,173.813a.5.5,0,0,1,0-1,33.5,33.5,0,0,0,3.994-.268.5.5,0,0,1,.129.993,34.685,34.685,0,0,1-4.115.275Zm-4.058-.184a.385.385,0,0,1-.048,0c-1.339-.128-2.709-.323-4.069-.581a.5.5,0,1,1,.187-.983c1.33.252,2.668.443,3.977.569a.5.5,0,0,1-.047,1Zm12.094-.886a.5.5,0,0,1-.133-.982,24.518,24.518,0,0,0,3.736-1.367.5.5,0,1,1,.421.907,25.358,25.358,0,0,1-3.89,1.424A.515.515,0,0,1,214.309,172.743Zm7.329-3.421a.5.5,0,0,1-.288-.909,22.067,22.067,0,0,0,3.025-2.566.5.5,0,1,1,.713.7,23.149,23.149,0,0,1-3.163,2.682A.5.5,0,0,1,221.638,169.322Zm5.683-5.746a.5.5,0,0,1-.409-.787,27.815,27.815,0,0,0,2.036-3.426.5.5,0,0,1,.894.449,28.463,28.463,0,0,1-2.111,3.55A.5.5,0,0,1,227.321,163.576Zm3.669-7.222a.5.5,0,0,1-.47-.67,36.211,36.211,0,0,0,1.157-3.836.5.5,0,0,1,.6-.37.5.5,0,0,1,.37.6,36.9,36.9,0,0,1-1.189,3.942A.5.5,0,0,1,230.99,156.354Zm1.859-7.893-.05,0a.5.5,0,0,1-.448-.547c.087-.865.131-1.73.131-2.572q0-.717-.041-1.408a.5.5,0,0,1,.471-.528.506.506,0,0,1,.527.471q.042.719.043,1.465c0,.875-.046,1.774-.136,2.672A.5.5,0,0,1,232.849,148.461Zm-.5-8.073a.5.5,0,0,1-.486-.384,21.781,21.781,0,0,0-1.272-3.757.5.5,0,0,1,.914-.406,22.815,22.815,0,0,1,1.33,3.93.5.5,0,0,1-.37.6A.518.518,0,0,1,232.35,140.388Zm-3.263-7.4a.5.5,0,0,1-.416-.221,25.6,25.6,0,0,0-2.473-3.123.5.5,0,0,1,.735-.679,26.628,26.628,0,0,1,2.569,3.245.5.5,0,0,1-.415.778Z" fill="#907dff"/>
            </g>
            <g id="Grupo_53998" data-name="Grupo 53998">
              <path id="Trazado_101051" data-name="Trazado 101051" d="M223.572,126.99a.494.494,0,0,1-.317-.114c-.526-.431-1.047-.831-1.557-1.2a.5.5,0,0,1,.586-.81c.526.38,1.064.793,1.606,1.238a.5.5,0,0,1-.318.886Z" fill="#907dff"/>
            </g>
            <g id="Grupo_53999" data-name="Grupo 53999">
              <path id="Trazado_101052" data-name="Trazado 101052" d="M225.726,121.833l-9.97-.114,4.886,8.692Z" fill="#907dff"/>
            </g>
          </g>
          <g id="Grupo_54005" data-name="Grupo 54005">
            <g id="Grupo_54001" data-name="Grupo 54001">
              <path id="Trazado_101053" data-name="Trazado 101053" d="M148.142,118.5a.5.5,0,0,1-.287-.09c-.026-.018-.634-.447-1.6-1.254a.5.5,0,0,1,.64-.769c.935.778,1.533,1.2,1.54,1.2a.5.5,0,0,1-.288.909Z" fill="#907dff"/>
            </g>
            <g id="Grupo_54002" data-name="Grupo 54002">
              <path id="Trazado_101054" data-name="Trazado 101054" d="M143.571,114.534a.5.5,0,0,1-.354-.146c-.976-.977-1.909-2-2.772-3.036a.5.5,0,1,1,.77-.639c.843,1.014,1.754,2.013,2.709,2.968a.5.5,0,0,1-.353.853Zm-5.177-6.255a.5.5,0,0,1-.416-.221,34.318,34.318,0,0,1-2.089-3.556.5.5,0,1,1,.892-.452,33.224,33.224,0,0,0,2.028,3.451.5.5,0,0,1-.415.778Zm-3.641-7.244a.5.5,0,0,1-.474-.339,25.481,25.481,0,0,1-1.012-4.016.5.5,0,1,1,.986-.163,24.391,24.391,0,0,0,.974,3.858.5.5,0,0,1-.313.634A.507.507,0,0,1,134.753,101.035Zm-1.3-7.983h-.007a.5.5,0,0,1-.493-.508,23.215,23.215,0,0,1,.437-4.126.5.5,0,0,1,.982.195,22.032,22.032,0,0,0-.419,3.946A.5.5,0,0,1,133.456,93.052Zm1.551-7.937a.5.5,0,0,1-.467-.677,28.594,28.594,0,0,1,1.748-3.745.5.5,0,0,1,.874.486,27.54,27.54,0,0,0-1.687,3.613A.5.5,0,0,1,135.007,85.115Zm3.908-7.1a.494.494,0,0,1-.292-.1.5.5,0,0,1-.113-.7,37.1,37.1,0,0,1,2.59-3.2.5.5,0,0,1,.74.673,36.14,36.14,0,0,0-2.519,3.114A.5.5,0,0,1,138.915,78.015Zm5.478-5.976a.5.5,0,0,1-.322-.883,26.064,26.064,0,0,1,3.368-2.4.5.5,0,1,1,.513.859,25.054,25.054,0,0,0-3.239,2.312A.5.5,0,0,1,144.393,72.039Zm6.953-4.13a.5.5,0,0,1-.177-.967,22.824,22.824,0,0,1,4-1.112.5.5,0,1,1,.18.983,21.955,21.955,0,0,0-3.823,1.063A.478.478,0,0,1,151.346,67.909Zm12-1.172a.471.471,0,0,1-.074-.006,25.863,25.863,0,0,0-3.794-.287H159.3a.5.5,0,0,1,0-1h.187a26.743,26.743,0,0,1,3.941.3.5.5,0,0,1-.073,1Z" fill="#907dff"/>
            </g>
            <g id="Grupo_54003" data-name="Grupo 54003">
              <path id="Trazado_101055" data-name="Trazado 101055" d="M169.25,68.244a.479.479,0,0,1-.169-.03c-.592-.213-1.216-.419-1.869-.61a.5.5,0,0,1,.281-.96c.674.2,1.317.41,1.927.63a.5.5,0,0,1-.17.97Z" fill="#907dff"/>
            </g>
            <g id="Grupo_54004" data-name="Grupo 54004">
              <path id="Trazado_101056" data-name="Trazado 101056" d="M165.762,71.754,175.7,70.9l-5.707-8.176Z" fill="#907dff"/>
            </g>
          </g>
          <g id="Grupo_54006" data-name="Grupo 54006">
            <path id="Trazado_101057" data-name="Trazado 101057" d="M330.42,120.964c0,6.421-2.383,9.965-6.566,9.965-3.69,0-6.188-3.457-6.247-9.7,0-6.334,2.731-9.821,6.567-9.821C328.153,111.4,330.42,114.95,330.42,120.964Zm-10.256.29c0,4.91,1.511,7.7,3.835,7.7,2.614,0,3.864-3.05,3.864-7.873,0-4.648-1.191-7.7-3.835-7.7C321.791,113.381,320.164,116.112,320.164,121.254Z" fill="#039be5"/>
            <path id="Trazado_101058" data-name="Trazado 101058" d="M338.323,114.107h-.057l-3.284,1.773-.494-1.947,4.125-2.208h2.18v18.884h-2.47Z" fill="#039be5"/>
            <path id="Trazado_101059" data-name="Trazado 101059" d="M353.229,114.107h-.057l-3.283,1.773-.494-1.947,4.125-2.208H355.7v18.884h-2.47Z" fill="#039be5"/>
            <path id="Trazado_101060" data-name="Trazado 101060" d="M368.135,114.107h-.059l-3.282,1.773-.494-1.947,4.126-2.208H370.6v18.884h-2.469Z" fill="#039be5"/>
            <path id="Trazado_101061" data-name="Trazado 101061" d="M390.043,120.964c0,6.421-2.383,9.965-6.566,9.965-3.69,0-6.188-3.457-6.247-9.7,0-6.334,2.731-9.821,6.567-9.821C387.776,111.4,390.043,114.95,390.043,120.964Zm-10.256.29c0,4.91,1.511,7.7,3.835,7.7,2.614,0,3.864-3.05,3.864-7.873,0-4.648-1.191-7.7-3.835-7.7C381.414,113.381,379.787,116.112,379.787,121.254Z" fill="#039be5"/>
            <path id="Trazado_101062" data-name="Trazado 101062" d="M404.948,120.964c0,6.421-2.383,9.965-6.566,9.965-3.69,0-6.189-3.457-6.246-9.7,0-6.334,2.731-9.821,6.565-9.821C402.682,111.4,404.948,114.95,404.948,120.964Zm-10.256.29c0,4.91,1.511,7.7,3.835,7.7,2.616,0,3.865-3.05,3.865-7.873,0-4.648-1.192-7.7-3.835-7.7C396.319,113.381,394.692,116.112,394.692,121.254Z" fill="#039be5"/>
            <path id="Trazado_101063" data-name="Trazado 101063" d="M419.854,120.964c0,6.421-2.382,9.965-6.566,9.965-3.689,0-6.188-3.457-6.246-9.7,0-6.334,2.731-9.821,6.565-9.821C417.588,111.4,419.854,114.95,419.854,120.964Zm-10.255.29c0,4.91,1.51,7.7,3.835,7.7,2.615,0,3.864-3.05,3.864-7.873,0-4.648-1.192-7.7-3.835-7.7C411.226,113.381,409.6,116.112,409.6,121.254Z" fill="#039be5"/>
            <path id="Trazado_101064" data-name="Trazado 101064" d="M427.758,114.107H427.7l-3.282,1.773-.494-1.947,4.126-2.208h2.179v18.884h-2.47Z" fill="#039be5"/>
            <path id="Trazado_101065" data-name="Trazado 101065" d="M449.665,120.964c0,6.421-2.383,9.965-6.566,9.965-3.69,0-6.189-3.457-6.246-9.7,0-6.334,2.731-9.821,6.565-9.821C447.4,111.4,449.665,114.95,449.665,120.964Zm-10.256.29c0,4.91,1.511,7.7,3.835,7.7,2.615,0,3.864-3.05,3.864-7.873,0-4.648-1.191-7.7-3.835-7.7C441.036,113.381,439.409,116.112,439.409,121.254Z" fill="#039be5"/>
            <path id="Trazado_101066" data-name="Trazado 101066" d="M323.418,148.976h-.059l-3.282,1.772-.494-1.947,4.126-2.208h2.179v18.885h-2.47Z" fill="#039be5"/>
            <path id="Trazado_101067" data-name="Trazado 101067" d="M345.325,155.832c0,6.421-2.383,9.965-6.566,9.965-3.69,0-6.189-3.457-6.246-9.7,0-6.334,2.731-9.821,6.565-9.821C343.059,146.273,345.325,149.818,345.325,155.832Zm-10.256.291c0,4.909,1.511,7.7,3.835,7.7,2.616,0,3.865-3.05,3.865-7.873,0-4.648-1.192-7.7-3.835-7.7C336.7,148.249,335.069,150.98,335.069,156.123Z" fill="#039be5"/>
            <path id="Trazado_101068" data-name="Trazado 101068" d="M353.229,148.976h-.057l-3.283,1.772-.494-1.947,4.125-2.208H355.7v18.885h-2.47Z" fill="#039be5"/>
            <path id="Trazado_101069" data-name="Trazado 101069" d="M375.137,155.832c0,6.421-2.383,9.965-6.567,9.965-3.689,0-6.187-3.457-6.246-9.7,0-6.334,2.731-9.821,6.567-9.821C372.87,146.273,375.137,149.818,375.137,155.832Zm-10.256.291c0,4.909,1.511,7.7,3.835,7.7,2.614,0,3.864-3.05,3.864-7.873,0-4.648-1.191-7.7-3.835-7.7C366.508,148.249,364.881,150.98,364.881,156.123Z" fill="#039be5"/>
            <path id="Trazado_101070" data-name="Trazado 101070" d="M390.043,155.832c0,6.421-2.383,9.965-6.566,9.965-3.69,0-6.188-3.457-6.247-9.7,0-6.334,2.731-9.821,6.567-9.821C387.776,146.273,390.043,149.818,390.043,155.832Zm-10.256.291c0,4.909,1.511,7.7,3.835,7.7,2.614,0,3.864-3.05,3.864-7.873,0-4.648-1.191-7.7-3.835-7.7C381.414,148.249,379.787,150.98,379.787,156.123Z" fill="#039be5"/>
            <path id="Trazado_101071" data-name="Trazado 101071" d="M404.948,155.832c0,6.421-2.383,9.965-6.566,9.965-3.69,0-6.189-3.457-6.246-9.7,0-6.334,2.731-9.821,6.565-9.821C402.682,146.273,404.948,149.818,404.948,155.832Zm-10.256.291c0,4.909,1.511,7.7,3.835,7.7,2.616,0,3.865-3.05,3.865-7.873,0-4.648-1.192-7.7-3.835-7.7C396.319,148.249,394.692,150.98,394.692,156.123Z" fill="#039be5"/>
            <path id="Trazado_101072" data-name="Trazado 101072" d="M412.853,148.976H412.8l-3.283,1.772-.494-1.947,4.125-2.208h2.179v18.885h-2.469Z" fill="#039be5"/>
            <path id="Trazado_101073" data-name="Trazado 101073" d="M434.76,155.832c0,6.421-2.383,9.965-6.567,9.965-3.689,0-6.187-3.457-6.246-9.7,0-6.334,2.731-9.821,6.567-9.821C432.493,146.273,434.76,149.818,434.76,155.832Zm-10.256.291c0,4.909,1.511,7.7,3.835,7.7,2.614,0,3.864-3.05,3.864-7.873,0-4.648-1.191-7.7-3.835-7.7C426.131,148.249,424.5,150.98,424.5,156.123Z" fill="#039be5"/>
            <path id="Trazado_101074" data-name="Trazado 101074" d="M442.663,148.976h-.058l-3.283,1.772-.494-1.947,4.125-2.208h2.18v18.885h-2.47Z" fill="#039be5"/>
            <path id="Trazado_101075" data-name="Trazado 101075" d="M330.42,190.7c0,6.421-2.383,9.965-6.566,9.965-3.69,0-6.188-3.457-6.247-9.7,0-6.334,2.731-9.82,6.567-9.82C328.153,181.142,330.42,184.687,330.42,190.7Zm-10.256.291c0,4.909,1.511,7.7,3.835,7.7,2.614,0,3.864-3.05,3.864-7.873,0-4.648-1.191-7.7-3.835-7.7C321.791,183.117,320.164,185.849,320.164,190.991Z" fill="#039be5"/>
            <path id="Trazado_101076" data-name="Trazado 101076" d="M345.325,190.7c0,6.421-2.383,9.965-6.566,9.965-3.69,0-6.189-3.457-6.246-9.7,0-6.334,2.731-9.82,6.565-9.82C343.059,181.142,345.325,184.687,345.325,190.7Zm-10.256.291c0,4.909,1.511,7.7,3.835,7.7,2.616,0,3.865-3.05,3.865-7.873,0-4.648-1.192-7.7-3.835-7.7C336.7,183.117,335.069,185.849,335.069,190.991Z" fill="#039be5"/>
            <path id="Trazado_101077" data-name="Trazado 101077" d="M353.229,183.844h-.057l-3.283,1.772-.494-1.947,4.125-2.208H355.7v18.885h-2.47Z" fill="#039be5"/>
            <path id="Trazado_101078" data-name="Trazado 101078" d="M375.137,190.7c0,6.421-2.383,9.965-6.567,9.965-3.689,0-6.187-3.457-6.246-9.7,0-6.334,2.731-9.82,6.567-9.82C372.87,181.142,375.137,184.687,375.137,190.7Zm-10.256.291c0,4.909,1.511,7.7,3.835,7.7,2.614,0,3.864-3.05,3.864-7.873,0-4.648-1.191-7.7-3.835-7.7C366.508,183.117,364.881,185.849,364.881,190.991Z" fill="#039be5"/>
            <path id="Trazado_101079" data-name="Trazado 101079" d="M390.043,190.7c0,6.421-2.383,9.965-6.566,9.965-3.69,0-6.188-3.457-6.247-9.7,0-6.334,2.731-9.82,6.567-9.82C387.776,181.142,390.043,184.687,390.043,190.7Zm-10.256.291c0,4.909,1.511,7.7,3.835,7.7,2.614,0,3.864-3.05,3.864-7.873,0-4.648-1.191-7.7-3.835-7.7C381.414,183.117,379.787,185.849,379.787,190.991Z" fill="#039be5"/>
            <path id="Trazado_101080" data-name="Trazado 101080" d="M397.946,183.844h-.057l-3.284,1.772-.494-1.947,4.125-2.208h2.18v18.885h-2.47Z" fill="#039be5"/>
            <path id="Trazado_101081" data-name="Trazado 101081" d="M412.853,183.844H412.8l-3.283,1.772-.494-1.947,4.125-2.208h2.179v18.885h-2.469Z" fill="#039be5"/>
            <path id="Trazado_101082" data-name="Trazado 101082" d="M434.76,190.7c0,6.421-2.383,9.965-6.567,9.965-3.689,0-6.187-3.457-6.246-9.7,0-6.334,2.731-9.82,6.567-9.82C432.493,181.142,434.76,184.687,434.76,190.7Zm-10.256.291c0,4.909,1.511,7.7,3.835,7.7,2.614,0,3.864-3.05,3.864-7.873,0-4.648-1.191-7.7-3.835-7.7C426.131,183.117,424.5,185.849,424.5,190.991Z" fill="#039be5"/>
            <path id="Trazado_101083" data-name="Trazado 101083" d="M442.663,183.844h-.058l-3.283,1.772-.494-1.947,4.125-2.208h2.18v18.885h-2.47Z" fill="#039be5"/>
          </g>
          <g id="Grupo_54007" data-name="Grupo 54007">
            <path id="Trazado_101084" data-name="Trazado 101084" d="M74.877,244.83a12.424,12.424,0,0,1-5.12.92c-5.465,0-9.578-3.452-9.578-9.808,0-6.069,4.113-10.182,10.125-10.182a10.4,10.4,0,0,1,4.6.863l-.6,2.042a9.12,9.12,0,0,0-3.912-.806c-4.545,0-7.565,2.906-7.565,8,0,4.747,2.733,7.795,7.45,7.795a10.014,10.014,0,0,0,4.084-.8Z" fill="#ffca28"/>
            <path id="Trazado_101085" data-name="Trazado 101085" d="M77.323,233.842a1.714,1.714,0,1,1,3.423,0,1.713,1.713,0,1,1-3.423,0Zm0,10.154a1.714,1.714,0,1,1,3.423,0,1.713,1.713,0,1,1-3.423,0Z" fill="#ffca28"/>
            <path id="Trazado_101086" data-name="Trazado 101086" d="M81.752,246.613l8.025-20.853h1.956L83.68,246.613Z" fill="#ffca28"/>
          </g>
          <g id="Grupo_54008" data-name="Grupo 54008">
            <path id="Trazado_101087" data-name="Trazado 101087" d="M210.8,209.03l8.666-4.464v1.288l-7.3,3.661v.038l7.3,3.66V214.5l-8.666-4.464Z" fill="#907dff"/>
            <path id="Trazado_101088" data-name="Trazado 101088" d="M220.689,215.249l5.21-13.541h1.271l-5.23,13.541Z" fill="#907dff"/>
            <path id="Trazado_101089" data-name="Trazado 101089" d="M237.015,210.057l-8.666,4.445v-1.289l7.359-3.66v-.038l-7.359-3.661v-1.288l8.666,4.445Z" fill="#907dff"/>
          </g>
          <g id="Grupo_54009" data-name="Grupo 54009">
            <path id="Trazado_101090" data-name="Trazado 101090" d="M78.673,96.871c3.643,0,4.156-2,4.156-3.8a30.521,30.521,0,0,0-.411-4.311,29.943,29.943,0,0,1-.41-4.259c0-4.721,3.079-6.722,7.441-6.722h1.077V80.6H89.6c-3.028,0-4.054,1.642-4.054,4.413a22.5,22.5,0,0,0,.359,3.644,23.963,23.963,0,0,1,.359,3.9c.052,3.284-1.385,4.926-3.694,5.542v.1c2.309.565,3.746,2.309,3.694,5.593a23.442,23.442,0,0,1-.359,3.9,23.117,23.117,0,0,0-.359,3.695c0,2.874,1.18,4.464,4.054,4.464h.923v2.823H89.449c-4.259,0-7.441-1.847-7.441-7.03a29.227,29.227,0,0,1,.41-4.208,28.411,28.411,0,0,0,.411-4.157c0-1.591-.513-3.8-4.156-3.8Z" fill="#fff"/>
            <path id="Trazado_101091" data-name="Trazado 101091" d="M115.822,99.488c-3.643,0-4.156,2.206-4.156,3.8a28.548,28.548,0,0,0,.41,4.157,29.088,29.088,0,0,1,.411,4.208c0,5.183-3.233,7.03-7.441,7.03h-1.078v-2.823h.873c2.873-.051,4.1-1.59,4.1-4.464a31.011,31.011,0,0,0-.359-3.695,23.211,23.211,0,0,1-.411-3.9c0-3.284,1.437-5.028,3.695-5.593v-.1c-2.258-.616-3.695-2.258-3.695-5.542a23.793,23.793,0,0,1,.411-3.9,30.187,30.187,0,0,0,.359-3.644c0-2.771-1.078-4.362-4.054-4.413h-.924V77.782H105c4.361,0,7.492,2,7.492,6.722a29.8,29.8,0,0,1-.411,4.259,30.669,30.669,0,0,0-.41,4.311c0,1.8.513,3.8,4.156,3.8Z" fill="#fff"/>
          </g>
          <g id="Grupo_54010" data-name="Grupo 54010">
            <path id="Trazado_101092" data-name="Trazado 101092" d="M360.878,69.542V66.134h29.313v3.408Zm0,11.135V77.269h29.313v3.408Z" fill="#039be5"/>
          </g>
          <path id="Trazado_101093" data-name="Trazado 101093" d="M414.522,249.708a2.965,2.965,0,0,1-1.448-2.747q.022-.456.023-.916t-.023-.923a2.953,2.953,0,0,1,1.443-2.737l3.31-1.91-6.22-10.78L408.3,231.6a2.96,2.96,0,0,1-3.1-.109,17.1,17.1,0,0,0-1.6-.929,2.96,2.96,0,0,1-1.634-2.629v-3.811h-12.45v3.811a2.958,2.958,0,0,1-1.634,2.629,17.233,17.233,0,0,0-1.6.929,2.959,2.959,0,0,1-3.1.109l-3.309-1.908-6.22,10.78,3.323,1.92a2.95,2.95,0,0,1,1.44,2.734q-.022.456-.023.916t.023.916a2.96,2.96,0,0,1-1.449,2.746l-3.314,1.908,6.22,10.78,3.3-1.906a2.958,2.958,0,0,1,3.1.1,17.362,17.362,0,0,0,1.611.931,2.956,2.956,0,0,1,1.637,2.63v3.81h12.45v-3.809a2.958,2.958,0,0,1,1.637-2.631,17.375,17.375,0,0,0,1.612-.931,2.957,2.957,0,0,1,3.1-.1l3.3,1.906,6.22-10.78Zm-18.785,6.537a10.2,10.2,0,1,1,10.19-10.2A10.2,10.2,0,0,1,395.737,256.245Z" fill="#fff"/>
          <path id="Trazado_101094" data-name="Trazado 101094" d="M202.108,280.308a2.963,2.963,0,0,1-1.449-2.747c.016-.3.023-.609.023-.916s-.007-.618-.023-.923a2.954,2.954,0,0,1,1.444-2.737l3.309-1.91-6.22-10.78-3.308,1.908a2.959,2.959,0,0,1-3.1-.109,17.249,17.249,0,0,0-1.605-.929,2.96,2.96,0,0,1-1.634-2.629v-3.811h-12.45v3.811a2.958,2.958,0,0,1-1.634,2.629,17.235,17.235,0,0,0-1.6.929,2.959,2.959,0,0,1-3.1.109l-3.309-1.908-6.22,10.78,3.323,1.92a2.951,2.951,0,0,1,1.441,2.734q-.024.456-.024.916t.024.916a2.963,2.963,0,0,1-1.45,2.746l-3.314,1.908,6.22,10.78,3.3-1.906a2.957,2.957,0,0,1,3.1.105,17.625,17.625,0,0,0,1.612.932,2.954,2.954,0,0,1,1.636,2.629v3.81h12.45v-3.81a2.955,2.955,0,0,1,1.637-2.629,17.623,17.623,0,0,0,1.612-.932,2.957,2.957,0,0,1,3.1-.105l3.3,1.906,6.22-10.78Zm-18.786,6.537a10.2,10.2,0,1,1,10.19-10.2A10.2,10.2,0,0,1,183.322,286.845Z" fill="#bcb1ff"/>
          <path id="Trazado_101095" data-name="Trazado 101095" d="M223.6,312.273a2.131,2.131,0,0,1-1.041-1.974c.011-.218.017-.438.017-.658s-.006-.444-.017-.663a2.124,2.124,0,0,1,1.037-1.967l2.378-1.372-4.469-7.745-2.377,1.37a2.126,2.126,0,0,1-2.23-.078,12.644,12.644,0,0,0-1.152-.668,2.122,2.122,0,0,1-1.174-1.888v-2.738h-8.945v2.738a2.123,2.123,0,0,1-1.175,1.888,12.78,12.78,0,0,0-1.152.668,2.126,2.126,0,0,1-2.23.078l-2.377-1.37-4.469,7.745,2.388,1.379a2.122,2.122,0,0,1,1.034,1.965c-.011.218-.016.438-.016.658s.005.44.016.658a2.127,2.127,0,0,1-1.041,1.973l-2.381,1.371,4.469,7.745,2.371-1.369a2.125,2.125,0,0,1,2.228.075,12.312,12.312,0,0,0,1.159.669,2.126,2.126,0,0,1,1.176,1.89v2.737h8.945v-2.737a2.124,2.124,0,0,1,1.176-1.89,12.423,12.423,0,0,0,1.158-.669,2.126,2.126,0,0,1,2.229-.075l2.37,1.369,4.469-7.745Zm-13.5,4.7a7.325,7.325,0,1,1,7.321-7.328A7.332,7.332,0,0,1,210.1,316.969Z" fill="#fff"/>
          <path id="Trazado_101096" data-name="Trazado 101096" d="M121.311,195.779a1.37,1.37,0,0,1-.668-1.268c.007-.14.011-.281.011-.423s0-.285-.011-.426a1.363,1.363,0,0,1,.666-1.263l1.527-.881-2.87-4.974-1.526.88a1.366,1.366,0,0,1-1.432-.05,8,8,0,0,0-.74-.429,1.364,1.364,0,0,1-.754-1.213v-1.758h-5.745v1.758a1.364,1.364,0,0,1-.754,1.213,7.868,7.868,0,0,0-.74.429,1.366,1.366,0,0,1-1.432.05l-1.527-.88-2.87,4.974,1.534.886a1.364,1.364,0,0,1,.664,1.262c-.007.14-.011.281-.011.422s0,.283.011.423a1.364,1.364,0,0,1-.669,1.267l-1.529.88,2.87,4.974,1.523-.879a1.364,1.364,0,0,1,1.431.048,7.943,7.943,0,0,0,.744.43,1.366,1.366,0,0,1,.755,1.214V204.2h5.745v-1.757a1.364,1.364,0,0,1,.755-1.214,8.071,8.071,0,0,0,.744-.43,1.364,1.364,0,0,1,1.431-.048l1.522.879,2.87-4.974Zm-8.667,3.016a4.7,4.7,0,1,1,4.7-4.707A4.709,4.709,0,0,1,112.644,198.795Z" fill="#fff"/>
          <path id="Trazado_101097" data-name="Trazado 101097" d="M307.094,78.848a1.366,1.366,0,0,1-.668-1.267c.007-.141.01-.281.01-.423s0-.285-.01-.426a1.361,1.361,0,0,1,.666-1.263l1.527-.881-2.87-4.974-1.527.88a1.366,1.366,0,0,1-1.432-.05,7.868,7.868,0,0,0-.74-.429A1.364,1.364,0,0,1,301.3,68.8V67.044h-5.745V68.8a1.364,1.364,0,0,1-.754,1.213,8,8,0,0,0-.74.429,1.366,1.366,0,0,1-1.432.05l-1.526-.88-2.87,4.974,1.533.886a1.361,1.361,0,0,1,.665,1.261c-.008.141-.011.281-.011.423s0,.282.011.423a1.369,1.369,0,0,1-.669,1.267l-1.529.88L291.1,84.7l1.522-.879a1.364,1.364,0,0,1,1.431.048,8.074,8.074,0,0,0,.744.43,1.363,1.363,0,0,1,.755,1.213v1.758H301.3V85.514a1.365,1.365,0,0,1,.755-1.213,7.944,7.944,0,0,0,.744-.43,1.364,1.364,0,0,1,1.431-.048l1.523.879,2.87-4.974Zm-8.668,3.016a4.7,4.7,0,1,1,4.7-4.706A4.707,4.707,0,0,1,298.426,81.864Z" fill="#fff"/>
          <path id="Trazado_101098" data-name="Trazado 101098" d="M426.626,291.092a1.988,1.988,0,0,1,.014-2.081q.159-.262.3-.534c.1-.183.191-.367.279-.552a1.979,1.979,0,0,1,1.72-1.16l2.559-.079-.259-8.337-2.558.079a1.985,1.985,0,0,1-1.8-1.047,11.508,11.508,0,0,0-.653-1.057,1.982,1.982,0,0,1-.132-2.07L427.308,272l-7.353-3.944-1.207,2.251a1.98,1.98,0,0,1-1.8,1.035,11.433,11.433,0,0,0-1.242.041,1.983,1.983,0,0,1-1.867-.919l-1.35-2.174-7.087,4.4,1.354,2.187a1.979,1.979,0,0,1-.015,2.071q-.159.261-.3.533c-.1.181-.19.364-.277.549a1.984,1.984,0,0,1-1.725,1.162l-2.562.078.259,8.336,2.553-.081a1.982,1.982,0,0,1,1.8,1.045,11.982,11.982,0,0,0,.657,1.061,1.98,1.98,0,0,1,.134,2.071l-1.207,2.25,7.353,3.944,1.207-2.25a1.982,1.982,0,0,1,1.8-1.035,11.5,11.5,0,0,0,1.246-.04,1.981,1.981,0,0,1,1.866.921l1.345,2.171,7.088-4.4ZM413.461,289a6.833,6.833,0,1,1,9.249-2.8A6.839,6.839,0,0,1,413.461,289Z" fill="#ffca28"/>
        </g>
        <g id="Grupo_54065" data-name="Grupo 54065">
          <g id="Grupo_54063" data-name="Grupo 54063">
            <g id="Grupo_54060" data-name="Grupo 54060">
              <g id="Grupo_54014" data-name="Grupo 54014">
                <g id="Grupo_54012" data-name="Grupo 54012">
                  <path id="Trazado_101099" data-name="Trazado 101099" d="M268.919,307.938,255.341,439.676h-3.729l9.052-131.738Z" fill="#624970"/>
                  <path id="Trazado_101100" data-name="Trazado 101100" d="M282.477,298.166,268.9,429.9h-3.729l9.052-131.738Z" fill="#624970"/>
                  <path id="Trazado_101101" data-name="Trazado 101101" d="M351.165,307.938l13.578,131.738h3.729l-9.052-131.738Z" fill="#624970"/>
                  <path id="Trazado_101102" data-name="Trazado 101102" d="M337.608,298.166,351.186,429.9h3.729l-9.052-131.738Z" fill="#624970"/>
                </g>
                <path id="Trazado_101103" data-name="Trazado 101103" d="M367.869,312.15c-2.01,6.48-106.99,7.35-114.08.96s-9.59-13.71-8.34-16.94c.36-.95,5.48-2.11,12.52-3.28,16.93-2.8,44.99-5.63,44.99-5.63s-22.12-86.84-23.77-124.58c-.39-8.64.31-14.71,2.58-16.58,10.22-8.42,91.24-9.42,98,0S369.879,305.66,367.869,312.15Z" fill="#ffca28"/>
              </g>
              <g id="Grupo_54059" data-name="Grupo 54059">
                <g id="Grupo_54030" data-name="Grupo 54030">
                  <g id="Grupo_54020" data-name="Grupo 54020">
                    <path id="Trazado_101104" data-name="Trazado 101104" d="M305.857,417.615c.591,3-38.45,16.31-39.48,13.31-.41-1.13,2.131-3.99,5.41-7.13,5.291-5.04,12.481-10.8,12.38-11.26-.07-.35-1.54-5.17-3.07-10.16-.47-1.5-.94-3.02-1.37-4.44-1.19-3.84-2.149-6.94-2.149-6.94s10.919-6,22.75-4.5c0,0,.37,2.08.909,5.16.281,1.61.61,3.5.971,5.52.8,4.53,1.709,9.67,2.419,13.7C305.237,414.235,305.7,416.825,305.857,417.615Z" fill="#fff3e1"/>
                    <g id="Grupo_54017" data-name="Grupo 54017">
                      <path id="Trazado_101105" data-name="Trazado 101105" d="M305.857,417.615c.591,3-38.45,16.31-39.48,13.31-.41-1.13,2.131-3.99,5.41-7.13,5.291-5.04,12.481-10.8,12.38-11.26-.04-.18-.42-1.48-1-3.37-.1-.35-.209-.71-.329-1.1-.221-.74-.471-1.54-.731-2.39-.11-.34-.209-.7-.32-1.06-.23-.73-.459-1.48-.69-2.24,4.83-.29,13.45-1.36,21.111-5.2.139.82.289,1.65.44,2.5.089.48.17.96.259,1.44.1.57.2,1.14.3,1.71.079.48.169.95.25,1.42.409,2.34.82,4.63,1.169,6.63C305.237,414.235,305.7,416.825,305.857,417.615Z" fill="#ffde55"/>
                      <g id="Grupo_54016" data-name="Grupo 54016">
                        <path id="Trazado_101106" data-name="Trazado 101106" d="M302.907,401.115a42.275,42.275,0,0,1-11.3,3.79,36.086,36.086,0,0,1-9.5.77c-.11-.34-.209-.7-.32-1.06,7.19.33,14.43-1.85,20.861-4.94C302.737,400.155,302.818,400.635,302.907,401.115Z" fill="#624970"/>
                        <path id="Trazado_101107" data-name="Trazado 101107" d="M303.458,404.245a41.436,41.436,0,0,1-11.851,4.08,38.971,38.971,0,0,1-8.44.84c-.1-.35-.209-.71-.329-1.1,7.05.1,14.11-2.16,20.37-5.24C303.287,403.3,303.377,403.775,303.458,404.245Z" fill="#624970"/>
                      </g>
                    </g>
                    <g id="Grupo_54019" data-name="Grupo 54019">
                      <path id="Trazado_101108" data-name="Trazado 101108" d="M306.862,418.242c-2.1,2.08-5.94,4.19-10.45,6.11-11.27,4.81-26.77,8.51-30.01,8.05-1.34-.19-2.27-3.24,1-7.45,2.57-3.31,16.394-13.711,16.394-13.711,10.945,1.251,20.406-5.489,20.406-5.489s.48,1.5,1.05,3.46C306.242,412.682,307.512,417.6,306.862,418.242Z" fill="#ff7bdd"/>
                      <path id="Trazado_101109" data-name="Trazado 101109" d="M306.934,418.017c-11.994,8.809-26.368,11.781-40.875,13.865-1.306.188-.939,2.328.3,2.241a104.176,104.176,0,0,0,22.9-4.433,63.72,63.72,0,0,0,19.1-9.224C309.816,419.394,308.409,416.933,306.934,418.017Z" fill="#fff3e1"/>
                      <path id="Trazado_101110" data-name="Trazado 101110" d="M278.874,420.524c-1.528-1.668-5-3.079-7.14-1.966a.8.8,0,0,0,.188,1.442,23.205,23.205,0,0,1,3.115.713c1,.4,1.866,1.1,2.9,1.43A.976.976,0,0,0,278.874,420.524Z" fill="#fff3e1"/>
                      <path id="Trazado_101111" data-name="Trazado 101111" d="M280.825,418.509c-1.528-1.669-5-3.079-7.14-1.967a.8.8,0,0,0,.189,1.443,23.044,23.044,0,0,1,3.114.713c1.005.4,1.867,1.1,2.895,1.43A.976.976,0,0,0,280.825,418.509Z" fill="#fff3e1"/>
                      <path id="Trazado_101112" data-name="Trazado 101112" d="M282.777,416.493c-1.528-1.668-5-3.079-7.141-1.966a.8.8,0,0,0,.189,1.442,23.056,23.056,0,0,1,3.115.714c1,.4,1.866,1.1,2.894,1.429A.977.977,0,0,0,282.777,416.493Z" fill="#fff3e1"/>
                      <path id="Trazado_101113" data-name="Trazado 101113" d="M306.862,418.242c-2.1,2.08-5.94,4.19-10.45,6.11a12.675,12.675,0,0,1,2.62-11.06,16.15,16.15,0,0,1,6.22-4.08C306.242,412.682,307.512,417.6,306.862,418.242Z" fill="#fff3e1"/>
                    </g>
                  </g>
                  <g id="Grupo_54027" data-name="Grupo 54027">
                    <path id="Trazado_101114" data-name="Trazado 101114" d="M233.5,341.385s-.9,3.39-2.07,7.85c-.43,1.62-.9,3.37-1.37,5.16-.909,3.48-1.849,7.08-2.6,9.98h-.021c-.729,2.82-1.28,4.96-1.44,5.69-.65,2.98-39.489,12.87-41.51,10.42-1.7-2.07,3.651-6.99,9.68-11.65,6.57-5.05,13.96-9.77,14.041-10.15.079-.34.62-4.89,1.209-9.81.2-1.72.411-3.48.6-5.13l.87-7.43S223.287,335.245,233.5,341.385Z" fill="#fff3e1"/>
                    <g id="Grupo_54023" data-name="Grupo 54023">
                      <path id="Trazado_101115" data-name="Trazado 101115" d="M230.057,354.395c-.19.74-.39,1.48-.58,2.22-.12.48-.25.95-.37,1.42-.149.56-.289,1.11-.43,1.65-.13.48-.25.95-.37,1.42-.3,1.15-.59,2.25-.849,3.27h-.021c-.729,2.82-1.28,4.96-1.44,5.69-.65,2.98-39.489,12.87-41.51,10.42-1.7-2.07,3.651-6.99,9.68-11.65,6.57-5.05,13.96-9.77,14.041-10.15.029-.14.149-1.03.31-2.39.05-.35.1-.74.139-1.15.1-.77.2-1.63.31-2.56.041-.35.09-.72.13-1.1.111-.84.21-1.72.32-2.61C212.948,351.1,219.717,354.2,230.057,354.395Z" fill="#ffde55"/>
                      <g id="Grupo_54022" data-name="Grupo 54022">
                        <path id="Trazado_101116" data-name="Trazado 101116" d="M229.477,356.615c-.12.48-.25.95-.37,1.42a42.056,42.056,0,0,1-11-1.68,34.979,34.979,0,0,1-9.14-3.77c.041-.35.09-.72.13-1.1C215.2,355.015,222.458,356.395,229.477,356.615Z" fill="#624970"/>
                        <path id="Trazado_101117" data-name="Trazado 101117" d="M228.677,359.685c-.13.48-.25.95-.37,1.42a42.424,42.424,0,0,1-11.729-1.69,38.626,38.626,0,0,1-8.06-3.12c.05-.35.1-.74.139-1.15C214.737,358.355,221.847,359.555,228.677,359.685Z" fill="#624970"/>
                      </g>
                    </g>
                    <g id="Grupo_54026" data-name="Grupo 54026">
                      <path id="Trazado_101118" data-name="Trazado 101118" d="M228.088,362.395c0,.14-.171,1.54-.421,3.3-.43,3.05-1.11,7.18-1.56,7.61-2.149,2.03-6.519,3.22-11.269,4.41-.541.14-1.091.27-1.651.4-11.65,2.72-26.26,3.82-29.25,2.9-1.289-.39-1.739-3.55,2.151-7.2,3.05-2.87,20.649-14.87,20.649-14.87a31.525,31.525,0,0,0,21.32,3.57A.537.537,0,0,1,228.088,362.395Z" fill="#ff7bdd"/>
                      <path id="Trazado_101119" data-name="Trazado 101119" d="M226.212,373.2c-13.215,6.842-27.876,7.549-42.53,7.358-1.32-.018-1.29,2.153-.048,2.26a104.1,104.1,0,0,0,23.31-.828,63.7,63.7,0,0,0,20.3-6.149C228.846,375.007,227.838,372.358,226.212,373.2Z" fill="#fff3e1"/>
                      <g id="Grupo_54025" data-name="Grupo 54025">
                        <path id="Trazado_101120" data-name="Trazado 101120" d="M202.094,368.19c-1.251-1.885-4.461-3.817-6.749-3.05a.8.8,0,0,0-.037,1.454,23.02,23.02,0,0,1,2.966,1.188c.93.553,1.673,1.376,2.638,1.862C201.818,370.1,202.6,368.956,202.094,368.19Z" fill="#fff3e1"/>
                        <path id="Trazado_101121" data-name="Trazado 101121" d="M204.334,366.5c-1.25-1.886-4.461-3.817-6.749-3.05a.8.8,0,0,0-.037,1.454,23.019,23.019,0,0,1,2.966,1.188c.93.553,1.674,1.375,2.638,1.861C204.058,368.412,204.842,367.268,204.334,366.5Z" fill="#fff3e1"/>
                        <path id="Trazado_101122" data-name="Trazado 101122" d="M206.575,364.814c-1.251-1.886-4.462-3.818-6.749-3.05a.8.8,0,0,0-.038,1.454,23.119,23.119,0,0,1,2.967,1.187c.929.554,1.673,1.376,2.637,1.862C206.3,366.723,207.083,365.579,206.575,364.814Z" fill="#fff3e1"/>
                      </g>
                      <path id="Trazado_101123" data-name="Trazado 101123" d="M227.667,366.045c-.43,3.05-1.11,7.18-1.56,7.61-2.149,2.03-6.519,3.22-11.269,4.41-.541.14-1.091.27-1.651.4C214.247,371.345,220.588,366.605,227.667,366.045Z" fill="#fff3e1"/>
                    </g>
                  </g>
                  <path id="Trazado_101124" data-name="Trazado 101124" d="M354.627,283.865c-12.02,22.97-32.989,20.31-61.52,16.86-1.67-.2-4.74-.8-8.38-1.47-.18-.03-.38-.07-.57-.11-.31-.05-.629-.11-.949-.17-8.661-1.56-19.63-3.26-22.57-1.16-2.05,1.46-8.19,17.47-13.911,31.12-.12.3-.24.59-.37.88-.1.25-.209.5-.32.75-3.959,9.39-7.63,17.3-9.449,17.96a15.357,15.357,0,0,1-5.161.71,53.3,53.3,0,0,1-21.409-5.49,12.771,12.771,0,0,1-4.221-3.15c-3.539-4.83,15.911-71.55,30.771-81.11,12.21-7.86,37.02-10.85,58.649-11.34,3.47-.07,4.121-4.77,5.45-6.1h46.58S364.967,264.075,354.627,283.865Z" fill="#907dff"/>
                  <path id="Trazado_101125" data-name="Trazado 101125" d="M304.528,389.225a12.936,12.936,0,0,1-3.291,2.43c-5.409,3.01-14.86,5.54-21.51,6.28-3.8.42-6.69.25-7.42-.75-1.77-2.44-18.8-34.06-25.719-66.3v-.02c-.091-.35-.161-.7-.231-1.05-.14-.64-.269-1.29-.39-1.93-.709-3.65-1.28-7.29-1.68-10.89a92.889,92.889,0,0,1-.48-15.45,22.014,22.014,0,0,1,3.641-11.38c5.39-7.84,15.789-9.68,24.989-4.17a31.957,31.957,0,0,1,11.72,13.15c.371.73.731,1.48,1.08,2.27.081.17.151.34.23.52C297.037,328.885,307.437,385.985,304.528,389.225Z" fill="#907dff"/>
                  <path id="Trazado_101126" data-name="Trazado 101126" d="M285.237,301.415c-.709-.78-1.38-1.6-2.029-2.44-3.56-4.54-6.831-9.72-12.07-11.9-7.541-3.13-16.651-1.88-22.471,4.03-6.2,6.27-5.18,15.09-3.639,23,1.06,5.44,1.949,9.7,1.7,14.83-.019.63-.07,1.27-.139,1.93-.091-.35-.161-.7-.231-1.05-.1.25-.209.5-.32.75.02-.88-.009-1.78-.07-2.68a85.762,85.762,0,0,0-1.68-10.89c-1.93-9.76-3.88-19.57,3.161-26.83a20.159,20.159,0,0,1,3.12-2.63,22.4,22.4,0,0,1,20.359-2.2,13.367,13.367,0,0,1,1.51.66c5.24,2.62,9.2,8.11,12.29,13.26-.18-.03-.38-.07-.57-.11C284.528,299.875,284.888,300.625,285.237,301.415Z" fill="#d3cbff"/>
                </g>
                <g id="Grupo_54058" data-name="Grupo 54058">
                  <g id="Grupo_54033" data-name="Grupo 54033">
                    <path id="Trazado_101127" data-name="Trazado 101127" d="M310.455,80.151c-5.627-2.077-11.653,4.244-12.4,7.864s2.487,10.081,7.953,12.775,13.246-.749,15.843-4,1.928-8.715-1.1-10.252c-2.72-1.382-3.74-.822-5.353-2S313.154,81.147,310.455,80.151Z" fill="#624970"/>
                    <path id="Trazado_101128" data-name="Trazado 101128" d="M341.529,150.4s-5.92,11.08-29.06,16.92c-16.72,4.22-28.14,1.89-32.74.49a20.449,20.449,0,0,1-2.21-.79l-.07-.03s3.99-6.04-1.46-14.41c-5.83-8.95.16-14.33.32-21.08a29.255,29.255,0,0,0-2.47-11.47c-8.52-14.01,11.37-24.47,16.57-25.91,7.81-2.16,16.42.07,20.56,1.73a18.47,18.47,0,0,1,6.45,4.21h.01c4.87,4.97,5.22,11.41,6.13,13.62,1.89,4.6,8.32,5.77,10.32,12.69s-.62,10.14.23,14.32S341.529,150.4,341.529,150.4Z" fill="#624970"/>
                  </g>
                  <g id="Grupo_54038" data-name="Grupo 54038">
                    <path id="Trazado_101129" data-name="Trazado 101129" d="M262.593,210.239c1.411.561,11.047-17.16,24.512-32.23,11.208-12.544,27.577-7.412,21.152,12.8s-44.192,48.153-51.275,48.153c-8.511,0-20.924-36.222-22.684-49.179-.562-4.139,9.7-11.352,12.42-7.583C250.575,187.543,260.155,209.27,262.593,210.239Z" fill="#fff3e1"/>
                    <path id="Trazado_101130" data-name="Trazado 101130" d="M299.494,162.564c-4.8,1.389-32.21,34.318-32.029,37.525s6.966,19.772,22.527,19.772c1.782,0,26.74-29.495,26.092-40.515S303.161,161.5,299.494,162.564Z" fill="#ffde55"/>
                    <g id="Grupo_54037" data-name="Grupo 54037">
                      <ellipse id="Elipse_4122" data-name="Elipse 4122" cx="6.129" cy="1.965" rx="6.129" ry="1.965" transform="translate(215.818 176.308)" fill="#fff3e1"/>
                      <path id="Trazado_101131" data-name="Trazado 101131" d="M234.3,189.787s-1-6.472-3.206-8.014-7.636-3.818-9.546-6.755,9.1-5.8,11.675-5.36,7.416,1.979,9.766,5.066c2.569,3.378,5.485,10.229,5.485,10.229S239.56,192.293,234.3,189.787Z" fill="#fff3e1"/>
                      <g id="Grupo_54036" data-name="Grupo 54036">
                        <path id="Trazado_101132" data-name="Trazado 101132" d="M241.9,180.9H223.133l-1-25.418H242.9Z" fill="#ffca28"/>
                        <path id="Trazado_101133" data-name="Trazado 101133" d="M241.9,180.9c0,1.229-4.2,2.224-9.382,2.224s-9.382-1-9.382-2.224,4.2-2.224,9.382-2.224S241.9,179.676,241.9,180.9Z" fill="#ffa726"/>
                        <ellipse id="Elipse_4123" data-name="Elipse 4123" cx="10.382" cy="2.461" rx="10.382" ry="2.461" transform="translate(222.133 153.025)" fill="#624970"/>
                        <path id="Trazado_101134" data-name="Trazado 101134" d="M242.9,164.859l-.244,6.229c0,1.328-4.54,2.4-10.134,2.4s-10.144-1.074-10.144-2.4l-.244-6.229c.283,1.309,4.823,2.334,10.388,2.334S242.614,166.168,242.9,164.859Z" fill="#624970"/>
                      </g>
                      <path id="Trazado_101135" data-name="Trazado 101135" d="M247.716,183.258c-.52-2.232.729-8.051,0-9.781s-6.548-6.4-8.907-6.344-9.713.566-9.706,2.957,8.775,1.709,9.424,2.81-2.445,5.242-.819,9.384S247.716,183.258,247.716,183.258Z" fill="#fff3e1"/>
                      <ellipse id="Elipse_4124" data-name="Elipse 4124" cx="6.129" cy="2.219" rx="6.129" ry="2.219" transform="translate(216.857 168.089)" fill="#fff3e1"/>
                      <path id="Trazado_101136" data-name="Trazado 101136" d="M229.729,166.822c-.105,1.221-2.924,1.976-6.3,1.687s-6.022-1.514-5.918-2.735,2.924-1.976,6.3-1.687S229.834,165.6,229.729,166.822Z" fill="#fff3e1"/>
                      <path id="Trazado_101137" data-name="Trazado 101137" d="M229.744,174.061c.06,1.224-2.632,2.351-6.013,2.516s-6.171-.692-6.231-1.917,2.633-2.35,6.014-2.515S229.684,172.837,229.744,174.061Z" fill="#fff3e1"/>
                    </g>
                  </g>
                  <g id="Grupo_54041" data-name="Grupo 54041">
                    <path id="Trazado_101138" data-name="Trazado 101138" d="M349.209,246.35s-.15.17-.43.46a38.509,38.509,0,0,1-6.73,5.35l-.01.01c-.89.56-1.85,1.12-2.89,1.65-.01.01-.01.01-.02.01a30.6,30.6,0,0,1-14.04,3.58,55.775,55.775,0,0,1-9.42-.83h-.02c-1.65-.29-3.21-.63-4.67-1.01a.014.014,0,0,1-.02,0,58.16,58.16,0,0,1-11.64-4.19c-.02-.04-.04-.08-.06-.13-.15-.35-.3-.72-.47-1.12-.45-1.11-.93-2.38-1.43-3.76-.14-.37-.27-.74-.41-1.12-.43-1.2-.87-2.46-1.31-3.76-.12-.37-.25-.75-.37-1.13-.42-1.24-.84-2.51-1.25-3.77-.12-.38-.25-.75-.36-1.13-.42-1.28-.83-2.55-1.21-3.78-.12-.38-.24-.76-.36-1.13-.42-1.34-.82-2.62-1.18-3.8-.12-.39-.23-.77-.35-1.14-.46-1.52-.85-2.83-1.14-3.81-.14-.45-.26-.83-.34-1.14-.17-.55-.26-.85-.26-.85a48.656,48.656,0,0,1-3.62-3.61c-.39-.43-.8-.89-1.2-1.37a.01.01,0,0,1-.01-.01,36.8,36.8,0,0,1-3.25-4.48c-.26-.42-.5-.85-.73-1.29a17.21,17.21,0,0,1-1.59-4.09,8.845,8.845,0,0,1-.18-1.13,8.009,8.009,0,0,1,.22-3.31c.02-.05.03-.11.05-.17.09-.3.2-.62.32-.97.31-.93.73-2.01,1.22-3.2.13-.31.26-.62.4-.95.42-1,.89-2.06,1.39-3.17.14-.31.29-.63.44-.95.47-1.03.97-2.09,1.49-3.17.15-.31.3-.63.45-.95.52-1.05,1.04-2.11,1.58-3.18.16-.33.32-.65.49-.97.54-1.08,1.09-2.15,1.65-3.2.16-.33.33-.65.5-.96.58-1.1,1.16-2.18,1.73-3.23.18-.32.35-.64.53-.96.63-1.14,1.24-2.23,1.83-3.25.19-.33.38-.65.56-.97.73-1.22,1.4-2.32,2.01-3.26.22-.35.44-.67.65-.97a12.311,12.311,0,0,1,1.66-2.09c.45-.4.89-.77,1.33-1.11.41-.33.81-.64,1.21-.93a26.486,26.486,0,0,1,5.67-3.13,26.1,26.1,0,0,1,2.59-.93,56.317,56.317,0,0,1,5.56-1.33c2.27-.47,4.84-.47,9.68.96.74.22,1.53.48,2.39.77,1.33.46,2.8,1,4.44,1.65a13.929,13.929,0,0,1,2.25,1.13,11.84,11.84,0,0,1,1.23.81,19.191,19.191,0,0,1,3.28,3.05c.26.28.5.57.73.87a27.316,27.316,0,0,1,2.17,3.18c.18.3.35.6.52.91.57,1.04,1.1,2.13,1.6,3.27.14.3.27.62.39.93.44,1.08.85,2.19,1.22,3.33.1.31.2.63.3.95.34,1.12.65,2.25.92,3.4.08.32.16.65.23.97.26,1.14.48,2.29.68,3.44.06.33.11.66.16.99.17,1.11.32,2.23.44,3.34.01.05.01.1.02.16.03.31.06.65.1,1,.1,1.04.2,2.23.29,3.54.03.33.06.66.08,1.01.08,1.12.16,2.31.24,3.56.02.33.04.67.07,1.01.07,1.14.14,2.34.21,3.56.01.33.03.67.05,1.01.07,1.16.13,2.36.19,3.57l.06,1.02c.06,1.18.12,2.37.17,3.57.02.34.04.68.05,1.02.06,1.19.11,2.38.17,3.57.01.34.03.68.04,1.02.06,1.2.11,2.39.16,3.57.02.34.03.68.05,1.02.05,1.22.1,2.41.14,3.58.02.35.03.69.05,1.02.05,1.23.1,2.43.14,3.58.01.34.03.68.04,1.02.05,1.26.1,2.45.14,3.58.01.35.02.69.04,1.02.04,1.31.09,2.51.12,3.58.02.36.03.7.04,1.02.06,1.65.1,2.89.12,3.59C349.2,246.12,349.209,246.35,349.209,246.35Z" fill="#ffde55"/>
                    <g id="Grupo_54040" data-name="Grupo 54040" opacity="0.5">
                      <path id="Trazado_101139" data-name="Trazado 101139" d="M325.839,158.25a124.856,124.856,0,0,1-13.35.72c-2.4,0-4.69-.07-6.87-.19a26.1,26.1,0,0,1,2.59-.93,122.466,122.466,0,0,0,15.24-.37C324.189,157.7,324.979,157.96,325.839,158.25Z" fill="#624970"/>
                      <path id="Trazado_101140" data-name="Trazado 101140" d="M333.759,161.84a129.529,129.529,0,0,1-21.27,1.78,119.444,119.444,0,0,1-13.75-.78c.41-.33.81-.64,1.21-.93a124.483,124.483,0,0,0,32.58-.88A11.84,11.84,0,0,1,333.759,161.84Z" fill="#624970"/>
                      <path id="Trazado_101141" data-name="Trazado 101141" d="M337.769,165.76a130.366,130.366,0,0,1-25.28,2.51,117.743,117.743,0,0,1-17.05-1.21c-.11-.02-.23-.03-.34-.05.22-.35.44-.67.65-.97a124.413,124.413,0,0,0,41.29-1.15C337.3,165.17,337.539,165.46,337.769,165.76Z" fill="#624970"/>
                      <path id="Trazado_101142" data-name="Trazado 101142" d="M340.459,169.85a131.225,131.225,0,0,1-27.97,3.07,117.743,117.743,0,0,1-17.05-1.21c-1-.15-1.97-.3-2.91-.47.19-.33.38-.65.56-.97a124.063,124.063,0,0,0,46.85-1.33C340.119,169.24,340.289,169.54,340.459,169.85Z" fill="#624970"/>
                      <path id="Trazado_101143" data-name="Trazado 101143" d="M342.449,174.05a131.289,131.289,0,0,1-29.96,3.52,117.743,117.743,0,0,1-17.05-1.21c-1.85-.27-3.61-.58-5.27-.91.18-.32.35-.64.53-.96a123.98,123.98,0,0,0,51.36-1.37C342.2,173.42,342.329,173.74,342.449,174.05Z" fill="#624970"/>
                      <path id="Trazado_101144" data-name="Trazado 101144" d="M343.969,178.33a131.7,131.7,0,0,1-31.48,3.89,117.74,117.74,0,0,1-17.05-1.21c-2.7-.4-5.21-.86-7.5-1.37.16-.33.33-.65.5-.96a123.483,123.483,0,0,0,55.23-1.3C343.769,177.69,343.869,178.01,343.969,178.33Z" fill="#624970"/>
                      <path id="Trazado_101145" data-name="Trazado 101145" d="M345.119,182.7a132.009,132.009,0,0,1-32.63,4.17,119.181,119.181,0,0,1-17.05-1.21c-3.57-.52-6.79-1.17-9.64-1.85.16-.33.32-.65.49-.97,12.85,3.03,33.46,5.3,58.6-1.11C344.969,182.05,345.049,182.38,345.119,182.7Z" fill="#624970"/>
                      <path id="Trazado_101146" data-name="Trazado 101146" d="M345.959,187.13a132.116,132.116,0,0,1-33.47,4.39,119.181,119.181,0,0,1-17.05-1.21,106.909,106.909,0,0,1-11.67-2.37c.15-.31.3-.63.45-.95,12.79,3.29,34.62,6.22,61.58-.85C345.859,186.47,345.909,186.8,345.959,187.13Z" fill="#624970"/>
                      <path id="Trazado_101147" data-name="Trazado 101147" d="M346.519,191.63a132.4,132.4,0,0,1-34.03,4.54,119.184,119.184,0,0,1-17.05-1.21,105.355,105.355,0,0,1-13.6-2.9c.14-.31.29-.63.44-.95,12.54,3.51,35.48,7.18,64.14-.48C346.449,190.94,346.479,191.28,346.519,191.63Z" fill="#624970"/>
                      <path id="Trazado_101148" data-name="Trazado 101148" d="M346.889,196.18a132.377,132.377,0,0,1-34.4,4.64,119.181,119.181,0,0,1-17.05-1.21,103.807,103.807,0,0,1-15.39-3.43c.13-.31.26-.62.4-.95,12.11,3.66,36.06,8.13,66.36-.06C346.839,195.5,346.869,195.83,346.889,196.18Z" fill="#624970"/>
                      <path id="Trazado_101149" data-name="Trazado 101149" d="M347.2,200.75a132.613,132.613,0,0,1-34.71,4.72,119.181,119.181,0,0,1-17.05-1.21,104.186,104.186,0,0,1-16.93-3.91c.09-.3.2-.62.32-.97,11.54,3.72,36.43,9.05,68.3.36C347.149,200.07,347.169,200.41,347.2,200.75Z" fill="#624970"/>
                      <path id="Trazado_101150" data-name="Trazado 101150" d="M347.459,205.32a132.158,132.158,0,0,1-34.97,4.8,119.181,119.181,0,0,1-17.05-1.21,102.974,102.974,0,0,1-17.02-3.95,8.845,8.845,0,0,1-.18-1.13c11.31,3.74,36.61,9.44,69.17.48C347.419,204.64,347.439,204.98,347.459,205.32Z" fill="#624970"/>
                      <path id="Trazado_101151" data-name="Trazado 101151" d="M347.709,209.91a132.687,132.687,0,0,1-35.22,4.86,119.181,119.181,0,0,1-17.05-1.21,104.677,104.677,0,0,1-14.7-3.22c-.26-.42-.5-.85-.73-1.29,12.07,3.71,36.57,8.45,67.64-.16Z" fill="#624970"/>
                      <path id="Trazado_101152" data-name="Trazado 101152" d="M347.929,214.5a132.608,132.608,0,0,1-35.44,4.92,119.184,119.184,0,0,1-17.05-1.21c-3.82-.56-7.25-1.27-10.24-2.01-.39-.43-.8-.89-1.2-1.37,13.08,3.4,35.81,6.48,63.88-1.35C347.9,213.82,347.919,214.16,347.929,214.5Z" fill="#624970"/>
                      <path id="Trazado_101153" data-name="Trazado 101153" d="M348.139,219.09a132.477,132.477,0,0,1-35.65,4.98,119.181,119.181,0,0,1-17.05-1.21c-2.13-.31-4.14-.67-6.02-1.06-.14-.45-.26-.83-.34-1.14,13.53,2.81,34.19,4.37,59.02-2.59C348.109,218.41,348.129,218.75,348.139,219.09Z" fill="#624970"/>
                      <path id="Trazado_101154" data-name="Trazado 101154" d="M348.349,223.68a132.754,132.754,0,0,1-35.86,5.04,119.181,119.181,0,0,1-17.05-1.21c-1.58-.23-3.09-.49-4.53-.76-.12-.39-.23-.77-.35-1.14,13.58,2.62,33.72,3.83,57.74-2.95C348.319,223,348.329,223.34,348.349,223.68Z" fill="#624970"/>
                      <path id="Trazado_101155" data-name="Trazado 101155" d="M348.539,228.28a132.853,132.853,0,0,1-36.05,5.09,119.181,119.181,0,0,1-17.05-1.21c-1.03-.15-2.02-.31-2.99-.48-.12-.38-.24-.76-.36-1.13a125.652,125.652,0,0,0,56.4-3.29C348.509,227.61,348.519,227.95,348.539,228.28Z" fill="#624970"/>
                      <path id="Trazado_101156" data-name="Trazado 101156" d="M348.719,232.88a132.891,132.891,0,0,1-36.23,5.14,119.181,119.181,0,0,1-17.05-1.21c-.48-.07-.95-.14-1.42-.22-.12-.38-.25-.75-.36-1.13a126.119,126.119,0,0,0,55.02-3.6C348.689,232.2,348.709,232.54,348.719,232.88Z" fill="#624970"/>
                      <path id="Trazado_101157" data-name="Trazado 101157" d="M348.9,237.48a132.886,132.886,0,0,1-36.41,5.19,120.1,120.1,0,0,1-16.85-1.18c-.12-.37-.25-.75-.37-1.13a126.617,126.617,0,0,0,53.59-3.9C348.869,236.81,348.879,237.15,348.9,237.48Z" fill="#624970"/>
                      <path id="Trazado_101158" data-name="Trazado 101158" d="M349.059,242.08a132.758,132.758,0,0,1-36.57,5.24,119.16,119.16,0,0,1-15.13-.95c-.14-.37-.27-.74-.41-1.12a126.971,126.971,0,0,0,52.07-4.19C349.039,241.42,349.049,241.76,349.059,242.08Z" fill="#624970"/>
                      <path id="Trazado_101159" data-name="Trazado 101159" d="M349.209,246.35s-.15.17-.43.46a132.614,132.614,0,0,1-36.29,5.16,121.275,121.275,0,0,1-13.23-.72c-.15-.35-.3-.72-.47-1.12a127.734,127.734,0,0,0,50.39-4.46C349.2,246.12,349.209,246.35,349.209,246.35Z" fill="#624970"/>
                      <path id="Trazado_101160" data-name="Trazado 101160" d="M342.039,252.17c-.89.56-1.85,1.12-2.89,1.65-.01.01-.01.01-.02.01a131.271,131.271,0,0,1-23.46,2.75h-.02c-1.65-.29-3.21-.63-4.67-1.01A128.452,128.452,0,0,0,342.039,252.17Z" fill="#624970"/>
                    </g>
                  </g>
                  <g id="Grupo_54049" data-name="Grupo 54049">
                    <path id="Trazado_101161" data-name="Trazado 101161" d="M328,159.02c-2.89,6.91-16.3,26.94-26.12,25.61s-4.47-20.68-4.47-20.68,4.1-3.47,4.29-4.53a.277.277,0,0,0,.01-.09c.28-1.81-.38-8.52-.38-8.52l-.01.01c-.45.18-11.96,4.77-18.53-1-7.85-6.89-3.49-17.39-5.48-23.43s-3.35-17.82,2.88-23.97c12.77-12.62,31.27-5.89,35.78,3.73,3.78,8.07.75,20.57.41,27.49s1.12,17.51,2.78,20.15S328,159.02,328,159.02Z" fill="#fff3e1"/>
                    <path id="Trazado_101162" data-name="Trazado 101162" d="M285.62,105.846s1.481,8.823,12.608,12.759c9.672,3.42,10.078,4.269,11.1,6.631s1.293,5.06,2.639,4.489.48-4.532.912-4.986,1.213,8.181,3.369,9.552,4.449-22.217.969-29-16.451-13.523-28.591-9.114-15.01,15.353-13.5,24.1C275.919,124.849,284.422,113.35,285.62,105.846Z" fill="#624970"/>
                    <g id="Grupo_54045" data-name="Grupo 54045">
                      <ellipse id="Elipse_4125" data-name="Elipse 4125" cx="1.53" cy="2.158" rx="1.53" ry="2.158" transform="translate(279.154 127.321) rotate(-5.609)" fill="#624970"/>
                      <path id="Trazado_101163" data-name="Trazado 101163" d="M297.289,127.745c.116,1.186-.471,2.215-1.313,2.3s-1.617-.813-1.734-2,.471-2.215,1.313-2.3S297.172,126.559,297.289,127.745Z" fill="#624970"/>
                      <path id="Trazado_101164" data-name="Trazado 101164" d="M285.994,125.6c-.716.005-1.062,5.373-.883,5.935.381,1.2,2.1.209,2.213-.218S286.557,125.6,285.994,125.6Z" fill="#ffe1bd"/>
                      <path id="Trazado_101165" data-name="Trazado 101165" d="M295.278,134.476c-1.029,1.643-2.527,2.934-4.605,2.266-.117-.038-.253.121-.127.2a3.661,3.661,0,0,0,5.349-2.185A.34.34,0,0,0,295.278,134.476Z" fill="#624970"/>
                      <g id="Grupo_54043" data-name="Grupo 54043">
                        <path id="Trazado_101166" data-name="Trazado 101166" d="M298.478,130.683c-.2-.118-.428.173-.283.344.29.341.585.888,1.061.938a.3.3,0,0,0,.328-.4C299.455,131.11,298.858,130.908,298.478,130.683Z" fill="#ffe1bd"/>
                        <path id="Trazado_101167" data-name="Trazado 101167" d="M300.8,130.371a4.3,4.3,0,0,0-1.495-.479.2.2,0,0,0-.16.35,4.29,4.29,0,0,0,1.375.74A.336.336,0,0,0,300.8,130.371Z" fill="#ffe1bd"/>
                        <path id="Trazado_101168" data-name="Trazado 101168" d="M300.747,128.8a2.958,2.958,0,0,0-1.241.232.2.2,0,0,0,.037.374,2.966,2.966,0,0,0,1.262-.014A.311.311,0,0,0,300.747,128.8Z" fill="#ffe1bd"/>
                      </g>
                      <g id="Grupo_54044" data-name="Grupo 54044">
                        <path id="Trazado_101169" data-name="Trazado 101169" d="M280.5,132.448c.171-.154.454.087.345.282-.218.391-.4.985-.859,1.127a.3.3,0,0,1-.4-.328C279.629,133.057,280.175,132.743,280.5,132.448Z" fill="#ffe1bd"/>
                        <path id="Trazado_101170" data-name="Trazado 101170" d="M278.16,132.6a4.3,4.3,0,0,1,1.374-.761.2.2,0,0,1,.225.312,4.283,4.283,0,0,1-1.2.993A.336.336,0,0,1,278.16,132.6Z" fill="#ffe1bd"/>
                        <path id="Trazado_101171" data-name="Trazado 101171" d="M277.912,131.038a2.966,2.966,0,0,1,1.262-.014.2.2,0,0,1,.037.375,2.992,2.992,0,0,1-1.241.232A.311.311,0,0,1,277.912,131.038Z" fill="#ffe1bd"/>
                      </g>
                      <path id="Trazado_101172" data-name="Trazado 101172" d="M281.594,123.085a2.369,2.369,0,0,0-2.63.059,3.364,3.364,0,0,0-1.317,2.121c-.044.178.182.273.312.186a7.409,7.409,0,0,1,1.642-.972c.615-.22,1.237-.071,1.834-.276A.661.661,0,0,0,281.594,123.085Z" fill="#624970"/>
                      <path id="Trazado_101173" data-name="Trazado 101173" d="M293.587,121.907a2.368,2.368,0,0,1,2.591-.453,3.372,3.372,0,0,1,1.7,1.824c.077.166-.126.3-.27.243a7.47,7.47,0,0,0-1.8-.634c-.646-.1-1.227.171-1.853.086A.662.662,0,0,1,293.587,121.907Z" fill="#624970"/>
                    </g>
                    <g id="Grupo_54048" data-name="Grupo 54048">
                      <path id="Trazado_101174" data-name="Trazado 101174" d="M312.88,124.739s4.374-5.035,8.75-3.359,3.815,11.954-2.278,12.987a5.791,5.791,0,0,1-5.717-1.939Z" fill="#fff3e1"/>
                      <path id="Trazado_101175" data-name="Trazado 101175" d="M321.323,128.834a4.262,4.262,0,0,0-4.384,1.306,10.473,10.473,0,0,1,2.642-5.876.235.235,0,0,0-.284-.368,6.956,6.956,0,0,0-3.008,7.675c0,.015.018.018.024.031.046.188.258.333.421.149a7.591,7.591,0,0,1,1.677-1.759,5.349,5.349,0,0,1,2.831-.559A.306.306,0,0,0,321.323,128.834Z" fill="#ffe1bd"/>
                    </g>
                  </g>
                  <g id="Grupo_54057" data-name="Grupo 54057">
                    <g id="Grupo_54054" data-name="Grupo 54054">
                      <path id="Trazado_101176" data-name="Trazado 101176" d="M247.329,230.337c-4.632.865-11.572-4.017-13.132-2.2s2.188,6.193,9.236,7.745Z" fill="#fff3e1"/>
                      <path id="Trazado_101177" data-name="Trazado 101177" d="M309.753,226.855c1.518-.058,6.589-23.51,12.533-39.246s29.978-8.794,25.162,11.864-18.779,49.269-21.472,49.961c-8.243,2.117-62.781-2.565-66.52-4.425s-2.977-12.7,1.387-14.3S300.978,227.187,309.753,226.855Z" fill="#fff3e1"/>
                      <g id="Grupo_54053" data-name="Grupo 54053">
                        <g id="Grupo_54052" data-name="Grupo 54052">
                          <g id="Grupo_54051" data-name="Grupo 54051">
                            <g id="Grupo_54050" data-name="Grupo 54050">
                              <path id="Trazado_101178" data-name="Trazado 101178" d="M235.868,223.864" fill="none" stroke="#fff3e1" stroke-miterlimit="10" stroke-width="1"/>
                            </g>
                          </g>
                        </g>
                      </g>
                      <path id="Trazado_101179" data-name="Trazado 101179" d="M264.277,246.119c-10.306.886-15.5-2.037-15.5-2.037s-4.874.408-5.937,1.394c-5.456,5.075-10.585,7.213-11.515,6.419s1.883-4,1.883-4c-2.676,1.47-6.883,2.8-7.185,1.529-.286-1.225,4.2-4.9,4.544-5.193-.393.138-5.142,1.819-5.254.4-.039-.495,1.816-2.281,4.448-4.448-1.736-.03-2.383-.691-1.259-1.505,1.427-1.039,13.338-7.857,15.993-8.387l.035,0a5.594,5.594,0,0,1,1.032-.319c4.31-.779,13.245.31,16.947.256C262.511,230.23,271.275,245.517,264.277,246.119Z" fill="#fff3e1"/>
                    </g>
                    <path id="Trazado_101180" data-name="Trazado 101180" d="M330.574,160.011c4.264.871,18.942,9.086,22.847,17.166s-5.117,44.977-6.329,45.785S321.9,228.848,311,213C309.521,210.842,330.574,160.011,330.574,160.011Z" fill="#ffde55"/>
                  </g>
                </g>
              </g>
            </g>
            <g id="Grupo_54062" data-name="Grupo 54062">
              <path id="Trazado_101181" data-name="Trazado 101181" d="M269.177,250.753H132.706l-1.9-5.825,138.37,2Z" fill="#db8a14"/>
              <path id="Trazado_101182" data-name="Trazado 101182" d="M220.147,250.753H132.706l-20-61.624h87.441Z" fill="#ffa726"/>
              <path id="Trazado_101183" data-name="Trazado 101183" d="M132.71,250.75l-1.9-5.82h.01Z" opacity="0.6" fill="url(#linear-gradient)" style="mix-blend-mode: multiply;isolation: isolate"/>
              <ellipse id="Elipse_4126" data-name="Elipse 4126" cx="7.083" cy="7.881" rx="7.083" ry="7.881" transform="translate(153.951 214.613) rotate(-30.002)" fill="#4dd0e1"/>
            </g>
          </g>
          <g id="Grupo_54064" data-name="Grupo 54064">
            <rect id="Rectángulo_5345" data-name="Rectángulo 5345" width="331.524" height="7.944" transform="translate(84.238 250.753)" fill="#624970"/>
            <path id="Trazado_101184" data-name="Trazado 101184" d="M112.681,258.7l-18,183.974H89.736l12-183.974Z" fill="#624970"/>
            <path id="Trazado_101185" data-name="Trazado 101185" d="M131.378,258.7,115.294,423.078h-4.418L121.6,258.7Z" fill="#624970"/>
            <path id="Trazado_101186" data-name="Trazado 101186" d="M368.622,258.7l16.084,164.381h4.418L378.4,258.7Z" fill="#624970"/>
            <path id="Trazado_101187" data-name="Trazado 101187" d="M387.319,258.7l18,183.974h4.944l-12-183.974Z" fill="#624970"/>
          </g>
        </g>
      </g>
    </g>
  </g>
</svg>
