<svg xmlns="http://www.w3.org/2000/svg" width="85" height="83.098" viewBox="0 0 85 83.098">
  <g id="javascript_1_" data-name="javascript (1)" transform="translate(-7.82 -10.509)">
    <rect id="Rect치ngulo_5306" data-name="Rect치ngulo 5306" width="78.983" height="67.662" rx="15.327" transform="translate(10.828 11.04)" fill="#cecece"/>
    <path id="Trazado_100880" data-name="Trazado 100880" d="M19.863,74.252V17.43a5.42,5.42,0,0,1,5.421-5.42H21.748a5.42,5.42,0,0,0-5.421,5.421V74.252a5.42,5.42,0,0,0,5.42,5.42h3.536A5.42,5.42,0,0,1,19.863,74.252Z" transform="translate(-5.499 -0.97)" fill="#afafaf"/>
    <path id="Trazado_100881" data-name="Trazado 100881" d="M219.766,74.252V17.43a5.42,5.42,0,0,0-5.421-5.42h3.536a5.42,5.42,0,0,1,5.42,5.42V74.252a5.42,5.42,0,0,1-5.42,5.42h-3.536a5.42,5.42,0,0,0,5.421-5.421Z" transform="translate(-133.49 -0.97)" fill="#e2e2e2"/>
    <path id="Trazado_100882" data-name="Trazado 100882" d="M95.31,17.43a5.42,5.42,0,0,0-5.42-5.42H21.748a5.42,5.42,0,0,0-5.421,5.421v9.432H95.31Z" transform="translate(-5.499 -0.97)" fill="#f8af23"/>
    <path id="Trazado_100883" data-name="Trazado 100883" d="M25.284,12.009H21.748a5.42,5.42,0,0,0-5.421,5.421v9.432h3.536V17.43a5.42,5.42,0,0,1,5.421-5.421Z" transform="translate(-5.499 -0.97)" fill="#f87023"/>
    <path id="Trazado_100884" data-name="Trazado 100884" d="M214.344,12.009h3.536a5.42,5.42,0,0,1,5.42,5.42v9.433h-3.536V17.43a5.42,5.42,0,0,0-5.421-5.421Z" transform="translate(-133.49 -0.97)" fill="#f8d323"/>
    <circle id="Elipse_4118" data-name="Elipse 4118" cx="2.475" cy="2.475" r="2.475" transform="translate(18.029 15.99)" fill="#f46275"/>
    <circle id="Elipse_4119" data-name="Elipse 4119" cx="2.475" cy="2.475" r="2.475" transform="translate(27.563 15.99)" fill="#f46275"/>
    <circle id="Elipse_4120" data-name="Elipse 4120" cx="2.475" cy="2.475" r="2.475" transform="translate(37.098 15.99)" fill="#f46275"/>
    <rect id="Rect치ngulo_5307" data-name="Rect치ngulo 5307" width="35.095" height="3.772" rx="1.886" transform="translate(47.517 16.742)" fill="#f46275"/>
    <path id="Trazado_100885" data-name="Trazado 100885" d="M110.192,76.016l-9.664-9.664H67.164V125.29h43.028Z" transform="translate(-38.358 -36.094)" fill="#63bce7"/>
    <path id="Trazado_100886" data-name="Trazado 100886" d="M155.043,66.351h-3.536l9.665,9.664V125.29h3.536V76.016Z" transform="translate(-92.874 -36.094)" fill="#63e2e7"/>
    <path id="Trazado_100887" data-name="Trazado 100887" d="M67.164,66.351H70.7V125.29H67.164Z" transform="translate(-38.358 -36.094)" fill="#6377e7"/>
    <path id="Trazado_100888" data-name="Trazado 100888" d="M67.164,184h43.028v17.335H67.164Z" transform="translate(-38.358 -112.138)" fill="#9e9e9e"/>
    <path id="Trazado_100889" data-name="Trazado 100889" d="M67.164,184H70.7v17.335H67.164Z" transform="translate(-38.358 -112.138)" fill="#707070"/>
    <path id="Trazado_100890" data-name="Trazado 100890" d="M178.836,184h3.536v17.335h-3.536Z" transform="translate(-110.539 -112.138)" fill="#cecece"/>
    <circle id="Elipse_4121" data-name="Elipse 4121" cx="0.906" cy="0.906" r="0.906" transform="translate(49.385 48.076)" fill="#3f3679"/>
    <path id="Trazado_100891" data-name="Trazado 100891" d="M108.333,190.818a.454.454,0,0,1,.454.454v8.141a4.1,4.1,0,0,1-1.076,3.043,4.047,4.047,0,0,1-2.98,1.068,4.517,4.517,0,0,1-3.274-1.167,4.2,4.2,0,0,1-1.194-2.864.458.458,0,0,1,.454-.488h2.108a.457.457,0,0,1,.451.414q.146,1.347,1.314,1.347t1.157-1.353v-8.142a.454.454,0,0,1,.454-.454Z" transform="translate(-59.751 -116.545)" fill="#f8af23"/>
    <path id="Trazado_100892" data-name="Trazado 100892" d="M137.906,201.335a3.575,3.575,0,0,1-1.495,1.335,5.265,5.265,0,0,1-2.393.5,5.636,5.636,0,0,1-3.488-1.032,3.64,3.64,0,0,1-1.432-2.356.453.453,0,0,1,.449-.527H131.9a.453.453,0,0,1,.437.344,1.581,1.581,0,0,0,.447.778,1.56,1.56,0,0,0,1.112.41,1.292,1.292,0,0,0,.925-.32,1.122,1.122,0,0,0,.338-.854,1.1,1.1,0,0,0-.312-.8,2.44,2.44,0,0,0-.774-.525q-.463-.2-1.281-.489a15.62,15.62,0,0,1-1.949-.792,3.584,3.584,0,0,1-1.3-1.139,3.708,3.708,0,0,1,.027-3.906,3.62,3.62,0,0,1,1.575-1.255,5.743,5.743,0,0,1,2.3-.436,5.167,5.167,0,0,1,3.337,1,3.684,3.684,0,0,1,1.317,2.2.456.456,0,0,1-.448.543h-2.4a.458.458,0,0,1-.435-.332,1.545,1.545,0,0,0-.381-.656,1.336,1.336,0,0,0-.988-.365,1.273,1.273,0,0,0-.863.285,1.045,1.045,0,0,0-.329.836,1.061,1.061,0,0,0,.294.756,2.236,2.236,0,0,0,.738.507q.445.2,1.281.5a14.11,14.11,0,0,1,1.975.81,3.784,3.784,0,0,1,1.317,1.167,3.332,3.332,0,0,1,.552,1.993,3.469,3.469,0,0,1-.507,1.831Z" transform="translate(-78.326 -116.189)" fill="#f8af23"/>
    <g id="Grupo_53942" data-name="Grupo 53942" transform="translate(7.82 10.509)">
      <path id="Trazado_100893" data-name="Trazado 100893" d="M38.193,24.509A3.006,3.006,0,1,0,41.2,27.515,3.006,3.006,0,0,0,38.193,24.509Zm0,4.951a1.945,1.945,0,1,1,1.945-1.945,1.945,1.945,0,0,1-1.945,1.945Z" transform="translate(-25.509 -19.558)" fill="#3f3679"/>
      <path id="Trazado_100894" data-name="Trazado 100894" d="M65.156,24.509a3.006,3.006,0,1,0,3.006,3.006,3.006,3.006,0,0,0-3.006-3.006Zm0,4.951A1.945,1.945,0,1,1,67.1,27.515a1.945,1.945,0,0,1-1.945,1.945Z" transform="translate(-42.937 -19.558)" fill="#3f3679"/>
      <path id="Trazado_100895" data-name="Trazado 100895" d="M92.118,24.509a3.006,3.006,0,1,0,3.006,3.006A3.006,3.006,0,0,0,92.118,24.509Zm0,4.951a1.945,1.945,0,1,1,1.945-1.945,1.945,1.945,0,0,1-1.945,1.945Z" transform="translate(-60.364 -19.558)" fill="#3f3679"/>
      <path id="Trazado_100896" data-name="Trazado 100896" d="M152.312,26.634H120.989a2.417,2.417,0,0,0,0,4.833h31.323a2.417,2.417,0,1,0,0-4.833Zm0,3.772H120.989a1.356,1.356,0,0,1,0-2.711h31.323a1.356,1.356,0,1,1,0,2.711Z" transform="translate(-79.407 -20.932)" fill="#3f3679"/>
      <path id="Trazado_100897" data-name="Trazado 100897" d="M14.719,242.491H8.353a.53.53,0,0,0,0,1.061h6.365a.53.53,0,0,0,0-1.061Z" transform="translate(-7.822 -160.454)" fill="#3f3679"/>
      <path id="Trazado_100898" data-name="Trazado 100898" d="M234.076,242.491H227.71a.53.53,0,1,0,0,1.061h6.365a.53.53,0,1,0,0-1.061Z" transform="translate(-149.607 -160.454)" fill="#3f3679"/>
      <path id="Trazado_100899" data-name="Trazado 100899" d="M100.545,242.491H36.551a.53.53,0,0,0,0,1.061h63.993a.53.53,0,0,0,0-1.061Z" transform="translate(-26.048 -160.454)" fill="#3f3679"/>
      <path id="Trazado_100900" data-name="Trazado 100900" d="M8.35,89.727H92.289a.53.53,0,0,0,0-1.061H72.364V79.232H84.391a5.957,5.957,0,0,0,5.951-5.951V16.46a5.958,5.958,0,0,0-5.951-5.951H16.249A5.958,5.958,0,0,0,10.3,16.46V73.282a5.957,5.957,0,0,0,5.951,5.951H28.276v9.433H8.35a.53.53,0,0,0,0,1.061ZM62.7,31.537l7.854,7.854H62.7Zm-.53,8.914H71.3V71.331H29.337V30.787h32.3v9.134a.53.53,0,0,0,.53.53ZM11.359,16.46a4.9,4.9,0,0,1,4.89-4.89H84.391a4.9,4.9,0,0,1,4.89,4.89v8.9H11.359Zm4.89,61.712a4.9,4.9,0,0,1-4.89-4.89V26.423H89.281V73.282a4.9,4.9,0,0,1-4.89,4.89H72.364V39.922a.53.53,0,0,0-.155-.375l-9.665-9.665a.53.53,0,0,0-.375-.155H28.806a.53.53,0,0,0-.53.53V78.171Zm13.088-5.779H71.3V88.666H29.337Z" transform="translate(-7.82 -10.509)" fill="#3f3679"/>
      <path id="Trazado_100901" data-name="Trazado 100901" d="M88.228,111.914c0-.683.389-1.159.736-1.159h1.267a.53.53,0,1,0,0-1.061H88.964a2.045,2.045,0,0,0-1.8,2.219v3.744c0,.617-.364,1.159-.778,1.159H85.08a.53.53,0,1,0,0,1.061h1.308c.414,0,.778.541.778,1.159v3.745a2.045,2.045,0,0,0,1.8,2.219h1.267a.53.53,0,1,0,0-1.061H88.964c-.348,0-.736-.476-.736-1.159v-3.745a2.422,2.422,0,0,0-.649-1.689,2.422,2.422,0,0,0,.649-1.689Z" transform="translate(-57.416 -74.619)" fill="#3f3679"/>
      <path id="Trazado_100902" data-name="Trazado 100902" d="M154.416,109.695a.53.53,0,0,0,0,1.061h1.267c.348,0,.736.476.736,1.159v3.744a2.422,2.422,0,0,0,.649,1.689,2.422,2.422,0,0,0-.649,1.689v3.745c0,.683-.389,1.159-.736,1.159h-1.267a.53.53,0,1,0,0,1.061h1.267a2.045,2.045,0,0,0,1.8-2.219v-3.745c0-.617.364-1.159.778-1.159h1.308a.53.53,0,0,0,0-1.061h-1.308c-.414,0-.778-.541-.778-1.159v-3.744a2.045,2.045,0,0,0-1.8-2.219Z" transform="translate(-102.232 -74.619)" fill="#3f3679"/>
      <path id="Trazado_100903" data-name="Trazado 100903" d="M126.948,125.76a.53.53,0,0,0-.53.53v6.6a.53.53,0,1,0,1.061,0v-6.6A.53.53,0,0,0,126.948,125.76Z" transform="translate(-84.478 -85.003)" fill="#3f3679"/>
      <path id="Trazado_100904" data-name="Trazado 100904" d="M107.362,189.321h-2.136a.985.985,0,0,0-.984.984v8.141c0,.759-.3.822-.626.822s-.7-.068-.786-.875a.987.987,0,0,0-.978-.887H99.745a.988.988,0,0,0-.984,1.054,4.732,4.732,0,0,0,1.355,3.212,5.049,5.049,0,0,0,3.642,1.314,4.573,4.573,0,0,0,3.354-1.221,4.623,4.623,0,0,0,1.233-3.42V190.3A.985.985,0,0,0,107.362,189.321Zm-.077,9.126a3.568,3.568,0,0,1-.919,2.666,3.51,3.51,0,0,1-2.607.914,3.98,3.98,0,0,1-2.906-1.017,3.624,3.624,0,0,1-1.026-2.44h1.957a1.756,1.756,0,0,0,1.834,1.762c1.072,0,1.687-.686,1.687-1.883v-8.066h1.98Z" transform="translate(-66.6 -126.087)" fill="#3f3679"/>
      <path id="Trazado_100905" data-name="Trazado 100905" d="M135.821,194.906a14.605,14.605,0,0,0-2.041-.838c-.545-.2-.965-.36-1.248-.485a1.718,1.718,0,0,1-.566-.386.531.531,0,0,1-.149-.392c0-.309.11-.4.145-.435a.76.76,0,0,1,.516-.156.824.824,0,0,1,.612.209,1.014,1.014,0,0,1,.248.435.984.984,0,0,0,.942.707h2.4a.986.986,0,0,0,.969-1.179,4.217,4.217,0,0,0-1.5-2.5,5.7,5.7,0,0,0-3.669-1.114,6.3,6.3,0,0,0-2.515.48,4.158,4.158,0,0,0-1.8,1.438,4.232,4.232,0,0,0-.022,4.518,4.124,4.124,0,0,0,1.49,1.3,16.207,16.207,0,0,0,2.014.82c.53.185.948.344,1.241.474a1.929,1.929,0,0,1,.608.41.572.572,0,0,1,.161.431.588.588,0,0,1-.172.469.783.783,0,0,1-.561.177,1.041,1.041,0,0,1-.749-.266,1.054,1.054,0,0,1-.3-.523.985.985,0,0,0-.951-.743h-2.349a.986.986,0,0,0-.758.354.972.972,0,0,0-.214.8,4.173,4.173,0,0,0,1.635,2.688,6.177,6.177,0,0,0,3.807,1.139,5.809,5.809,0,0,0,2.632-.555,4.114,4.114,0,0,0,1.709-1.533,4.009,4.009,0,0,0,.584-2.108,3.86,3.86,0,0,0-.652-2.3,4.322,4.322,0,0,0-1.5-1.327Zm.662,5.186a3.028,3.028,0,0,1-1.28,1.136,4.772,4.772,0,0,1-2.154.441,5.148,5.148,0,0,1-3.169-.925,3.087,3.087,0,0,1-1.21-1.929h2.2a2.054,2.054,0,0,0,2.058,1.531,1.808,1.808,0,0,0,1.29-.466,1.659,1.659,0,0,0,.5-1.238,1.642,1.642,0,0,0-.46-1.17,2.979,2.979,0,0,0-.94-.641c-.324-.141-.756-.308-1.324-.506a15.206,15.206,0,0,1-1.881-.763,3.08,3.08,0,0,1-1.108-.975,2.8,2.8,0,0,1-.443-1.657,2.769,2.769,0,0,1,.475-1.637,3.074,3.074,0,0,1,1.351-1.071,5.247,5.247,0,0,1,2.093-.392,4.681,4.681,0,0,1,3,.879,3.122,3.122,0,0,1,1.11,1.8h-2.251a2.064,2.064,0,0,0-.5-.832,1.851,1.851,0,0,0-1.363-.52,1.792,1.792,0,0,0-1.21.414,1.559,1.559,0,0,0-.513,1.238,1.6,1.6,0,0,0,.438,1.12,2.769,2.769,0,0,0,.91.629c.309.136.739.3,1.325.516a13.647,13.647,0,0,1,1.9.778,3.272,3.272,0,0,1,1.132,1.006,2.835,2.835,0,0,1,.452,1.683,2.921,2.921,0,0,1-.432,1.556Z" transform="translate(-85.177 -125.73)" fill="#3f3679"/>
    </g>
  </g>
</svg>
