<svg xmlns="http://www.w3.org/2000/svg" width="89.143" height="103.448" viewBox="0 0 89.143 103.448">
  <g id="protection" transform="translate(-0.501 -0.002)">
    <path id="Trazado_100802" data-name="Trazado 100802" d="M119.249,10.008,93.16,15.824V34.985a39.633,39.633,0,0,0,26.089,37.247,39.632,39.632,0,0,0,26.09-37.247V15.824Zm0,0" transform="translate(-73.938 -7.984)" fill="#fcdd6d"/>
    <path id="Trazado_100803" data-name="Trazado 100803" d="M130.168,52.075l18.612-4.149,18.611,4.149V65.242A32.163,32.163,0,0,1,148.78,94.408a32.161,32.161,0,0,1-18.612-29.166Zm0,0" transform="translate(-103.468 -38.241)" fill="#e1f4fd"/>
    <path id="Trazado_100804" data-name="Trazado 100804" d="M45.554,264.873V250.862a14.214,14.214,0,0,0-2.9-8.606l-8.157-10.72a4.464,4.464,0,1,0-7.093,5.422l3.412,4.444-7.661-9.979a5.966,5.966,0,0,1-1.235-3.635V209.561a4.733,4.733,0,0,0-9.445-.447l-2.163,22.807a5.969,5.969,0,0,0,1.185,4.168L29.085,259v5.877Zm0,0" transform="translate(-7.805 -163.441)" fill="#e8c499"/>
    <path id="Trazado_100805" data-name="Trazado 100805" d="M273.379,264.873V259L290.97,236.09a5.97,5.97,0,0,0,1.185-4.168l-2.163-22.807a4.733,4.733,0,0,0-9.445.447v18.228a5.971,5.971,0,0,1-1.234,3.635l-7.662,9.979,3.413-4.444a4.464,4.464,0,1,0-7.094-5.422l-8.157,10.72a14.213,14.213,0,0,0-2.9,8.606v14.011Zm0,0" transform="translate(-204.602 -163.442)" fill="#e8c499"/>
    <path id="Trazado_100806" data-name="Trazado 100806" d="M132.061,50.9A41.452,41.452,0,0,0,139.6,27V7.838a2.021,2.021,0,0,0-1.581-1.972L111.928.05a2.039,2.039,0,0,0-.879,0L84.96,5.866a2.021,2.021,0,0,0-1.581,1.972V27A41.655,41.655,0,0,0,110.8,66.146a2.02,2.02,0,0,0,1.38,0A41.453,41.453,0,0,0,132.062,50.9ZM111.488,62.089A37.615,37.615,0,0,1,87.42,27V9.458l24.068-5.365,24.069,5.365V27a37.614,37.614,0,0,1-24.069,35.089Zm0,0" transform="translate(-66.133)"/>
    <path id="Trazado_100807" data-name="Trazado 100807" d="M161.65,44.088a2.02,2.02,0,0,0-1.581-1.972l-18.611-4.149a2.043,2.043,0,0,0-.88,0l-18.611,4.149a2.02,2.02,0,0,0,.879,3.944l18.172-4.05,16.591,3.7V57.255a30.144,30.144,0,0,1-16.591,26.923,30.152,30.152,0,0,1-16.5-24.524c-.036-.445-.061-.9-.076-1.339a2.02,2.02,0,1,0-4.039.139c.017.5.046,1.013.085,1.517A34.189,34.189,0,0,0,140.17,88.255a2.019,2.019,0,0,0,1.7,0,34.183,34.183,0,0,0,19.783-31V44.088Zm0,0" transform="translate(-95.663 -30.256)"/>
    <path id="Trazado_100808" data-name="Trazado 100808" d="M172.033,120.061a2.018,2.018,0,0,0,1.408.711q.067,0,.135,0a2.02,2.02,0,0,0,1.355-.522L189.579,107a2.021,2.021,0,0,0-2.711-3l-13.1,11.851-3.739-4.422a2.021,2.021,0,0,0-3.086,2.609Zm0,0" transform="translate(-132.433 -82.573)"/>
    <path id="Trazado_100809" data-name="Trazado 100809" d="M28.341,222.326a6.475,6.475,0,0,0-10.754.654l-.594-.773a3.966,3.966,0,0,1-.817-2.4V201.574A6.754,6.754,0,0,0,2.7,200.936L.537,223.743a7.976,7.976,0,0,0,1.593,5.589L19.3,251.7v5.19a2.02,2.02,0,0,0,4.041,0v-5.877a2.022,2.022,0,0,0-.418-1.23l-17.584-22.9a3.938,3.938,0,0,1-.783-2.758l2.163-22.806a2.712,2.712,0,0,1,5.413.256V219.8a8.027,8.027,0,0,0,1.653,4.866l4.23,5.508.019.026,3.413,4.444a2.021,2.021,0,0,0,3.205-2.462l-3.424-4.458a2.455,2.455,0,0,1,.429-3.386,2.442,2.442,0,0,1,3.466.432l8.157,10.72a12.261,12.261,0,0,1,2.489,7.383v14.011a2.02,2.02,0,0,0,4.041,0V242.875a16.325,16.325,0,0,0-3.314-9.829Zm0,0" transform="translate(0 -155.456)"/>
    <path id="Trazado_100810" data-name="Trazado 100810" d="M286.4,223.743l-2.163-22.807a6.754,6.754,0,0,0-13.477.638V219.8a3.971,3.971,0,0,1-.817,2.4l-.594.773a6.48,6.48,0,0,0-10.754-.654l-8.157,10.72a16.326,16.326,0,0,0-3.315,9.83v14.01a2.02,2.02,0,1,0,4.041,0V242.875a12.261,12.261,0,0,1,2.489-7.383l8.157-10.72a2.444,2.444,0,0,1,3.894,2.953l-3.423,4.458a2.021,2.021,0,1,0,3.205,2.462L268.9,230.2l.018-.024,4.231-5.51A8.035,8.035,0,0,0,274.8,219.8V201.574a2.713,2.713,0,0,1,5.414-.256l2.163,22.806a3.934,3.934,0,0,1-.776,2.747l-17.592,22.906a2.023,2.023,0,0,0-.418,1.231v5.876a2.02,2.02,0,1,0,4.041,0V251.7l17.181-22.373a7.973,7.973,0,0,0,1.586-5.579Zm0,0" transform="translate(-196.795 -155.456)"/>
    <path id="Trazado_100811" data-name="Trazado 100811" d="M121.306,97.484a2.021,2.021,0,1,0-.755-2.422,2.038,2.038,0,0,0,.755,2.422Zm0,0" transform="translate(-95.684 -74.833)"/>
  </g>
</svg>
