<svg xmlns="http://www.w3.org/2000/svg" width="88.294" height="103.448" viewBox="0 0 88.294 103.448">
  <g id="archivo-secreto" transform="translate(-37.5)">
    <g id="Grupo_53887" data-name="Grupo 53887" transform="translate(44.126 1.515)">
      <path id="Trazado_100786" data-name="Trazado 100786" d="M70.295,9.679V64.25h9.441l57.152-47.718V9.679A2.188,2.188,0,0,0,134.7,7.5H72.48a2.189,2.189,0,0,0-2.185,2.179Z" transform="translate(-70.295 -7.5)" fill="#c6d0da" fill-rule="evenodd"/>
    </g>
    <g id="Grupo_53888" data-name="Grupo 53888" transform="translate(53.567 10.547)">
      <path id="Trazado_100787" data-name="Trazado 100787" d="M118.891,52.2a1.872,1.872,0,0,0-1.871,1.865V99.92l31.906,4.877L178.286,87.52V54.067a1.871,1.871,0,0,0-1.871-1.865H118.891Z" transform="translate(-117.02 -52.202)" fill="#faf8f9" fill-rule="evenodd"/>
    </g>
    <g id="Grupo_53889" data-name="Grupo 53889" transform="translate(63.012 21.068)">
      <path id="Trazado_100788" data-name="Trazado 100788" d="M173.241,104.422a12.242,12.242,0,0,1-8.776,4.126c-.414.035-.635-.035-.658.431-.472,9.166,3.73,14.422,9.47,18.2.122.082.087.082.21,0,5.74-3.77,9.942-9.032,9.476-18.2-.029-.466-.251-.4-.664-.431a12.229,12.229,0,0,1-8.771-4.126C173.352,104.223,173.41,104.223,173.241,104.422Z" transform="translate(-163.77 -104.273)" fill="#ccf49f" fill-rule="evenodd"/>
    </g>
    <g id="Grupo_53890" data-name="Grupo 53890" transform="translate(39.015 45.859)">
      <path id="Trazado_100789" data-name="Trazado 100789" d="M85.945,239.379H49.272A4.285,4.285,0,0,0,45,243.65v29.339a4.285,4.285,0,0,0,4.272,4.271h76.721a4.285,4.285,0,0,0,4.272-4.271V232.252a5.3,5.3,0,0,0-5.28-5.279l-4.167.006-4.114.006-18.567.029c-1.608.006-3.03.32-3.94,3.077l-1.976,5.967c-.49,3.187-2.815,3.321-6.276,3.321Z" transform="translate(-45 -226.973)" fill="#ffe07d" fill-rule="evenodd"/>
    </g>
    <g id="Grupo_53891" data-name="Grupo 53891" transform="translate(83.946 75.181)">
      <path id="Trazado_100790" data-name="Trazado 100790" d="M269.413,372.7a4.188,4.188,0,0,0-2.034,3.584v18.384a4.2,4.2,0,0,0,4.184,4.184H294.99a4.2,4.2,0,0,0,4.184-4.184V376.28a4.2,4.2,0,0,0-4.184-4.184H271.563A4.154,4.154,0,0,0,269.413,372.7ZM279.6,384.251a3.677,3.677,0,1,1,3.677,3.677A3.678,3.678,0,0,1,279.6,384.251Z" transform="translate(-267.379 -372.096)" fill="#c6d0da" fill-rule="evenodd"/>
    </g>
    <g id="Grupo_53892" data-name="Grupo 53892" transform="translate(96.167 83.653)">
      <path id="Trazado_100791" data-name="Trazado 100791" d="M331.539,414.029a3.68,3.68,0,1,0,3.677,3.683A3.678,3.678,0,0,0,331.539,414.029Z" transform="translate(-327.862 -414.029)" fill="#685d68" fill-rule="evenodd"/>
    </g>
    <g id="Grupo_53893" data-name="Grupo 53893" transform="translate(99.716 10.541)">
      <path id="Trazado_100792" data-name="Trazado 100792" d="M356.43,52.179l-11-.006c6.638,10.244,8.846,23.349,7.127,35.335l3.875-.006,4.114-.006V54.044a1.871,1.871,0,0,0-1.871-1.865Z" transform="translate(-345.428 -52.173)" fill="#e5e1e5" fill-rule="evenodd"/>
    </g>
    <g id="Grupo_53894" data-name="Grupo 53894" transform="translate(107.752 45.859)">
      <path id="Trazado_100793" data-name="Trazado 100793" d="M388.168,226.985l-2.966.006a5.259,5.259,0,0,1,2.966.938,5.339,5.339,0,0,1,.991.892,5.249,5.249,0,0,1,1.294,3.45v24.287a4.189,4.189,0,0,1,2.739,3.922V277.26h4.266a4.285,4.285,0,0,0,4.272-4.271V232.252a5.3,5.3,0,0,0-5.28-5.279l-4.167.006Z" transform="translate(-385.202 -226.973)" fill="#ffc250" fill-rule="evenodd"/>
    </g>
    <g id="Grupo_53895" data-name="Grupo 53895" transform="translate(106.348 75.181)">
      <path id="Trazado_100794" data-name="Trazado 100794" d="M382.435,376.28v18.384a4.2,4.2,0,0,1-4.184,4.184h5.21a4.2,4.2,0,0,0,4.184-4.184V376.28a4.188,4.188,0,0,0-2.739-3.922,4.129,4.129,0,0,0-1.445-.262h-5.21a4.2,4.2,0,0,1,4.184,4.184Z" transform="translate(-378.251 -372.096)" fill="#a0aab7" fill-rule="evenodd"/>
    </g>
    <g id="Grupo_53896" data-name="Grupo 53896" transform="translate(69.762 23.151)">
      <path id="Trazado_100795" data-name="Trazado 100795" d="M202.314,114.583a26.456,26.456,0,0,1,.175,3.059,25.625,25.625,0,0,1-5.315,15.71c.559.478,1.148.927,1.754,1.364.326.233.664.46,1,.688.122.082.087.082.21,0a20.92,20.92,0,0,0,7.582-8.035,19.967,19.967,0,0,0,1.894-10.162c-.029-.466-.251-.4-.664-.431a13.229,13.229,0,0,1-6.638-2.191Z" transform="translate(-197.174 -114.583)" fill="#95d6a4" fill-rule="evenodd"/>
    </g>
    <g id="Grupo_53897" data-name="Grupo 53897" transform="translate(37.5 0)">
      <path id="Trazado_100796" data-name="Trazado 100796" d="M176.556,101.059l-.117-.007c-3.455-.3-5.847-1.413-7.765-3.619l-.035-.041a1.562,1.562,0,0,0-2.507.021l-.031.038c-1.909,2.191-4.3,3.3-7.753,3.6-.043,0-.083.005-.12.007a1.845,1.845,0,0,0-1.924,1.856c-.437,8.49,2.788,14.7,10.157,19.546a1.618,1.618,0,0,0,.93.3,1.636,1.636,0,0,0,.939-.308c7.362-4.835,10.589-11.044,10.156-19.559a1.855,1.855,0,0,0-1.93-1.839Zm-9.164,18.372c-5.674-3.974-8.2-8.791-8.094-15.431a13.682,13.682,0,0,0,8.1-3.53,13.678,13.678,0,0,0,8.1,3.53C175.595,110.642,173.067,115.459,167.392,119.431Z" transform="translate(-132.269 -77.22)"/>
      <path id="Trazado_100797" data-name="Trazado 100797" d="M313.4,97.45H300.274a1.515,1.515,0,0,0,0,3.031H313.4a1.515,1.515,0,0,0,0-3.031Z" transform="translate(-245.972 -77.761)"/>
      <path id="Trazado_100798" data-name="Trazado 100798" d="M313.4,133.847H300.274a1.515,1.515,0,1,0,0,3.031H313.4a1.515,1.515,0,1,0,0-3.031Z" transform="translate(-245.972 -106.804)"/>
      <path id="Trazado_100799" data-name="Trazado 100799" d="M313.4,170.242H300.274a1.515,1.515,0,0,0,0,3.031H313.4a1.515,1.515,0,0,0,0-3.031Z" transform="translate(-245.972 -135.845)"/>
      <path id="Trazado_100800" data-name="Trazado 100800" d="M119,44.344l-2.649,0V12.412a3.387,3.387,0,0,0-3.386-3.38h-.728V3.695A3.7,3.7,0,0,0,108.533,0H46.311a3.7,3.7,0,0,0-3.7,3.695v53.1A5.794,5.794,0,0,0,37.5,62.536V91.875a5.793,5.793,0,0,0,5.787,5.787H55.706a1.515,1.515,0,1,0,0-3.031H43.287a2.759,2.759,0,0,1-2.756-2.756V62.536a2.759,2.759,0,0,1,2.756-2.756H79.96c3.118,0,6.991,0,7.753-4.475l1.938-5.854c.669-2.03,1.44-2.032,2.5-2.036L119,47.375a3.768,3.768,0,0,1,3.765,3.764V91.875a2.759,2.759,0,0,1-2.756,2.756h-2.75V79.365a5.706,5.706,0,0,0-5.7-5.7h-.315V69.68a7.027,7.027,0,0,0-7.017-7.022H95.467a7.03,7.03,0,0,0-7.022,7.022v3.986H88.13a5.706,5.706,0,0,0-5.7,5.7V94.631H63.614a1.515,1.515,0,1,0,0,3.031H82.431v.087a5.706,5.706,0,0,0,5.7,5.7h23.427a5.706,5.706,0,0,0,5.7-5.7v-.087h2.75a5.793,5.793,0,0,0,5.787-5.787V51.139a6.8,6.8,0,0,0-6.8-6.795Zm-26.851.041c-1.988.007-4.181.5-5.373,4.116L84.8,54.467a1.518,1.518,0,0,0-.059.246c-.266,1.732-.981,2.036-4.779,2.036H55.082V12.412a.357.357,0,0,1,.355-.349H70.688a1.515,1.515,0,0,0,0-3.031H55.438a3.387,3.387,0,0,0-3.386,3.38V56.75h-6.41V3.695a.676.676,0,0,1,.67-.664h62.221a.676.676,0,0,1,.67.664V9.032H77.81a1.515,1.515,0,0,0,0,3.031h35.152a.357.357,0,0,1,.355.349V44.353Zm-.67,25.3a4,4,0,0,1,3.992-3.991h8.759a3.993,3.993,0,0,1,3.986,3.991v3.986H91.476V69.68Zm22.75,28.069a2.672,2.672,0,0,1-2.669,2.668H88.131a2.672,2.672,0,0,1-2.669-2.668V79.365A2.672,2.672,0,0,1,88.131,76.7h23.427a2.672,2.672,0,0,1,2.669,2.668Z" transform="translate(-37.5 0)"/>
      <path id="Trazado_100801" data-name="Trazado 100801" d="M325.555,406.529a5.2,5.2,0,0,0-1.515,10.164v3.192a1.515,1.515,0,0,0,3.031,0v-3.192a5.2,5.2,0,0,0-1.515-10.164Zm0,7.36a2.164,2.164,0,1,1,2.162-2.161A2.164,2.164,0,0,1,325.555,413.889Z" transform="translate(-263.211 -324.391)"/>
    </g>
  </g>
</svg>
