<svg xmlns="http://www.w3.org/2000/svg" width="77.297" height="102.984" viewBox="0 0 77.297 102.984">
  <g id="Layer_27" transform="translate(-31.926)">
    <g id="Grupo_53941" data-name="Grupo 53941" transform="translate(31.926 0)">
      <g id="Grupo_53902" data-name="Grupo 53902" transform="translate(1.006 4.878)">
        <g id="Grupo_53901" data-name="Grupo 53901">
          <path id="Trazado_100863" data-name="Trazado 100863" d="M100.042,75.635V17.09a4.979,4.979,0,0,0-4.965-4.965H54.7L34.426,32.4V75.635Z" transform="translate(-34.426 -12.125)" fill="#edf4fc"/>
        </g>
      </g>
      <g id="Grupo_53904" data-name="Grupo 53904" transform="translate(1.006 68.388)">
        <g id="Grupo_53903" data-name="Grupo 53903">
          <path id="Trazado_100864" data-name="Trazado 100864" d="M34.426,170v20.731a4.979,4.979,0,0,0,4.965,4.965H95.077a4.979,4.979,0,0,0,4.965-4.965V170Z" transform="translate(-34.426 -170)" fill="#fc657e"/>
        </g>
      </g>
      <g id="Grupo_53906" data-name="Grupo 53906" transform="translate(24.712 74.767)">
        <g id="Grupo_53905" data-name="Grupo 53905">
          <path id="Trazado_100865" data-name="Trazado 100865" d="M100.635,185.859H99a.2.2,0,0,0-.2.2V195.5a1.49,1.49,0,0,1-1.618,1.69c-1.279,0-1.781-.888-1.781-2.177a.2.2,0,0,0-.2-.2H93.556a.2.2,0,0,0-.2.2c0,2.612,1.52,4.074,3.894,4.074a3.315,3.315,0,0,0,3.588-3.588V186.06A.2.2,0,0,0,100.635,185.859Z" transform="translate(-93.355 -185.859)"/>
        </g>
      </g>
      <g id="Grupo_53908" data-name="Grupo 53908" transform="translate(33.895 74.605)">
        <g id="Grupo_53907" data-name="Grupo 53907" transform="translate(0)">
          <path id="Trazado_100866" data-name="Trazado 100866" d="M118.695,190a1.771,1.771,0,0,1,1.638-2.83,2.178,2.178,0,0,1,2.288,1.746.2.2,0,0,0,.2.163h1.766a.2.2,0,0,0,.2-.226c-.243-1.891-1.759-3.4-4.451-3.4a4.12,4.12,0,0,0-3.638,1.679,3.7,3.7,0,0,0,.044,3.829c1.759,2.407,6.167,1.568,6.167,4.313a1.793,1.793,0,0,1-2.033,1.852,2.335,2.335,0,0,1-2.484-2.053.2.2,0,0,0-.2-.181h-1.747a.2.2,0,0,0-.2.219c.2,2.315,2.223,3.732,4.686,3.732,2.685,0,4.129-1.672,4.129-3.624C125.057,191.026,120.2,191.785,118.695,190Z" transform="translate(-116.184 -185.456)"/>
        </g>
      </g>
      <g id="Grupo_53910" data-name="Grupo 53910" transform="translate(0 67.382)">
        <g id="Grupo_53909" data-name="Grupo 53909">
          <path id="Trazado_100867" data-name="Trazado 100867" d="M93.584,195.207H37.9a5.977,5.977,0,0,1-5.97-5.97V168.506a1.006,1.006,0,1,1,2.011,0v20.731A3.963,3.963,0,0,0,37.9,193.2H93.584a3.964,3.964,0,0,0,3.959-3.959V168.506a1.006,1.006,0,1,1,2.011,0v20.731A5.977,5.977,0,0,1,93.584,195.207Z" transform="translate(-31.927 -167.5)"/>
        </g>
      </g>
      <g id="Grupo_53912" data-name="Grupo 53912" transform="translate(1.006 4.878)">
        <g id="Grupo_53911" data-name="Grupo 53911">
          <path id="Trazado_100868" data-name="Trazado 100868" d="M34.426,32.4H49.737A4.979,4.979,0,0,0,54.7,27.436V12.125Z" transform="translate(-34.426 -12.125)" fill="#fc657e"/>
        </g>
      </g>
      <g id="Grupo_53914" data-name="Grupo 53914" transform="translate(70.422 49.48)">
        <g id="Grupo_53913" data-name="Grupo 53913">
          <path id="Trazado_100869" data-name="Trazado 100869" d="M213.8,126.44a4.119,4.119,0,0,0-3.3,3.235.074.074,0,0,1-.146,0,4.119,4.119,0,0,0-3.3-3.235.072.072,0,0,1,0-.144,4.119,4.119,0,0,0,3.3-3.235.074.074,0,0,1,.146,0,4.119,4.119,0,0,0,3.3,3.235A.072.072,0,0,1,213.8,126.44Z" transform="translate(-206.982 -123)" fill="#f5c84c"/>
        </g>
      </g>
      <g id="Grupo_53916" data-name="Grupo 53916" transform="translate(30.415 98.259)">
        <g id="Grupo_53915" data-name="Grupo 53915">
          <path id="Trazado_100870" data-name="Trazado 100870" d="M112.312,246.668A2.889,2.889,0,0,0,110,248.937a.052.052,0,0,1-.1,0,2.889,2.889,0,0,0-2.316-2.269.051.051,0,0,1,0-.1,2.889,2.889,0,0,0,2.316-2.269.052.052,0,0,1,.1,0,2.889,2.889,0,0,0,2.316,2.269A.051.051,0,0,1,112.312,246.668Z" transform="translate(-107.533 -244.256)" fill="#fc657e"/>
        </g>
      </g>
      <g id="Grupo_53918" data-name="Grupo 53918" transform="translate(15.559)">
        <g id="Grupo_53917" data-name="Grupo 53917">
          <circle id="Elipse_4115" data-name="Elipse 4115" cx="1.359" cy="1.359" r="1.359" fill="#fc657e"/>
        </g>
      </g>
      <g id="Grupo_53920" data-name="Grupo 53920" transform="translate(70.672 39.826)">
        <g id="Grupo_53919" data-name="Grupo 53919">
          <circle id="Elipse_4116" data-name="Elipse 4116" cx="1.359" cy="1.359" r="1.359" fill="#87d147"/>
        </g>
      </g>
      <g id="Grupo_53922" data-name="Grupo 53922" transform="translate(4.611 2.599)">
        <g id="Grupo_53921" data-name="Grupo 53921">
          <path id="Trazado_100871" data-name="Trazado 100871" d="M47.839,8.189h-.734V7.455a.995.995,0,1,0-1.99,0v.734h-.734a.995.995,0,0,0,0,1.99h.734v.734a.995.995,0,1,0,1.99,0v-.734h.734a.995.995,0,1,0,0-1.989Z" transform="translate(-43.387 -6.46)" fill="#70d6f9"/>
        </g>
      </g>
      <g id="Grupo_53924" data-name="Grupo 53924" transform="translate(20.944 97.452)">
        <g id="Grupo_53923" data-name="Grupo 53923">
          <circle id="Elipse_4117" data-name="Elipse 4117" cx="1.359" cy="1.359" r="1.359" fill="#f5c84c"/>
        </g>
      </g>
      <g id="Grupo_53926" data-name="Grupo 53926" transform="translate(0 3.872)">
        <g id="Grupo_53925" data-name="Grupo 53925">
          <path id="Trazado_100872" data-name="Trazado 100872" d="M98.548,75.146H32.932a1.006,1.006,0,0,1-1.006-1.006V30.906a1.006,1.006,0,0,1,.294-.711L52.5,9.919a1,1,0,0,1,.711-.294H93.583a5.977,5.977,0,0,1,5.97,5.97V74.141A1.006,1.006,0,0,1,98.548,75.146Zm-64.61-2.011h63.6V15.6a3.964,3.964,0,0,0-3.959-3.959H53.624L33.937,31.323Z" transform="translate(-31.926 -9.625)"/>
        </g>
      </g>
      <g id="Grupo_53928" data-name="Grupo 53928" transform="translate(0.294 4.274)">
        <g id="Grupo_53927" data-name="Grupo 53927">
          <path id="Trazado_100873" data-name="Trazado 100873" d="M48.679,32.509H33.662a1.006,1.006,0,0,1,0-2.011H48.679a3.964,3.964,0,0,0,3.959-3.959V11.631a1.006,1.006,0,1,1,2.011,0V26.54A5.977,5.977,0,0,1,48.679,32.509Z" transform="translate(-32.656 -10.625)"/>
        </g>
      </g>
      <g id="Grupo_53930" data-name="Grupo 53930" transform="translate(38.75 35.819)">
        <g id="Grupo_53929" data-name="Grupo 53929">
          <path id="Trazado_100874" data-name="Trazado 100874" d="M139.966,95.9l-8.6-6.465a1.943,1.943,0,1,0-2.334,3.107l6.537,4.911-6.537,4.911a1.943,1.943,0,1,0,2.334,3.107l8.6-6.465A1.942,1.942,0,0,0,139.966,95.9Z" transform="translate(-128.252 -89.041)" fill="#fc657e"/>
        </g>
      </g>
      <g id="Grupo_53932" data-name="Grupo 53932" transform="translate(16.745 35.821)">
        <g id="Grupo_53931" data-name="Grupo 53931">
          <path id="Trazado_100875" data-name="Trazado 100875" d="M85.266,102.362,78.73,97.451l6.536-4.911a1.943,1.943,0,0,0-2.334-3.107l-8.6,6.465a1.943,1.943,0,0,0,0,3.107l8.6,6.465a1.943,1.943,0,0,0,2.334-3.107Z" transform="translate(-73.552 -89.044)" fill="#fc657e"/>
        </g>
      </g>
      <g id="Grupo_53934" data-name="Grupo 53934" transform="translate(28.893 33.594)">
        <g id="Grupo_53933" data-name="Grupo 53933" transform="translate(0)">
          <path id="Trazado_100876" data-name="Trazado 100876" d="M112.5,83.621a1.943,1.943,0,0,0-2.48,1.183l-6.156,17.38a1.943,1.943,0,1,0,3.663,1.3l6.156-17.38A1.942,1.942,0,0,0,112.5,83.621Z" transform="translate(-103.75 -83.51)" fill="#fc657e"/>
        </g>
      </g>
      <g id="Grupo_53936" data-name="Grupo 53936" transform="translate(37.744 34.814)">
        <g id="Grupo_53935" data-name="Grupo 53935">
          <path id="Trazado_100877" data-name="Trazado 100877" d="M128.7,105.368a2.948,2.948,0,0,1-1.776-5.3l5.467-4.107-5.466-4.107a2.949,2.949,0,1,1,3.543-4.715l8.6,6.465a2.948,2.948,0,0,1,0,4.714l-8.6,6.465a2.931,2.931,0,0,1-1.767.59Zm0-16.815a.979.979,0,0,0-.132.009.939.939,0,0,0-.432,1.678l6.537,4.911a1.006,1.006,0,0,1,0,1.608l-6.537,4.911a.938.938,0,0,0,1.126,1.5l8.6-6.465a.937.937,0,0,0,0-1.5l-8.6-6.465A.93.93,0,0,0,128.7,88.553Z" transform="translate(-125.751 -86.542)"/>
        </g>
      </g>
      <g id="Grupo_53938" data-name="Grupo 53938" transform="translate(15.74 34.814)">
        <g id="Grupo_53937" data-name="Grupo 53937">
          <path id="Trazado_100878" data-name="Trazado 100878" d="M82.6,105.37a2.927,2.927,0,0,1-1.766-.592l-8.6-6.465a2.949,2.949,0,0,1,0-4.715l8.6-6.465a2.949,2.949,0,1,1,3.543,4.715L78.91,95.956l5.466,4.107a2.949,2.949,0,0,1-1.357,5.277A2.963,2.963,0,0,1,82.6,105.37Zm0-16.816a.931.931,0,0,0-.56.187l-8.6,6.465a.938.938,0,0,0,0,1.5l8.6,6.465a.938.938,0,1,0,1.126-1.5l-6.537-4.911a1.006,1.006,0,0,1,0-1.608l6.536-4.911a.937.937,0,0,0-.431-1.677,1.085,1.085,0,0,0-.135-.009Z" transform="translate(-71.052 -86.542)"/>
        </g>
      </g>
      <g id="Grupo_53940" data-name="Grupo 53940" transform="translate(27.889 32.589)">
        <g id="Grupo_53939" data-name="Grupo 53939">
          <path id="Trazado_100879" data-name="Trazado 100879" d="M104.2,104.288a2.949,2.949,0,0,1-2.777-3.933l6.156-17.381a2.949,2.949,0,1,1,5.559,1.969l-6.156,17.381A2.953,2.953,0,0,1,104.2,104.288Zm6.159-21.267a.939.939,0,0,0-.885.624l-6.156,17.38a.938.938,0,0,0,1.767.627l6.156-17.38a.939.939,0,0,0-.57-1.2A.921.921,0,0,0,110.357,83.021Z" transform="translate(-101.252 -81.01)"/>
        </g>
      </g>
    </g>
  </g>
</svg>
