<svg xmlns="http://www.w3.org/2000/svg" width="85" height="85" viewBox="0 0 85 85">
  <g id="flujo-de-trabajo" transform="translate(-2 -2)">
    <path id="Trazado_100830" data-name="Trazado 100830" d="M44.833,25.667H25V3H36.333l8.5,8.5Z" transform="translate(9.583 0.417)" fill="#50b6cf"/>
    <path id="Trazado_100831" data-name="Trazado 100831" d="M22.833,25.667H3V3H14.333l8.5,8.5Z" transform="translate(0.417 0.417)" fill="#50b6cf"/>
    <path id="Trazado_100832" data-name="Trazado 100832" d="M11,3v8.5h8.5Z" transform="translate(3.75 0.417)" fill="#3cadc9"/>
    <path id="Trazado_100833" data-name="Trazado 100833" d="M66.833,25.667H47V3H58.333l8.5,8.5Z" transform="translate(18.75 0.417)" fill="#50b6cf"/>
    <path id="Trazado_100834" data-name="Trazado 100834" d="M33,3v8.5h8.5Z" transform="translate(12.917 0.417)" fill="#3cadc9"/>
    <path id="Trazado_100835" data-name="Trazado 100835" d="M55,3v8.5h8.5Z" transform="translate(22.083 0.417)" fill="#3cadc9"/>
    <g id="Grupo_53898" data-name="Grupo 53898" transform="translate(33.167 40.25)">
      <path id="Trazado_100836" data-name="Trazado 100836" d="M24,29H46.667V40.333H24Z" transform="translate(-24 -29)" fill="#f5a947"/>
      <path id="Trazado_100837" data-name="Trazado 100837" d="M24,41H46.667V52.333H24Z" transform="translate(-24 -24)" fill="#f5a947"/>
      <path id="Trazado_100838" data-name="Trazado 100838" d="M24,53H46.667V64.333H24Z" transform="translate(-24 -19)" fill="#f5a947"/>
    </g>
    <path id="Trazado_100839" data-name="Trazado 100839" d="M44.833,11.34C41.013,15.428,33.673,18.666,25,19.256v2.936H44.833Z" transform="translate(9.583 3.892)" fill="#3cadc9"/>
    <path id="Trazado_100840" data-name="Trazado 100840" d="M66.833,11.34C63.013,15.428,55.673,18.666,47,19.256v2.936H66.833Z" transform="translate(18.75 3.892)" fill="#3cadc9"/>
    <path id="Trazado_100841" data-name="Trazado 100841" d="M46.667,31C42.3,34.2,33.912,36.738,24,37.2v2.3H46.667Z" transform="translate(9.167 12.083)" fill="#f09d3a"/>
    <path id="Trazado_100842" data-name="Trazado 100842" d="M46.667,43C42.3,46.2,33.912,48.738,24,49.2v2.3H46.667Z" transform="translate(9.167 17.083)" fill="#f09d3a"/>
    <path id="Trazado_100843" data-name="Trazado 100843" d="M46.667,55C42.3,58.2,33.912,60.738,24,61.2v2.3H46.667Z" transform="translate(9.167 22.083)" fill="#f09d3a"/>
    <path id="Trazado_100844" data-name="Trazado 100844" d="M22.833,11.34C19.013,15.428,11.673,18.666,3,19.256v2.936H22.833Z" transform="translate(0.417 3.892)" fill="#3cadc9"/>
    <path id="Trazado_100845" data-name="Trazado 100845" d="M78.085,2.415a1.417,1.417,0,0,0-1-.415H65.75a1.417,1.417,0,0,0-1.417,1.417V26.083A1.417,1.417,0,0,0,65.75,27.5h8.5v4.25H45.917V27.5h8.5a1.417,1.417,0,0,0,1.417-1.417V11.917a1.417,1.417,0,0,0-.415-1l-8.5-8.5a1.417,1.417,0,0,0-1-.415H34.583a1.417,1.417,0,0,0-1.417,1.417V26.083A1.417,1.417,0,0,0,34.583,27.5h8.5v4.25H14.75V27.5h8.5a1.417,1.417,0,0,0,1.417-1.417V11.917a1.417,1.417,0,0,0-.415-1l-8.5-8.5a1.417,1.417,0,0,0-1-.415H3.417A1.417,1.417,0,0,0,2,3.417V26.083A1.417,1.417,0,0,0,3.417,27.5h8.5v5.667a1.417,1.417,0,0,0,1.417,1.417h29.75v4.25H33.167A1.417,1.417,0,0,0,31.75,40.25V51.583A1.417,1.417,0,0,0,33.167,53H55.833a1.417,1.417,0,0,0,1.417-1.417v-4.25H68.583a7.083,7.083,0,1,1,0,14.167h-6.5l1.832-1.832-2-2-4.25,4.25a1.416,1.416,0,0,0,0,2l4.25,4.25,2-2-1.832-1.832h6.5a9.917,9.917,0,1,0,0-19.833H57.25V40.25a1.417,1.417,0,0,0-1.417-1.417H45.917v-4.25h29.75a1.417,1.417,0,0,0,1.417-1.417V27.5h8.5A1.417,1.417,0,0,0,87,26.083V11.917a1.417,1.417,0,0,0-.415-1ZM36,4.833h9.33L51,10.5H47.333V7.667H44.5v4.25a1.417,1.417,0,0,0,1.417,1.417H53V24.667H36Zm-31.167,0h9.33L19.83,10.5H16.167V7.667H13.333v4.25a1.417,1.417,0,0,0,1.417,1.417h7.083V24.667h-17ZM54.417,50.167H34.583v-8.5H54.417Zm12.75-25.5V4.833H76.5L82.163,10.5H78.5V7.667H75.667v4.25a1.417,1.417,0,0,0,1.417,1.417h7.083V24.667Z" transform="translate(0 0)" fill="#0d0f23"/>
    <path id="Trazado_100846" data-name="Trazado 100846" d="M53.333,40H30.667a1.417,1.417,0,0,0-1.417,1.417v4.25H17.917a9.917,9.917,0,0,0,0,19.833h6.5l-1.832,1.832,2,2,4.25-4.25a1.416,1.416,0,0,0,0-2l-4.25-4.25-2,2,1.832,1.832h-6.5a7.083,7.083,0,1,1,0-14.167H29.25v4.25a1.417,1.417,0,0,0,1.417,1.417H53.333A1.417,1.417,0,0,0,54.75,52.75V41.417A1.417,1.417,0,0,0,53.333,40ZM51.917,51.333H32.083v-8.5H51.917Z" transform="translate(2.5 15.833)" fill="#0d0f23"/>
    <path id="Trazado_100847" data-name="Trazado 100847" d="M24.417,66.167H47.083A1.417,1.417,0,0,0,48.5,64.75V53.417A1.417,1.417,0,0,0,47.083,52H24.417A1.417,1.417,0,0,0,23,53.417V64.75A1.417,1.417,0,0,0,24.417,66.167Zm1.417-11.333H45.667v8.5H25.833Z" transform="translate(8.75 20.833)" fill="#0d0f23"/>
  </g>
</svg>
