<svg xmlns="http://www.w3.org/2000/svg" width="116" height="115.996" viewBox="0 0 116 115.996">
  <g id="visibilidad" transform="translate(0 -0.009)">
    <ellipse id="Elipse_4109" data-name="Elipse 4109" cx="6.246" cy="5.8" rx="6.246" ry="5.8" transform="translate(51.754 2.686)" fill="#ff5d5d"/>
    <circle id="Elipse_4110" data-name="Elipse 4110" cx="6.117" cy="6.117" r="6.117" transform="translate(86.968 16.804)" fill="#a0e557"/>
    <circle id="Elipse_4111" data-name="Elipse 4111" cx="6.117" cy="6.117" r="6.117" transform="translate(16.797 16.804)" fill="#ffc66c"/>
    <circle id="Elipse_4112" data-name="Elipse 4112" cx="6.117" cy="6.117" r="6.117" transform="translate(51.885 101.505)" fill="#ff5d5d"/>
    <circle id="Elipse_4113" data-name="Elipse 4113" cx="6.117" cy="6.117" r="6.117" transform="translate(16.797 86.975)" fill="#a0e557"/>
    <circle id="Elipse_4114" data-name="Elipse 4114" cx="6.117" cy="6.117" r="6.117" transform="translate(86.968 86.975)" fill="#ffc66c"/>
    <path id="Trazado_100820" data-name="Trazado 100820" d="M149.283,159.063c0,.531-19.8,28.4-44.211,28.4s-44.211-28.042-44.211-28.4c0-.531,19.8-28.4,44.211-28.4S149.283,158.709,149.283,159.063Z" transform="translate(-47.072 -101.056)" fill="#ade5ff"/>
    <path id="Trazado_100821" data-name="Trazado 100821" d="M192.294,173.4a18.691,18.691,0,1,0,18.691,18.691H192.294Z" transform="translate(-134.271 -134.108)" fill="#ff5d5d"/>
    <path id="Trazado_100822" data-name="Trazado 100822" d="M210.983,192.092V173.4a18.633,18.633,0,0,0-13.217,5.474Z" transform="translate(-152.96 -134.108)" fill="#2e9de3"/>
    <path id="Trazado_100823" data-name="Trazado 100823" d="M256.1,156.579v22.5h22.5A22.5,22.5,0,0,0,256.1,156.579Z" transform="translate(-198.078 -121.097)" fill="#ffc66c"/>
    <path id="Trazado_100824" data-name="Trazado 100824" d="M399.137,196.918a2.266,2.266,0,0,0,.037,3.2l.115.113A2.266,2.266,0,0,0,402.46,197l-.119-.117A2.265,2.265,0,0,0,399.137,196.918Z" transform="translate(-308.208 -151.769)"/>
    <path id="Trazado_100825" data-name="Trazado 100825" d="M130.095,74.106a91.444,91.444,0,0,0,9.721-9.988c4-4.8,4-5.528,4-6.111,0-.785-.256-1.206-1.452-2.817-.59-.795-1.583-2.085-2.969-3.719a2.266,2.266,0,1,0-3.456,2.931c1.293,1.524,2.275,2.794,2.893,3.632a82.482,82.482,0,0,1-12.482,13.324c-6.8,5.83-17.36,12.78-29.011,12.78-20.682,0-37.8-21.233-41.481-26.172a82.531,82.531,0,0,1,12.47-13.308c6.8-5.83,17.36-12.78,29.011-12.78,8.523,0,17.453,3.637,26.542,10.81a2.266,2.266,0,0,0,2.807-3.557q-2.1-1.655-4.191-3.076l5.821-5.821a8.379,8.379,0,1,0-3.2-3.2l-6.55,6.55A43.566,43.566,0,0,0,99.6,27.422V16.461a8.383,8.383,0,1,0-4.531,0V27.424A44.382,44.382,0,0,0,76.11,33.575l-6.547-6.547a8.38,8.38,0,1,0-3.2,3.2l5.8,5.8a75.535,75.535,0,0,0-7.581,5.873A91.445,91.445,0,0,0,54.86,51.9c-4,4.8-4,5.528-4,6.111,0,.806.322,1.281,1.339,2.664.525.714,1.413,1.879,2.662,3.374a93.392,93.392,0,0,0,9.716,9.992,75.86,75.86,0,0,0,7.611,5.914l-5.83,5.83a8.379,8.379,0,1,0,3.2,3.2l6.569-6.569A44.252,44.252,0,0,0,95.075,88.59V99.553a8.383,8.383,0,1,0,4.531,0V88.59a44.382,44.382,0,0,0,18.959-6.151l6.547,6.547a8.379,8.379,0,1,0,3.2-3.2l-5.8-5.8A75.5,75.5,0,0,0,130.095,74.106ZM129.7,20.2a3.852,3.852,0,0,1,5.447,0h0a3.852,3.852,0,0,1-5.446,5.447h0a3.852,3.852,0,0,1,0-5.447ZM59.53,25.646a3.856,3.856,0,0,1,0-5.447h0a3.852,3.852,0,0,1,5.447,5.446h0a3.851,3.851,0,0,1-5.447,0ZM93.483,8.392a3.852,3.852,0,1,1,3.852,3.852A3.856,3.856,0,0,1,93.483,8.392ZM64.977,95.815a3.852,3.852,0,0,1-5.447,0h0a3.852,3.852,0,0,1,5.446-5.447h0a3.852,3.852,0,0,1,0,5.447Zm70.169-5.447a3.856,3.856,0,0,1,0,5.447h0a3.852,3.852,0,0,1-5.447-5.446h0a3.851,3.851,0,0,1,5.447,0Zm-33.954,17.254a3.852,3.852,0,1,1-3.852-3.852A3.856,3.856,0,0,1,101.192,107.622Z" transform="translate(-39.338)"/>
    <path id="Trazado_100826" data-name="Trazado 100826" d="M248.469,328.4h-.1a2.266,2.266,0,1,0,0,4.531h.116a2.266,2.266,0,0,0-.007-4.531Z" transform="translate(-190.344 -253.987)"/>
    <path id="Trazado_100827" data-name="Trazado 100827" d="M191.658,186.164a2.265,2.265,0,1,0,1.961,4.085,21.1,21.1,0,0,0,11.771-16.636h1.671a2.266,2.266,0,0,0,2.266-2.266,24.8,24.8,0,0,0-24.768-24.768,2.266,2.266,0,0,0-2.266,2.266v1.668a20.959,20.959,0,0,0-6.84,39.713,2.266,2.266,0,1,0,1.971-4.08,16.53,16.53,0,0,1-9.291-14.8,16.337,16.337,0,0,1,3.327-9.894l11.5,11.5h0a2.259,2.259,0,0,0,1.6.663h16.266A16.54,16.54,0,0,1,191.658,186.164Zm-9.365-20.286-7.629-7.629a16.34,16.34,0,0,1,7.629-3.171Zm4.531,3.2V151.236a20.275,20.275,0,0,1,17.845,17.845Z" transform="translate(-126.536 -113.363)"/>
    <path id="Trazado_100828" data-name="Trazado 100828" d="M480.73,246.127h-3.965a2.266,2.266,0,0,0,0,4.531h3.965a2.266,2.266,0,0,0,0-4.531Z" transform="translate(-366.996 -190.357)"/>
    <path id="Trazado_100829" data-name="Trazado 100829" d="M6.23,246.127H2.266a2.266,2.266,0,0,0,0,4.531H6.23a2.266,2.266,0,0,0,0-4.531Z" transform="translate(0 -190.357)"/>
  </g>
</svg>
