<svg xmlns="http://www.w3.org/2000/svg" width="105" height="101.374" viewBox="0 0 105 101.374">
  <g id="megafono" transform="translate(0 -8.288)">
    <path id="Trazado_100812" data-name="Trazado 100812" d="M96.416,67.012A5.575,5.575,0,0,1,91.8,75.371,109.528,109.528,0,0,0,46.159,87.324l-4.867,2.809c0,.022-.067-.115,11.782,20.493a3.943,3.943,0,0,1-1.442,5.384l-3.839,2.216a3.939,3.939,0,0,1-5.381-1.444L30.592,96.31l-1.918,1.109a7.882,7.882,0,0,1-10.765-2.885L9.044,79.182A7.882,7.882,0,0,1,11.93,68.417l17.485-10.1A109.545,109.545,0,0,0,62.589,24.768a5.575,5.575,0,0,1,9.544.186l7.584,13.138a9.111,9.111,0,1,1,9.111,15.781Z" transform="translate(-6.241 -10.842)" fill="#d6f4fc"/>
    <path id="Trazado_100813" data-name="Trazado 100813" d="M348.333,93.945A9.111,9.111,0,0,1,345,106.39l-9.111-15.781A9.113,9.113,0,0,1,348.333,93.945Z" transform="translate(-262.409 -63.358)" fill="#4d4e59"/>
    <path id="Trazado_100814" data-name="Trazado 100814" d="M72.134,24.954a5.52,5.52,0,0,1-.179,5.81A128.351,128.351,0,0,1,34.772,67.474L14.286,79.3a9.2,9.2,0,0,0-3.3,3.242L9.044,79.182A7.882,7.882,0,0,1,11.93,68.417l17.485-10.1A109.545,109.545,0,0,0,62.589,24.768a5.575,5.575,0,0,1,9.544.186Z" transform="translate(-6.241 -10.842)" fill="#e8f8fc"/>
    <path id="Trazado_100815" data-name="Trazado 100815" d="M29.415,187.442l16.744,29c-3.355,1.936-14.135,8.159-17.485,10.1a7.882,7.882,0,0,1-10.765-2.885L9.044,208.3a7.882,7.882,0,0,1,2.885-10.765Z" transform="translate(-6.241 -139.963)" fill="#fe4f60"/>
    <path id="Trazado_100816" data-name="Trazado 100816" d="M34.717,196.627c-22.249,12.844-20.774,11.951-21.492,12.509a2.831,2.831,0,0,1-4.181-.834,7.882,7.882,0,0,1,2.885-10.765l17.485-10.1Z" transform="translate(-6.24 -139.962)" fill="#ff6d7a"/>
    <path id="Trazado_100817" data-name="Trazado 100817" d="M125.2,338.413c-6.225,3.6-1.645.952-10.688,6.171l-3.2-5.537,10.7-6.176Z" transform="translate(-86.965 -253.579)" fill="#bdeffc"/>
    <path id="Trazado_100818" data-name="Trazado 100818" d="M347.789,104.085a9.01,9.01,0,0,1-2.791,2.5l-9.111-15.781a9.037,9.037,0,0,1,3.564-1.166Z" transform="translate(-262.409 -63.557)" fill="#42434d"/>
    <path id="Trazado_100819" data-name="Trazado 100819" d="M84.908,43.548A10.86,10.86,0,0,0,74.19,24.983L67.409,13.238a7.326,7.326,0,0,0-12.542-.246A107.761,107.761,0,0,1,22.223,46.011a1.751,1.751,0,0,0-.585,2.3c.071.131,11.3,19.583,11.378,19.712a1.75,1.75,0,1,0,3.031-1.75L25.514,48.033A111.206,111.206,0,0,0,57.828,14.859a3.825,3.825,0,0,1,6.549.13L88.658,57.044A3.825,3.825,0,0,1,85.5,62.781,111.265,111.265,0,0,0,39.121,74.923c-.061.031-16.437,9.487-17.564,10.138a6.136,6.136,0,0,1-8.373-2.244L4.32,67.464a6.136,6.136,0,0,1,2.244-8.373l10.669-6.16a1.75,1.75,0,1,0-1.75-3.031L4.813,56.06A9.64,9.64,0,0,0,1.288,69.214l8.864,15.354a9.64,9.64,0,0,0,13.154,3.525l.4-.233,10.944,18.956a5.687,5.687,0,0,0,7.772,2.083l3.839-2.216a5.687,5.687,0,0,0,2.083-7.772L40.592,85.475a1.75,1.75,0,1,0-3.031,1.75l7.756,13.434a2.188,2.188,0,0,1-.8,2.991l-3.839,2.216a2.188,2.188,0,0,1-2.991-.8L26.742,86.109l14.012-8.09A107.757,107.757,0,0,1,85.632,66.278a7.325,7.325,0,0,0,6.057-10.984Zm-.5-12.087a7.373,7.373,0,0,1-1.285,9l-7.15-12.384A7.359,7.359,0,0,1,84.408,31.461Zm17.117-7.781L97,26.295a1.75,1.75,0,0,1-1.75-3.031l4.528-2.614a1.75,1.75,0,1,1,1.75,3.031ZM82.052,13.706l1.1-4.12a1.75,1.75,0,1,1,3.381.906l-1.1,4.12a1.75,1.75,0,1,1-3.381-.906ZM104.94,42.367a1.751,1.751,0,0,1-1.689,1.3c-.317,0-.1.036-4.575-1.164a1.75,1.75,0,0,1,.906-3.381l4.121,1.1a1.75,1.75,0,0,1,1.238,2.144Z" transform="translate(0)"/>
  </g>
</svg>
