<svg xmlns="http://www.w3.org/2000/svg" width="290" height="230.222" viewBox="0 0 290 230.222">
  <g id="Grupo_53886" data-name="Grupo 53886" transform="translate(-27.417 -72.608)">
    <path id="Trazado_100645" data-name="Trazado 100645" d="M270.8,301.517A46.75,46.75,0,0,0,317.417,254.9h0A46.75,46.75,0,0,0,270.8,208.29h0A19.767,19.767,0,0,1,251.1,188.581h0A19.766,19.766,0,0,1,270.8,168.872h2.345A20.552,20.552,0,0,0,293.64,148.38h0a20.551,20.551,0,0,0-20.491-20.491h-7.2a8,8,0,0,1-7.977-7.977h0a8,8,0,0,1,7.977-7.978h5.288a5.523,5.523,0,0,0,5.507-5.506h0a5.523,5.523,0,0,0-5.507-5.506H235.7a8.677,8.677,0,0,1-8.652-8.651h0A8.677,8.677,0,0,1,235.7,83.62h10.627a5.521,5.521,0,0,0,5.506-5.506h0a5.522,5.522,0,0,0-5.506-5.506H90.67a7.206,7.206,0,0,0-7.184,7.184h0a7.206,7.206,0,0,0,7.184,7.184h10.9a11.322,11.322,0,0,1,11.289,11.288h0a11.322,11.322,0,0,1-11.289,11.288H59.405a7.206,7.206,0,0,0-7.185,7.185h0a7.205,7.205,0,0,0,7.185,7.184h6.9a10.441,10.441,0,0,1,10.409,10.41h0A10.441,10.441,0,0,1,66.3,144.743h-9.39a26.817,26.817,0,0,0-26.738,26.738h0a26.817,26.817,0,0,0,26.738,26.738h3.061a25.794,25.794,0,0,1,25.718,25.719h0a25.794,25.794,0,0,1-25.718,25.718H53.347a26.007,26.007,0,0,0-25.93,25.931h0a26.007,26.007,0,0,0,25.93,25.931ZM72.286,86.977a7.184,7.184,0,1,1,7.184-7.184,7.184,7.184,0,0,1-7.184,7.184Zm214.406,24.958a5.506,5.506,0,1,1,5.5-5.507A5.507,5.507,0,0,1,286.692,111.935Z" fill="#4dd0e1" fill-rule="evenodd"/>
    <path id="Trazado_100646" data-name="Trazado 100646" d="M257.257,128.15Zm-1.831-6.974a3.523,3.523,0,1,0,1.032,2.492,3.516,3.516,0,0,0-1.032-2.492Zm-.761-3.492a6.179,6.179,0,0,1,1.381.588,6.246,6.246,0,0,1,1.212.913.214.214,0,0,0,.257.031l1.637-.944.008-.005a.407.407,0,0,1,.545.153l.008.011,1.151,2a.4.4,0,0,1,.04.308.409.409,0,0,1-.19.247l-.011.007-1.623.937a.215.215,0,0,0-.1.238h0a6.22,6.22,0,0,1,.137.745,6.34,6.34,0,0,1,0,1.518,6.2,6.2,0,0,1-.138.744.219.219,0,0,0,.115.246l1.624.937h0a.407.407,0,0,1,.19.246.4.4,0,0,1-.04.308l-1.158,2.007h0a.4.4,0,0,1-.245.188.41.41,0,0,1-.308-.039l-.012-.007-1.626-.939a.217.217,0,0,0-.257.031,6.271,6.271,0,0,1-1.212.913,6.2,6.2,0,0,1-1.39.591.216.216,0,0,0-.158.207v1.889a.406.406,0,0,1-.4.405h-2.317a.407.407,0,0,1-.405-.405v-1.889a.218.218,0,0,0-.166-.211,6.209,6.209,0,0,1-2.592-1.5.216.216,0,0,0-.269-.025l-1.627.939a.408.408,0,0,1-.554-.149l-.008-.011-1.152-2h0a.41.41,0,0,1,.149-.553l1.636-.945a.215.215,0,0,0,.1-.238h0a6.464,6.464,0,0,1-.136-.744,6.3,6.3,0,0,1,.136-2.263.216.216,0,0,0-.114-.245l-1.624-.937a.4.4,0,0,1-.187-.247.4.4,0,0,1,.038-.308l.007-.012,1.152-2h0a.41.41,0,0,1,.554-.149h0l1.637.944a.214.214,0,0,0,.263-.036,6.314,6.314,0,0,1,1.207-.909,6.149,6.149,0,0,1,1.39-.589.219.219,0,0,0,.157-.209v-1.889a.407.407,0,0,1,.405-.4h2.317a.406.406,0,0,1,.4.4v1.889A.217.217,0,0,0,254.664,117.684Z" transform="translate(-75.751 -14.825)" fill="#ebf2f8" fill-rule="evenodd"/>
    <path id="Trazado_100647" data-name="Trazado 100647" d="M207.4,120.954a7.622,7.622,0,1,0,1.655,2.477,7.644,7.644,0,0,0-1.655-2.477Zm-2.745-1a6.95,6.95,0,1,1-2.647-.524,6.91,6.91,0,0,1,2.647.524Zm.843-5.612a12.442,12.442,0,0,1,2.756,1.174,12.6,12.6,0,0,1,1.271.844,12.455,12.455,0,0,1,1.162.991.8.8,0,0,0,.954.115c1.119-.647,2.3-1.286,3.394-1.961a.488.488,0,0,1,.647.188c.817,1.235,1.635,2.832,2.392,4.141a.469.469,0,0,1,.059.176.511.511,0,0,1-.014.193.5.5,0,0,1-.083.171.47.47,0,0,1-.141.124c-1.008.665-2.306,1.332-3.374,1.949a.8.8,0,0,0-.336.377.879.879,0,0,0-.05.167l-.07.023.078.314q.092.371.16.742t.114.752c.031.255.055.509.07.758s.021.5.021.766-.007.523-.021.766-.039.5-.07.76-.07.512-.114.752-.1.494-.16.742a.8.8,0,0,0,.411.9l2.988,1.726h0l.355.2a.5.5,0,0,1,.141.124.489.489,0,0,1,.083.171.51.51,0,0,1,.014.193.462.462,0,0,1-.059.176l-2.211,3.832h0l-.179.31a.478.478,0,0,1-.123.141.489.489,0,0,1-.173.083.475.475,0,0,1-.191.014.453.453,0,0,1-.175-.059c-1.07-.672-2.279-1.313-3.381-1.951a.8.8,0,0,0-.952.114h0a12.726,12.726,0,0,1-1.162.992,12.583,12.583,0,0,1-1.271.842,12.389,12.389,0,0,1-2.79,1.185.8.8,0,0,0-.579.77v3.9a.462.462,0,0,1-.037.183.493.493,0,0,1-.106.158.482.482,0,0,1-.158.106.468.468,0,0,1-.183.036h-4.783a.471.471,0,0,1-.184-.036.489.489,0,0,1-.263-.263.485.485,0,0,1-.036-.183v-3.9a.805.805,0,0,0-.616-.778,12.274,12.274,0,0,1-1.406-.5,12.532,12.532,0,0,1-1.35-.675,12.545,12.545,0,0,1-2.432-1.834.8.8,0,0,0-.994-.09L189,137.182a.463.463,0,0,1-.177.059.5.5,0,0,1-.363-.1.463.463,0,0,1-.124-.141c-.793-1.382-1.6-2.76-2.391-4.141a.461.461,0,0,1-.061-.176.494.494,0,0,1,.015-.192.48.48,0,0,1,.082-.171.448.448,0,0,1,.138-.124l3.377-1.949a.8.8,0,0,0,.337-.377.877.877,0,0,0,.042-.129l.089-.018-.089-.358c-.061-.248-.115-.5-.16-.741s-.083-.491-.115-.753-.054-.508-.069-.759-.022-.5-.022-.767.008-.521.022-.765.038-.5.069-.759.07-.516.115-.755.1-.492.16-.74a.8.8,0,0,0-.05-.527.813.813,0,0,0-.36-.373l-3.344-1.931a.454.454,0,0,1-.14-.123.471.471,0,0,1-.082-.173.489.489,0,0,1-.015-.192.464.464,0,0,1,.061-.177c.815-1.213,1.633-2.836,2.391-4.141a.479.479,0,0,1,.124-.141.488.488,0,0,1,.17-.083.528.528,0,0,1,.193-.015.473.473,0,0,1,.177.061l3.378,1.95a.8.8,0,0,0,.963-.125,12.452,12.452,0,0,1,5.212-3.009.793.793,0,0,0,.419-.286.8.8,0,0,0,.162-.482l0-3.9a.506.506,0,0,1,.035-.183.521.521,0,0,1,.265-.263.472.472,0,0,1,.184-.036H204.4a.469.469,0,0,1,.183.036.488.488,0,0,1,.3.446v3.9a.8.8,0,0,0,.171.495.807.807,0,0,0,.443.284Zm1.682-.147a13.161,13.161,0,0,1,2.77,1.6,13.454,13.454,0,0,1,1.225,1.046.089.089,0,0,0,.054.025.1.1,0,0,0,.058-.011c1.136-.656,2.273-1.309,3.407-1.967a1.158,1.158,0,0,1,.427-.135,1.192,1.192,0,0,1,1.17.586c.823,1.334,1.606,2.778,2.393,4.142a1.168,1.168,0,0,1,.147.439,1.189,1.189,0,0,1-.235.881,1.162,1.162,0,0,1-.349.306c-1.085.671-2.264,1.308-3.376,1.949a.1.1,0,0,0-.038.044.1.1,0,0,0-.005.059l.078.315,0,0c.035.152.065.308.094.466q.074.4.122.8t.072.8c.016.275.025.545.025.807s-.009.533-.025.808-.041.542-.072.8-.072.525-.122.8-.106.53-.168.783a.1.1,0,0,0,.048.106c1.24.663,2.5,1.443,3.726,2.151l-.044.055.038.048a1.186,1.186,0,0,1,.235.88,1.157,1.157,0,0,1-.148.441l-2.57,4.451-.048-.028c-.025.023-.052.045-.079.066a1.2,1.2,0,0,1-.88.237,1.227,1.227,0,0,1-.428-.141c-1.124-.6-2.282-1.319-3.392-1.959a.1.1,0,0,0-.111.016,13.424,13.424,0,0,1-1.225,1.045,13.158,13.158,0,0,1-1.343.89,13.334,13.334,0,0,1-1.436.716,13.159,13.159,0,0,1-1.513.537.1.1,0,0,0-.05.033.09.09,0,0,0-.019.058v3.9a1.19,1.19,0,0,1-.351.84,1.2,1.2,0,0,1-.385.258,1.179,1.179,0,0,1-.454.091h-4.783a1.175,1.175,0,0,1-.454-.091,1.193,1.193,0,0,1-.645-.645,1.176,1.176,0,0,1-.091-.454v-3.9a.089.089,0,0,0-.072-.091l-.015-.005a12.889,12.889,0,0,1-1.5-.534,13.219,13.219,0,0,1-4-2.649.092.092,0,0,0-.056-.026.106.106,0,0,0-.06.015l-3.377,1.949a1.185,1.185,0,0,1-.437.148,1.2,1.2,0,0,1-.881-.237,1.154,1.154,0,0,1-.3-.338c-.887-1.426-1.725-2.987-2.571-4.452l.046-.028a1.025,1.025,0,0,1-.02-.112,1.189,1.189,0,0,1,.236-.879,1.164,1.164,0,0,1,.347-.306l3.376-1.95a.089.089,0,0,0,.038-.044.1.1,0,0,0,.005-.061l-.088-.357h.006c-.03-.138-.059-.28-.085-.423-.05-.27-.091-.536-.123-.8s-.056-.525-.071-.8-.025-.544-.025-.808.008-.532.025-.806.04-.542.071-.8.073-.523.123-.8.1-.528.168-.781a.1.1,0,0,0-.007-.062.092.092,0,0,0-.044-.044l-3.372-1.947a1.175,1.175,0,0,1-.347-.306,1.241,1.241,0,0,1-.2-.416,1.225,1.225,0,0,1-.031-.463,1.183,1.183,0,0,1,.143-.431c.8-1.489,1.725-2.99,2.574-4.462l.048.029c.026-.024.053-.045.08-.066a1.212,1.212,0,0,1,.418-.2,1.185,1.185,0,0,1,.463-.031,1.157,1.157,0,0,1,.438.146l.251.143,0,0,3.131,1.808a.1.1,0,0,0,.061.012.094.094,0,0,0,.053-.027l.008-.008a13.29,13.29,0,0,1,2.559-1.927,13.087,13.087,0,0,1,1.435-.716,13.323,13.323,0,0,1,1.513-.537.087.087,0,0,0,.049-.033.091.091,0,0,0,.02-.057v-3.9a1.173,1.173,0,0,1,.091-.453,1.188,1.188,0,0,1,.26-.386,1.214,1.214,0,0,1,.385-.259,1.186,1.186,0,0,1,.454-.091H204.4a1.191,1.191,0,0,1,.454.091,1.217,1.217,0,0,1,.386.259,1.181,1.181,0,0,1,.35.839v3.9a.111.111,0,0,0,.019.059.094.094,0,0,0,.052.032l.016.005A13.187,13.187,0,0,1,207.181,114.192Z" transform="translate(-54.93 -12.489)" fill="#ebf2f8" fill-rule="evenodd"/>
    <g id="Grupo_53873" data-name="Grupo 53873" transform="translate(244.239 262.695)">
      <path id="Trazado_100648" data-name="Trazado 100648" d="M364.241,377.388l1.807,2.263h8.215l1.809-2.263C382.562,359.876,357.749,359.876,364.241,377.388Z" transform="translate(-361.149 -364.254)" fill="#4bb89f" fill-rule="evenodd"/>
      <path id="Trazado_100649" data-name="Trazado 100649" d="M368.062,377.388l1.092,2.263h4.965l1.092-2.263C379.134,359.876,364.139,359.876,368.062,377.388Z" transform="translate(-362.631 -364.254)" fill="#7fc8b8" fill-rule="evenodd"/>
      <g id="Grupo_53870" data-name="Grupo 53870" transform="translate(1.074 11.679)">
        <path id="Rectángulo_5274" data-name="Rectángulo 5274" d="M1.36,0H14.5a1.36,1.36,0,0,1,1.36,1.36V4.438A1.36,1.36,0,0,1,14.5,5.8H1.362A1.362,1.362,0,0,1,0,4.436V1.36A1.36,1.36,0,0,1,1.36,0Z" fill="#a36e4e"/>
        <path id="Trazado_100650" data-name="Trazado 100650" d="M374.778,387.2h-9.4l-2.454,2.524,2,8.8h10.3l2-8.8Z" transform="translate(-362.145 -383.923)" fill="#a36e4e" fill-rule="evenodd"/>
        <path id="Trazado_100651" data-name="Trazado 100651" d="M362.924,391.069l.412,1.735h13.484l.412-1.735Z" transform="translate(-362.145 -385.271)" fill="#794c34" fill-rule="evenodd"/>
      </g>
      <g id="Grupo_53871" data-name="Grupo 53871" transform="translate(13.004 0.539)">
        <path id="Trazado_100652" data-name="Trazado 100652" d="M380.543,367.09l-.51,1.167,1.679,3.194,1.249.242C391.1,370.641,386.031,360.986,380.543,367.09Z" transform="translate(-380.033 -365.081)" fill="#4bb89f" fill-rule="evenodd"/>
        <path id="Trazado_100653" data-name="Trazado 100653" d="M384.251,370.882c4.2-1.932,2.444-5.309-1.511-3C379.395,369.843,380.763,372.488,384.251,370.882Z" transform="translate(-380.308 -365.786)" fill="#7fc8b8" fill-rule="evenodd"/>
      </g>
      <g id="Grupo_53872" data-name="Grupo 53872" transform="translate(0 0.087)">
        <path id="Trazado_100654" data-name="Trazado 100654" d="M365.226,366.59l.164.945-1.809,2.036-.959-.05C356.852,367.275,362.315,361.126,365.226,366.59Z" transform="translate(-360.082 -364.388)" fill="#4bb89f" fill-rule="evenodd"/>
        <path id="Trazado_100655" data-name="Trazado 100655" d="M362.547,368.688c-2.723-2.176-.827-4.33,1.65-1.919C366.292,368.807,364.808,370.5,362.547,368.688Z" transform="translate(-360.475 -364.847)" fill="#7fc8b8" fill-rule="evenodd"/>
      </g>
    </g>
    <g id="Grupo_53874" data-name="Grupo 53874" transform="translate(217.191 139.163)">
      <path id="Trazado_100656" data-name="Trazado 100656" d="M371.824,182.307a8.577,8.577,0,0,0-8.032,5.567,4.444,4.444,0,0,0-5.087,2.7,4.559,4.559,0,1,0-1.444,8.883h32.009a5.53,5.53,0,1,0-1.751-10.778,5.384,5.384,0,0,0-8.356-2.231A8.568,8.568,0,0,0,371.824,182.307Z" transform="translate(-330.465 -177.363)" fill="#dee7f4" fill-rule="evenodd"/>
      <path id="Trazado_100657" data-name="Trazado 100657" d="M348.183,174.722a11.046,11.046,0,1,1,0,22.092H325.708a7.126,7.126,0,1,1,2.255-13.885,6.935,6.935,0,0,1,10.765-2.874A11.037,11.037,0,0,1,348.183,174.722Z" transform="translate(-318.583 -174.722)" fill="#fff" fill-rule="evenodd"/>
      <path id="Rectángulo_5275" data-name="Rectángulo 5275" d="M.894,0H2.02a.894.894,0,0,1,.894.894V2.02a.894.894,0,0,1-.894.894H.893A.893.893,0,0,1,0,2.02V.894A.894.894,0,0,1,.894,0Z" transform="translate(7.681 24.795)" fill="#dee7f4"/>
      <rect id="Rectángulo_5276" data-name="Rectángulo 5276" width="2.913" height="2.913" rx="0.894" transform="translate(13.652 24.795)" fill="#dee7f4"/>
      <path id="Rectángulo_5277" data-name="Rectángulo 5277" d="M.893,0H2.018a.894.894,0,0,1,.894.894V2.02a.894.894,0,0,1-.894.894H.894A.894.894,0,0,1,0,2.02V.893A.893.893,0,0,1,.893,0Z" transform="translate(19.624 24.795)" fill="#dee7f4"/>
      <path id="Rectángulo_5278" data-name="Rectángulo 5278" d="M.894,0H2.019a.894.894,0,0,1,.894.894V2.02a.894.894,0,0,1-.894.894H.893A.893.893,0,0,1,0,2.021V.894A.894.894,0,0,1,.894,0Z" transform="translate(25.595 24.795)" fill="#dee7f4"/>
    </g>
    <g id="Grupo_53875" data-name="Grupo 53875" transform="translate(250.486 230.28)">
      <path id="Trazado_100658" data-name="Trazado 100658" d="M371.022,314.521h-.839a.516.516,0,0,0-.516.515h0a.517.517,0,0,0,.516.516h.839a.517.517,0,0,0,.516-.516h0A.516.516,0,0,0,371.022,314.521Z" transform="translate(-369.667 -314.521)" fill="#fff" fill-rule="evenodd"/>
      <path id="Trazado_100659" data-name="Trazado 100659" d="M390.908,326.766h5.427a.518.518,0,0,1,.516.515h0a.518.518,0,0,1-.516.516h-5.427a.517.517,0,0,1-.515-.516h0A.516.516,0,0,1,390.908,326.766Z" transform="translate(-376.884 -318.785)" fill="#fff" fill-rule="evenodd"/>
      <path id="Trazado_100660" data-name="Trazado 100660" d="M380.8,332.433h-4.521a.516.516,0,0,0-.515.516h0a.517.517,0,0,0,.515.516H380.8a.517.517,0,0,0,.516-.516h0A.516.516,0,0,0,380.8,332.433Z" transform="translate(-371.789 -320.758)" fill="#fff" fill-rule="evenodd"/>
      <path id="Trazado_100661" data-name="Trazado 100661" d="M377.479,343.1h-1.2a.517.517,0,0,0-.515.516h0a.516.516,0,0,0,.515.515h1.2a.516.516,0,0,0,.515-.515h0A.517.517,0,0,0,377.479,343.1Z" transform="translate(-371.789 -324.474)" fill="#fff" fill-rule="evenodd"/>
      <path id="Trazado_100662" data-name="Trazado 100662" d="M431.338,354.431H417.884a.517.517,0,0,0-.515.516h0a.519.519,0,0,0,.515.517h13.454a.519.519,0,0,0,.516-.517h0A.517.517,0,0,0,431.338,354.431Z" transform="translate(-386.278 -328.419)" fill="#fff" fill-rule="evenodd"/>
      <path id="Trazado_100663" data-name="Trazado 100663" d="M424.993,360.1h5.427a.517.517,0,0,1,.516.516h0a.517.517,0,0,1-.516.516h-5.427a.518.518,0,0,1-.516-.516h0A.517.517,0,0,1,424.993,360.1Z" transform="translate(-388.753 -330.392)" fill="#fff" fill-rule="evenodd"/>
      <path id="Trazado_100664" data-name="Trazado 100664" d="M414.884,365.766h-4.52a.516.516,0,0,0-.516.515h0a.517.517,0,0,0,.516.516h4.52a.517.517,0,0,0,.516-.516h0A.517.517,0,0,0,414.884,365.766Z" transform="translate(-383.659 -332.366)" fill="#fff" fill-rule="evenodd"/>
      <path id="Trazado_100665" data-name="Trazado 100665" d="M411.565,376.434h-1.2a.517.517,0,0,0-.516.516h0a.517.517,0,0,0,.516.515h1.2a.518.518,0,0,0,.516-.515h0A.518.518,0,0,0,411.565,376.434Z" transform="translate(-383.659 -336.081)" fill="#fff" fill-rule="evenodd"/>
      <path id="Trazado_100666" data-name="Trazado 100666" d="M443.356,387.763H429.9a.519.519,0,0,0-.516.518h0a.517.517,0,0,0,.516.515h13.454a.517.517,0,0,0,.516-.515h0A.518.518,0,0,0,443.356,387.763Z" transform="translate(-390.463 -340.026)" fill="#fff" fill-rule="evenodd"/>
    </g>
    <g id="Grupo_53876" data-name="Grupo 53876" transform="translate(234.601 230.28)">
      <path id="Trazado_100667" data-name="Trazado 100667" d="M353.157,314.521H346.15a.517.517,0,0,0-.516.515h0a.517.517,0,0,0,.516.516h7.007a.518.518,0,0,0,.517-.516h0A.518.518,0,0,0,353.157,314.521Z" transform="translate(-345.413 -314.521)" fill="#7385a1" fill-rule="evenodd"/>
      <path id="Trazado_100668" data-name="Trazado 100668" d="M395.532,319.852H381.655a.518.518,0,0,0-.516.518h0a.517.517,0,0,0,.516.515h13.878a.517.517,0,0,0,.516-.515h0A.518.518,0,0,0,395.532,319.852Z" transform="translate(-357.777 -316.377)" fill="#7385a1" fill-rule="evenodd"/>
      <path id="Trazado_100669" data-name="Trazado 100669" d="M351.123,319.852h15.639a.518.518,0,0,1,.516.518h0a.517.517,0,0,1-.516.515H351.123a.517.517,0,0,1-.515-.515h0A.519.519,0,0,1,351.123,319.852Z" transform="translate(-347.145 -316.377)" fill="#7385a1" fill-rule="evenodd"/>
      <path id="Trazado_100670" data-name="Trazado 100670" d="M359.034,314.521H345.812a.517.517,0,0,0-.517.515h0a.518.518,0,0,0,.517.516h13.223a.517.517,0,0,0,.516-.516h0A.517.517,0,0,0,359.034,314.521Z" transform="translate(-345.295 -314.521)" fill="#7385a1" fill-rule="evenodd"/>
      <path id="Trazado_100671" data-name="Trazado 100671" d="M422.734,326.766H402.761a.517.517,0,0,0-.516.515h0a.518.518,0,0,0,.516.516h19.974a.517.517,0,0,0,.515-.516h0A.516.516,0,0,0,422.734,326.766Z" transform="translate(-365.127 -318.785)" fill="#7385a1" fill-rule="evenodd"/>
      <path id="Trazado_100672" data-name="Trazado 100672" d="M377.079,326.766H357.107a.517.517,0,0,0-.516.515h0a.517.517,0,0,0,.516.516h19.973a.518.518,0,0,0,.516-.516h0A.517.517,0,0,0,377.079,326.766Z" transform="translate(-349.229 -318.785)" fill="#7385a1" fill-rule="evenodd"/>
      <path id="Trazado_100673" data-name="Trazado 100673" d="M368.112,332.433H361a.517.517,0,0,0-.516.516h0a.517.517,0,0,0,.516.516h7.117a.517.517,0,0,0,.516-.516h0A.516.516,0,0,0,368.112,332.433Z" transform="translate(-350.583 -320.758)" fill="#7385a1" fill-rule="evenodd"/>
      <path id="Trazado_100674" data-name="Trazado 100674" d="M418.732,332.433H387.111a.517.517,0,0,0-.516.516h0a.517.517,0,0,0,.516.516h31.621a.517.517,0,0,0,.516-.516h0A.516.516,0,0,0,418.732,332.433Z" transform="translate(-359.677 -320.758)" fill="#7385a1" fill-rule="evenodd"/>
      <path id="Trazado_100675" data-name="Trazado 100675" d="M392.618,337.832H361a.517.517,0,0,0-.516.516h0a.517.517,0,0,0,.516.515h31.622a.516.516,0,0,0,.515-.515h0A.517.517,0,0,0,392.618,337.832Z" transform="translate(-350.583 -322.639)" fill="#7385a1" fill-rule="evenodd"/>
      <path id="Trazado_100676" data-name="Trazado 100676" d="M368.112,343.1H361a.517.517,0,0,0-.516.516h0a.517.517,0,0,0,.516.515h7.117a.517.517,0,0,0,.516-.515h0A.517.517,0,0,0,368.112,343.1Z" transform="translate(-350.583 -324.474)" fill="#7385a1" fill-rule="evenodd"/>
      <path id="Trazado_100677" data-name="Trazado 100677" d="M404.561,343.1H382.295a.517.517,0,0,0-.515.516h0a.517.517,0,0,0,.515.515h22.267a.517.517,0,0,0,.516-.515h0A.517.517,0,0,0,404.561,343.1Z" transform="translate(-358 -324.474)" fill="#7385a1" fill-rule="evenodd"/>
      <path id="Trazado_100678" data-name="Trazado 100678" d="M405.6,348.766h-35a.517.517,0,0,0-.516.516h0a.517.517,0,0,0,.516.515h35a.517.517,0,0,0,.516-.515h0A.516.516,0,0,0,405.6,348.766Z" transform="translate(-353.926 -326.446)" fill="#7385a1" fill-rule="evenodd"/>
      <path id="Trazado_100679" data-name="Trazado 100679" d="M400.629,354.431h-22.75a.517.517,0,0,0-.515.516h0a.519.519,0,0,0,.515.517h22.75a.52.52,0,0,0,.516-.517h0A.518.518,0,0,0,400.629,354.431Z" transform="translate(-356.462 -328.419)" fill="#7385a1" fill-rule="evenodd"/>
      <path id="Trazado_100680" data-name="Trazado 100680" d="M456.82,360.1H436.847a.517.517,0,0,0-.517.516h0a.518.518,0,0,0,.517.516H456.82a.517.517,0,0,0,.515-.516h0A.517.517,0,0,0,456.82,360.1Z" transform="translate(-376.996 -330.392)" fill="#7385a1" fill-rule="evenodd"/>
      <path id="Trazado_100681" data-name="Trazado 100681" d="M411.166,360.1H391.193a.517.517,0,0,0-.517.516h0a.518.518,0,0,0,.517.516h19.973a.517.517,0,0,0,.515-.516h0A.516.516,0,0,0,411.166,360.1Z" transform="translate(-361.098 -330.392)" fill="#7385a1" fill-rule="evenodd"/>
      <path id="Trazado_100682" data-name="Trazado 100682" d="M402.2,365.766h-7.116a.517.517,0,0,0-.516.515h0a.517.517,0,0,0,.516.516H402.2a.517.517,0,0,0,.516-.516h0A.517.517,0,0,0,402.2,365.766Z" transform="translate(-362.452 -332.366)" fill="#7385a1" fill-rule="evenodd"/>
      <path id="Trazado_100683" data-name="Trazado 100683" d="M452.819,365.766H421.2a.516.516,0,0,0-.516.515h0a.517.517,0,0,0,.516.516h31.621a.517.517,0,0,0,.515-.516h0A.516.516,0,0,0,452.819,365.766Z" transform="translate(-371.547 -332.366)" fill="#7385a1" fill-rule="evenodd"/>
      <path id="Trazado_100684" data-name="Trazado 100684" d="M426.7,371.165H395.082a.517.517,0,0,0-.516.516h0a.517.517,0,0,0,.516.516H426.7a.516.516,0,0,0,.515-.516h0A.517.517,0,0,0,426.7,371.165Z" transform="translate(-362.452 -334.246)" fill="#7385a1" fill-rule="evenodd"/>
      <path id="Trazado_100685" data-name="Trazado 100685" d="M402.2,376.434h-7.116a.517.517,0,0,0-.516.516h0a.517.517,0,0,0,.516.515H402.2a.517.517,0,0,0,.516-.515h0A.517.517,0,0,0,402.2,376.434Z" transform="translate(-362.452 -336.081)" fill="#7385a1" fill-rule="evenodd"/>
      <path id="Trazado_100686" data-name="Trazado 100686" d="M438.648,376.434H416.38a.518.518,0,0,0-.515.516h0a.517.517,0,0,0,.515.515h22.268a.517.517,0,0,0,.516-.515h0A.517.517,0,0,0,438.648,376.434Z" transform="translate(-369.869 -336.081)" fill="#7385a1" fill-rule="evenodd"/>
      <path id="Trazado_100687" data-name="Trazado 100687" d="M424.9,382.1h-35a.517.517,0,0,0-.515.516h0a.517.517,0,0,0,.515.515h35a.516.516,0,0,0,.515-.515h0A.516.516,0,0,0,424.9,382.1Z" transform="translate(-360.647 -338.053)" fill="#7385a1" fill-rule="evenodd"/>
      <path id="Trazado_100688" data-name="Trazado 100688" d="M412.646,387.763H389.9a.518.518,0,0,0-.515.518h0a.516.516,0,0,0,.515.515h22.75a.517.517,0,0,0,.516-.515h0A.519.519,0,0,0,412.646,387.763Z" transform="translate(-360.647 -340.026)" fill="#7385a1" fill-rule="evenodd"/>
    </g>
    <g id="Grupo_53877" data-name="Grupo 53877" transform="translate(52.04 142.049)">
      <path id="Trazado_100689" data-name="Trazado 100689" d="M75.592,236.4l-5.2-2.292v-.749l5.2-2.6v1.255l-3.581,1.66,3.581,1.47V236.4Zm1.9-1.478v-.387a1.715,1.715,0,0,1,.214-.873,2.8,2.8,0,0,1,.784-.791,3.251,3.251,0,0,0,.725-.637.931.931,0,0,0,.175-.551.592.592,0,0,0-.252-.516,1.189,1.189,0,0,0-.7-.178,4.046,4.046,0,0,0-1.79.512l-.57-1.144a4.98,4.98,0,0,1,2.473-.655,2.64,2.64,0,0,1,1.715.519,1.689,1.689,0,0,1,.634,1.38,1.833,1.833,0,0,1-.261.994,3.727,3.727,0,0,1-.995.941,3.092,3.092,0,0,0-.635.565.881.881,0,0,0-.134.507v.314Zm-.168,1.79a.878.878,0,0,1,.236-.665.948.948,0,0,1,.684-.225.928.928,0,0,1,.675.231,1.017,1.017,0,0,1,0,1.311.9.9,0,0,1-.671.237.931.931,0,0,1-.678-.231.876.876,0,0,1-.241-.658Zm6.421-3.3h.534a1.757,1.757,0,0,0,1.118-.3,1.029,1.029,0,0,0,.372-.86,1.068,1.068,0,0,0-.31-.843,1.464,1.464,0,0,0-.977-.271h-.738v2.271Zm3.664-1.214a2.34,2.34,0,0,1-.772,1.889,3.3,3.3,0,0,1-2.2.654h-.7v2.722H82.127v-7.653h2.444a3.264,3.264,0,0,1,2.118.6,2.188,2.188,0,0,1,.723,1.788Zm7.712,5.266H93.509v-3.3h-3.03v3.3H88.858v-7.653h1.622v3h3.03v-3h1.616v7.653Zm3.555-4.052h.534a1.761,1.761,0,0,0,1.12-.3,1.031,1.031,0,0,0,.372-.86,1.064,1.064,0,0,0-.311-.843,1.463,1.463,0,0,0-.977-.271H98.68v2.271Zm3.665-1.214a2.339,2.339,0,0,1-.772,1.889,3.3,3.3,0,0,1-2.2.654h-.7v2.722H97.059v-7.653H99.5a3.266,3.266,0,0,1,2.119.6,2.19,2.19,0,0,1,.723,1.788Zm1.927,2.726v-.387a1.721,1.721,0,0,1,.214-.873,2.817,2.817,0,0,1,.785-.791,3.266,3.266,0,0,0,.725-.637.922.922,0,0,0,.175-.551.593.593,0,0,0-.251-.516,1.2,1.2,0,0,0-.7-.178,4.041,4.041,0,0,0-1.789.512l-.572-1.144a4.99,4.99,0,0,1,2.476-.655,2.639,2.639,0,0,1,1.714.519,1.689,1.689,0,0,1,.634,1.38,1.833,1.833,0,0,1-.261.994,3.736,3.736,0,0,1-1,.941,3.092,3.092,0,0,0-.634.565.881.881,0,0,0-.134.507v.314Zm-.168,1.79a.875.875,0,0,1,.235-.665.947.947,0,0,1,.684-.225.923.923,0,0,1,.673.231,1.019,1.019,0,0,1,0,1.311.906.906,0,0,1-.671.237.932.932,0,0,1-.678-.231.873.873,0,0,1-.241-.658Zm4.3-1.563,3.581-1.47-3.581-1.66v-1.255l5.2,2.6v.749l-5.2,2.292Z" transform="translate(-67.006 -196.754)" fill="#fff" fill-rule="evenodd"/>
      <path id="Rectángulo_5279" data-name="Rectángulo 5279" d="M3.6,0H46.375a3.6,3.6,0,0,1,3.6,3.6V24.131a3.6,3.6,0,0,1-3.6,3.6H3.6a3.6,3.6,0,0,1-3.6-3.6V3.6A3.6,3.6,0,0,1,3.6,0Z" transform="translate(1.217 1.25)" fill="#8397b5"/>
      <path id="Rectángulo_5280" data-name="Rectángulo 5280" d="M3.6,0H46.375a3.6,3.6,0,0,1,3.6,3.6V24.132a3.6,3.6,0,0,1-3.6,3.6H3.6A3.6,3.6,0,0,1,0,24.13V3.6A3.6,3.6,0,0,1,3.6,0Z" transform="translate(0)" fill="#fff"/>
      <path id="Trazado_100690" data-name="Trazado 100690" d="M67.545,179.149h45.281a2.355,2.355,0,0,1,2.348,2.348v3.242a.659.659,0,0,1-.657.658H65.854a.66.66,0,0,1-.658-.658V181.5A2.356,2.356,0,0,1,67.545,179.149Z" transform="translate(-65.196 -179.149)" fill="#252626" fill-rule="evenodd"/>
      <path id="Trazado_100691" data-name="Trazado 100691" d="M70.766,192.751H83.459a.489.489,0,0,1,.488.488h0a.489.489,0,0,1-.488.488H70.766a.489.489,0,0,1-.488-.488h0A.489.489,0,0,1,70.766,192.751Z" transform="translate(-66.966 -183.886)" fill="#0c0e0e" fill-rule="evenodd"/>
      <path id="Rectángulo_5281" data-name="Rectángulo 5281" d="M.488,0H6.157a.488.488,0,0,1,.488.488v0a.488.488,0,0,1-.488.488H.487A.487.487,0,0,1,0,.488v0A.488.488,0,0,1,.488,0Z" transform="translate(10.336 11.017)" fill="#0c0e0e"/>
      <path id="Rectángulo_5282" data-name="Rectángulo 5282" d="M.488,0H.937a.488.488,0,0,1,.488.488v0A.487.487,0,0,1,.938.975H.487A.487.487,0,0,1,0,.488v0A.488.488,0,0,1,.488,0Z" transform="translate(7.862 11.017)" fill="#0c0e0e"/>
      <path id="Rectángulo_5283" data-name="Rectángulo 5283" d="M.488,0H3.328a.488.488,0,0,1,.488.488v0a.488.488,0,0,1-.488.488H.487A.487.487,0,0,1,0,.488v0A.488.488,0,0,1,.488,0Z" transform="translate(3.312 11.017)" fill="#0c0e0e"/>
      <path id="Trazado_100692" data-name="Trazado 100692" d="M70.766,199.97H83.459a.489.489,0,0,1,.488.488h0a.49.49,0,0,1-.488.488H70.766a.49.49,0,0,1-.488-.488h0A.489.489,0,0,1,70.766,199.97Z" transform="translate(-66.966 -186.399)" fill="#0c0e0e" fill-rule="evenodd"/>
      <path id="Trazado_100693" data-name="Trazado 100693" d="M70.766,203.272h5.67a.489.489,0,0,1,.488.488h0a.489.489,0,0,1-.488.488h-5.67a.489.489,0,0,1-.488-.488h0A.489.489,0,0,1,70.766,203.272Z" transform="translate(-66.966 -187.549)" fill="#0c0e0e" fill-rule="evenodd"/>
      <path id="Trazado_100694" data-name="Trazado 100694" d="M83.02,203.272h-.45a.489.489,0,0,0-.488.488h0a.489.489,0,0,0,.488.488h.45a.489.489,0,0,0,.488-.488h0A.489.489,0,0,0,83.02,203.272Z" transform="translate(-71.076 -187.549)" fill="#0c0e0e" fill-rule="evenodd"/>
      <path id="Trazado_100695" data-name="Trazado 100695" d="M88.724,203.272h-2.84a.489.489,0,0,0-.488.488h0a.489.489,0,0,0,.488.488h2.84a.489.489,0,0,0,.488-.488h0A.489.489,0,0,0,88.724,203.272Z" transform="translate(-72.23 -187.549)" fill="#0c0e0e" fill-rule="evenodd"/>
      <path id="Trazado_100696" data-name="Trazado 100696" d="M70.766,207.189H83.459a.489.489,0,0,1,.488.488h0a.489.489,0,0,1-.488.488H70.766a.489.489,0,0,1-.488-.488h0A.489.489,0,0,1,70.766,207.189Z" transform="translate(-66.966 -188.913)" fill="#0c0e0e" fill-rule="evenodd"/>
      <path id="Rectángulo_5284" data-name="Rectángulo 5284" d="M.488,0H6.156a.488.488,0,0,1,.488.488v0a.487.487,0,0,1-.487.487H.487A.487.487,0,0,1,0,.488v0A.488.488,0,0,1,.488,0Z" transform="translate(10.336 20.427)" fill="#0c0e0e"/>
      <path id="Rectángulo_5285" data-name="Rectángulo 5285" d="M.488,0H.937a.488.488,0,0,1,.488.488v0A.487.487,0,0,1,.938.975H.487A.487.487,0,0,1,0,.488v0A.488.488,0,0,1,.488,0Z" transform="translate(7.862 20.427)" fill="#0c0e0e"/>
      <path id="Rectángulo_5286" data-name="Rectángulo 5286" d="M.488,0H3.328a.488.488,0,0,1,.488.488v0a.487.487,0,0,1-.487.487H.487A.487.487,0,0,1,0,.488v0A.488.488,0,0,1,.488,0Z" transform="translate(3.312 20.427)" fill="#0c0e0e"/>
      <path id="Trazado_100697" data-name="Trazado 100697" d="M70.766,214.408H83.459a.488.488,0,0,1,.488.488h0a.489.489,0,0,1-.488.488H70.766a.489.489,0,0,1-.488-.488h0A.488.488,0,0,1,70.766,214.408Z" transform="translate(-66.966 -191.427)" fill="#0c0e0e" fill-rule="evenodd"/>
      <path id="Trazado_100698" data-name="Trazado 100698" d="M102.7,192.751h21.475a.489.489,0,0,1,.488.488h0a.489.489,0,0,1-.488.488H102.7a.489.489,0,0,1-.488-.488h0A.489.489,0,0,1,102.7,192.751Z" transform="translate(-78.087 -183.886)" fill="#d84f50" fill-rule="evenodd"/>
      <path id="Rectángulo_5287" data-name="Rectángulo 5287" d="M.488,0h9.938a.488.488,0,0,1,.488.488v0a.487.487,0,0,1-.487.487H.487A.487.487,0,0,1,0,.488v0A.488.488,0,0,1,.488,0Z" transform="translate(35.663 11.017)" fill="#d84f50"/>
      <path id="Rectángulo_5288" data-name="Rectángulo 5288" d="M.488,0H1.854a.487.487,0,0,1,.487.487v0a.488.488,0,0,1-.488.488H.487A.487.487,0,0,1,0,.489v0A.488.488,0,0,1,.488,0Z" transform="translate(31.601 11.017)" fill="#d84f50"/>
      <path id="Rectángulo_5289" data-name="Rectángulo 5289" d="M.488,0H5.779a.488.488,0,0,1,.488.488v0a.488.488,0,0,1-.488.488H.487A.487.487,0,0,1,0,.488v0A.488.488,0,0,1,.488,0Z" transform="translate(24.129 11.017)" fill="#d84f50"/>
      <path id="Trazado_100699" data-name="Trazado 100699" d="M102.7,199.97h21.475a.489.489,0,0,1,.488.488h0a.49.49,0,0,1-.488.488H102.7a.489.489,0,0,1-.488-.488h0A.489.489,0,0,1,102.7,199.97Z" transform="translate(-78.087 -186.399)" fill="#d84f50" fill-rule="evenodd"/>
      <path id="Trazado_100700" data-name="Trazado 100700" d="M102.7,203.272h9.94a.488.488,0,0,1,.488.488h0a.489.489,0,0,1-.488.488H102.7a.489.489,0,0,1-.488-.488h0A.488.488,0,0,1,102.7,203.272Z" transform="translate(-78.087 -187.549)" fill="#d84f50" fill-rule="evenodd"/>
      <path id="Trazado_100701" data-name="Trazado 100701" d="M123.457,203.272h-1.365a.489.489,0,0,0-.488.488h0a.489.489,0,0,0,.488.488h1.365a.489.489,0,0,0,.488-.488h0A.489.489,0,0,0,123.457,203.272Z" transform="translate(-84.838 -187.549)" fill="#d84f50" fill-rule="evenodd"/>
      <path id="Trazado_100702" data-name="Trazado 100702" d="M132.825,203.272h-5.292a.489.489,0,0,0-.488.488h0a.49.49,0,0,0,.488.488h5.292a.489.489,0,0,0,.488-.488h0A.489.489,0,0,0,132.825,203.272Z" transform="translate(-86.733 -187.549)" fill="#d84f50" fill-rule="evenodd"/>
      <path id="Trazado_100703" data-name="Trazado 100703" d="M102.7,207.189h21.475a.489.489,0,0,1,.488.488h0a.489.489,0,0,1-.488.488H102.7a.489.489,0,0,1-.488-.488h0A.489.489,0,0,1,102.7,207.189Z" transform="translate(-78.087 -188.913)" fill="#d84f50" fill-rule="evenodd"/>
      <path id="Rectángulo_5290" data-name="Rectángulo 5290" d="M.488,0h9.938a.488.488,0,0,1,.488.488v0a.487.487,0,0,1-.487.487H.487A.487.487,0,0,1,0,.488v0A.488.488,0,0,1,.488,0Z" transform="translate(35.663 20.427)" fill="#d84f50"/>
      <path id="Rectángulo_5291" data-name="Rectángulo 5291" d="M.488,0H1.853a.488.488,0,0,1,.488.488v0a.487.487,0,0,1-.487.487H.487A.487.487,0,0,1,0,.488v0A.488.488,0,0,1,.488,0Z" transform="translate(31.601 20.427)" fill="#d84f50"/>
      <path id="Rectángulo_5292" data-name="Rectángulo 5292" d="M.488,0h5.29a.488.488,0,0,1,.488.488v0A.487.487,0,0,1,5.78.975H.487A.487.487,0,0,1,0,.488v0A.488.488,0,0,1,.488,0Z" transform="translate(24.129 20.427)" fill="#d84f50"/>
      <path id="Trazado_100704" data-name="Trazado 100704" d="M102.7,214.408h21.475a.488.488,0,0,1,.488.488h0a.489.489,0,0,1-.488.488H102.7a.488.488,0,0,1-.488-.488h0A.488.488,0,0,1,102.7,214.408Z" transform="translate(-78.087 -191.427)" fill="#d84f50" fill-rule="evenodd"/>
      <path id="Trazado_100705" data-name="Trazado 100705" d="M122.786,184.465a1.128,1.128,0,1,0-1.127-1.128A1.129,1.129,0,0,0,122.786,184.465Z" transform="translate(-84.858 -180.215)" fill="#fff" fill-rule="evenodd"/>
      <path id="Trazado_100706" data-name="Trazado 100706" d="M129.023,184.465a1.128,1.128,0,1,0-1.128-1.128A1.13,1.13,0,0,0,129.023,184.465Z" transform="translate(-87.029 -180.215)" fill="#fff" fill-rule="evenodd"/>
      <path id="Trazado_100707" data-name="Trazado 100707" d="M135.26,184.465a1.128,1.128,0,1,0-1.128-1.128A1.129,1.129,0,0,0,135.26,184.465Z" transform="translate(-89.201 -180.215)" fill="#fff" fill-rule="evenodd"/>
    </g>
    <path id="Rectángulo_5293" data-name="Rectángulo 5293" d="M.893,0H2.019a.894.894,0,0,1,.894.894V2.02a.893.893,0,0,1-.893.893H.893A.893.893,0,0,1,0,2.02V.893A.893.893,0,0,1,.893,0Z" transform="translate(86.587 118.238)" fill="#dee7f4"/>
    <rect id="Rectángulo_5294" data-name="Rectángulo 5294" width="2.913" height="2.913" rx="0.893" transform="translate(92.558 118.238)" fill="#dee7f4"/>
    <rect id="Rectángulo_5295" data-name="Rectángulo 5295" width="2.913" height="2.913" rx="0.893" transform="translate(98.528 118.238)" fill="#dee7f4"/>
    <rect id="Rectángulo_5296" data-name="Rectángulo 5296" width="2.913" height="2.913" rx="0.893" transform="translate(104.5 118.238)" fill="#dee7f4"/>
    <path id="Rectángulo_5297" data-name="Rectángulo 5297" d="M.893,0H2.019a.894.894,0,0,1,.894.894V2.02a.893.893,0,0,1-.893.893H.893A.893.893,0,0,1,0,2.02V.893A.893.893,0,0,1,.893,0Z" transform="translate(48.135 281.537)" fill="#dee7f4"/>
    <rect id="Rectángulo_5298" data-name="Rectángulo 5298" width="2.913" height="2.913" rx="0.893" transform="translate(54.106 281.537)" fill="#dee7f4"/>
    <path id="Rectángulo_5299" data-name="Rectángulo 5299" d="M.893,0H2.02a.894.894,0,0,1,.894.894V2.02a.893.893,0,0,1-.893.893H.893A.893.893,0,0,1,0,2.02V.893A.893.893,0,0,1,.893,0Z" transform="translate(60.077 281.537)" fill="#dee7f4"/>
    <path id="Rectángulo_5300" data-name="Rectángulo 5300" d="M.893,0H2.019a.895.895,0,0,1,.895.895V2.02a.893.893,0,0,1-.893.893H.893A.893.893,0,0,1,0,2.02V.893A.893.893,0,0,1,.893,0Z" transform="translate(66.049 281.537)" fill="#dee7f4"/>
    <g id="Grupo_53878" data-name="Grupo 53878" transform="translate(87.011 243.957)">
      <path id="Trazado_100708" data-name="Trazado 100708" d="M155.451,372.975a6.962,6.962,0,1,1-4.923,2.039,6.946,6.946,0,0,1,4.923-2.039Zm3,3.961a4.243,4.243,0,1,0,1.244,3A4.225,4.225,0,0,0,158.451,376.936Z" transform="translate(-129.171 -348.553)" fill="#ffa726" fill-rule="evenodd"/>
      <path id="Trazado_100709" data-name="Trazado 100709" d="M136.332,392.142h0a10.95,10.95,0,0,0,10.918-10.919v-11.38a.968.968,0,0,0-.967-.965h-19.9a.969.969,0,0,0-.966.965v11.38A10.95,10.95,0,0,0,136.332,392.142Z" transform="translate(-121.135 -347.126)" fill="#ffca28" fill-rule="evenodd"/>
      <path id="Trazado_100710" data-name="Trazado 100710" d="M146.392,379.86a10.819,10.819,0,0,1-1.254,5.064,11.032,11.032,0,0,1-5.491,5.021,10.9,10.9,0,0,1-5.962.686,10.863,10.863,0,0,0,12.079-.686,11.066,11.066,0,0,0,2.937-3.334,10.818,10.818,0,0,0,1.43-5.387v-11.38a.968.968,0,0,0-.967-.965h-2.771V379.86Z" transform="translate(-124.016 -347.126)" fill="#ffa726" fill-rule="evenodd"/>
      <path id="Trazado_100711" data-name="Trazado 100711" d="M126.868,403.016h18.926a1.46,1.46,0,0,0,1.455-1.456h0a1.46,1.46,0,0,0-1.455-1.456H126.868a1.46,1.46,0,0,0-1.455,1.456h0A1.46,1.46,0,0,0,126.868,403.016Z" transform="translate(-121.135 -358)" fill="#ffa726" fill-rule="evenodd"/>
      <path id="Trazado_100712" data-name="Trazado 100712" d="M129.8,372.061h0a1.846,1.846,0,0,1,1.839,1.839v6.587a1.844,1.844,0,0,1-1.839,1.839h0a1.843,1.843,0,0,1-1.839-1.839V373.9A1.845,1.845,0,0,1,129.8,372.061Z" transform="translate(-122.021 -348.235)" fill="#ffa726" fill-rule="evenodd"/>
      <path id="Trazado_100713" data-name="Trazado 100713" d="M124.721,343.794h8.323a1.15,1.15,0,0,0,1.148-1.146h0a1.15,1.15,0,0,0-1.148-1.147h-11.2a3.008,3.008,0,0,1-3-3h0a3.006,3.006,0,0,1,3-3h29.117a3.005,3.005,0,0,1,3,3h0a3.007,3.007,0,0,1-3,3H140.808a1.15,1.15,0,0,0-1.146,1.147h0a1.15,1.15,0,0,0,1.146,1.146h3.908a2.32,2.32,0,0,1,2.313,2.314h0a2.318,2.318,0,0,1-2.313,2.313h-6.462a4.612,4.612,0,0,0-4.6,4.6v2.108a1.089,1.089,0,0,1-1.086,1.087h0a1.09,1.09,0,0,1-1.087-1.087v-4.01a2.7,2.7,0,0,0-2.7-2.7h-4.066a2.319,2.319,0,0,1-2.313-2.312h0A2.32,2.32,0,0,1,124.721,343.794Z" transform="translate(-118.85 -335.505)" fill="#fff" fill-rule="evenodd"/>
    </g>
    <g id="Grupo_53879" data-name="Grupo 53879" transform="translate(206.211 106.417)">
      <path id="Trazado_100714" data-name="Trazado 100714" d="M336.533,126.076H306.961a3.917,3.917,0,0,0-3.9,3.905v30.1a.435.435,0,0,0,.743.309l6.655-6.655h26.079a3.917,3.917,0,0,0,3.906-3.9V129.981A3.917,3.917,0,0,0,336.533,126.076Z" transform="translate(-302.196 -125.036)" fill="#8397b5" fill-rule="evenodd"/>
      <path id="Trazado_100715" data-name="Trazado 100715" d="M335.213,124.481H305.641a3.918,3.918,0,0,0-3.9,3.907v30.1a.435.435,0,0,0,.744.308l6.655-6.654h26.078a3.917,3.917,0,0,0,3.9-3.906V128.388A3.918,3.918,0,0,0,335.213,124.481Z" transform="translate(-301.736 -124.481)" fill="#ffa726" fill-rule="evenodd"/>
      <path id="Trazado_100716" data-name="Trazado 100716" d="M317.189,143.42a2.885,2.885,0,0,1-1.088,2.38,4.717,4.717,0,0,1-3.026.871,7.091,7.091,0,0,1-3.159-.673v-2.2a13.232,13.232,0,0,0,1.912.711,5.6,5.6,0,0,0,1.429.206,2.029,2.029,0,0,0,1.2-.3,1.014,1.014,0,0,0,.416-.886.965.965,0,0,0-.182-.583,1.975,1.975,0,0,0-.54-.491,13.073,13.073,0,0,0-1.445-.757,7,7,0,0,1-1.536-.924,3.432,3.432,0,0,1-.815-1.032,3.2,3.2,0,0,1,.7-3.7,4.172,4.172,0,0,1,2.774-.847,6.552,6.552,0,0,1,1.661.206,11.547,11.547,0,0,1,1.652.581l-.763,1.839a10.993,10.993,0,0,0-1.476-.51,4.788,4.788,0,0,0-1.148-.147,1.52,1.52,0,0,0-1.032.314,1.033,1.033,0,0,0-.359.817,1,1,0,0,0,.146.544,1.568,1.568,0,0,0,.461.45,13.606,13.606,0,0,0,1.5.782,6.013,6.013,0,0,1,2.146,1.5,2.941,2.941,0,0,1,.58,1.844Zm12.145-2.5a7.043,7.043,0,0,1-.7,3.3,4.249,4.249,0,0,1-2.048,1.948l2.687,3h-3.029l-2.045-2.5h-.177a5.1,5.1,0,0,1-3.938-1.487,6.078,6.078,0,0,1-1.373-4.274,5.994,5.994,0,0,1,1.378-4.255,5.146,5.146,0,0,1,3.948-1.468,5.071,5.071,0,0,1,3.933,1.48,6.062,6.062,0,0,1,1.363,4.257Zm-8.142,0a4.689,4.689,0,0,0,.708,2.819,2.491,2.491,0,0,0,2.122.944q2.832,0,2.831-3.763t-2.816-3.768a2.507,2.507,0,0,0-2.13.95,4.651,4.651,0,0,0-.716,2.818Zm10.451,5.592V135.356h2.364v9.2h4.527v1.953Z" transform="translate(-304.584 -128.208)" fill="#fff" fill-rule="evenodd"/>
    </g>
    <g id="Grupo_53880" data-name="Grupo 53880" transform="translate(43.606 85.477)">
      <path id="Trazado_100717" data-name="Trazado 100717" d="M187.133,254.075a1.619,1.619,0,1,0-1.62-1.62A1.622,1.622,0,0,0,187.133,254.075Z" transform="translate(-98.66 -147.54)" fill="#fff" fill-rule="evenodd"/>
      <path id="Trazado_100718" data-name="Trazado 100718" d="M350.407,282.774a1.621,1.621,0,1,0-1.619-1.621A1.624,1.624,0,0,0,350.407,282.774Z" transform="translate(-155.516 -157.533)" fill="#fff" fill-rule="evenodd"/>
      <path id="Trazado_100719" data-name="Trazado 100719" d="M283.4,95.593a1.62,1.62,0,1,0-1.62-1.62A1.622,1.622,0,0,0,283.4,95.593Z" transform="translate(-132.183 -92.352)" fill="#fff" fill-rule="evenodd"/>
      <path id="Trazado_100720" data-name="Trazado 100720" d="M88.208,370.9a1.621,1.621,0,1,0-1.62-1.62A1.623,1.623,0,0,0,88.208,370.9Z" transform="translate(-64.211 -188.222)" fill="#fff" fill-rule="evenodd"/>
      <path id="Trazado_100721" data-name="Trazado 100721" d="M165.411,153.131a1.62,1.62,0,1,0-1.62-1.62A1.623,1.623,0,0,0,165.411,153.131Z" transform="translate(-91.095 -112.389)" fill="#fff" fill-rule="evenodd"/>
      <path id="Trazado_100722" data-name="Trazado 100722" d="M184.092,95.91a.736.736,0,1,0-.736-.736A.738.738,0,0,0,184.092,95.91Z" transform="translate(-97.908 -93.078)" fill="#fff" fill-rule="evenodd"/>
      <path id="Trazado_100723" data-name="Trazado 100723" d="M213.953,179.668a.736.736,0,1,0-.736-.737A.738.738,0,0,0,213.953,179.668Z" transform="translate(-108.307 -122.245)" fill="#fff" fill-rule="evenodd"/>
      <path id="Trazado_100724" data-name="Trazado 100724" d="M288.243,131.6a.736.736,0,1,0-.736-.737A.738.738,0,0,0,288.243,131.6Z" transform="translate(-134.177 -105.506)" fill="#fff" fill-rule="evenodd"/>
      <path id="Trazado_100725" data-name="Trazado 100725" d="M320.29,251.773a.736.736,0,1,0-.736-.737A.737.737,0,0,0,320.29,251.773Z" transform="translate(-145.336 -147.354)" fill="#fff" fill-rule="evenodd"/>
      <path id="Trazado_100726" data-name="Trazado 100726" d="M402.59,172.385a.736.736,0,1,0-.737-.737A.738.738,0,0,0,402.59,172.385Z" transform="translate(-173.995 -119.709)" fill="#fff" fill-rule="evenodd"/>
      <path id="Trazado_100727" data-name="Trazado 100727" d="M197.2,224.824a.736.736,0,1,0-.737-.737A.739.739,0,0,0,197.2,224.824Z" transform="translate(-102.473 -137.97)" fill="#fff" fill-rule="evenodd"/>
      <path id="Trazado_100728" data-name="Trazado 100728" d="M137.479,308.581a.737.737,0,1,0-.737-.737A.737.737,0,0,0,137.479,308.581Z" transform="translate(-81.676 -167.136)" fill="#fff" fill-rule="evenodd"/>
      <path id="Trazado_100729" data-name="Trazado 100729" d="M61,371.217a.736.736,0,1,0-.737-.736A.737.737,0,0,0,61,371.217Z" transform="translate(-55.046 -188.948)" fill="#fff" fill-rule="evenodd"/>
      <path id="Trazado_100730" data-name="Trazado 100730" d="M404.047,302.755a.737.737,0,1,0-.737-.737A.738.738,0,0,0,404.047,302.755Z" transform="translate(-174.502 -165.107)" fill="#fff" fill-rule="evenodd"/>
      <path id="Trazado_100731" data-name="Trazado 100731" d="M423.712,405.449a.736.736,0,1,0-.736-.737A.737.737,0,0,0,423.712,405.449Z" transform="translate(-181.351 -200.868)" fill="#fff" fill-rule="evenodd"/>
      <path id="Trazado_100732" data-name="Trazado 100732" d="M52.992,231.38a.736.736,0,1,0-.736-.738A.739.739,0,0,0,52.992,231.38Z" transform="translate(-52.256 -140.253)" fill="#fff" fill-rule="evenodd"/>
      <path id="Trazado_100733" data-name="Trazado 100733" d="M125.1,165.83a.737.737,0,1,0-.736-.737A.738.738,0,0,0,125.1,165.83Z" transform="translate(-77.365 -117.426)" fill="#fff" fill-rule="evenodd"/>
      <path id="Trazado_100734" data-name="Trazado 100734" d="M248.185,97.367a.736.736,0,1,0-.737-.736A.738.738,0,0,0,248.185,97.367Z" transform="translate(-120.227 -93.586)" fill="#fff" fill-rule="evenodd"/>
      <path id="Trazado_100735" data-name="Trazado 100735" d="M324.66,109.748a.736.736,0,1,0-.737-.736A.738.738,0,0,0,324.66,109.748Z" transform="translate(-146.858 -97.897)" fill="#fff" fill-rule="evenodd"/>
    </g>
    <g id="Grupo_53884" data-name="Grupo 53884" transform="translate(100.587 128.258)">
      <path id="Trazado_100736" data-name="Trazado 100736" d="M167.836,210.98c-1.513,4.658-2.966,10.519-4.057,13.521-8.386,23.089-5.811,24.174,12.309,22.807,7.28-.549,14.356-.575,28.089-2.659,1.989-.289,1.031.7,2.039,1.674s-7.723,7.822-7.723,7.822l-16.2,17.071c-12.424-1.292-30.491-5.1-38.427-10.827C131.674,250,149.4,220.952,155.515,206.645c.5-1.162,3.836-.3,4.156-1.253C161.482,206.089,168.787,208.053,167.836,210.98Z" transform="translate(-139.679 -174.497)" fill="#fff" fill-rule="evenodd"/>
      <path id="Trazado_100737" data-name="Trazado 100737" d="M181.957,193.688a11.251,11.251,0,0,1,5.718-2.02c1.211-.045.032-4.575-4.016-2.636,0,0-2.121.16-2.378-.734s7.4-10.634,8.242-11.7a1.421,1.421,0,0,0-.783-2.241c-.564-.016-1.758,1.542-3.406,3.411s-3.522,3.95-3.845,3.981-.735-.364-.231-1.741,3.562-8.848,3.34-9.581a1.4,1.4,0,0,0-2.376-.11c-.794.986-3.6,8.648-4.267,9.515s-1.414.081-1.351-.684,1.928-9.5,1.745-10.192a1.164,1.164,0,0,0-2.144.221c-.56,1.233-2.693,9.519-3.149,9.949s-1.377.2-1.692-1.461-.577-5.177-.929-5.55-1.923.287-1.914,2.041-.115,6.105-.214,6.748c-.524,3.392-1.94,6.315-1.986,9.016a6.522,6.522,0,0,0,.683,2.912,9.386,9.386,0,0,0,5.682,4.829C176.916,198.852,178.755,195.957,181.957,193.688Z" transform="translate(-148.957 -161.597)" fill="#f4ad85" fill-rule="evenodd"/>
      <path id="Trazado_100738" data-name="Trazado 100738" d="M181.957,202.391a11.25,11.25,0,0,1,5.718-2.02c.415-.016.549-.556.384-1.182-.663-.249-3.84.508-6.787,1.839-4.31,1.946-9.1,4.229-12.829-.959-.969-1.346-1.335-5.107-1.01-6.73a21.513,21.513,0,0,0-1.113,5.287,6.536,6.536,0,0,0,.684,2.912c-2.21,3.379,2.553,6.507,6.523,6.589,1.543.031,1.454-1.242,3.05-1.875C178.456,205.507,179.935,203.823,181.957,202.391Z" transform="translate(-148.956 -170.3)" fill="#f19879" fill-rule="evenodd"/>
      <path id="Trazado_100739" data-name="Trazado 100739" d="M302.647,273.3a23.764,23.764,0,0,1,6.992,5.863c2.63,3.071,15.59,25.51,20.106,47.015.989,4.708-6.032,23.709-18.7,32.681l11.313,2.444c-1.077-2.234-25.639-1.433-27.262-4.937-4.7-10.148,12.566-26.943,12.566-26.943Z" transform="translate(-193.516 -198.145)" fill="#ebf2f8" fill-rule="evenodd"/>
      <path id="Trazado_100740" data-name="Trazado 100740" d="M239.5,260.954c6.606,1.749,26.4,7.061,27.491,8.181,1.306,1.345,7.2,33.552,7.22,36.7.014,2.906-6.8,42.81-7.916,53.7H208.429c-1.113-10.894-7.928-50.8-7.914-53.7.014-3.145,6.024-35.466,7.219-36.7s12.3-3.427,18.9-5.176l8.324,10.93,1.183-.01,1.219,2.133,1.219-2.133,1.182.01Z" transform="translate(-160.864 -193.845)" fill="#fff" fill-rule="evenodd"/>
      <path id="Trazado_100741" data-name="Trazado 100741" d="M201.647,328.523c-.982-5.767-1.66-9.988-1.655-10.86.009-1.8,2.181-13.127,4.287-22.736,1.54.83.651,5.311.851,12.39C205.243,311.365,203.495,320.316,201.647,328.523Z" transform="translate(-160.682 -205.676)" fill="#ebf2f8" fill-rule="evenodd"/>
      <path id="Trazado_100742" data-name="Trazado 100742" d="M252.748,260.954c7.294,1.749,29.158,7.061,30.357,8.181,1.442,1.345,7.957,33.552,7.973,36.7.006,1.045-.965,6.881-2.268,14.43-11.174,2.881-20.3,4.806-20.3,4.806s18.4-21.124,16.8-30.407-2.734-17.894-4.276-18.843-11.334-4.45-14.241-5.163-3.323,1.424-3.323,1.424-2.136,7.358-2.492,8.814-1.1,2.1-1.988,1.691-5.429-3.947-5.726-3.768a36.748,36.748,0,0,0-2.2,3.56l-1.345-1.634-1.141-2.907s-5.133,4.1-5.934,4.688a1.432,1.432,0,0,1-2.225-.534c-.237-.831-2.5-11.621-2.5-11.621l1.616-7.349c3.437-.849,6.507-1.589,8.494-2.065l-.291,13.936,1.306-.01,1.348,2.133,1.347-2.133,1.305.01Z" transform="translate(-173.888 -193.845)" fill="#ebf2f8" fill-rule="evenodd"/>
      <path id="Trazado_100743" data-name="Trazado 100743" d="M256.019,283.959l.673,1.064.673-1.064v19.9a.673.673,0,1,1-1.345,0Z" transform="translate(-180.192 -201.856)" fill="#bec7d4" fill-rule="evenodd"/>
      <path id="Trazado_100744" data-name="Trazado 100744" d="M251.408,225.8l.184,0c5.309-.08,9.7,5.513,9.766,12.428l.132,14.77a13.9,13.9,0,0,1-4.411,10.69v-1.038H253.1l-1.341,2.123-1.341-2.123h-3.241v1.631c-3.04-2.084-5.141-6.223-5.184-10.989l-.13-14.772C241.806,231.6,246.1,225.879,251.408,225.8Z" transform="translate(-175.264 -181.602)" fill="#e8685b" fill-rule="evenodd"/>
      <path id="Trazado_100745" data-name="Trazado 100745" d="M249.541,219.228a6.555,6.555,0,0,0-1.383-3.464l-10.251,8.2a6.543,6.543,0,0,0,3.078,2.108l8.556-6.848Zm-2.057-4.2-10.146,8.119a6.612,6.612,0,0,1-.705-1.721l9.326-7.465A6.529,6.529,0,0,1,247.484,215.03Z" transform="translate(-173.441 -177.482)" fill="#f6bb98" fill-rule="evenodd"/>
      <path id="Trazado_100746" data-name="Trazado 100746" d="M211.79,212.5l-3.757,1.906c-3.232,10.641,4.665,29.277,19.812,22.617,6.01-2.641-5.179-24.926-5.179-24.926Z" transform="translate(-163.232 -176.831)" fill-rule="evenodd"/>
      <path id="Trazado_100747" data-name="Trazado 100747" d="M207.373,221.252c-.633,8.519,4.158,19.27,12.972,20.281C223.346,228.727,212.165,223.059,207.373,221.252Z" transform="translate(-163.233 -180.02)" fill="#0c0e0e" fill-rule="evenodd"/>
      <path id="Trazado_100748" data-name="Trazado 100748" d="M288.014,180.881c7.013,5.939,17.416,25.978,6.758,32.763-3.462,2.2-6.04,5.309-11.964,2.646s-5.406-34.18-5.406-34.18S284.465,179.088,288.014,180.881Z" transform="translate(-187.634 -165.764)" fill-rule="evenodd"/>
      <path id="Trazado_100749" data-name="Trazado 100749" d="M307.194,273.338c.1.072.375.267.773.6,1.757,5.093,3.513,13.308,4.433,26.538a.359.359,0,0,1-.242.4c-.147.018-.278-.132-.292-.336C310.889,286.5,309,278.213,307.194,273.338Z" transform="translate(-198.012 -198.158)" fill="#d7e0ec" fill-rule="evenodd"/>
      <path id="Trazado_100750" data-name="Trazado 100750" d="M217.171,268.08c-5.856,4.657-8.615,12.847-12.405,24.965l-.538-.074c3.684-11.859,6.11-20,11.982-24.8Z" transform="translate(-162.157 -196.327)" fill="#ebf2f8" fill-rule="evenodd"/>
      <g id="Grupo_53881" data-name="Grupo 53881" transform="translate(52.115 33.603)">
        <path id="Trazado_100751" data-name="Trazado 100751" d="M226.067,209.551c-.155-.006-.309-.006-.463,0h0a6.222,6.222,0,1,0,4.912,2.092c-.147,1.836-.81,4.03-3.158,3.866l.659-3.525A2.137,2.137,0,0,0,226.067,209.551Z" transform="translate(-219.638 -209.546)" fill="#e8685b" fill-rule="evenodd"/>
        <path id="Trazado_100752" data-name="Trazado 100752" d="M293.123,220.908c.148.046.294.1.437.152h0a6.222,6.222,0,1,1-5.327.377c-.458,1.784-.547,4.074,1.727,4.685l.527-3.548A2.137,2.137,0,0,1,293.123,220.908Z" transform="translate(-242.424 -213.486)" fill="#e8685b" fill-rule="evenodd"/>
      </g>
      <path id="Trazado_100753" data-name="Trazado 100753" d="M256.374,168.078h0a21.357,21.357,0,0,0-24.52,17.482l-3.2,19.1a21.357,21.357,0,0,0,17.483,24.519h0A21.356,21.356,0,0,0,270.654,211.7l3.2-19.1A21.355,21.355,0,0,0,256.374,168.078Z" transform="translate(-170.561 -161.401)" fill="#f4ad85" fill-rule="evenodd"/>
      <path id="Trazado_100754" data-name="Trazado 100754" d="M256.435,168.078h0a21.357,21.357,0,0,0-24.52,17.481l-3.2,19.1c-.075.449-.133.9-.179,1.343,12.542.907,24.926-5.2,27.26-20.275,0,0,5.008.761,6.26,1.088s5.961,4.164,5.444,10.18-2.068,17.366-5.716,22.864-9.5,9.519-19.2,8.381a21.234,21.234,0,0,0,3.616.939h0A21.356,21.356,0,0,0,270.715,211.7l3.2-19.1A21.355,21.355,0,0,0,256.435,168.078Z" transform="translate(-170.621 -161.401)" fill="#ef8871" fill-rule="evenodd"/>
      <path id="Trazado_100755" data-name="Trazado 100755" d="M287.179,188.627s-1.182,8.5,4.192,11.877c0,0-.727,4.332-.938,5.594s.2,3.343,1.62,3.581l.5-3,2.017-2.578,1.281-13.917-4.818-9.352-4.214-.976S287.19,188.769,287.179,188.627Z" transform="translate(-190.918 -165.605)" fill-rule="evenodd"/>
      <path id="Trazado_100756" data-name="Trazado 100756" d="M283.535,176.072l-4.361,5.015s-6.96-.278-9.5-1.2,5.144-15.817,5.144-15.817,4.733.545,5.113.856,1.029,5.678,1.029,5.678Z" transform="translate(-184.769 -160.108)" fill-rule="evenodd"/>
      <path id="Trazado_100757" data-name="Trazado 100757" d="M278.765,219.653l-9.863,7.894a6.555,6.555,0,0,1-.483-1.9l8.6-6.881a6.456,6.456,0,0,1,1.748.886Zm2.568,3.789a6.584,6.584,0,0,0-1.79-3.138l-10.175,8.145a6.566,6.566,0,0,0,2.67,2.434Z" transform="translate(-184.51 -179.155)" fill="#f6bb98" fill-rule="evenodd"/>
      <g id="Grupo_53882" data-name="Grupo 53882" transform="translate(64.255 44.578)">
        <path id="Trazado_100758" data-name="Trazado 100758" d="M277.27,233.123a2.755,2.755,0,1,0,2.2,3.215A2.756,2.756,0,0,0,277.27,233.123Z" transform="translate(-250.711 -228.715)" fill="#e8685b" fill-rule="evenodd"/>
        <path id="Trazado_100759" data-name="Trazado 100759" d="M241.527,226.433a2.755,2.755,0,1,0,2.2,3.215A2.756,2.756,0,0,0,241.527,226.433Z" transform="translate(-238.264 -226.385)" fill="#e8685b" fill-rule="evenodd"/>
      </g>
      <path id="Trazado_100760" data-name="Trazado 100760" d="M243.756,208.875a5.518,5.518,0,0,1,5.1.83.681.681,0,1,0,.883-1.036,6.9,6.9,0,0,0-6.386-1.1.681.681,0,1,0,.4,1.3Z" transform="translate(-175.615 -175.14)" fill-rule="evenodd"/>
      <path id="Trazado_100761" data-name="Trazado 100761" d="M242.411,220.27a2,2,0,0,1,3.948.661.683.683,0,1,0,1.348.226,3.368,3.368,0,1,0-6.644-1.113.684.684,0,0,0,1.349.226Z" transform="translate(-174.981 -178.62)" fill-rule="evenodd"/>
      <path id="Trazado_100762" data-name="Trazado 100762" d="M279.018,226.4a.684.684,0,0,0,1.349.226,3.369,3.369,0,0,0-6.645-1.114.684.684,0,0,0,1.349.225,2,2,0,1,1,3.947.662Z" transform="translate(-186.353 -180.526)" fill-rule="evenodd"/>
      <path id="Trazado_100763" data-name="Trazado 100763" d="M281.562,215.192a.681.681,0,1,0,.8-1.1,6.912,6.912,0,0,0-6.395-1.046.682.682,0,1,0,.5,1.269A5.517,5.517,0,0,1,281.562,215.192Z" transform="translate(-186.988 -177.028)" fill-rule="evenodd"/>
      <path id="Trazado_100764" data-name="Trazado 100764" d="M288.875,396.332s3.315-2.217,5.1-3.288a4.686,4.686,0,0,1,4.794.052,75.546,75.546,0,0,1,6.834,5.463c.765.808-3.673,2.593-4.131,2.593S288.875,396.332,288.875,396.332Z" transform="translate(-191.633 -239.62)" fill="#ef8871" fill-rule="evenodd"/>
      <path id="Trazado_100765" data-name="Trazado 100765" d="M172.94,407.007H280.1a3,3,0,0,0,2.993-2.994h0a3,3,0,0,0-2.993-2.992H172.94a3,3,0,0,0-2.993,2.992h0A3,3,0,0,0,172.94,407.007Z" transform="translate(-150.219 -242.62)" fill="#0c0e0e" fill-rule="evenodd"/>
      <g id="Grupo_53883" data-name="Grupo 53883" transform="translate(72.51 50.177)">
        <path id="Trazado_100766" data-name="Trazado 100766" d="M262.736,238a5.953,5.953,0,0,1-11.7-2.187l.01,0a1.032,1.032,0,0,1,1.2-.821l9.663,1.805a1.031,1.031,0,0,1,.821,1.2Z" transform="translate(-250.93 -234.976)" fill-rule="evenodd"/>
        <path id="Trazado_100767" data-name="Trazado 100767" d="M260.738,244.679a5.953,5.953,0,0,1-6.841-.851,3.706,3.706,0,0,1,3.749-1.534A3.754,3.754,0,0,1,260.738,244.679Z" transform="translate(-251.963 -237.508)" fill="#d64341" fill-rule="evenodd"/>
        <path id="Trazado_100768" data-name="Trazado 100768" d="M253.337,235.1l9.083,1.7A2.093,2.093,0,0,1,261,238.846c-.871.115-7.41-1.283-7.779-1.888A3.552,3.552,0,0,1,253.337,235.1Z" transform="translate(-251.698 -235.018)" fill="#fff" fill-rule="evenodd"/>
      </g>
      <path id="Trazado_100769" data-name="Trazado 100769" d="M258.076,229.553s-1.055,1.339-.933,2.166,1.3.6,1.53-.075a5.767,5.767,0,0,0,.059-2.194C258.677,229.287,258.341,229.171,258.076,229.553Z" transform="translate(-180.58 -182.822)" fill="#f8caae" fill-rule="evenodd"/>
      <path id="Trazado_100770" data-name="Trazado 100770" d="M242.619,211.925a7.173,7.173,0,0,1,5.979,6.74,15.677,15.677,0,0,1,7.128,1.184,7.173,7.173,0,0,1,13.593.819l3.075-1.535a.594.594,0,1,1,.531,1.064l-3.392,1.695a7.245,7.245,0,0,1-.074,1.8,7.171,7.171,0,1,1-14.145-2.37c.019-.108.039-.216.062-.323a14.294,14.294,0,0,0-6.824-1.141c-.013.107-.029.214-.046.322a7.171,7.171,0,1,1-13.614-4.127l-2.618-2.671a.594.594,0,1,1,.848-.832l2.374,2.421a7.173,7.173,0,0,1,7.121-3.048Zm24.635,7.114a5.977,5.977,0,1,0,1.028,4.457,5.957,5.957,0,0,0-1.028-4.457ZM246.3,215.528a5.978,5.978,0,1,0,1.027,4.458A5.956,5.956,0,0,0,246.3,215.528Z" transform="translate(-171.864 -176.737)" fill-rule="evenodd"/>
      <path id="Trazado_100771" data-name="Trazado 100771" d="M258.02,178.97c1.578-9.217-5.826-11.553-8.3-2.716-3.8,13.576-10.192,31.529-35.434,21.9l-5.874-2.59c6.361-17.945,24.29-36.868,44.149-37.569,6.1-.214,13.285,9.6,13.765,11.167s-.334,6.642-.879,7.392c0,0-5.023,4.674-5.574,4.457S258.02,178.97,258.02,178.97Z" transform="translate(-163.615 -157.991)" fill="#0c0e0e" fill-rule="evenodd"/>
      <path id="Trazado_100772" data-name="Trazado 100772" d="M214.22,187.279a65.675,65.675,0,0,1,5.177-8c8.769,7.888,29.313,2.254,30.192-20.614q1.186-.223,2.384-.362C249.461,181.169,234.25,195.331,214.22,187.279Z" transform="translate(-165.636 -158.099)" fill="#252626" fill-rule="evenodd"/>
      <path id="Trazado_100773" data-name="Trazado 100773" d="M248.881,190.461c-3.945,13.051-11.113,27.957-34.592,19l-5.873-2.59a55.366,55.366,0,0,1,2.151-5.195C217.377,205.221,236.071,212.189,248.881,190.461Z" transform="translate(-163.615 -169.298)" fill-rule="evenodd"/>
      <path id="Trazado_100774" data-name="Trazado 100774" d="M279.5,312.8H176.269a2.35,2.35,0,0,0-2.372,2.791l7.89,52.4A3.374,3.374,0,0,0,185,370.779h85.769a3.375,3.375,0,0,0,3.212-2.791l7.889-52.4A2.348,2.348,0,0,0,279.5,312.8Z" transform="translate(-151.584 -211.898)" fill="#0c0e0e" fill-rule="evenodd"/>
      <path id="Trazado_100775" data-name="Trazado 100775" d="M267.392,262.92s-2.129,5.113-2.846,6.408-5.464,5.746-5.464,5.746-.148.387,0,.594,7.269,6.052,7.269,6.052.592.415,1.037-.5a76.754,76.754,0,0,0,2.818-10.653c.179-1.958-.89-8.01-.89-8.01l-1.855-1.038Z" transform="translate(-181.236 -194.041)" fill="#fff" fill-rule="evenodd"/>
      <path id="Trazado_100776" data-name="Trazado 100776" d="M240.715,262.92s2.131,5.113,2.848,6.408,5.463,5.746,5.463,5.746.149.387,0,.594-7.268,6.052-7.268,6.052-.593.415-1.038-.5a77.033,77.033,0,0,1-2.818-10.653,48.145,48.145,0,0,1,.564-7.061l2.182-1.988Z" transform="translate(-173.873 -194.041)" fill="#fff" fill-rule="evenodd"/>
      <path id="Trazado_100777" data-name="Trazado 100777" d="M298.026,187.4c-5.034,6.591-2.488,21.02,7.4,22.051C306.668,202.591,302.474,193.308,298.026,187.4Z" transform="translate(-193.944 -168.234)" fill="#0c0e0e" fill-rule="evenodd"/>
      <path id="Trazado_100778" data-name="Trazado 100778" d="M278.486,316.6H179.848a2.245,2.245,0,0,0-2.266,2.667l7.54,50.07A3.223,3.223,0,0,0,188.19,372h81.955a3.223,3.223,0,0,0,3.068-2.667l7.54-50.07A2.245,2.245,0,0,0,278.486,316.6Z" transform="translate(-152.868 -213.222)" fill="#1c1d1d" fill-rule="evenodd"/>
      <path id="Trazado_100779" data-name="Trazado 100779" d="M186.2,356.564l1.934,12.841a3.223,3.223,0,0,0,3.068,2.667h81.955a3.223,3.223,0,0,0,3.068-2.667l7.54-50.07A2.244,2.244,0,0,0,282.3,316.8C271.014,336.277,243.269,368.179,186.2,356.564Z" transform="translate(-155.879 -213.292)" fill="#0c0e0e" fill-rule="evenodd"/>
      <path id="Trazado_100780" data-name="Trazado 100780" d="M250.882,371.395c6.043,0,10.971-4.115,10.971-9.159s-4.929-9.157-10.971-9.157-10.971,4.113-10.971,9.157S244.84,371.395,250.882,371.395Z" transform="translate(-174.583 -225.926)" fill="#0c0e0e" fill-rule="evenodd"/>
      <path id="Trazado_100781" data-name="Trazado 100781" d="M252.29,356.45a8.749,8.749,0,0,1,7.2,3.447l-12.756,8.7a6.508,6.508,0,0,1-2.778-5.187c0-3.842,3.733-6.96,8.337-6.96Zm6.773,11.018-3.831-2.108-6.388,4.387a9.706,9.706,0,0,0,3.447.622A8.927,8.927,0,0,0,259.062,367.468Z" transform="translate(-175.99 -227.1)" fill="#fff" fill-rule="evenodd"/>
      <path id="Trazado_100782" data-name="Trazado 100782" d="M183.763,280.676a91.962,91.962,0,0,1-17.089.911c-17.174-.471-26.963-5.022-26-19.754-1.76,7.553-1.469,14.243,3.186,18.21,7.813,5.633,25.448,9.415,37.848,10.766.289-1.413.589-2.85.892-4.277C182.988,284.528,183.38,282.544,183.763,280.676Z" transform="translate(-139.68 -194.151)" fill="#ebf2f8" fill-rule="evenodd"/>
    </g>
    <g id="Grupo_53885" data-name="Grupo 53885" transform="translate(78.383 288.973)">
      <path id="Trazado_100783" data-name="Trazado 100783" d="M123.91,413.857H294.774a3.915,3.915,0,0,1,3.9,3.9h0a3.913,3.913,0,0,1-3.9,3.9H123.91a3.913,3.913,0,0,1-3.9-3.9h0A3.915,3.915,0,0,1,123.91,413.857Z" transform="translate(-110.625 -407.805)" fill="#0c0e0e" fill-rule="evenodd"/>
      <path id="Trazado_100784" data-name="Trazado 100784" d="M110.59,404.572H298.069a4.991,4.991,0,0,1,4.977,4.976h0a4.992,4.992,0,0,1-4.977,4.98H110.59a4.993,4.993,0,0,1-4.977-4.98h0A4.992,4.992,0,0,1,110.59,404.572Z" transform="translate(-105.613 -404.572)" fill="#be865e" fill-rule="evenodd"/>
      <rect id="Rectángulo_5301" data-name="Rectángulo 5301" width="10.359" height="9.955" transform="translate(118.611 0)" fill="#915e40"/>
      <rect id="Rectángulo_5302" data-name="Rectángulo 5302" width="5.38" height="9.955" transform="translate(134.35 0)" fill="#915e40"/>
      <rect id="Rectángulo_5303" data-name="Rectángulo 5303" width="2.69" height="9.955" transform="translate(145.38 0)" fill="#915e40"/>
      <rect id="Rectángulo_5304" data-name="Rectángulo 5304" width="11.586" height="9.955" transform="translate(157.284 0)" fill="#915e40"/>
      <rect id="Rectángulo_5305" data-name="Rectángulo 5305" width="5.793" height="9.955" transform="translate(177.603 0)" fill="#915e40"/>
      <path id="Trazado_100785" data-name="Trazado 100785" d="M112.287,407.053h91.119a2.967,2.967,0,0,1,2.958,2.958h0a2.967,2.967,0,0,1-2.958,2.959H112.287a2.967,2.967,0,0,1-2.958-2.959h0A2.967,2.967,0,0,1,112.287,407.053Z" transform="translate(-106.907 -405.436)" fill="#d49d80" fill-rule="evenodd"/>
    </g>
  </g>
</svg>
