<svg xmlns="http://www.w3.org/2000/svg" width="72.364" height="95.75" viewBox="0 0 72.364 95.75">
  <g id="lista-de-verificacion" transform="translate(-19.073 -4.557)">
    <path id="Trazado_100848" data-name="Trazado 100848" d="M20.823,14.226H90.368v86.55H20.823Z" transform="translate(-0.341 -1.882)" fill="#f45858"/>
    <path id="Trazado_100849" data-name="Trazado 100849" d="M31.211,24.088H84.025V94.373H31.211Z" transform="translate(-2.363 -3.802)" fill="#dfeef4"/>
    <path id="Trazado_100850" data-name="Trazado 100850" d="M74.678,20.627V9.835a3.527,3.527,0,0,0-3.53-3.529h-21.1a3.527,3.527,0,0,0-3.527,3.527V20.624Z" transform="translate(-5.343 -0.34)" fill="#3ea2e5"/>
    <g id="Grupo_53899" data-name="Grupo 53899" transform="translate(37.258 28.358)">
      <path id="Trazado_100851" data-name="Trazado 100851" d="M41.653,59.861H54.319V72.527H41.653Z" transform="translate(-41.653 -39.123)" fill="#f2da30"/>
      <path id="Trazado_100852" data-name="Trazado 100852" d="M41.653,85.611H54.319V98.277H41.653Z" transform="translate(-41.653 -44.135)" fill="#f2da30"/>
      <path id="Trazado_100853" data-name="Trazado 100853" d="M41.653,34.111H54.319V46.777H41.653Z" transform="translate(-41.653 -34.111)" fill="#f2da30"/>
    </g>
    <g id="Grupo_53900" data-name="Grupo 53900" transform="translate(19.073 4.557)">
      <path id="Trazado_100854" data-name="Trazado 100854" d="M20.482,104.452a1.409,1.409,0,0,0,1.409-1.409V99.418a1.409,1.409,0,0,0-2.819,0v3.624a1.409,1.409,0,0,0,1.409,1.409Z" transform="translate(-19.073 -22.747)"/>
      <path id="Trazado_100855" data-name="Trazado 100855" d="M90.028,34.369a1.409,1.409,0,0,0-1.409,1.409v67.508H21.892V97.292a1.409,1.409,0,1,0-2.819,0V104.7a1.409,1.409,0,0,0,1.409,1.409H90.028a1.409,1.409,0,0,0,1.409-1.409V35.778a1.409,1.409,0,0,0-1.409-1.409Z" transform="translate(-19.073 -10.36)"/>
      <path id="Trazado_100856" data-name="Trazado 100856" d="M90.028,10.935H70.744V9.493a4.941,4.941,0,0,0-4.939-4.936H44.7a4.941,4.941,0,0,0-4.936,4.936v1.442H20.482a1.409,1.409,0,0,0-1.409,1.409V74.255a1.409,1.409,0,0,0,2.819,0v-60.5H39.766v5.124H28.848a1.409,1.409,0,0,0-1.409,1.409V90.572a1.409,1.409,0,0,0,1.409,1.409H81.662a1.409,1.409,0,0,0,1.409-1.409V20.287a1.409,1.409,0,0,0-1.409-1.409H70.744V13.753H88.618V23.792a1.409,1.409,0,1,0,2.819,0V12.344a1.409,1.409,0,0,0-1.409-1.409ZM80.252,89.162h-50V21.7h50ZM42.584,18.878V9.493A2.12,2.12,0,0,1,44.7,7.376h21.1a2.12,2.12,0,0,1,2.117,2.117v9.385Z" transform="translate(-19.073 -4.557)"/>
      <path id="Trazado_100857" data-name="Trazado 100857" d="M63.9,41.634a1.41,1.41,0,0,0,1.409,1.409H81.978a1.409,1.409,0,0,0,0-2.819H65.311A1.409,1.409,0,0,0,63.9,41.634Z" transform="translate(-27.798 -11.5)"/>
      <path id="Trazado_100858" data-name="Trazado 100858" d="M81.978,65.975H65.311a1.409,1.409,0,0,0,0,2.819H81.978a1.409,1.409,0,1,0,0-2.819Z" transform="translate(-27.799 -16.512)"/>
      <path id="Trazado_100859" data-name="Trazado 100859" d="M81.978,91.725H65.311a1.409,1.409,0,0,0,0,2.819H81.978a1.409,1.409,0,1,0,0-2.819Z" transform="translate(-27.799 -21.524)"/>
      <path id="Trazado_100860" data-name="Trazado 100860" d="M56.232,30.661l-1.507,1.507a1.4,1.4,0,0,0-.747-.218H41.312A1.41,1.41,0,0,0,39.9,33.359V46.026a1.409,1.409,0,0,0,1.409,1.409H53.978a1.409,1.409,0,0,0,1.409-1.409V35.491l2.837-2.837a1.409,1.409,0,1,0-1.993-1.993ZM52.569,44.616H42.719V34.768h9.4l-4.469,4.469-1.123-1.123a1.409,1.409,0,1,0-1.993,1.993l2.121,2.12a1.409,1.409,0,0,0,1.993,0l3.917-3.917Z" transform="translate(-23.128 -9.558)"/>
      <path id="Trazado_100861" data-name="Trazado 100861" d="M56.232,56.411l-1.507,1.507a1.4,1.4,0,0,0-.747-.218H41.312A1.41,1.41,0,0,0,39.9,59.109V71.776a1.409,1.409,0,0,0,1.409,1.409H53.978a1.409,1.409,0,0,0,1.409-1.409V61.241L58.225,58.4a1.409,1.409,0,1,0-1.993-1.993ZM52.569,70.366H42.719V60.518h9.4l-4.469,4.469-1.123-1.123a1.409,1.409,0,1,0-1.993,1.993l2.121,2.12a1.409,1.409,0,0,0,1.993,0l3.917-3.917Z" transform="translate(-23.128 -14.57)"/>
      <path id="Trazado_100862" data-name="Trazado 100862" d="M56.232,82.161l-1.507,1.507a1.4,1.4,0,0,0-.747-.218H41.312A1.41,1.41,0,0,0,39.9,84.859V97.526a1.409,1.409,0,0,0,1.409,1.409H53.978a1.409,1.409,0,0,0,1.409-1.409V86.991l2.837-2.837a1.409,1.409,0,1,0-1.993-1.993ZM52.569,96.116H42.719V86.268h9.4l-4.469,4.469-1.123-1.123a1.409,1.409,0,1,0-1.993,1.993l2.121,2.12a1.409,1.409,0,0,0,1.993,0l3.917-3.917Z" transform="translate(-23.128 -19.582)"/>
    </g>
  </g>
</svg>
