<svg xmlns="http://www.w3.org/2000/svg" width="505" height="274" viewBox="0 0 505 274">
  <g id="Grupo_54308" data-name="Grupo 54308" transform="translate(-915 -10949)">
    <path id="Rectángulo_5187" data-name="Rectángulo 5187" d="M20,0H485a20,20,0,0,1,20,20V274a0,0,0,0,1,0,0H0a0,0,0,0,1,0,0V20A20,20,0,0,1,20,0Z" transform="translate(915 10949)" fill="#ffca28" opacity="0.31"/>
    <g id="Grupo_53984" data-name="Grupo 53984" transform="translate(740.711 10842.27)">
      <path id="Trazado_100945" data-name="Trazado 100945" d="M277.541,221.4v-.722s-.185-1.314-1.282-1.314h-28.1a2.647,2.647,0,0,0-2.642,2.64v24.336a2.644,2.644,0,0,0,1.463,2.361c-.779.2-1.529.394-2.242.584v-121.5h.39v-.39H507.56v.39h.39V146.18h-.779V130.817a2.645,2.645,0,0,0-2.641-2.64H477.787a2.647,2.647,0,0,0-2.642,2.64V146.18h-.779V130.817a2.645,2.645,0,0,0-2.64-2.64H444.982a2.645,2.645,0,0,0-2.64,2.64V146.18h-.779V130.817a2.646,2.646,0,0,0-2.64-2.64H412.178a2.645,2.645,0,0,0-2.641,2.64V146.18h-.779V130.817a2.646,2.646,0,0,0-2.64-2.64H379.374a2.645,2.645,0,0,0-2.641,2.64V146.18h-.78V130.817a2.645,2.645,0,0,0-2.64-2.64H346.57a2.645,2.645,0,0,0-2.641,2.64v9.893a5.584,5.584,0,0,0-.78.206v-10.1a2.645,2.645,0,0,0-2.641-2.64H313.766a2.646,2.646,0,0,0-2.642,2.64v7.456c-.259-.02-.519-.043-.779-.061v-7.395a2.645,2.645,0,0,0-2.641-2.64H280.961a2.645,2.645,0,0,0-2.64,2.64v11.731c-.262.09-.523.182-.779.274v-12a2.646,2.646,0,0,0-2.64-2.64H248.158a2.646,2.646,0,0,0-2.642,2.64v24.336a2.646,2.646,0,0,0,2.642,2.641h18.21l.015.779H248.158a2.648,2.648,0,0,0-2.642,2.642v24.335a2.646,2.646,0,0,0,2.642,2.64h17.983l-.064.78h-17.92a2.647,2.647,0,0,0-2.642,2.641v24.336a2.646,2.646,0,0,0,2.642,2.64h32.023a2.614,2.614,0,0,0,1.328-.36q.283.939.556,1.932a2.637,2.637,0,0,0-1.884-.792h-1.014a2.72,2.72,0,0,0-.851,2.25l0,.02v21.722l-.779.06V221.635a.353.353,0,0,1,0-.234ZM357.9,309.775h15.415a2.645,2.645,0,0,0,2.64-2.64V282.8a2.645,2.645,0,0,0-2.64-2.64H355.7l-.059-.78h17.667a2.645,2.645,0,0,0,2.64-2.64V266.562l.78-.066v10.243a2.645,2.645,0,0,0,2.641,2.64h26.744a2.646,2.646,0,0,0,2.64-2.64V263.79l.779-.065v13.014a2.645,2.645,0,0,0,2.641,2.64h26.744a2.646,2.646,0,0,0,2.64-2.64V261.021l.779-.066v15.784a2.645,2.645,0,0,0,2.64,2.64h26.744a2.645,2.645,0,0,0,2.64-2.64V258.25l.779-.066v18.555a2.647,2.647,0,0,0,2.642,2.64h26.743a2.645,2.645,0,0,0,2.641-2.64v-21.26l.779-.066v54.753h-.39v.39h-149.6l-.057-.78Zm149.272-2.64V282.8a2.645,2.645,0,0,0-2.641-2.64H477.787a2.646,2.646,0,0,0-2.642,2.64v24.335a2.647,2.647,0,0,0,2.642,2.64h26.743a2.645,2.645,0,0,0,2.641-2.64Zm-32.8,0V282.8a2.645,2.645,0,0,0-2.64-2.64H444.982a2.645,2.645,0,0,0-2.64,2.64v24.335a2.645,2.645,0,0,0,2.64,2.64h26.744a2.645,2.645,0,0,0,2.64-2.64Zm-32.8,0V282.8a2.646,2.646,0,0,0-2.64-2.64H412.178a2.645,2.645,0,0,0-2.641,2.64v24.335a2.645,2.645,0,0,0,2.641,2.64h26.744a2.646,2.646,0,0,0,2.64-2.64Zm-32.8,0V282.8a2.646,2.646,0,0,0-2.64-2.64H379.374a2.645,2.645,0,0,0-2.641,2.64v24.335a2.645,2.645,0,0,0,2.641,2.64h26.744a2.646,2.646,0,0,0,2.64-2.64Zm-48.715-57.373v-.779H347.712l.019.779Zm0-30.4v-.779H350.48l.027.779Zm0-30.4v-.78h-10q-.1.385-.178.78Zm0-30.4v-.779h-1.311c.069.259.137.52.2.779Z" transform="translate(8.861)" fill="#fff" fill-rule="evenodd"/>
      <g id="Grupo_53961" data-name="Grupo 53961" transform="translate(373.293 151.778)">
        <g id="Grupo_53958" data-name="Grupo 53958" transform="translate(0)">
          <rect id="Rectángulo_5310" data-name="Rectángulo 5310" width="262.434" height="182.38" rx="10.019" fill="#fff"/>
          <g id="Grupo_53957" data-name="Grupo 53957" transform="translate(13.435 29.705)">
            <g id="Grupo_53946" data-name="Grupo 53946" transform="translate(0 94.085)">
              <path id="Trazado_100946" data-name="Trazado 100946" d="M348.376,238.841h86a3.517,3.517,0,0,1,3.507,3.507h0a3.517,3.517,0,0,1-3.507,3.507h-86a3.517,3.517,0,0,1-3.507-3.507h0A3.517,3.517,0,0,1,348.376,238.841Z" transform="translate(-344.869 -238.841)" fill="#12263f" fill-rule="evenodd"/>
              <path id="Trazado_100947" data-name="Trazado 100947" d="M348.376,247.841h39.493a3.517,3.517,0,0,1,3.507,3.507h0a3.518,3.518,0,0,1-3.507,3.507H348.376a3.517,3.517,0,0,1-3.507-3.507h0A3.517,3.517,0,0,1,348.376,247.841Z" transform="translate(-344.869 -235.875)" fill="#12263f" fill-rule="evenodd"/>
              <path id="Trazado_100948" data-name="Trazado 100948" d="M386.271,247.841H405.12a3.517,3.517,0,0,1,3.507,3.507h0a3.518,3.518,0,0,1-3.507,3.507H386.271a3.518,3.518,0,0,1-3.507-3.507h0A3.517,3.517,0,0,1,386.271,247.841Z" transform="translate(-332.381 -235.875)" fill="#879aec" fill-rule="evenodd"/>
            </g>
            <g id="Grupo_53950" data-name="Grupo 53950" transform="translate(109.35 94.084)">
              <rect id="Rectángulo_5311" data-name="Rectángulo 5311" width="126.214" height="52.611" rx="4.343" fill="#039be5"/>
              <g id="Grupo_53949" data-name="Grupo 53949" transform="translate(8.803 6.54)">
                <path id="Trazado_100949" data-name="Trazado 100949" d="M440.3,243.76a6.561,6.561,0,1,1-6.561,6.561A6.56,6.56,0,0,1,440.3,243.76Z" transform="translate(-433.736 -243.759)" fill="#12263f" fill-rule="evenodd"/>
                <g id="Grupo_53947" data-name="Grupo 53947" transform="translate(20.178)">
                  <path id="Rectángulo_5312" data-name="Rectángulo 5312" d="M2.017,0H80.486A2.016,2.016,0,0,1,82.5,2.016v1.33a2.016,2.016,0,0,1-2.016,2.016H2.016A2.016,2.016,0,0,1,0,3.346V2.017A2.017,2.017,0,0,1,2.017,0Z" fill="#fff"/>
                  <rect id="Rectángulo_5313" data-name="Rectángulo 5313" width="31.001" height="5.362" rx="2.016" transform="translate(0 7.761)" fill="#fff"/>
                  <rect id="Rectángulo_5314" data-name="Rectángulo 5314" width="18.339" height="5.362" rx="2.016" transform="translate(34.042 7.761)" fill="#12263f"/>
                </g>
                <path id="Trazado_100950" data-name="Trazado 100950" d="M440.3,257.11a6.561,6.561,0,1,1-6.561,6.561A6.561,6.561,0,0,1,440.3,257.11Z" transform="translate(-433.736 -239.36)" fill="#12263f" fill-rule="evenodd"/>
                <g id="Grupo_53948" data-name="Grupo 53948" transform="translate(20.178 17.75)">
                  <rect id="Rectángulo_5315" data-name="Rectángulo 5315" width="69.298" height="5.362" rx="2.016" fill="#12263f"/>
                  <path id="Rectángulo_5316" data-name="Rectángulo 5316" d="M2.017,0H44.794A2.017,2.017,0,0,1,46.81,2.017v1.33a2.016,2.016,0,0,1-2.016,2.016H2.017A2.017,2.017,0,0,1,0,3.346V2.017A2.017,2.017,0,0,1,2.017,0Z" transform="translate(0 7.761)" fill="#12263f"/>
                  <path id="Rectángulo_5317" data-name="Rectángulo 5317" d="M2.017,0h8.927A2.016,2.016,0,0,1,12.96,2.016V3.346a2.017,2.017,0,0,1-2.017,2.017H2.016A2.016,2.016,0,0,1,0,3.346V2.017A2.017,2.017,0,0,1,2.017,0Z" transform="translate(0 15.213)" fill="#12263f"/>
                  <path id="Rectángulo_5318" data-name="Rectángulo 5318" d="M2.016,0H28.985A2.017,2.017,0,0,1,31,2.017v1.33a2.016,2.016,0,0,1-2.016,2.016H2.016A2.016,2.016,0,0,1,0,3.346V2.016A2.016,2.016,0,0,1,2.016,0Z" transform="translate(49.465 7.761)" fill="#fff"/>
                </g>
              </g>
            </g>
            <g id="Grupo_53951" data-name="Grupo 53951">
              <rect id="Rectángulo_5319" data-name="Rectángulo 5319" width="100.269" height="88.715" rx="7.324" transform="translate(0)" fill="#ffca28"/>
              <path id="Trazado_100951" data-name="Trazado 100951" d="M445.138,222.411v14.9a9.767,9.767,0,0,1-9.738,9.738H354.607a9.767,9.767,0,0,1-9.738-9.738v-25.4l23.121-13.349a6.529,6.529,0,0,1,7.969,1.049l23.689,23.689,25.013-14.44a6.528,6.528,0,0,1,7.969,1.049Z" transform="translate(-344.869 -158.329)" fill="#fff" fill-rule="evenodd"/>
              <path id="Trazado_100952" data-name="Trazado 100952" d="M400.3,178.023a12.587,12.587,0,1,1-12.587,12.587A12.587,12.587,0,0,1,400.3,178.023Z" transform="translate(-330.75 -164.799)" fill="#fff" fill-rule="evenodd"/>
            </g>
            <g id="Grupo_53956" data-name="Grupo 53956" transform="translate(109.35)">
              <rect id="Rectángulo_5320" data-name="Rectángulo 5320" width="126.214" height="88.715" rx="7.324" fill="#4dd0e1"/>
              <g id="Grupo_53954" data-name="Grupo 53954" transform="translate(5.574 18.542)">
                <g id="Grupo_53952" data-name="Grupo 53952" transform="translate(0 5.962)">
                  <path id="Trazado_100953" data-name="Trazado 100953" d="M433.977,213.618c8.486,3.207,11.29-.9,14.42-5.5,3.065-4.494,6.415-9.408,14.891-9.408,8.027,0,11.092,6.887,14.1,13.637,2.684,6.031,5.317,11.946,11.486,11.946,6.075,0,9.642-7.807,13.406-16.04,4.24-9.276,8.717-19.07,17.6-19.857,9.27-.822,13.091,5.514,16.654,11.422,2.819,4.672,5.464,9.058,10.611,8.8l.072,1.554c-6.072.308-8.951-4.463-12.016-9.548-3.321-5.506-6.882-11.408-15.186-10.672-7.98.707-12.262,10.075-16.319,18.95-3.978,8.7-7.749,16.953-14.819,16.953-7.177,0-10.013-6.373-12.906-12.871-2.8-6.291-5.659-12.713-12.677-12.713-7.656,0-10.764,4.559-13.605,8.727-3.494,5.127-6.622,9.716-16.255,6.076Z" transform="translate(-430.608 -185.907)" fill="#2d334d" fill-rule="evenodd"/>
                  <path id="Trazado_100954" data-name="Trazado 100954" d="M434.4,205.569a3.1,3.1,0,1,1-3.1,3.1A3.094,3.094,0,0,1,434.4,205.569Z" transform="translate(-431.307 -180.225)" fill="#2d334d" fill-rule="evenodd"/>
                  <path id="Trazado_100955" data-name="Trazado 100955" d="M475.9,213.55a3.095,3.095,0,1,1-3.1,3.1A3.094,3.094,0,0,1,475.9,213.55Z" transform="translate(-417.633 -177.595)" fill="#2d334d" fill-rule="evenodd"/>
                  <path id="Trazado_100956" data-name="Trazado 100956" d="M500.269,186.507a3.095,3.095,0,1,1-3.1,3.1A3.094,3.094,0,0,1,500.269,186.507Z" transform="translate(-409.601 -186.507)" fill="#2d334d" fill-rule="evenodd"/>
                </g>
                <g id="Grupo_53953" data-name="Grupo 53953" transform="translate(0.911)">
                  <path id="Trazado_100957" data-name="Trazado 100957" d="M476.824,220.714h9.73a1.058,1.058,0,0,1,1.056,1.056V222a1.059,1.059,0,0,1-1.056,1.057h-9.73A1.059,1.059,0,0,1,475.767,222v-.227a1.059,1.059,0,0,1,1.057-1.056Zm0,3.507h6.448a1.059,1.059,0,0,1,1.057,1.057v.226a1.059,1.059,0,0,1-1.057,1.057h-6.448a1.059,1.059,0,0,1-1.057-1.057v-.226A1.059,1.059,0,0,1,476.824,224.221Z" transform="translate(-417.566 -169.272)" fill="#2d334d" fill-rule="evenodd"/>
                  <path id="Trazado_100958" data-name="Trazado 100958" d="M498.7,182.023h-9.792a1.061,1.061,0,0,0-1.057,1.057v.227a1.059,1.059,0,0,0,1.057,1.056H498.7a1.058,1.058,0,0,0,1.056-1.056v-.227a1.059,1.059,0,0,0-1.056-1.057Zm0,3.509h-6.45a1.058,1.058,0,0,0-1.057,1.056v.227a1.059,1.059,0,0,0,1.057,1.056h6.45a1.058,1.058,0,0,0,1.056-1.056v-.227A1.057,1.057,0,0,0,498.7,185.532Z" transform="translate(-413.582 -182.023)" fill="#2d334d" fill-rule="evenodd"/>
                  <path id="Trazado_100959" data-name="Trazado 100959" d="M433.048,212.9h9.792a1.058,1.058,0,0,1,1.056,1.056v.227a1.059,1.059,0,0,1-1.056,1.057h-9.792a1.058,1.058,0,0,1-1.056-1.057v-.227a1.058,1.058,0,0,1,1.056-1.056Zm0,3.507h6.45a1.057,1.057,0,0,1,1.056,1.056v.227a1.058,1.058,0,0,1-1.056,1.057h-6.45a1.058,1.058,0,0,1-1.056-1.057v-.227A1.057,1.057,0,0,1,433.048,216.409Z" transform="translate(-431.992 -171.847)" fill="#2d334d" fill-rule="evenodd"/>
                </g>
              </g>
              <g id="Grupo_53955" data-name="Grupo 53955" transform="translate(7.734 5.317)">
                <path id="Trazado_100960" data-name="Trazado 100960" d="M436.439,172.076h26.318a3.518,3.518,0,0,1,3.507,3.507h0a3.518,3.518,0,0,1-3.507,3.507H436.439a3.517,3.517,0,0,1-3.507-3.507h0A3.517,3.517,0,0,1,436.439,172.076Z" transform="translate(-432.932 -172.076)" fill="#fff" fill-rule="evenodd"/>
                <path id="Trazado_100961" data-name="Trazado 100961" d="M435.8,178.749h16.759a2.878,2.878,0,0,1,2.871,2.871h0a2.878,2.878,0,0,1-2.871,2.872H435.8a2.879,2.879,0,0,1-2.872-2.872h0A2.879,2.879,0,0,1,435.8,178.749Z" transform="translate(-432.932 -169.877)" fill="#fff" fill-rule="evenodd"/>
                <path id="Trazado_100962" data-name="Trazado 100962" d="M463.479,172.076h7.547a3.517,3.517,0,0,1,3.507,3.507h0a3.518,3.518,0,0,1-3.507,3.507h-7.547a3.517,3.517,0,0,1-3.507-3.507h0A3.517,3.517,0,0,1,463.479,172.076Z" transform="translate(-424.021 -172.076)" fill="#fff" fill-rule="evenodd"/>
              </g>
            </g>
          </g>
        </g>
        <g id="Grupo_53960" data-name="Grupo 53960" transform="translate(0 0.001)">
          <path id="Trazado_100963" data-name="Trazado 100963" d="M347.061,145.735H584.9a12.332,12.332,0,0,1,12.3,12.3v11.514H334.764V158.031A12.332,12.332,0,0,1,347.061,145.735Z" transform="translate(-334.764 -145.735)" fill="#2d334d" fill-rule="evenodd"/>
          <g id="Grupo_53959" data-name="Grupo 53959" transform="translate(11.163 4.89)">
            <path id="Trazado_100964" data-name="Trazado 100964" d="M350.175,149.413a7.015,7.015,0,1,1-7.015,7.015A7.014,7.014,0,0,1,350.175,149.413Z" transform="translate(-343.16 -149.413)" fill="#ffa726" fill-rule="evenodd"/>
            <path id="Trazado_100965" data-name="Trazado 100965" d="M367.531,149.413a7.015,7.015,0,1,1-7.016,7.015A7.013,7.013,0,0,1,367.531,149.413Z" transform="translate(-337.441 -149.413)" fill="#ffca28" fill-rule="evenodd"/>
            <path id="Trazado_100966" data-name="Trazado 100966" d="M384.886,149.413a7.015,7.015,0,1,1-7.015,7.015A7.014,7.014,0,0,1,384.886,149.413Z" transform="translate(-331.721 -149.413)" fill="#4dd0e1" fill-rule="evenodd"/>
          </g>
        </g>
      </g>
      <g id="Grupo_53982" data-name="Grupo 53982" transform="translate(243.525 139.91)">
        <g id="Grupo_53962" data-name="Grupo 53962" transform="translate(0 110.043)">
          <path id="Trazado_100967" data-name="Trazado 100967" d="M363.44,302.89s-2.53-73.579-12.176-77.295-99.017-12.316-110.945,1.754,13.932,50.751,12,84.535Z" transform="translate(-237.161 -219.576)" fill="#fff" fill-rule="evenodd"/>
          <path id="Trazado_100968" data-name="Trazado 100968" d="M237.343,232.556c-2.211,17.127,16.635,48.287,14.975,77.305l29.265-2.369a219.23,219.23,0,0,0-7.144-33.471C271.869,265.26,248.35,205.869,237.343,232.556Z" transform="translate(-237.161 -217.553)" fill="#4dd0e1" fill-rule="evenodd"/>
        </g>
        <g id="Grupo_53978" data-name="Grupo 53978" transform="translate(2.817)">
          <path id="Trazado_100969" data-name="Trazado 100969" d="M364.445,309.2s-14.625-70.893-34.36-72.01,1.974,83.69,1.974,83.69,6.238,4.381,19.112-.4S364.445,309.2,364.445,309.2Z" transform="translate(-212.086 -103.731)" fill="#fff" fill-rule="evenodd"/>
          <path id="Trazado_100970" data-name="Trazado 100970" d="M272.38,221.018c-4.017,10.021,8.254,29.38,27.177,29.065s29.828-19.245,15.306-32.218C306.478,210.375,276.4,211,272.38,221.018Z" transform="translate(-228.623 -111.766)" fill="#f2d266" fill-rule="evenodd"/>
          <g id="Grupo_53963" data-name="Grupo 53963" transform="translate(8.879 113.885)">
            <path id="Trazado_100971" data-name="Trazado 100971" d="M323.773,223.628l28.034,14.536c4.259,2.207,31.262,48.886,32.832,111.237H267.01S244,253.312,246.092,247.317s45.569-24.852,45.569-24.852Z" transform="translate(-245.958 -222.465)" fill="#ffca28" fill-rule="evenodd"/>
            <path id="Trazado_100972" data-name="Trazado 100972" d="M370.934,266.416a239.386,239.386,0,0,1,11.989,68.5H265.3s-8-33.39-14.133-62.033c15.181,16.795,38.524,34.272,70.921,36.372,9.135.593,21.843.609,32.913-8.1C369.8,289.514,370.807,270.373,370.934,266.416Z" transform="translate(-244.243 -207.981)" fill="#ffa726" fill-rule="evenodd"/>
            <path id="Trazado_100973" data-name="Trazado 100973" d="M279.142,232.794c8.11,10.244,36.412,25.522,38.306,3.748,0,0,1.248,14.156-11.241,16.516S279.142,232.794,279.142,232.794Z" transform="translate(-235.022 -219.061)" fill="#d28434" fill-rule="evenodd"/>
          </g>
          <g id="Grupo_53974" data-name="Grupo 53974" transform="translate(30.125)">
            <g id="Grupo_53964" data-name="Grupo 53964" transform="translate(13.908 62.526)">
              <path id="Trazado_100974" data-name="Trazado 100974" d="M272.4,185.33A264.76,264.76,0,0,1,282.948,235.2s24.15,25.675,31.109,14.634-12.89-60.08-12.89-60.08A32.954,32.954,0,0,0,272.4,185.33Z" transform="translate(-272.399 -183.836)" fill="#ebb2a1" fill-rule="evenodd"/>
              <path id="Trazado_100975" data-name="Trazado 100975" d="M312.733,234.534c-3.331-18.44-12.4-44.789-12.245-44.785a27.323,27.323,0,0,0-21.855-5.458l2.95,21.119S288.476,235.353,312.733,234.534Z" transform="translate(-270.345 -183.836)" fill="#d37b83" fill-rule="evenodd"/>
            </g>
            <g id="Grupo_53973" data-name="Grupo 53973">
              <g id="Grupo_53965" data-name="Grupo 53965" transform="translate(2.319)">
                <path id="Trazado_100976" data-name="Trazado 100976" d="M275.313,196.072s-2.957-17.627-9.165-31.6,1.084-15.182,7.16-9.38c0,0,5.124-14.039,8.659-13.9s-2.453,8.641-2.453,8.641,27.972-23.655,49.052-7.008,14.484-1.328,8.859.6c.83-4.038,7.905-3.37,12.458,1.469s13.373,30.214-12.046,35.843S275.313,196.072,275.313,196.072Z" transform="translate(-263.649 -136.78)" fill="#2d334d" fill-rule="evenodd"/>
                <path id="Trazado_100977" data-name="Trazado 100977" d="M275.232,196.279l-.027-.154c-.029-.177-3.026-17.769-9.154-31.563-2.791-6.279-3.132-10.765-.939-12.309,1.836-1.294,5.1-.242,8.169,2.617.67-1.794,5.269-13.787,8.667-13.787h.057a1.18,1.18,0,0,1,1.109.621c.766,1.552-1.766,5.706-2.916,7.457a68.5,68.5,0,0,1,15.917-9.174c8.819-3.511,21.629-5.882,32.573,2.759,10.473,8.271,13.208,7.257,13.8,6.749.658-.566.566-1.833-.233-3.228-1.025-1.786-2.981-3.275-4.746-2.675l-.239.082.052-.247a3.263,3.263,0,0,1,2.5-2.549c2.549-.722,6.874.4,10.208,3.949,3,3.187,7.146,13.829,4.38,22.8-2.113,6.854-7.664,11.321-16.5,13.278-25.126,5.564-62.148,15.235-62.519,15.332ZM266.974,152a2.9,2.9,0,0,0-1.7.485c-2.07,1.458-1.693,5.817,1.036,11.958,5.835,13.137,8.837,29.7,9.149,31.478,2.621-.683,38.066-9.912,62.378-15.3,8.727-1.933,14.206-6.334,16.287-13.081,2.734-8.871-1.355-19.378-4.314-22.523-3.222-3.426-7.516-4.551-9.921-3.869a3,3,0,0,0-2.235,2.094c1.915-.479,3.837,1.119,4.844,2.874.871,1.52.939,2.929.172,3.59-1,.867-4.177,1.142-14.161-6.741-10.833-8.556-23.536-6.2-32.281-2.722a67.412,67.412,0,0,0-16.589,9.726l-.21-.191c.044-.062,4.313-6.158,3.426-7.955a.9.9,0,0,0-.863-.46h-.049c-3.39,0-8.417,13.664-8.468,13.8l-.076.206-.158-.152C271.078,153.16,268.746,152,266.974,152Z" transform="translate(-263.682 -136.808)" fill="#2d334d"/>
              </g>
              <g id="Grupo_53966" data-name="Grupo 53966" transform="translate(0 25.22)">
                <path id="Trazado_100978" data-name="Trazado 100978" d="M340.871,160.135s5.068,25.325,3.124,42.285S332.384,229.97,323.153,231c-3.763.421-20.827,2.307-32.9-8.175-5.648-4.9-10.2-12.508-11.8-24.236,0,0-11.771,5.48-15.844-10.969-4.019-16.232,11.126-18.643,14.951-8.651a43.225,43.225,0,0,1,1.238,7.145c5.413-8.941,4.414-22.963,4.414-22.963S304.021,148.8,340.871,160.135Z" transform="translate(-261.938 -155.777)" fill="#ebb2a1" fill-rule="evenodd"/>
                <path id="Trazado_100979" data-name="Trazado 100979" d="M336.691,160.135s.629,3.139,1.358,7.945a25.8,25.8,0,0,1-8.9-8.08c-14,21.022-47.545,7.2-47.545,7.2-.519,12.095-6.982,18.919-6.982,18.919,5.413-8.941,4.414-22.963,4.414-22.963S299.842,148.8,336.691,160.135Z" transform="translate(-257.759 -155.777)" fill="#d37b83" fill-rule="evenodd"/>
                <path id="Trazado_100980" data-name="Trazado 100980" d="M278.423,192.814s-11.77,5.48-15.844-10.969c-.9-3.654-1.29-8.332,3.945-8.534,5.519-.214,8.363,7.291,8.363,7.291-4.333-.047-3.723,9.066,3.172,8.145Z" transform="translate(-261.906 -150)" fill="#d37b83" fill-rule="evenodd"/>
              </g>
              <g id="Grupo_53967" data-name="Grupo 53967" transform="translate(17.725 21.592)">
                <path id="Trazado_100981" data-name="Trazado 100981" d="M332.054,155.5s-3.884,21.238-54.353,10.929l-2.43-9.194,30.6-4.191Z" transform="translate(-275.27 -153.048)" fill="#2d334d" fill-rule="evenodd"/>
                <path id="Trazado_100982" data-name="Trazado 100982" d="M324.62,156.146S313.7,174.1,286.183,170.986C286.183,170.986,312.8,180.753,324.62,156.146Z" transform="translate(-271.674 -152.027)" fill="#2d334d" fill-rule="evenodd"/>
                <path id="Trazado_100983" data-name="Trazado 100983" d="M314.623,153.1s8.933,23.8,17.218,14.66S314.623,153.1,314.623,153.1Z" transform="translate(-262.301 -153.03)" fill="#2d334d" fill-rule="evenodd"/>
              </g>
              <g id="Grupo_53972" data-name="Grupo 53972" transform="translate(16.429 41.64)">
                <path id="Trazado_100984" data-name="Trazado 100984" d="M306.062,188.417s5.41,2.809,12.212-1.4c0,0-1.954,6.926-5.22,7.169S306.062,188.417,306.062,188.417Z" transform="translate(-263.826 -161.902)" fill="#d37b83" fill-rule="evenodd"/>
                <g id="Grupo_53968" data-name="Grupo 53968" transform="translate(31.171 36.254)">
                  <path id="Trazado_100985" data-name="Trazado 100985" d="M321.768,195.4s-12.189,3.273-24.028.057c0,0,.366,11.454,10.9,12.363S321.768,195.4,321.768,195.4Z" transform="translate(-297.74 -195.395)" fill="#d37b83" fill-rule="evenodd"/>
                  <path id="Trazado_100986" data-name="Trazado 100986" d="M299.577,201.26a10.77,10.77,0,0,0,8.457,4.85,10.569,10.569,0,0,0,3.806-.334C310.3,203.315,306.438,198.867,299.577,201.26Z" transform="translate(-297.135 -193.688)" fill="#b85263" fill-rule="evenodd"/>
                  <path id="Trazado_100987" data-name="Trazado 100987" d="M320.674,195.46a53.576,53.576,0,0,1-20.656.657c.31,1.283.8,2.7,1.528,3.143,1.428.874,11.965,3.135,16.88-.364A5.525,5.525,0,0,0,320.674,195.46Z" transform="translate(-296.989 -195.374)" fill="#fff" fill-rule="evenodd"/>
                </g>
                <g id="Grupo_53971" data-name="Grupo 53971">
                  <g id="Grupo_53969" data-name="Grupo 53969" transform="translate(22.778 2.531)">
                    <path id="Trazado_100988" data-name="Trazado 100988" d="M303.416,178.382a10.846,10.846,0,0,1,2.637,3.67s-5.22,3.1-14.535.912C291.518,182.964,293.3,175.058,303.416,178.382Z" transform="translate(-291.397 -167.548)" fill="#fff" fill-rule="evenodd"/>
                    <path id="Trazado_100989" data-name="Trazado 100989" d="M298.449,177.049a3.7,3.7,0,0,1,3.894,3.493,3.607,3.607,0,0,1-1.454,3.018,22,22,0,0,1-4.037.359,3.621,3.621,0,0,1-2.016-3.087A3.7,3.7,0,0,1,298.449,177.049Z" transform="translate(-290.304 -167.719)" fill="#879aec" fill-rule="evenodd"/>
                    <path id="Trazado_100990" data-name="Trazado 100990" d="M298.2,177.6a2.989,2.989,0,0,1,2.78,3.131,3.494,3.494,0,0,1-1.008,2.672,12.4,12.4,0,0,1-2.853.291,3.409,3.409,0,0,1-1.448-2.759A2.988,2.988,0,0,1,298.2,177.6Z" transform="translate(-290.029 -167.536)" fill="#2d334d" fill-rule="evenodd"/>
                    <path id="Trazado_100991" data-name="Trazado 100991" d="M306.053,182.671c-1.429-9.78-13.478-9.111-14.535.912,0,0,2.635-4.862,7.58-4.822A8.032,8.032,0,0,1,306.053,182.671Z" transform="translate(-291.397 -168.167)" fill="#2d334d" fill-rule="evenodd"/>
                    <path id="Trazado_100992" data-name="Trazado 100992" d="M295.691,179.255c.961-.037,1.755.335,1.774.831s-.743.929-1.7.967-1.755-.335-1.774-.831S294.731,179.292,295.691,179.255Z" transform="translate(-290.583 -166.992)" fill="#fff" fill-rule="evenodd"/>
                    <path id="Trazado_100993" data-name="Trazado 100993" d="M291.427,174.613l12.926-.5s.8-1.831-2.538-4.082C301.815,170.031,295.4,170.859,291.427,174.613Z" transform="translate(-291.427 -170.031)" fill="#2d334d" fill-rule="evenodd"/>
                  </g>
                  <g id="Grupo_53970" data-name="Grupo 53970" transform="translate(50.71 1.742)">
                    <path id="Trazado_100994" data-name="Trazado 100994" d="M314.6,177.946a10.9,10.9,0,0,0-2.159,3.857s5.046,2.706,13.476-.174C325.912,181.628,323.679,173.878,314.6,177.946Z" transform="translate(-312.436 -167.022)" fill="#fff" fill-rule="evenodd"/>
                    <path id="Trazado_100995" data-name="Trazado 100995" d="M317.491,176.309a3.56,3.56,0,0,0-3.332,3.772,3.687,3.687,0,0,0,1.565,2.9,18.772,18.772,0,0,0,3.752.057,3.667,3.667,0,0,0,1.629-3.227A3.56,3.56,0,0,0,317.491,176.309Z" transform="translate(-311.869 -167.173)" fill="#879aec" fill-rule="evenodd"/>
                    <path id="Trazado_100996" data-name="Trazado 100996" d="M317.265,176.862c-1.357.052-2.4,1.542-2.332,3.328a3.626,3.626,0,0,0,1.129,2.59,10.628,10.628,0,0,0,2.654.078,3.51,3.51,0,0,0,1.13-2.857C319.776,178.215,318.621,176.809,317.265,176.862Z" transform="translate(-311.614 -166.99)" fill="#2d334d" fill-rule="evenodd"/>
                    <path id="Trazado_100997" data-name="Trazado 100997" d="M312.436,182.414c.59-9.859,11.756-10.09,13.476-.174,0,0-2.793-4.652-7.351-4.243A7.483,7.483,0,0,0,312.436,182.414Z" transform="translate(-312.436 -167.633)" fill="#2d334d" fill-rule="evenodd"/>
                    <path id="Trazado_100998" data-name="Trazado 100998" d="M319.326,178.339c-.889.035-1.594.464-1.576.96s.757.871,1.645.836,1.594-.464,1.574-.96S320.214,178.3,319.326,178.339Z" transform="translate(-310.685 -166.504)" fill="#fff" fill-rule="evenodd"/>
                    <path id="Trazado_100999" data-name="Trazado 100999" d="M325.046,173.233l-11.963.463s-.874-1.766,2.038-4.259C315.121,169.437,321.1,169.785,325.046,173.233Z" transform="translate(-312.264 -169.437)" fill="#2d334d" fill-rule="evenodd"/>
                  </g>
                  <path id="Trazado_101000" data-name="Trazado 101000" d="M300.454,168.127a14,14,0,0,1,13.972,13.123,3.305,3.305,0,0,1,1.857-.064,14,14,0,1,1-.025,1.369,2.063,2.063,0,0,0-1.815.1,14,14,0,1,1-13.99-14.531Zm38.767,5.031a12.685,12.685,0,1,0,3.715,8.969,12.647,12.647,0,0,0-3.715-8.969Zm-29.8,0a12.685,12.685,0,1,0,3.715,8.969A12.647,12.647,0,0,0,309.423,173.158Z" transform="translate(-270.288 -168.127)" fill="#fff" fill-rule="evenodd"/>
                  <path id="Trazado_101001" data-name="Trazado 101001" d="M291.33,178.2l-16.892-.534-.142-1.321,17.076.545Z" transform="translate(-274.295 -165.418)" fill="#fff" fill-rule="evenodd"/>
                </g>
              </g>
            </g>
          </g>
          <g id="Grupo_53977" data-name="Grupo 53977" transform="translate(0 136.539)">
            <g id="Grupo_53975" data-name="Grupo 53975">
              <path id="Trazado_101002" data-name="Trazado 101002" d="M278.735,314.6s-9.146-73.894-28.88-75.084-3.506,87.5-3.506,87.5,6.24,4.656,19.114-.423S278.735,314.6,278.735,314.6Z" transform="translate(-239.019 -239.504)" fill="#fff" fill-rule="evenodd"/>
              <path id="Trazado_101003" data-name="Trazado 101003" d="M281.786,298.818c-44-28.8-64.579,39.739-8.253,23.786Z" transform="translate(-239.28 -222.314)" fill="#fff" fill-rule="evenodd"/>
            </g>
            <g id="Grupo_53976" data-name="Grupo 53976" transform="translate(10.891 36.094)">
              <path id="Trazado_101004" data-name="Trazado 101004" d="M316.006,287.152l-.787-1.565c10.243-14.836,10.987-8.63,18.009-17.549,3.777-4.8,5.385,4.068,2.1,8.117C330.25,279.275,316.006,287.152,316.006,287.152Z" transform="translate(-225.145 -266.651)" fill="#d37b83" fill-rule="evenodd"/>
              <path id="Trazado_101005" data-name="Trazado 101005" d="M249.791,309.4c-8.99,19.555,10.236,19.711,22.076,16.218s70-29.626,70-29.626l-5.629-14.339C313.946,286.933,258.783,289.841,249.791,309.4Z" transform="translate(-247.471 -261.709)" fill="#ebb2a1" fill-rule="evenodd"/>
              <path id="Trazado_101006" data-name="Trazado 101006" d="M249.791,304.828c-8.99,19.555,10.236,19.711,22.076,16.218.794-.234,1.8-.573,2.982-1-6.3.635-12.857.065-16.339-3.951-5.234-6.042-2.15-15.07.606-20.591C254.748,298.119,251.468,301.184,249.791,304.828Z" transform="translate(-247.471 -257.142)" fill="#d37b83" fill-rule="evenodd"/>
              <path id="Trazado_101007" data-name="Trazado 101007" d="M329.325,278.1l1.178-4.745,17.023,4.428-1.46,15.33-13.7,1.743Z" transform="translate(-220.496 -264.444)" fill="#d37b83" fill-rule="evenodd"/>
              <path id="Trazado_101008" data-name="Trazado 101008" d="M312.19,287.421l2.715-3.38L336.15,273.35s3.849,12.345,1.857,21.5c0,0-10.127,4.82-17.473,3.869Z" transform="translate(-226.143 -264.444)" fill="#ebb2a1" fill-rule="evenodd"/>
            </g>
          </g>
        </g>
        <g id="Grupo_53981" data-name="Grupo 53981" transform="translate(65.298 159.236)">
          <g id="Grupo_53979" data-name="Grupo 53979" transform="translate(1.266)">
            <path id="Trazado_101009" data-name="Trazado 101009" d="M371.038,319.534H290.445a3.227,3.227,0,0,1-3.219-3.219h0a3.227,3.227,0,0,1,3.219-3.219h80.593a3.227,3.227,0,0,1,3.219,3.219h0A3.227,3.227,0,0,1,371.038,319.534Z" transform="translate(-287.226 -237.949)" fill="#31b4c5" fill-rule="evenodd"/>
            <path id="Trazado_101010" data-name="Trazado 101010" d="M353.286,256.575h107.34a2.438,2.438,0,0,1,2.43,3.15L445.878,335.01a4.2,4.2,0,0,1-3.868,3.15H334.671a2.438,2.438,0,0,1-2.43-3.15l17.178-75.286A4.2,4.2,0,0,1,353.286,256.575Z" transform="translate(-272.418 -256.575)" fill="#31b4c5" fill-rule="evenodd"/>
            <path id="Trazado_101011" data-name="Trazado 101011" d="M355.945,256.575h107.34a2.438,2.438,0,0,1,2.43,3.15L448.538,335.01a4.2,4.2,0,0,1-3.868,3.15H337.33a2.438,2.438,0,0,1-2.43-3.15l17.178-75.286A4.2,4.2,0,0,1,355.945,256.575Z" transform="translate(-271.542 -256.575)" fill="#4dd0e1" fill-rule="evenodd"/>
            <path id="Trazado_101012" data-name="Trazado 101012" d="M392.245,278.571c6.376,0,10.65,5.171,9.541,11.548a14.325,14.325,0,0,1-13.552,11.547c-6.378,0-10.65-5.171-9.542-11.547A14.326,14.326,0,0,1,392.245,278.571Z" transform="translate(-257.141 -249.326)" fill="#ffca28" fill-rule="evenodd"/>
          </g>
          <g id="Grupo_53980" data-name="Grupo 53980" transform="translate(0 68.771)">
            <path id="Trazado_101013" data-name="Trazado 101013" d="M286.384,321.114h36.879s-3.674-12.391-14.968-12.73S284.994,308.13,286.384,321.114Z" transform="translate(-286.274 -308.3)" fill="#4dd0e1" fill-rule="evenodd"/>
            <path id="Trazado_101014" data-name="Trazado 101014" d="M287.021,320.6h20.085C302.3,305.029,285.5,307.547,287.021,320.6Z" transform="translate(-286.06 -307.79)" fill="#2d334d" fill-rule="evenodd"/>
            <path id="Trazado_101015" data-name="Trazado 101015" d="M304.467,312.976a8.073,8.073,0,0,0-1.751-2.106,1.275,1.275,0,0,1,.588-2.239,3.131,3.131,0,0,1,3.493,4,1.273,1.273,0,0,1-2.329.343Z" transform="translate(-281.01 -308.209)" fill="#ffca28" fill-rule="evenodd"/>
          </g>
        </g>
      </g>
      <g id="Grupo_53983" data-name="Grupo 53983" transform="translate(217.85 354.746)">
        <path id="Trazado_101016" data-name="Trazado 101016" d="M403.347,324.379H574.589s-18.568-40.6-42.914-20.3-32.186,18.331-42.708,7.309-32.39-11.434-42.294,2.182S423.621,308.308,403.347,324.379Z" transform="translate(-156.72 -298.394)" fill="#12263f" fill-rule="evenodd"/>
        <path id="Trazado_101017" data-name="Trazado 101017" d="M291.506,322.366H217.85s8.331-18.881,22.076-17.824,17.125,15.885,27.441,13.41S282.221,307.018,291.506,322.366Z" transform="translate(-217.85 -296.382)" fill="#12263f" fill-rule="evenodd"/>
      </g>
    </g>
  </g>
</svg>
