<svg xmlns="http://www.w3.org/2000/svg" xmlns:xlink="http://www.w3.org/1999/xlink" width="85" height="98" viewBox="0 0 85 98">
  <defs>
    <clipPath id="clip-path">
      <rect id="Rectángulo_5308" data-name="Rectángulo 5308" width="85" height="98" rx="10" transform="translate(915 7853)" fill="#ffa726"/>
    </clipPath>
  </defs>
  <g id="Enmascarar_grupo_2" data-name="Enmascarar grupo 2" transform="translate(-915 -7853)" clip-path="url(#clip-path)">
    <g id="javascript_2_" data-name="javascript (2)" transform="translate(902.271 7848.18)">
      <path id="Trazado_100919" data-name="Trazado 100919" d="M81.807,41.011a1.079,1.079,0,0,1-1.079-1.079V23.41H67.885a1.079,1.079,0,1,1,0-2.157H81.807a1.079,1.079,0,0,1,1.079,1.079v17.6A1.079,1.079,0,0,1,81.807,41.011Z" fill="#ffa726"/>
      <path id="Trazado_100920" data-name="Trazado 100920" d="M28.65,41.011a1.079,1.079,0,0,1-1.079-1.079v-17.6a1.079,1.079,0,0,1,1.079-1.079H42.572a1.079,1.079,0,1,1,0,2.157H29.728V39.932A1.079,1.079,0,0,1,28.65,41.011Z" fill="#ffa726"/>
      <path id="Trazado_100921" data-name="Trazado 100921" d="M42.572,89.2H28.65a1.079,1.079,0,0,1-1.079-1.079v-17.6a1.079,1.079,0,0,1,2.157,0V87.047H42.572a1.079,1.079,0,0,1,0,2.157Z" fill="#ffa726"/>
      <path id="Trazado_100922" data-name="Trazado 100922" d="M81.807,89.2H67.885a1.079,1.079,0,0,1,0-2.157H80.728V70.525a1.079,1.079,0,0,1,2.157,0v17.6A1.079,1.079,0,0,1,81.807,89.2Z" fill="#ffa726"/>
      <g id="Grupo_53944" data-name="Grupo 53944">
        <path id="Trazado_100923" data-name="Trazado 100923" d="M96.65,38.853H13.807a1.079,1.079,0,0,0-1.079,1.079V70.523A1.079,1.079,0,0,0,13.807,71.6H96.65a1.079,1.079,0,0,0,1.079-1.079V39.932A1.079,1.079,0,0,0,96.65,38.853ZM95.571,69.445H14.886V41.011H95.571Z" fill="#12263f"/>
        <path id="Trazado_100924" data-name="Trazado 100924" d="M43.183,25.845l2.2.566-1.153,1.954a2.253,2.253,0,0,0,.349,2.737l1.883,1.883a2.252,2.252,0,0,0,2.738.348l1.952-1.152.566,2.2A2.254,2.254,0,0,0,53.9,36.067H56.56a2.254,2.254,0,0,0,2.182-1.69l.566-2.2,1.954,1.153A2.254,2.254,0,0,0,64,32.986L65.883,31.1a2.254,2.254,0,0,0,.348-2.738l-1.153-1.952,2.2-.566a2.254,2.254,0,0,0,1.689-2.182V21a2.254,2.254,0,0,0-1.689-2.181l-2.2-.566L66.232,16.3a2.253,2.253,0,0,0-.349-2.737L64,11.677a2.254,2.254,0,0,0-2.738-.345l-1.952,1.152-.566-2.2A2.254,2.254,0,0,0,56.561,8.6H53.9a2.254,2.254,0,0,0-2.182,1.69l-.566,2.2L49.2,11.331a2.253,2.253,0,0,0-2.737.348l-1.884,1.884a2.254,2.254,0,0,0-.348,2.737l1.152,1.953-2.2.566A2.254,2.254,0,0,0,41.494,21v2.664a2.254,2.254,0,0,0,1.689,2.179ZM43.651,21a.1.1,0,0,1,.071-.093l3.585-.924a1.079,1.079,0,0,0,.659-1.593L46.085,15.2a.1.1,0,0,1,.015-.116L47.984,13.2a.1.1,0,0,1,.116-.016l3.188,1.882a1.079,1.079,0,0,0,1.593-.66l.923-3.583a.1.1,0,0,1,.093-.072H56.56a.1.1,0,0,1,.093.071l.924,3.585a1.079,1.079,0,0,0,1.593.66l3.187-1.881a.1.1,0,0,1,.117.015l1.883,1.883a.1.1,0,0,1,.016.116L62.491,18.39a1.079,1.079,0,0,0,.66,1.593l3.584.924a.1.1,0,0,1,.072.093v2.664a.1.1,0,0,1-.071.093l-3.585.923a1.079,1.079,0,0,0-.66,1.593l1.881,3.187a.1.1,0,0,1-.015.117L62.474,31.46a.1.1,0,0,1-.116.016L59.17,29.594a1.079,1.079,0,0,0-1.593.66l-.923,3.583a.1.1,0,0,1-.093.072H53.9a.1.1,0,0,1-.093-.071l-.924-3.585a1.079,1.079,0,0,0-1.593-.66L48.1,31.475a.1.1,0,0,1-.117-.015L46.1,29.577a.1.1,0,0,1-.016-.116l1.881-3.188a1.079,1.079,0,0,0-.659-1.593l-3.584-.923a.1.1,0,0,1-.072-.093Z" fill="#12263f"/>
        <path id="Trazado_100925" data-name="Trazado 100925" d="M55.228,27.494a5.163,5.163,0,1,0-5.162-5.162,5.163,5.163,0,0,0,5.162,5.162Zm0-8.167a3.005,3.005,0,1,1-3,3,3.005,3.005,0,0,1,3-3Z" fill="#12263f"/>
        <path id="Trazado_100926" data-name="Trazado 100926" d="M67.212,77.208H43.245a1.753,1.753,0,0,0-1.752,1.752V97.29a1.753,1.753,0,0,0,1.752,1.752H67.212a1.754,1.754,0,0,0,1.752-1.752V78.959A1.754,1.754,0,0,0,67.212,77.208Zm-.406,19.675H43.651V79.366H66.806Z" fill="#12263f"/>
        <path id="Trazado_100927" data-name="Trazado 100927" d="M53.6,92.041a1.079,1.079,0,0,0,1.41-.582l2.43-5.84a1.079,1.079,0,1,0-1.992-.829l-2.43,5.84a1.079,1.079,0,0,0,.582,1.41Z" fill="#12263f"/>
        <path id="Trazado_100928" data-name="Trazado 100928" d="M59.305,91.788a1.079,1.079,0,0,0,1.525,0l2.9-2.9a1.079,1.079,0,0,0,0-1.525l-2.9-2.9a1.079,1.079,0,1,0-1.525,1.526l2.138,2.138-2.138,2.138a1.079,1.079,0,0,0,0,1.525Z" fill="#12263f"/>
        <path id="Trazado_100929" data-name="Trazado 100929" d="M49.626,91.788a1.079,1.079,0,1,0,1.525-1.525l-2.138-2.137,2.138-2.138a1.079,1.079,0,1,0-1.525-1.526l-2.9,2.9a1.079,1.079,0,0,0,0,1.525Z" fill="#12263f"/>
      </g>
      <path id="Trazado_100930" data-name="Trazado 100930" d="M56.224,60.516a4.536,4.536,0,0,0,2.042,1.623,7.139,7.139,0,0,0,2.83.554,5.961,5.961,0,0,0,3.681-1.072,3.578,3.578,0,0,0,1.49-2.991,3.743,3.743,0,0,0-.557-2.043,4.487,4.487,0,0,0-1.6-1.453,12.772,12.772,0,0,0-2.871-1.079,7.156,7.156,0,0,1-2.437-1.045,1.494,1.494,0,0,1-.611-1.24,1.612,1.612,0,0,1,.694-1.357,3.476,3.476,0,0,1,2.125-.578,3.11,3.11,0,0,1,2.163.7,2.277,2.277,0,0,1,.757,1.807.554.554,0,0,0,.553.553h1.146a.554.554,0,0,0,.553-.553,4.348,4.348,0,0,0-.667-2.355,4.485,4.485,0,0,0-1.865-1.643,5.957,5.957,0,0,0-2.644-.577,5.776,5.776,0,0,0-3.581,1.079,3.656,3.656,0,0,0,.108,5.964,10.457,10.457,0,0,0,3.223,1.364A7.526,7.526,0,0,1,63.429,57.3a1.759,1.759,0,0,1-.138,2.734,3.68,3.68,0,0,1-2.2.587,3.983,3.983,0,0,1-2.489-.707,2.114,2.114,0,0,1-.847-1.807.554.554,0,0,0-.553-.553H56.068a.554.554,0,0,0-.553.553A4.232,4.232,0,0,0,56.224,60.516Z" fill="#ffa726"/>
      <path id="Trazado_100931" data-name="Trazado 100931" d="M52.873,47.95H51.728a.554.554,0,0,0-.553.553v9.506a2.725,2.725,0,0,1-.675,1.938,2.208,2.208,0,0,1-1.691.678,2.456,2.456,0,0,1-1.778-.58,2.4,2.4,0,0,1-.6-1.8.554.554,0,0,0-.553-.553H44.744a.554.554,0,0,0-.553.553,4.36,4.36,0,0,0,1.22,3.26,4.686,4.686,0,0,0,3.4,1.182,4.485,4.485,0,0,0,3.357-1.3,4.739,4.739,0,0,0,1.26-3.434V48.5a.554.554,0,0,0-.553-.554Z" fill="#ffa726"/>
    </g>
  </g>
</svg>
