<svg xmlns="http://www.w3.org/2000/svg" width="767.117" height="246.646" viewBox="0 0 767.117 246.646">
  <g id="Grupo_53824" data-name="Grupo 53824" transform="translate(40.813 -190.877)">
    <g id="Grupo_53804" data-name="Grupo 53804" transform="translate(-6.452 190.877)">
      <g id="Grupo_53803" data-name="Grupo 53803" transform="translate(0 0)">
        <g id="Grupo_53802" data-name="Grupo 53802">
          <g id="Grupo_53800" data-name="Grupo 53800">
            <circle id="Elipse_4070" data-name="Elipse 4070" cx="59.817" cy="59.817" r="59.817" fill="#dee4f0"/>
            <circle id="Elipse_4071" data-name="Elipse 4071" cx="45.275" cy="45.275" r="45.275" transform="translate(14.541 14.541)" fill="#4dd0e1"/>
          </g>
          <g id="Grupo_53801" data-name="Grupo 53801" transform="translate(35.604 31.936)">
            <path id="Trazado_101411" data-name="Trazado 101411" d="M-8.708.54c7.785,0,13.5-5.9,13.5-16.29S-.923-32.04-8.708-32.04c-7.74,0-13.5,5.9-13.5,16.29S-16.448.54-8.708.54Zm0-6.165c-3.6,0-6.12-2.97-6.12-10.125s2.52-10.125,6.12-10.125c3.645,0,6.165,2.97,6.165,10.125S-5.062-5.625-8.708-5.625ZM6.638-31.5v5.85h6.3V0h7.29V-31.5Z" transform="translate(24 44)" fill="#fff"/>
          </g>
        </g>
      </g>
    </g>
    <g id="Grupo_53809" data-name="Grupo 53809" transform="translate(198.427 190.877)">
      <g id="Grupo_53808" data-name="Grupo 53808" transform="translate(0 0)">
        <g id="Grupo_53807" data-name="Grupo 53807">
          <g id="Grupo_53805" data-name="Grupo 53805">
            <circle id="Elipse_4073" data-name="Elipse 4073" cx="59.817" cy="59.817" r="59.817" fill="#dee4f0"/>
            <circle id="Elipse_4074" data-name="Elipse 4074" cx="45.275" cy="45.275" r="45.275" transform="translate(14.541 14.541)" fill="#ffa726"/>
          </g>
          <g id="Grupo_53806" data-name="Grupo 53806" transform="translate(30.508 31.936)">
            <path id="Trazado_101412" data-name="Trazado 101412" d="M-13.163.54c7.785,0,13.5-5.9,13.5-16.29s-5.715-16.29-13.5-16.29c-7.74,0-13.5,5.9-13.5,16.29S-20.9.54-13.163.54Zm0-6.165c-3.6,0-6.12-2.97-6.12-10.125s2.52-10.125,6.12-10.125C-9.517-25.875-7-22.905-7-15.75S-9.517-5.625-13.163-5.625ZM13.613-5.94l7.245-6.84c4.41-4.1,5.265-6.885,5.265-9.945,0-5.715-4.68-9.315-11.7-9.315-5.67,0-10.08,2.3-12.51,5.85l5.31,3.42a7.7,7.7,0,0,1,6.525-3.15c3.33,0,5.04,1.44,5.04,3.915,0,1.53-.495,3.15-3.285,5.805L3.353-4.725V0H27.158V-5.94Z" transform="translate(28 44)" fill="#fff"/>
          </g>
        </g>
      </g>
    </g>
    <g id="Grupo_53814" data-name="Grupo 53814" transform="translate(402.549 190.877)">
      <g id="Grupo_53813" data-name="Grupo 53813" transform="translate(0 0)">
        <g id="Grupo_53812" data-name="Grupo 53812">
          <g id="Grupo_53810" data-name="Grupo 53810">
            <circle id="Elipse_4076" data-name="Elipse 4076" cx="59.817" cy="59.817" r="59.817" fill="#dee4f0"/>
            <circle id="Elipse_4077" data-name="Elipse 4077" cx="45.275" cy="45.275" r="45.275" transform="translate(14.541 14.541)" fill="#039be5"/>
          </g>
          <g id="Grupo_53811" data-name="Grupo 53811" transform="translate(30.507 31.936)">
            <path id="Trazado_101413" data-name="Trazado 101413" d="M-13.118.54c7.785,0,13.5-5.9,13.5-16.29s-5.715-16.29-13.5-16.29c-7.74,0-13.5,5.9-13.5,16.29S-20.858.54-13.118.54Zm0-6.165c-3.6,0-6.12-2.97-6.12-10.125s2.52-10.125,6.12-10.125c3.645,0,6.165,2.97,6.165,10.125S-9.472-5.625-13.118-5.625ZM18.2-18.675l7.11-8.1V-31.5H3.263v5.85h13.41l-6.48,7.335V-13.5h3.33c4.14,0,5.895,1.485,5.895,3.87,0,2.565-2.25,4.05-5.895,4.05a15.3,15.3,0,0,1-9-2.835L1.688-2.835A21.658,21.658,0,0,0,13.7.54c8.955,0,13.05-4.86,13.05-10.17C26.753-14.265,23.873-17.775,18.2-18.675Z" transform="translate(28 44)" fill="#fff"/>
          </g>
        </g>
      </g>
    </g>
    <g id="Grupo_53819" data-name="Grupo 53819" transform="translate(606.671 190.877)">
      <g id="Grupo_53818" data-name="Grupo 53818" transform="translate(0 0)">
        <g id="Grupo_53817" data-name="Grupo 53817">
          <g id="Grupo_53815" data-name="Grupo 53815">
            <circle id="Elipse_4079" data-name="Elipse 4079" cx="59.817" cy="59.817" r="59.817" fill="#dee4f0"/>
            <circle id="Elipse_4080" data-name="Elipse 4080" cx="45.275" cy="45.275" r="45.275" transform="translate(14.541 14.541)" fill="#ffca28"/>
          </g>
          <g id="Grupo_53816" data-name="Grupo 53816" transform="translate(27.96 31.936)">
            <path id="Trazado_101414" data-name="Trazado 101414" d="M-15.525.54c7.785,0,13.5-5.9,13.5-16.29s-5.715-16.29-13.5-16.29c-7.74,0-13.5,5.9-13.5,16.29S-23.265.54-15.525.54Zm0-6.165c-3.6,0-6.12-2.97-6.12-10.125s2.52-10.125,6.12-10.125c3.645,0,6.165,2.97,6.165,10.125S-11.88-5.625-15.525-5.625Zm45.9-6.93h-5.13v-5.9H18.36v5.9H9.9L23.67-31.5H16.02L1.17-11.52v4.905H18.135V0h7.11V-6.615h5.13Z" transform="translate(31 44)" fill="#fff"/>
          </g>
        </g>
      </g>
    </g>
    <path id="Trazado_101415" data-name="Trazado 101415" d="M-53.82,0V-22.75h7A10.63,10.63,0,0,1-41.453-21.4a9.425,9.425,0,0,1,3.7,3.844,11.855,11.855,0,0,1,1.328,5.664v1.047a11.889,11.889,0,0,1-1.3,5.641,9.344,9.344,0,0,1-3.68,3.828A10.711,10.711,0,0,1-46.773,0Zm4.688-18.953V-3.766h2.266a5.09,5.09,0,0,0,4.2-1.8A8.12,8.12,0,0,0-41.18-10.7v-1.2a8.249,8.249,0,0,0-1.437-5.258,5.073,5.073,0,0,0-4.2-1.789ZM-25.539.313a8.3,8.3,0,0,1-6.055-2.281A8.109,8.109,0,0,1-33.93-8.047v-.437a10.213,10.213,0,0,1,.984-4.555,7.224,7.224,0,0,1,2.789-3.094,7.828,7.828,0,0,1,4.117-1.086,7.016,7.016,0,0,1,5.461,2.188,8.889,8.889,0,0,1,1.992,6.2v1.844H-29.352a4.2,4.2,0,0,0,1.32,2.656,3.991,3.991,0,0,0,2.789,1,4.874,4.874,0,0,0,4.078-1.891l2.219,2.484A6.779,6.779,0,0,1-21.7-.492,9.022,9.022,0,0,1-25.539.313Zm-.516-13.891a2.822,2.822,0,0,0-2.18.91,4.714,4.714,0,0,0-1.07,2.605h6.281v-.361a3.362,3.362,0,0,0-.812-2.331A2.911,2.911,0,0,0-26.055-13.578ZM-14.789,0V-13.594H-17.3v-3.312h2.516v-1.437a5.837,5.837,0,0,1,1.633-4.414,6.324,6.324,0,0,1,4.57-1.57,10.643,10.643,0,0,1,2.3.31l-.047,3.471a5.757,5.757,0,0,0-1.375-.141q-2.547,0-2.547,2.411v1.371H-6.9v3.313h-3.359V0ZM5.242,0a5.015,5.015,0,0,1-.453-1.516A5.464,5.464,0,0,1,.523.313,6,6,0,0,1-3.594-1.125,4.623,4.623,0,0,1-5.227-4.75,4.778,4.778,0,0,1-3.234-8.875a9.83,9.83,0,0,1,5.758-1.453H4.6V-11.3A2.786,2.786,0,0,0,4-13.172a2.367,2.367,0,0,0-1.9-.7,2.69,2.69,0,0,0-1.789.547,1.858,1.858,0,0,0-.648,1.5H-4.852a4.536,4.536,0,0,1,.906-2.719,5.99,5.99,0,0,1,2.563-1.961,9.339,9.339,0,0,1,3.719-.711A7.378,7.378,0,0,1,7.3-15.648a5.493,5.493,0,0,1,1.836,4.414v7.328A8.082,8.082,0,0,0,9.8-.266V0ZM1.508-3.141a3.889,3.889,0,0,0,1.844-.445,2.925,2.925,0,0,0,1.25-1.2V-7.687H2.914Q-.477-7.687-.7-5.344l-.016.266A1.808,1.808,0,0,0-.117-3.687,2.306,2.306,0,0,0,1.508-3.141ZM22.727-1.719A5.663,5.663,0,0,1,18.1.313,5.341,5.341,0,0,1,13.953-1.25a6.67,6.67,0,0,1-1.461-4.578V-16.906h4.516V-5.972q0,2.644,2.406,2.644a3.26,3.26,0,0,0,3.156-1.6V-16.906H27.1V0h-4.25ZM35.273,0H30.742V-24h4.531ZM44.4-21.062v4.156h2.891v3.313H44.4v8.438a2.015,2.015,0,0,0,.359,1.344,1.8,1.8,0,0,0,1.375.406,7.2,7.2,0,0,0,1.328-.109V-.094a9.3,9.3,0,0,1-2.734.406q-4.75,0-4.844-4.8v-9.109H37.414v-3.312h2.469v-4.156ZM-84.873,18h-.9L-91.9,8.874V18h-.908V7.336h.908l6.138,9.133V7.336h.894Zm2.021-4.08a4.663,4.663,0,0,1,.443-2.058,3.377,3.377,0,0,1,1.252-1.425,3.374,3.374,0,0,1,1.835-.509,3.26,3.26,0,0,1,2.563,1.11,4.276,4.276,0,0,1,.981,2.941v.183a4.7,4.7,0,0,1-.443,2.069,3.309,3.309,0,0,1-1.249,1.417,3.424,3.424,0,0,1-1.838.5,3.263,3.263,0,0,1-2.56-1.11,4.266,4.266,0,0,1-.985-2.941Zm.879.242a3.6,3.6,0,0,0,.736,2.333,2.361,2.361,0,0,0,1.93.912,2.353,2.353,0,0,0,1.923-.912,3.714,3.714,0,0,0,.736-2.406V13.92a4.031,4.031,0,0,0-.337-1.663,2.707,2.707,0,0,0-.945-1.168,2.414,2.414,0,0,0-1.392-.414,2.342,2.342,0,0,0-1.912.919A3.72,3.72,0,0,0-81.973,14Zm16.4,1.824a1.249,1.249,0,0,0-.524-1.047,4.039,4.039,0,0,0-1.578-.619,7.121,7.121,0,0,1-1.637-.513,2.181,2.181,0,0,1-.864-.707,1.763,1.763,0,0,1-.282-1.011,1.886,1.886,0,0,1,.784-1.549,3.165,3.165,0,0,1,2.007-.612,3.258,3.258,0,0,1,2.128.656,2.1,2.1,0,0,1,.8,1.71h-.879a1.419,1.419,0,0,0-.582-1.157,2.291,2.291,0,0,0-1.469-.461,2.292,2.292,0,0,0-1.388.385,1.187,1.187,0,0,0-.524,1,1.081,1.081,0,0,0,.436.919,4.61,4.61,0,0,0,1.589.6,7.47,7.47,0,0,1,1.729.579,2.239,2.239,0,0,1,.853.74,1.894,1.894,0,0,1,.278,1.047,1.9,1.9,0,0,1-.809,1.6,3.458,3.458,0,0,1-2.113.6,3.55,3.55,0,0,1-2.245-.67,2.063,2.063,0,0,1-.861-1.7h.879a1.524,1.524,0,0,0,.648,1.2,2.65,2.65,0,0,0,1.578.428,2.49,2.49,0,0,0,1.479-.4A1.209,1.209,0,0,0-65.574,15.986Zm5.918,2.161a3.44,3.44,0,0,1-1.827-.5,3.394,3.394,0,0,1-1.271-1.388,4.327,4.327,0,0,1-.454-2V13.95a4.663,4.663,0,0,1,.443-2.058,3.525,3.525,0,0,1,1.234-1.439,3.045,3.045,0,0,1,1.714-.524,2.861,2.861,0,0,1,2.289.985,4,4,0,0,1,.846,2.692V14.1h-5.654v.168a3.318,3.318,0,0,0,.773,2.245,2.458,2.458,0,0,0,1.945.9,2.856,2.856,0,0,0,1.241-.256,2.753,2.753,0,0,0,.978-.82l.549.417A3.2,3.2,0,0,1-59.656,18.146Zm-.161-7.471a2.191,2.191,0,0,0-1.666.725,3.35,3.35,0,0,0-.824,1.948h4.753v-.1a2.908,2.908,0,0,0-.652-1.86A2.02,2.02,0,0,0-59.817,10.676Zm12.151.146a3.274,3.274,0,0,0-.593-.051,2.14,2.14,0,0,0-1.388.458,2.507,2.507,0,0,0-.809,1.329V18h-.872V10.075h.857l.015,1.26a2.331,2.331,0,0,1,2.234-1.406,1.441,1.441,0,0,1,.579.1Zm4.314,7.324a3.44,3.44,0,0,1-1.827-.5A3.394,3.394,0,0,1-46.45,16.26a4.327,4.327,0,0,1-.454-2V13.95a4.663,4.663,0,0,1,.443-2.058,3.525,3.525,0,0,1,1.234-1.439,3.045,3.045,0,0,1,1.714-.524,2.861,2.861,0,0,1,2.289.985,4,4,0,0,1,.846,2.692V14.1h-5.654v.168a3.318,3.318,0,0,0,.773,2.245,2.458,2.458,0,0,0,1.945.9,2.856,2.856,0,0,0,1.241-.256,2.753,2.753,0,0,0,.978-.82l.549.417A3.2,3.2,0,0,1-43.352,18.146Zm-.161-7.471a2.191,2.191,0,0,0-1.666.725A3.35,3.35,0,0,0-46,13.349h4.753v-.1a2.908,2.908,0,0,0-.652-1.86A2.02,2.02,0,0,0-43.513,10.676Zm4.49,3.289a4.77,4.77,0,0,1,.824-2.948,2.673,2.673,0,0,1,2.252-1.088,2.767,2.767,0,0,1,2.439,1.223l.044-1.077h.82V21.047h-.879V17.019a2.894,2.894,0,0,1-2.439,1.128,2.657,2.657,0,0,1-2.227-1.1,4.787,4.787,0,0,1-.835-2.966Zm.886.154a4.12,4.12,0,0,0,.619,2.413,1.987,1.987,0,0,0,1.718.875,2.379,2.379,0,0,0,2.278-1.37V12.155a2.569,2.569,0,0,0-.912-1.095,2.4,2.4,0,0,0-1.351-.385,2,2,0,0,0-1.729.875A4.412,4.412,0,0,0-38.137,14.118ZM-25.21,17a2.848,2.848,0,0,1-2.527,1.15,2.452,2.452,0,0,1-1.926-.736,3.224,3.224,0,0,1-.674-2.179V10.075h.872v5.046q0,2.263,1.831,2.263a2.245,2.245,0,0,0,2.41-1.575V10.075h.879V18h-.85Zm4.124,1h-.879V10.075h.879ZM-22.119,7.786a.588.588,0,0,1,.161-.419.575.575,0,0,1,.439-.171.587.587,0,0,1,.443.171.58.58,0,0,1,.165.419.568.568,0,0,1-.165.415.594.594,0,0,1-.443.167.581.581,0,0,1-.439-.167A.575.575,0,0,1-22.119,7.786Zm6.482,10.36a3.44,3.44,0,0,1-1.827-.5,3.394,3.394,0,0,1-1.271-1.388,4.327,4.327,0,0,1-.454-2V13.95a4.663,4.663,0,0,1,.443-2.058,3.525,3.525,0,0,1,1.234-1.439A3.045,3.045,0,0,1-15.8,9.929a2.861,2.861,0,0,1,2.289.985,4,4,0,0,1,.846,2.692V14.1h-5.654v.168a3.318,3.318,0,0,0,.773,2.245,2.458,2.458,0,0,0,1.945.9,2.856,2.856,0,0,0,1.241-.256,2.753,2.753,0,0,0,.978-.82l.549.417A3.2,3.2,0,0,1-15.637,18.146Zm-.161-7.471a2.191,2.191,0,0,0-1.666.725,3.35,3.35,0,0,0-.824,1.948h4.753v-.1a2.908,2.908,0,0,0-.652-1.86A2.02,2.02,0,0,0-15.8,10.676Zm8.5.146a3.274,3.274,0,0,0-.593-.051,2.14,2.14,0,0,0-1.388.458,2.507,2.507,0,0,0-.809,1.329V18h-.872V10.075h.857l.015,1.26A2.331,2.331,0,0,1-7.852,9.929a1.441,1.441,0,0,1,.579.1Zm4.314,7.324a3.44,3.44,0,0,1-1.827-.5A3.394,3.394,0,0,1-6.079,16.26a4.327,4.327,0,0,1-.454-2V13.95a4.663,4.663,0,0,1,.443-2.058,3.525,3.525,0,0,1,1.234-1.439,3.045,3.045,0,0,1,1.714-.524,2.861,2.861,0,0,1,2.289.985,4,4,0,0,1,.846,2.692V14.1H-5.662v.168a3.318,3.318,0,0,0,.773,2.245,2.458,2.458,0,0,0,1.945.9A2.856,2.856,0,0,0-1.7,17.15a2.753,2.753,0,0,0,.978-.82l.549.417A3.2,3.2,0,0,1-2.981,18.146Zm-.161-7.471a2.191,2.191,0,0,0-1.666.725,3.35,3.35,0,0,0-.824,1.948H-.879v-.1a2.908,2.908,0,0,0-.652-1.86A2.02,2.02,0,0,0-3.142,10.676Zm14.861,3.442a4.773,4.773,0,0,1-.82,2.941,2.613,2.613,0,0,1-2.2,1.088A2.933,2.933,0,0,1,6.211,17v4.043H5.339V10.075h.813L6.2,11.2A2.812,2.812,0,0,1,8.679,9.929a2.636,2.636,0,0,1,2.23,1.077,4.878,4.878,0,0,1,.809,2.988Zm-.879-.154a4.076,4.076,0,0,0-.623-2.4,2.007,2.007,0,0,0-1.736-.879,2.313,2.313,0,0,0-2.271,1.516v3.8a2.327,2.327,0,0,0,.9,1.04,2.6,2.6,0,0,0,1.384.359,1.989,1.989,0,0,0,1.725-.883A4.438,4.438,0,0,0,10.84,13.964ZM18.662,18a4.145,4.145,0,0,1-.168-1.106,3.056,3.056,0,0,1-1.176.927,3.6,3.6,0,0,1-1.512.326,2.656,2.656,0,0,1-1.849-.637A2.076,2.076,0,0,1,13.25,15.9a2.121,2.121,0,0,1,.963-1.831,4.628,4.628,0,0,1,2.684-.674h1.589v-.9a1.736,1.736,0,0,0-.524-1.337,2.165,2.165,0,0,0-1.527-.487,2.39,2.39,0,0,0-1.516.469,1.393,1.393,0,0,0-.6,1.128l-.879-.007a2.038,2.038,0,0,1,.879-1.637,3.384,3.384,0,0,1,2.161-.692,3.087,3.087,0,0,1,2.091.663,2.378,2.378,0,0,1,.787,1.849v3.75a4.651,4.651,0,0,0,.242,1.721V18Zm-2.754-.63a2.942,2.942,0,0,0,1.571-.425,2.5,2.5,0,0,0,1.007-1.135V14.067H16.919a3.927,3.927,0,0,0-2.051.48,1.44,1.44,0,0,0-.74,1.278,1.417,1.417,0,0,0,.494,1.106A1.862,1.862,0,0,0,15.908,17.37Zm6.768.63H21.8V6.75h.879Zm7.383,0a4.145,4.145,0,0,1-.168-1.106,3.056,3.056,0,0,1-1.176.927,3.6,3.6,0,0,1-1.512.326,2.656,2.656,0,0,1-1.849-.637,2.076,2.076,0,0,1-.707-1.611,2.121,2.121,0,0,1,.963-1.831,4.628,4.628,0,0,1,2.684-.674h1.589v-.9a1.736,1.736,0,0,0-.524-1.337,2.165,2.165,0,0,0-1.527-.487,2.39,2.39,0,0,0-1.516.469,1.393,1.393,0,0,0-.6,1.128l-.879-.007a2.038,2.038,0,0,1,.879-1.637,3.384,3.384,0,0,1,2.161-.692,3.087,3.087,0,0,1,2.091.663,2.378,2.378,0,0,1,.787,1.849v3.75A4.651,4.651,0,0,0,31,17.912V18ZM27.3,17.37a2.942,2.942,0,0,0,1.571-.425,2.5,2.5,0,0,0,1.007-1.135V14.067H28.315a3.927,3.927,0,0,0-2.051.48,1.44,1.44,0,0,0-.74,1.278,1.417,1.417,0,0,0,.494,1.106A1.862,1.862,0,0,0,27.3,17.37ZM39.47,14.118a4.773,4.773,0,0,1-.82,2.941,2.62,2.62,0,0,1-2.2,1.088,2.848,2.848,0,0,1-2.5-1.23L33.9,18h-.82V6.75h.872v4.475a2.754,2.754,0,0,1,2.476-1.3A2.644,2.644,0,0,1,38.654,11a4.829,4.829,0,0,1,.817,2.985Zm-.879-.154a4.128,4.128,0,0,0-.608-2.421,1.982,1.982,0,0,0-1.714-.853,2.412,2.412,0,0,0-1.428.414,2.516,2.516,0,0,0-.886,1.212v3.574a2.348,2.348,0,0,0,2.329,1.494,1.968,1.968,0,0,0,1.7-.857A4.413,4.413,0,0,0,38.591,13.964Zm6.475-3.142a3.274,3.274,0,0,0-.593-.051,2.14,2.14,0,0,0-1.388.458,2.507,2.507,0,0,0-.809,1.329V18H41.4V10.075h.857l.015,1.26a2.331,2.331,0,0,1,2.234-1.406,1.441,1.441,0,0,1,.579.1ZM51.16,18a4.145,4.145,0,0,1-.168-1.106,3.056,3.056,0,0,1-1.176.927,3.6,3.6,0,0,1-1.512.326,2.656,2.656,0,0,1-1.849-.637,2.076,2.076,0,0,1-.707-1.611,2.121,2.121,0,0,1,.963-1.831,4.628,4.628,0,0,1,2.684-.674h1.589v-.9a1.736,1.736,0,0,0-.524-1.337,2.165,2.165,0,0,0-1.527-.487,2.39,2.39,0,0,0-1.516.469,1.393,1.393,0,0,0-.6,1.128l-.879-.007a2.038,2.038,0,0,1,.879-1.637,3.384,3.384,0,0,1,2.161-.692,3.087,3.087,0,0,1,2.091.663,2.378,2.378,0,0,1,.787,1.849v3.75a4.651,4.651,0,0,0,.242,1.721V18Zm-2.754-.63a2.942,2.942,0,0,0,1.571-.425,2.5,2.5,0,0,0,1.007-1.135V14.067H49.417a3.927,3.927,0,0,0-2.051.48,1.44,1.44,0,0,0-.74,1.278,1.417,1.417,0,0,0,.494,1.106A1.862,1.862,0,0,0,48.406,17.37Zm12.363.037A2.314,2.314,0,0,0,62.3,16.89a1.817,1.817,0,0,0,.67-1.337h.842a2.481,2.481,0,0,1-.454,1.322,2.845,2.845,0,0,1-1.11.934,3.344,3.344,0,0,1-1.483.337A3.061,3.061,0,0,1,58.3,17.063a4.382,4.382,0,0,1-.912-2.915v-.264a4.954,4.954,0,0,1,.41-2.073,3.161,3.161,0,0,1,1.176-1.392,3.245,3.245,0,0,1,1.791-.491,3.056,3.056,0,0,1,2.15.776,2.831,2.831,0,0,1,.9,2.043h-.842a2.121,2.121,0,0,0-2.212-2.073,2.185,2.185,0,0,0-1.842.857,3.877,3.877,0,0,0-.656,2.4v.256a3.791,3.791,0,0,0,.656,2.366A2.2,2.2,0,0,0,60.769,17.407ZM66.548,18h-.879V6.75h.879Zm7.383,0a4.145,4.145,0,0,1-.168-1.106,3.056,3.056,0,0,1-1.176.927,3.6,3.6,0,0,1-1.512.326,2.656,2.656,0,0,1-1.849-.637,2.076,2.076,0,0,1-.707-1.611,2.121,2.121,0,0,1,.963-1.831,4.628,4.628,0,0,1,2.684-.674h1.589v-.9a1.736,1.736,0,0,0-.524-1.337,2.165,2.165,0,0,0-1.527-.487,2.39,2.39,0,0,0-1.516.469,1.393,1.393,0,0,0-.6,1.128l-.879-.007a2.038,2.038,0,0,1,.879-1.637,3.384,3.384,0,0,1,2.161-.692,3.087,3.087,0,0,1,2.091.663,2.378,2.378,0,0,1,.787,1.849v3.75a4.651,4.651,0,0,0,.242,1.721V18Zm-2.754-.63a2.942,2.942,0,0,0,1.571-.425,2.5,2.5,0,0,0,1.007-1.135V14.067H72.188a3.927,3.927,0,0,0-2.051.48,1.44,1.44,0,0,0-.74,1.278,1.417,1.417,0,0,0,.494,1.106A1.862,1.862,0,0,0,71.177,17.37Zm8.145-.579,2.41-6.716h.9L79.673,18h-.71l-2.974-7.925h.9Zm7.72,1.355a3.44,3.44,0,0,1-1.827-.5,3.394,3.394,0,0,1-1.271-1.388,4.327,4.327,0,0,1-.454-2V13.95a4.663,4.663,0,0,1,.443-2.058,3.525,3.525,0,0,1,1.234-1.439,3.045,3.045,0,0,1,1.714-.524,2.861,2.861,0,0,1,2.289.985,4,4,0,0,1,.846,2.692V14.1H84.36v.168a3.318,3.318,0,0,0,.773,2.245,2.458,2.458,0,0,0,1.945.9,2.856,2.856,0,0,0,1.241-.256,2.753,2.753,0,0,0,.978-.82l.549.417A3.2,3.2,0,0,1,87.041,18.146Zm-.161-7.471a2.191,2.191,0,0,0-1.666.725,3.35,3.35,0,0,0-.824,1.948h4.753v-.1a2.908,2.908,0,0,0-.652-1.86A2.02,2.02,0,0,0,86.88,10.676Zm4.761,6.8a.621.621,0,0,1,.165-.436.59.59,0,0,1,.458-.179.6.6,0,0,1,.461.179.613.613,0,0,1,.168.436.564.564,0,0,1-.168.421.631.631,0,0,1-.461.165.619.619,0,0,1-.458-.165A.57.57,0,0,1,91.641,17.473Z" transform="translate(52 416.476)" fill="#4dd0e1" style="mix-blend-mode: multiply;isolation: isolate"/>
    <path id="Trazado_101416" data-name="Trazado 101416" d="M-44.281-8.016V0h-4.687V-22.75h8.875a10.268,10.268,0,0,1,4.508.938,6.908,6.908,0,0,1,2.992,2.664,7.428,7.428,0,0,1,1.047,3.93,6.532,6.532,0,0,1-2.289,5.273,9.534,9.534,0,0,1-6.336,1.93Zm0-3.8h4.188a4.117,4.117,0,0,0,2.836-.875,3.182,3.182,0,0,0,.977-2.5,3.753,3.753,0,0,0-.984-2.7,3.677,3.677,0,0,0-2.719-1.062h-4.3Zm25.156-.859A12.268,12.268,0,0,0-20.75-12.8q-2.563,0-3.359,1.734V0h-4.516V-16.906h4.266l.125,2.016a4.184,4.184,0,0,1,3.766-2.328,4.732,4.732,0,0,1,1.406.2ZM-12.187,0h-4.531V-16.906h4.531Zm-4.8-21.281a2.224,2.224,0,0,1,.68-1.672,2.553,2.553,0,0,1,1.852-.656,2.559,2.559,0,0,1,1.844.656,2.211,2.211,0,0,1,.688,1.672,2.217,2.217,0,0,1-.7,1.688,2.565,2.565,0,0,1-1.836.656,2.565,2.565,0,0,1-1.836-.656A2.217,2.217,0,0,1-16.984-21.281ZM-2.141-5.516,1-16.906H5.719L.016,0H-4.3L-10-16.906h4.719ZM17.266,0a5.015,5.015,0,0,1-.453-1.516A5.464,5.464,0,0,1,12.547.313,6,6,0,0,1,8.43-1.125,4.623,4.623,0,0,1,6.8-4.75,4.778,4.778,0,0,1,8.789-8.875a9.83,9.83,0,0,1,5.758-1.453h2.078V-11.3a2.786,2.786,0,0,0-.6-1.875,2.367,2.367,0,0,0-1.9-.7,2.69,2.69,0,0,0-1.789.547,1.858,1.858,0,0,0-.648,1.5H7.172a4.536,4.536,0,0,1,.906-2.719,5.99,5.99,0,0,1,2.563-1.961,9.339,9.339,0,0,1,3.719-.711,7.378,7.378,0,0,1,4.961,1.57,5.493,5.493,0,0,1,1.836,4.414v7.328a8.083,8.083,0,0,0,.672,3.641V0ZM13.531-3.141a3.889,3.889,0,0,0,1.844-.445,2.925,2.925,0,0,0,1.25-1.2V-7.687H14.938q-3.391,0-3.609,2.344l-.016.266a1.808,1.808,0,0,0,.594,1.391A2.306,2.306,0,0,0,13.531-3.141Zm16.5-17.922v4.156h2.891v3.313H30.031v8.438a2.015,2.015,0,0,0,.359,1.344,1.8,1.8,0,0,0,1.375.406,7.2,7.2,0,0,0,1.328-.109V-.094a9.3,9.3,0,0,1-2.734.406q-4.75,0-4.844-4.8v-9.109H23.047v-3.312h2.469v-4.156ZM43.219.313a8.3,8.3,0,0,1-6.055-2.281,8.109,8.109,0,0,1-2.336-6.078v-.437a10.213,10.213,0,0,1,.984-4.555A7.224,7.224,0,0,1,38.6-16.133a7.828,7.828,0,0,1,4.117-1.086,7.016,7.016,0,0,1,5.461,2.188,8.889,8.889,0,0,1,1.992,6.2v1.844H39.406a4.2,4.2,0,0,0,1.32,2.656,3.991,3.991,0,0,0,2.789,1,4.874,4.874,0,0,0,4.078-1.891l2.219,2.484a6.779,6.779,0,0,1-2.75,2.242A9.022,9.022,0,0,1,43.219.313ZM42.7-13.578a2.822,2.822,0,0,0-2.18.91,4.714,4.714,0,0,0-1.07,2.605h6.281v-.361a3.362,3.362,0,0,0-.812-2.331A2.911,2.911,0,0,0,42.7-13.578Z" transform="translate(259.934 416.476)" fill="#ffa726" style="mix-blend-mode: multiply;isolation: isolate"/>
    <path id="Trazado_101417" data-name="Trazado 101417" d="M-63.672-8.016V0h-4.687V-22.75h8.875a10.268,10.268,0,0,1,4.508.938,6.908,6.908,0,0,1,2.992,2.664,7.428,7.428,0,0,1,1.047,3.93,6.532,6.532,0,0,1-2.289,5.273,9.534,9.534,0,0,1-6.336,1.93Zm0-3.8h4.188a4.117,4.117,0,0,0,2.836-.875,3.182,3.182,0,0,0,.977-2.5,3.753,3.753,0,0,0-.984-2.7,3.677,3.677,0,0,0-2.719-1.062h-4.3Zm25.156-.859a12.268,12.268,0,0,0-1.625-.125q-2.562,0-3.359,1.734V0h-4.516V-16.906h4.266l.125,2.016a4.184,4.184,0,0,1,3.766-2.328,4.732,4.732,0,0,1,1.406.2Zm.906,4.063a10.026,10.026,0,0,1,.969-4.484,7.092,7.092,0,0,1,2.789-3.047,8.137,8.137,0,0,1,4.227-1.078,7.7,7.7,0,0,1,5.586,2.094,8.4,8.4,0,0,1,2.414,5.688l.031,1.156a8.836,8.836,0,0,1-2.172,6.242A7.549,7.549,0,0,1-29.594.313,7.587,7.587,0,0,1-35.43-2.031a8.992,8.992,0,0,1-2.18-6.375Zm4.516.321A6.32,6.32,0,0,0-32.187-4.6a2.99,2.99,0,0,0,2.594,1.275,3,3,0,0,0,2.563-1.26,6.915,6.915,0,0,0,.922-4.03,6.256,6.256,0,0,0-.922-3.662,3,3,0,0,0-2.594-1.3,2.948,2.948,0,0,0-2.562,1.291A7.031,7.031,0,0,0-33.094-8.289Zm19.688-12.774v4.156h2.891v3.313h-2.891v8.438a2.015,2.015,0,0,0,.359,1.344,1.8,1.8,0,0,0,1.375.406,7.2,7.2,0,0,0,1.328-.109V-.094a9.3,9.3,0,0,1-2.734.406q-4.75,0-4.844-4.8v-9.109h-2.469v-3.312h2.469v-4.156ZM-.219.313A8.3,8.3,0,0,1-6.273-1.969,8.109,8.109,0,0,1-8.609-8.047v-.437a10.213,10.213,0,0,1,.984-4.555,7.224,7.224,0,0,1,2.789-3.094A7.828,7.828,0,0,1-.719-17.219a7.016,7.016,0,0,1,5.461,2.188,8.889,8.889,0,0,1,1.992,6.2v1.844H-4.031a4.2,4.2,0,0,0,1.32,2.656,3.991,3.991,0,0,0,2.789,1A4.874,4.874,0,0,0,4.156-5.219L6.375-2.734A6.779,6.779,0,0,1,3.625-.492,9.022,9.022,0,0,1-.219.313ZM-.734-13.578a2.822,2.822,0,0,0-2.18.91,4.714,4.714,0,0,0-1.07,2.605H2.3v-.361a3.362,3.362,0,0,0-.812-2.331A2.911,2.911,0,0,0-.734-13.578ZM16.328-3.328a2.962,2.962,0,0,0,2.031-.687,2.409,2.409,0,0,0,.813-1.828h4.234A5.792,5.792,0,0,1,22.469-2.7,6.186,6.186,0,0,1,19.945-.477a7.9,7.9,0,0,1-3.539.789,7.34,7.34,0,0,1-5.719-2.3A9.12,9.12,0,0,1,8.594-8.359v-.3a9.016,9.016,0,0,1,2.078-6.234,7.254,7.254,0,0,1,5.7-2.328,7.111,7.111,0,0,1,5.086,1.8,6.39,6.39,0,0,1,1.945,4.8H19.172a3.1,3.1,0,0,0-.812-2.144,2.709,2.709,0,0,0-2.062-.825,2.72,2.72,0,0,0-2.383,1.15,6.666,6.666,0,0,0-.8,3.732v.469a6.75,6.75,0,0,0,.8,3.756A2.754,2.754,0,0,0,16.328-3.328ZM31.391-21.062v4.156h2.891v3.313H31.391v8.438a2.015,2.015,0,0,0,.359,1.344,1.8,1.8,0,0,0,1.375.406,7.2,7.2,0,0,0,1.328-.109V-.094a9.3,9.3,0,0,1-2.734.406q-4.75,0-4.844-4.8v-9.109H24.406v-3.312h2.469v-4.156ZM44.578.313a8.3,8.3,0,0,1-6.055-2.281,8.109,8.109,0,0,1-2.336-6.078v-.437a10.213,10.213,0,0,1,.984-4.555,7.224,7.224,0,0,1,2.789-3.094,7.828,7.828,0,0,1,4.117-1.086,7.016,7.016,0,0,1,5.461,2.188,8.889,8.889,0,0,1,1.992,6.2v1.844H40.766a4.2,4.2,0,0,0,1.32,2.656,3.991,3.991,0,0,0,2.789,1,4.874,4.874,0,0,0,4.078-1.891l2.219,2.484a6.779,6.779,0,0,1-2.75,2.242A9.022,9.022,0,0,1,44.578.313Zm-.516-13.891a2.822,2.822,0,0,0-2.18.91,4.714,4.714,0,0,0-1.07,2.605h6.281v-.361a3.362,3.362,0,0,0-.812-2.331A2.911,2.911,0,0,0,44.063-13.578Zm9.328,5a10.188,10.188,0,0,1,1.773-6.3,5.754,5.754,0,0,1,4.852-2.344,5.178,5.178,0,0,1,4.078,1.844V-24h4.531V0H64.547l-.219-1.8A5.314,5.314,0,0,1,59.984.313,5.739,5.739,0,0,1,55.2-2.039,10.517,10.517,0,0,1,53.391-8.578Zm4.516.321A6.711,6.711,0,0,0,58.734-4.6a2.7,2.7,0,0,0,2.406,1.271A3.02,3.02,0,0,0,64.094-5.1v-6.7a2.977,2.977,0,0,0-2.922-1.774Q57.906-13.578,57.906-8.257Z" transform="translate(460.508 416.476)" fill="#4dd0e1" style="mix-blend-mode: multiply;isolation: isolate"/>
    <path id="Trazado_101418" data-name="Trazado 101418" d="M-39.59-8.266V0h-4.834V-23.461h9.152a10.589,10.589,0,0,1,4.649.967,7.124,7.124,0,0,1,3.086,2.747,7.66,7.66,0,0,1,1.08,4.052,6.736,6.736,0,0,1-2.361,5.438,9.832,9.832,0,0,1-6.534,1.99Zm0-3.916h4.318a4.246,4.246,0,0,0,2.925-.9,3.282,3.282,0,0,0,1.007-2.578,3.87,3.87,0,0,0-1.015-2.788,3.792,3.792,0,0,0-2.8-1.1H-39.59ZM-13-1.772A5.84,5.84,0,0,1-17.773.322a5.508,5.508,0,0,1-4.278-1.611A6.879,6.879,0,0,1-23.558-6.01V-17.435H-18.9V-6.158q0,2.726,2.481,2.726a3.362,3.362,0,0,0,3.255-1.646V-17.435h4.673V0h-4.383ZM10.731-8.556A10.557,10.557,0,0,1,8.943-2.022a5.924,5.924,0,0,1-5,2.344A5.443,5.443,0,0,1-.58-1.853L-.79,0H-4.979V-24.75H-.322v8.878a5.3,5.3,0,0,1,4.238-1.885,5.973,5.973,0,0,1,5,2.344,10.572,10.572,0,0,1,1.813,6.6ZM6.075-8.911a6.974,6.974,0,0,0-.838-3.871A2.83,2.83,0,0,0,2.739-14,3.071,3.071,0,0,0-.322-12.176v6.9A3.112,3.112,0,0,0,2.771-3.432a2.876,2.876,0,0,0,2.965-2.23A11.539,11.539,0,0,0,6.075-8.911ZM18.514,0H13.841V-24.75h4.673Zm8.75,0H22.591V-17.435h4.673ZM22.317-21.946a2.293,2.293,0,0,1,.7-1.724,2.633,2.633,0,0,1,1.909-.677,2.639,2.639,0,0,1,1.9.677,2.28,2.28,0,0,1,.709,1.724,2.286,2.286,0,0,1-.717,1.74,2.646,2.646,0,0,1-1.893.677,2.646,2.646,0,0,1-1.893-.677A2.286,2.286,0,0,1,22.317-21.946ZM38.35-3.432a3.054,3.054,0,0,0,2.095-.709,2.484,2.484,0,0,0,.838-1.885h4.367a5.973,5.973,0,0,1-.967,3.247,6.379,6.379,0,0,1-2.6,2.288,8.144,8.144,0,0,1-3.65.814,7.569,7.569,0,0,1-5.9-2.377,9.4,9.4,0,0,1-2.159-6.566v-.306a9.3,9.3,0,0,1,2.143-6.429,7.481,7.481,0,0,1,5.881-2.4A7.333,7.333,0,0,1,43.643-15.9a6.589,6.589,0,0,1,2.006,4.955H41.282a3.2,3.2,0,0,0-.838-2.211A2.794,2.794,0,0,0,38.317-14a2.8,2.8,0,0,0-2.457,1.186,6.874,6.874,0,0,0-.83,3.849v.484a6.961,6.961,0,0,0,.822,3.873A2.84,2.84,0,0,0,38.35-3.432Z" transform="translate(664.9 417.476)" fill="#ffa726" style="mix-blend-mode: multiply;isolation: isolate"/>
    <g id="Grupo_53820" data-name="Grupo 53820" transform="translate(34.352 332.305)">
      <path id="Trazado_100516" data-name="Trazado 100516" d="M148.932,323.822l-17.547-17.546a4.459,4.459,0,0,1,6.306-6.306l11.241,11.239,11.239-11.239a4.46,4.46,0,0,1,6.308,6.306Z" transform="translate(-130.079 -298.662)" fill="#dee4f0"/>
    </g>
    <g id="Grupo_53821" data-name="Grupo 53821" transform="translate(241.648 332.305)">
      <path id="Trazado_100517" data-name="Trazado 100517" d="M264,323.822l-17.547-17.546a4.459,4.459,0,1,1,6.306-6.306L264,311.209l11.239-11.239a4.46,4.46,0,0,1,6.308,6.306Z" transform="translate(-245.141 -298.662)" fill="#dee4f0"/>
    </g>
    <g id="Grupo_53822" data-name="Grupo 53822" transform="translate(444.169 332.305)">
      <path id="Trazado_100518" data-name="Trazado 100518" d="M379.057,323.823,361.51,306.276a4.46,4.46,0,0,1,6.308-6.306l11.239,11.238L390.3,299.969a4.46,4.46,0,0,1,6.308,6.306Z" transform="translate(-360.204 -298.662)" fill="#dee4f0"/>
    </g>
    <g id="Grupo_53823" data-name="Grupo 53823" transform="translate(647.633 332.305)">
      <path id="Trazado_100519" data-name="Trazado 100519" d="M494.12,323.822l-17.547-17.546a4.459,4.459,0,0,1,6.306-6.306l11.241,11.239,11.24-11.239a4.459,4.459,0,0,1,6.306,6.306Z" transform="translate(-475.267 -298.662)" fill="#dee4f0"/>
    </g>
  </g>
</svg>
