<svg xmlns="http://www.w3.org/2000/svg" width="546" height="118.332" viewBox="0 0 546 118.332">
  <g id="Grupo_54309" data-name="Grupo 54309" transform="translate(-527 -1877.039)">
    <g id="Grupo_54122" data-name="Grupo 54122">
      <path id="Polígono_1" data-name="Polígono 1" d="M12.236,7.122a4,4,0,0,1,7.15,0l9.327,18.583A4,4,0,0,1,25.138,31.5H6.483a4,4,0,0,1-3.575-5.794Z" transform="translate(820 1963.75) rotate(90)" fill="#4dd0e1"/>
      <rect id="Rectángulo_5218" data-name="Rectángulo 5218" width="238" height="35" rx="10" transform="translate(527 1957.75)" fill="#ffa726" opacity="0.38"/>
      <rect id="Rectángulo_5219" data-name="Rectángulo 5219" width="238" height="35" rx="10" transform="translate(835 1957.75)" fill="#ffa726" opacity="0.38"/>
      <path id="Trazado_101427" data-name="Trazado 101427" d="M-11.46-11.846h-4.355V0h-2.93V-11.846h-4.3v-2.373H-11.46Zm-.986,6.465a6.267,6.267,0,0,1,.605-2.8,4.432,4.432,0,0,1,1.743-1.9,5.086,5.086,0,0,1,2.642-.674A4.812,4.812,0,0,1-3.965-9.453,5.252,5.252,0,0,1-2.456-5.9l.02.723a5.523,5.523,0,0,1-1.357,3.9A4.718,4.718,0,0,1-7.437.2,4.742,4.742,0,0,1-11.084-1.27a5.62,5.62,0,0,1-1.362-3.984Zm2.822.2a3.95,3.95,0,0,0,.566,2.3,1.868,1.868,0,0,0,1.621.8,1.873,1.873,0,0,0,1.6-.787,4.322,4.322,0,0,0,.576-2.518,3.91,3.91,0,0,0-.576-2.289,1.873,1.873,0,0,0-1.621-.812,1.842,1.842,0,0,0-1.6.807A4.395,4.395,0,0,0-9.624-5.181ZM5.239-7.92A7.667,7.667,0,0,0,4.224-8a2.067,2.067,0,0,0-2.1,1.084V0H-.7V-10.566H1.968l.078,1.26A2.615,2.615,0,0,1,4.4-10.762a2.957,2.957,0,0,1,.879.127Zm7.295,0A7.667,7.667,0,0,0,11.519-8a2.067,2.067,0,0,0-2.1,1.084V0H6.6V-10.566H9.263l.078,1.26a2.615,2.615,0,0,1,2.354-1.455,2.957,2.957,0,0,1,.879.127ZM18.569.2A5.187,5.187,0,0,1,14.785-1.23a5.068,5.068,0,0,1-1.46-3.8V-5.3a6.383,6.383,0,0,1,.615-2.847,4.515,4.515,0,0,1,1.743-1.934,4.893,4.893,0,0,1,2.573-.679A4.385,4.385,0,0,1,21.67-9.395a5.555,5.555,0,0,1,1.245,3.877v1.152H16.187a2.622,2.622,0,0,0,.825,1.66,2.5,2.5,0,0,0,1.743.625A3.046,3.046,0,0,0,21.3-3.262L22.69-1.709a4.237,4.237,0,0,1-1.719,1.4A5.639,5.639,0,0,1,18.569.2Zm-.322-8.682a1.764,1.764,0,0,0-1.362.569,2.946,2.946,0,0,0-.669,1.628h3.926v-.226a2.1,2.1,0,0,0-.508-1.457A1.819,1.819,0,0,0,18.247-8.486Z" transform="translate(643 1982.75)" fill="#12263f"/>
      <path id="Trazado_101428" data-name="Trazado 101428" d="M-47.6,0V-14.219h4.375a6.644,6.644,0,0,1,3.354.845,5.89,5.89,0,0,1,2.31,2.4,7.41,7.41,0,0,1,.83,3.54v.654a7.431,7.431,0,0,1-.815,3.525,5.84,5.84,0,0,1-2.3,2.393A6.694,6.694,0,0,1-43.2,0Zm2.93-11.846v9.492h1.416A3.181,3.181,0,0,0-40.63-3.477,5.075,5.075,0,0,0-39.7-6.689v-.752a5.156,5.156,0,0,0-.9-3.286,3.171,3.171,0,0,0-2.627-1.118ZM-31.812,0h-2.832V-10.566h2.832Zm-3-13.3a1.39,1.39,0,0,1,.425-1.045,1.6,1.6,0,0,1,1.157-.41,1.6,1.6,0,0,1,1.152.41,1.382,1.382,0,0,1,.43,1.045,1.386,1.386,0,0,1-.435,1.055,1.6,1.6,0,0,1-1.147.41,1.6,1.6,0,0,1-1.147-.41A1.386,1.386,0,0,1-34.81-13.3ZM-23.765-2.92a.909.909,0,0,0-.513-.815,5.824,5.824,0,0,0-1.646-.532q-3.77-.791-3.77-3.2a2.9,2.9,0,0,1,1.167-2.349,4.708,4.708,0,0,1,3.052-.942,5.067,5.067,0,0,1,3.218.947A2.985,2.985,0,0,1-21.05-7.354h-2.822a1.366,1.366,0,0,0-.391-1,1.653,1.653,0,0,0-1.221-.4,1.689,1.689,0,0,0-1.1.322,1.017,1.017,0,0,0-.391.82.87.87,0,0,0,.444.757,4.571,4.571,0,0,0,1.5.5,12.244,12.244,0,0,1,1.777.474,2.92,2.92,0,0,1,2.236,2.842A2.756,2.756,0,0,1-22.261-.7a5.35,5.35,0,0,1-3.2.894,5.588,5.588,0,0,1-2.358-.474,3.957,3.957,0,0,1-1.616-1.3,3.018,3.018,0,0,1-.586-1.782h2.676a1.473,1.473,0,0,0,.557,1.152,2.208,2.208,0,0,0,1.387.4,2.044,2.044,0,0,0,1.226-.308A.957.957,0,0,0-23.765-2.92Zm8.955.84a1.851,1.851,0,0,0,1.27-.43,1.506,1.506,0,0,0,.508-1.143h2.646a3.62,3.62,0,0,1-.586,1.968A3.866,3.866,0,0,1-12.549-.3,4.936,4.936,0,0,1-14.761.2a4.587,4.587,0,0,1-3.574-1.44,5.7,5.7,0,0,1-1.309-3.979V-5.41a5.635,5.635,0,0,1,1.3-3.9,4.534,4.534,0,0,1,3.564-1.455A4.444,4.444,0,0,1-11.6-9.634a3.994,3.994,0,0,1,1.216,3h-2.646a1.939,1.939,0,0,0-.508-1.34,1.693,1.693,0,0,0-1.289-.515,1.7,1.7,0,0,0-1.489.719,4.166,4.166,0,0,0-.5,2.333v.293a4.219,4.219,0,0,0,.5,2.347A1.721,1.721,0,0,0-14.81-2.08Zm5.6-3.3a6.267,6.267,0,0,1,.605-2.8,4.432,4.432,0,0,1,1.743-1.9,5.086,5.086,0,0,1,2.642-.674A4.812,4.812,0,0,1-.732-9.453,5.252,5.252,0,0,1,.776-5.9l.02.723a5.523,5.523,0,0,1-1.357,3.9A4.718,4.718,0,0,1-4.2.2,4.742,4.742,0,0,1-7.852-1.27,5.62,5.62,0,0,1-9.214-5.254Zm2.822.2a3.95,3.95,0,0,0,.566,2.3,1.868,1.868,0,0,0,1.621.8,1.873,1.873,0,0,0,1.6-.787,4.322,4.322,0,0,0,.576-2.518A3.91,3.91,0,0,0-2.6-7.675a1.873,1.873,0,0,0-1.621-.812,1.842,1.842,0,0,0-1.6.807A4.395,4.395,0,0,0-6.392-5.181ZM7.7,0V-14.219h4.375a6.644,6.644,0,0,1,3.354.845,5.89,5.89,0,0,1,2.31,2.4,7.41,7.41,0,0,1,.83,3.54v.654a7.431,7.431,0,0,1-.815,3.525,5.84,5.84,0,0,1-2.3,2.393A6.694,6.694,0,0,1,12.1,0Zm2.93-11.846v9.492h1.416a3.181,3.181,0,0,0,2.627-1.123A5.075,5.075,0,0,0,15.6-6.689v-.752a5.156,5.156,0,0,0-.9-3.286,3.171,3.171,0,0,0-2.627-1.118ZM26.841-1.074A3.539,3.539,0,0,1,23.95.2a3.338,3.338,0,0,1-2.593-.977,4.169,4.169,0,0,1-.913-2.861v-6.924h2.822v6.834q0,1.652,1.5,1.652a2.038,2.038,0,0,0,1.973-1v-7.489h2.832V0H26.919Zm10.8-6.846A7.667,7.667,0,0,0,36.626-8a2.067,2.067,0,0,0-2.1,1.084V0H31.7V-10.566H34.37l.078,1.26A2.615,2.615,0,0,1,36.8-10.762a2.957,2.957,0,0,1,.879.127Zm.566,2.539a6.267,6.267,0,0,1,.605-2.8,4.432,4.432,0,0,1,1.743-1.9,5.086,5.086,0,0,1,2.642-.674,4.812,4.812,0,0,1,3.491,1.309A5.252,5.252,0,0,1,48.2-5.9l.02.723a5.523,5.523,0,0,1-1.357,3.9A4.718,4.718,0,0,1,43.218.2,4.742,4.742,0,0,1,39.57-1.27a5.62,5.62,0,0,1-1.362-3.984Zm2.822.2a3.95,3.95,0,0,0,.566,2.3,1.868,1.868,0,0,0,1.621.8,1.873,1.873,0,0,0,1.6-.787A4.322,4.322,0,0,0,45.4-5.386a3.91,3.91,0,0,0-.576-2.289A1.873,1.873,0,0,0,43.2-8.486a1.842,1.842,0,0,0-1.6.807A4.395,4.395,0,0,0,41.03-5.181Z" transform="translate(958 1982.75)" fill="#12263f"/>
      <g id="disco-duro" transform="translate(915 1830.75)">
        <g id="Grupo_54115" data-name="Grupo 54115" transform="translate(0 64)">
          <g id="Grupo_54114" data-name="Grupo 54114">
            <path id="Trazado_101188" data-name="Trazado 101188" d="M71.364,97.366l.022-.01L58.458,68.439A7.51,7.51,0,0,0,51.611,64H20.389a7.51,7.51,0,0,0-6.847,4.439L.614,97.356l.022.01A5.926,5.926,0,0,0,0,100v12a6.006,6.006,0,0,0,6,6H66a6.006,6.006,0,0,0,6-6V100A5.926,5.926,0,0,0,71.364,97.366Zm-55.083-27.7A4.507,4.507,0,0,1,20.389,67H51.611a4.507,4.507,0,0,1,4.107,2.663l10.909,24.4A5.85,5.85,0,0,0,66,94H6a5.85,5.85,0,0,0-.627.063ZM69,112a3,3,0,0,1-3,3H6a3,3,0,0,1-3-3V100a3,3,0,0,1,3-3H66a3,3,0,0,1,3,3Z" transform="translate(0 -64)" fill="#4dd0e1"/>
            <circle id="Elipse_4127" data-name="Elipse 4127" cx="3" cy="3" r="3" transform="translate(57 39)" fill="#4dd0e1"/>
          </g>
        </g>
      </g>
    </g>
    <g id="Grupo_54302" data-name="Grupo 54302" transform="translate(-217 -92.961)">
      <g id="Grupo_54301" data-name="Grupo 54301" transform="translate(834 1934)">
        <path id="Trazado_101378" data-name="Trazado 101378" d="M697.838,197.721a6.886,6.886,0,1,1,6.886-6.886A6.893,6.893,0,0,1,697.838,197.721Zm0-11.018a4.132,4.132,0,1,0,4.131,4.132A4.136,4.136,0,0,0,697.838,186.7Z" transform="translate(-671.671 -119.142)" fill="#4dd0e1"/>
        <path id="Trazado_101379" data-name="Trazado 101379" d="M683.161,187.383h-44.07a4.136,4.136,0,0,1-4.132-4.131V120.093a4.136,4.136,0,0,1,4.132-4.132h44.07a4.136,4.136,0,0,1,4.132,4.132v63.159A4.136,4.136,0,0,1,683.161,187.383Zm-44.07-68.667a1.38,1.38,0,0,0-1.377,1.377v63.159a1.38,1.38,0,0,0,1.377,1.377h44.07a1.38,1.38,0,0,0,1.377-1.377V120.093a1.38,1.38,0,0,0-1.377-1.377Z" transform="translate(-634.959 -79.961)" fill="#4dd0e1"/>
        <path id="Trazado_101380" data-name="Trazado 101380" d="M693.387,362.683H660.334a1.377,1.377,0,1,1,0-2.754h33.052a1.377,1.377,0,1,1,0,2.754Z" transform="translate(-650.693 -263.525)" fill="#4dd0e1"/>
        <path id="Trazado_101381" data-name="Trazado 101381" d="M693.387,338.686H660.334a1.377,1.377,0,1,1,0-2.755h33.052a1.377,1.377,0,1,1,0,2.755Z" transform="translate(-650.693 -247.79)" fill="#4dd0e1"/>
        <path id="Trazado_101386" data-name="Trazado 101386" d="M688.406,114.711h-44.07a1.377,1.377,0,1,1,0-2.754h44.07a1.377,1.377,0,0,1,0,2.754Z" transform="translate(-640.204 -70.939)" fill="#4dd0e1"/>
        <path id="Trazado_101387" data-name="Trazado 101387" d="M688.406,146.709h-44.07a1.377,1.377,0,0,1,0-2.755h44.07a1.377,1.377,0,0,1,0,2.755Z" transform="translate(-640.204 -91.919)" fill="#4dd0e1"/>
      </g>
    </g>
  </g>
</svg>
