<svg xmlns="http://www.w3.org/2000/svg" xmlns:xlink="http://www.w3.org/1999/xlink" width="85" height="85" viewBox="0 0 85 85">
  <defs>
    <clipPath id="clip-path">
      <rect id="Rectángulo_5214" data-name="Rectángulo 5214" width="85" height="85" transform="translate(180 972)" fill="#ffa726" stroke="#707070" stroke-width="1"/>
    </clipPath>
  </defs>
  <g id="Enmascarar_grupo_6" data-name="Enmascarar grupo 6" transform="translate(-180 -972)" clip-path="url(#clip-path)">
    <g id="surface1" transform="translate(189.075 972)">
      <path id="Trazado_101029" data-name="Trazado 101029" d="M55.645,31.708a22.219,22.219,0,1,0-22.219,22.22A22.244,22.244,0,0,0,55.645,31.708ZM33.426,51.437A19.729,19.729,0,1,1,53.154,31.708,19.752,19.752,0,0,1,33.426,51.437Zm0,0" fill="#ffa726"/>
      <path id="Trazado_101030" data-name="Trazado 101030" d="M48.9,26.837a1.745,1.745,0,0,0-1.664-1.209H37.957L35.09,16.8a1.75,1.75,0,0,0-3.328,0l-2.867,8.825H19.616a1.749,1.749,0,0,0-1.028,3.165l7.506,5.454-2.867,8.824a1.75,1.75,0,0,0,2.693,1.956l7.506-5.454,7.506,5.454a1.75,1.75,0,0,0,2.692-1.956l-2.868-8.824,7.506-5.454A1.745,1.745,0,0,0,48.9,26.837ZM38.858,32.548a1.746,1.746,0,0,0-.636,1.957l2.329,7.168-6.1-4.43a1.745,1.745,0,0,0-2.057,0l-6.1,4.43L28.629,34.5a1.746,1.746,0,0,0-.636-1.956l-6.1-4.431h7.537A1.746,1.746,0,0,0,31.1,26.909l2.329-7.169,2.329,7.169a1.746,1.746,0,0,0,1.664,1.209h7.537Zm0,0" fill="#ffa726"/>
      <path id="Trazado_101031" data-name="Trazado 101031" d="M66.513,72.9,54.838,52.4l2.045-.656a5.71,5.71,0,0,0,3.956-5.731l-.155-2.968a3.221,3.221,0,0,1,.918-2.423l2.085-2.119a5.711,5.711,0,0,0,.839-6.913L63.01,29.038a3.226,3.226,0,0,1-.313-2.573l.861-2.845a5.709,5.709,0,0,0-2.469-6.51l-2.531-1.559a3.222,3.222,0,0,1-1.472-2.132l-.56-2.919a5.71,5.71,0,0,0-5.212-4.618l-2.966-.2a3.221,3.221,0,0,1-2.294-1.2L44.2,2.149A5.711,5.711,0,0,0,37.442.483l-2.72,1.2h0a3.222,3.222,0,0,1-2.591,0L29.409.483A5.711,5.711,0,0,0,22.648,2.15L20.8,4.474a3.221,3.221,0,0,1-2.294,1.2l-2.966.2A5.71,5.71,0,0,0,10.325,10.5l-.56,2.919a3.225,3.225,0,0,1-1.472,2.132L5.762,17.109A5.71,5.71,0,0,0,3.293,23.62l.861,2.845a3.221,3.221,0,0,1-.312,2.572L2.325,31.594a5.71,5.71,0,0,0,.839,6.912l2.085,2.119a3.222,3.222,0,0,1,.918,2.422l-.155,2.969a5.711,5.711,0,0,0,3.955,5.731l2.046.656L.339,72.9a1.949,1.949,0,0,0,1.8,2.911l9.758-.505,4.543,8.652A1.948,1.948,0,0,0,18.127,85h.033a1.949,1.949,0,0,0,1.694-.984l11.881-20.86a5.641,5.641,0,0,0,3.381,0L47,84.016A1.948,1.948,0,0,0,48.691,85h.034a1.947,1.947,0,0,0,1.693-1.042l4.542-8.652,9.759.505a1.949,1.949,0,0,0,1.8-2.911ZM18.179,81.924l-4.137-7.879,2.443-4.288a1.245,1.245,0,1,0-2.163-1.233l-2.443,4.289-8.887.46,11.22-19.7a3.22,3.22,0,0,1,.525.8l1.243,2.7a5.7,5.7,0,0,0,3.18,2.956l-1.945,3.416a1.245,1.245,0,1,0,2.164,1.232l2.464-4.325c.1-.012.2-.026.3-.044l2.929-.512a3.223,3.223,0,0,1,2.515.62l1.975,1.521ZM35.044,60.486l-.012.006-.02.012a3.216,3.216,0,0,1-3.174,0l-.019-.012-.012-.006a3.215,3.215,0,0,1-.344-.228l-2.355-1.814a5.707,5.707,0,0,0-4.464-1.1l-2.929.512a3.2,3.2,0,0,1-.564.047h-.045a3.216,3.216,0,0,1-2.864-1.87L17,53.332a5.719,5.719,0,0,0-2.549-2.674l-.007,0-.021-.01-.08-.04-.018-.008a5.662,5.662,0,0,0-.766-.311l-2.831-.907A3.218,3.218,0,0,1,8.5,46.147l.155-2.969a5.719,5.719,0,0,0-1.63-4.3L4.94,36.76a3.218,3.218,0,0,1-.473-3.9l1.517-2.556a5.72,5.72,0,0,0,.554-4.564L5.676,22.9a3.216,3.216,0,0,1,1.392-3.669L9.6,17.672a5.717,5.717,0,0,0,2.612-3.784l.56-2.919a3.219,3.219,0,0,1,2.937-2.6l2.966-.2a5.72,5.72,0,0,0,4.071-2.137L24.6,3.7a3.218,3.218,0,0,1,3.811-.939l2.72,1.2a5.718,5.718,0,0,0,4.6,0l2.72-1.2a3.217,3.217,0,0,1,3.81.939l1.853,2.325a5.718,5.718,0,0,0,4.071,2.136l2.966.2a3.217,3.217,0,0,1,2.937,2.6l.56,2.92a5.721,5.721,0,0,0,2.611,3.783l2.531,1.559A3.216,3.216,0,0,1,61.174,22.9l-.861,2.846a5.719,5.719,0,0,0,.554,4.564l1.517,2.556a3.217,3.217,0,0,1-.473,3.9l-2.084,2.119a5.719,5.719,0,0,0-1.63,4.3l.155,2.968a3.218,3.218,0,0,1-2.229,3.23l-2.831.907a5.74,5.74,0,0,0-.766.31l-.018.008-.08.041-.02.01-.006,0a5.72,5.72,0,0,0-2.55,2.675l-1.242,2.7A3.216,3.216,0,0,1,45.747,57.9l-.053,0a3.217,3.217,0,0,1-.56-.048l-2.928-.512a5.719,5.719,0,0,0-4.464,1.1l-2.355,1.814A3.18,3.18,0,0,1,35.044,60.486ZM54.973,72.813,52.51,68.489a1.245,1.245,0,1,0-2.163,1.233l2.462,4.323-4.137,7.879L37.288,61.938l1.974-1.521a3.224,3.224,0,0,1,2.515-.62l2.928.512c.1.018.2.032.3.044l2.462,4.324a1.245,1.245,0,1,0,2.164-1.233L47.691,60.03a5.7,5.7,0,0,0,3.18-2.956l1.242-2.7a3.224,3.224,0,0,1,.525-.8l11.22,19.7Zm0,0" fill="#ffa726"/>
    </g>
  </g>
</svg>
