<svg xmlns="http://www.w3.org/2000/svg" width="546" height="111" viewBox="0 0 546 111">
  <g id="Grupo_53830" data-name="Grupo 53830" transform="translate(-223 -1624)">
    <g id="Rectángulo_5216" data-name="Rectángulo 5216" transform="translate(223 1659)" fill="#fff" stroke="#e8e8e8" stroke-width="1">
      <path d="M0,0H238a0,0,0,0,1,0,0V66a10,10,0,0,1-10,10H10A10,10,0,0,1,0,66V0A0,0,0,0,1,0,0Z" stroke="none"/>
      <path d="M1,.5H237a.5.5,0,0,1,.5.5V66a9.5,9.5,0,0,1-9.5,9.5H10A9.5,9.5,0,0,1,.5,66V1A.5.5,0,0,1,1,.5Z" fill="none"/>
    </g>
    <g id="Rectángulo_5217" data-name="Rectángulo 5217" transform="translate(531 1659)" fill="#fff" stroke="#e8e8e8" stroke-width="1">
      <path d="M0,0H238a0,0,0,0,1,0,0V66a10,10,0,0,1-10,10H10A10,10,0,0,1,0,66V0A0,0,0,0,1,0,0Z" stroke="none"/>
      <path d="M1,.5H237a.5.5,0,0,1,.5.5V66a9.5,9.5,0,0,1-9.5,9.5H10A9.5,9.5,0,0,1,.5,66V1A.5.5,0,0,1,1,.5Z" fill="none"/>
    </g>
    <path id="Rectángulo_5218" data-name="Rectángulo 5218" d="M10,0H228a10,10,0,0,1,10,10V35a0,0,0,0,1,0,0H0a0,0,0,0,1,0,0V10A10,10,0,0,1,10,0Z" transform="translate(223 1624)" fill="#ffa726" opacity="0.38"/>
    <path id="Rectángulo_5219" data-name="Rectángulo 5219" d="M10,0H228a10,10,0,0,1,10,10V35a0,0,0,0,1,0,0H0a0,0,0,0,1,0,0V10A10,10,0,0,1,10,0Z" transform="translate(531 1624)" fill="#ffa726" opacity="0.38"/>
    <path id="Trazado_101424" data-name="Trazado 101424" d="M-22.6-14.219v9.365a4.8,4.8,0,0,1-1.46,3.691A5.629,5.629,0,0,1-28.052.2a5.692,5.692,0,0,1-3.955-1.318A4.713,4.713,0,0,1-33.5-4.746v-9.473h2.93v9.385A2.709,2.709,0,0,0-29.9-2.8a2.568,2.568,0,0,0,1.851.64q2.471,0,2.51-2.6v-9.463Zm7.939,11.3a.909.909,0,0,0-.513-.815,5.824,5.824,0,0,0-1.646-.532q-3.77-.791-3.77-3.2a2.9,2.9,0,0,1,1.167-2.349,4.708,4.708,0,0,1,3.052-.942,5.067,5.067,0,0,1,3.218.947,2.985,2.985,0,0,1,1.206,2.461h-2.822a1.366,1.366,0,0,0-.391-1,1.653,1.653,0,0,0-1.221-.4,1.689,1.689,0,0,0-1.1.322,1.017,1.017,0,0,0-.391.82.87.87,0,0,0,.444.757,4.571,4.571,0,0,0,1.5.5,12.244,12.244,0,0,1,1.777.474,2.92,2.92,0,0,1,2.236,2.842A2.756,2.756,0,0,1-13.159-.7a5.35,5.35,0,0,1-3.2.894,5.588,5.588,0,0,1-2.358-.474,3.957,3.957,0,0,1-1.616-1.3,3.018,3.018,0,0,1-.586-1.782h2.676a1.473,1.473,0,0,0,.557,1.152,2.208,2.208,0,0,0,1.387.4,2.044,2.044,0,0,0,1.226-.308A.957.957,0,0,0-14.663-2.92ZM-3.774-1.074A3.539,3.539,0,0,1-6.665.2,3.338,3.338,0,0,1-9.258-.781a4.169,4.169,0,0,1-.913-2.861v-6.924h2.822v6.834q0,1.652,1.5,1.652a2.038,2.038,0,0,0,1.973-1v-7.489H-1.04V0H-3.7ZM7.212,0a3.134,3.134,0,0,1-.283-.947A3.415,3.415,0,0,1,4.263.2,3.752,3.752,0,0,1,1.689-.7,2.89,2.89,0,0,1,.669-2.969,2.986,2.986,0,0,1,1.914-5.547a6.144,6.144,0,0,1,3.6-.908h1.3v-.605a1.741,1.741,0,0,0-.376-1.172,1.479,1.479,0,0,0-1.187-.439,1.682,1.682,0,0,0-1.118.342,1.161,1.161,0,0,0-.405.938H.9a2.835,2.835,0,0,1,.566-1.7,3.744,3.744,0,0,1,1.6-1.226A5.837,5.837,0,0,1,5.4-10.762a4.611,4.611,0,0,1,3.1.981A3.433,3.433,0,0,1,9.644-7.021v4.58a5.052,5.052,0,0,0,.42,2.275V0ZM4.878-1.963A2.431,2.431,0,0,0,6.03-2.241a1.828,1.828,0,0,0,.781-.747V-4.8H5.757Q3.638-4.8,3.5-3.34l-.01.166a1.13,1.13,0,0,0,.371.869A1.441,1.441,0,0,0,4.878-1.963ZM17.749-7.92A7.667,7.667,0,0,0,16.733-8a2.067,2.067,0,0,0-2.1,1.084V0H11.812V-10.566h2.666l.078,1.26a2.615,2.615,0,0,1,2.354-1.455,2.957,2.957,0,0,1,.879.127ZM22.085,0H19.253V-10.566h2.832Zm-3-13.3a1.39,1.39,0,0,1,.425-1.045,1.6,1.6,0,0,1,1.157-.41,1.6,1.6,0,0,1,1.152.41,1.382,1.382,0,0,1,.43,1.045,1.386,1.386,0,0,1-.435,1.055,1.6,1.6,0,0,1-1.147.41,1.6,1.6,0,0,1-1.147-.41A1.386,1.386,0,0,1,19.087-13.3Zm4.883,7.92a6.266,6.266,0,0,1,.605-2.8,4.432,4.432,0,0,1,1.743-1.9,5.086,5.086,0,0,1,2.642-.674,4.812,4.812,0,0,1,3.491,1.309A5.252,5.252,0,0,1,33.96-5.9l.02.723a5.523,5.523,0,0,1-1.357,3.9A4.718,4.718,0,0,1,28.979.2,4.742,4.742,0,0,1,25.332-1.27,5.62,5.62,0,0,1,23.97-5.254Zm2.822.2a3.95,3.95,0,0,0,.566,2.3,1.868,1.868,0,0,0,1.621.8,1.873,1.873,0,0,0,1.6-.787,4.322,4.322,0,0,0,.576-2.518,3.91,3.91,0,0,0-.576-2.289,1.873,1.873,0,0,0-1.621-.812,1.842,1.842,0,0,0-1.6.807A4.395,4.395,0,0,0,26.792-5.181Z" transform="translate(339 1649)" fill="#12263f"/>
    <path id="Trazado_101423" data-name="Trazado 101423" d="M-59.722-10.566l.059,1.328A3.851,3.851,0,0,1-56.5-10.762q3.35,0,3.379,3.779V0h-1.807V-6.992a2.432,2.432,0,0,0-.522-1.689,2.094,2.094,0,0,0-1.6-.547,2.607,2.607,0,0,0-1.543.469,3.183,3.183,0,0,0-1.035,1.23V0h-1.807V-10.566Zm8.848,5.186a6.241,6.241,0,0,1,.61-2.793,4.553,4.553,0,0,1,1.7-1.914,4.626,4.626,0,0,1,2.485-.674,4.456,4.456,0,0,1,3.491,1.494,5.748,5.748,0,0,1,1.333,3.975v.127A6.3,6.3,0,0,1-41.846-2.4,4.486,4.486,0,0,1-43.535-.488,4.679,4.679,0,0,1-46.06.2,4.445,4.445,0,0,1-49.541-1.3a5.719,5.719,0,0,1-1.333-3.955Zm1.816.215a4.52,4.52,0,0,0,.815,2.822A2.61,2.61,0,0,0-46.06-1.279a2.594,2.594,0,0,0,2.188-1.079,4.943,4.943,0,0,0,.811-3.022A4.513,4.513,0,0,0-43.887-8.2a2.623,2.623,0,0,0-2.192-1.079,2.594,2.594,0,0,0-2.158,1.064A4.906,4.906,0,0,0-49.058-5.166Zm11.768-5.4.049,1.172a3.9,3.9,0,0,1,3.135-1.367,3.021,3.021,0,0,1,3.018,1.7,4,4,0,0,1,1.372-1.23,4.052,4.052,0,0,1,2-.469q3.477,0,3.535,3.682V0h-1.807V-6.973a2.426,2.426,0,0,0-.518-1.694,2.279,2.279,0,0,0-1.738-.562,2.4,2.4,0,0,0-1.67.6,2.436,2.436,0,0,0-.771,1.616V0H-32.5V-6.924a2.016,2.016,0,0,0-2.256-2.3,2.417,2.417,0,0,0-2.432,1.514V0H-39V-10.566Zm24.775,5.4a6.283,6.283,0,0,1-1.113,3.892A3.557,3.557,0,0,1-16.616.2a3.683,3.683,0,0,1-3.1-1.416L-19.8,0h-1.66V-15h1.807v5.6a3.663,3.663,0,0,1,3.018-1.357,3.579,3.579,0,0,1,3.022,1.455,6.471,6.471,0,0,1,1.1,3.984Zm-1.807-.205a4.882,4.882,0,0,0-.713-2.852,2.36,2.36,0,0,0-2.051-1.006,2.652,2.652,0,0,0-2.568,1.66V-3a2.727,2.727,0,0,0,2.588,1.66,2.347,2.347,0,0,0,2.021-1.006A5.192,5.192,0,0,0-14.321-5.371Zm9.189-3.574a5.414,5.414,0,0,0-.889-.068A2.381,2.381,0,0,0-8.433-7.5V0h-1.807V-10.566h1.758l.029,1.221a2.813,2.813,0,0,1,2.52-1.416,1.846,1.846,0,0,1,.8.137ZM.728.2a4.617,4.617,0,0,1-3.5-1.411A5.237,5.237,0,0,1-4.116-4.99v-.332a6.341,6.341,0,0,1,.6-2.808,4.685,4.685,0,0,1,1.68-1.934,4.223,4.223,0,0,1,2.339-.7A3.957,3.957,0,0,1,3.706-9.4,5.877,5.877,0,0,1,4.849-5.518v.752H-2.31A3.756,3.756,0,0,0-1.4-2.241a2.87,2.87,0,0,0,2.222.962A3.147,3.147,0,0,0,2.446-1.67,4.073,4.073,0,0,0,3.608-2.705l1.1.859A4.437,4.437,0,0,1,.728.2ZM.5-9.277a2.41,2.41,0,0,0-1.836.8A3.868,3.868,0,0,0-2.251-6.25H3.042v-.137A3.441,3.441,0,0,0,2.3-8.521,2.269,2.269,0,0,0,.5-9.277ZM16.362-6.338a8.817,8.817,0,0,1-3.511-1.7,3.256,3.256,0,0,1-1.1-2.5A3.439,3.439,0,0,1,13.1-13.315a5.337,5.337,0,0,1,3.491-1.1,5.825,5.825,0,0,1,2.612.566,4.3,4.3,0,0,1,1.777,1.563,4,4,0,0,1,.63,2.178H19.722a2.6,2.6,0,0,0-.82-2.034,3.336,3.336,0,0,0-2.314-.74,3.415,3.415,0,0,0-2.163.611,2.04,2.04,0,0,0-.776,1.7A1.835,1.835,0,0,0,14.385-9.1,7.232,7.232,0,0,0,16.895-8a11.645,11.645,0,0,1,2.773,1.1,4.209,4.209,0,0,1,1.484,1.4,3.577,3.577,0,0,1,.483,1.885A3.322,3.322,0,0,1,20.288-.845,5.746,5.746,0,0,1,16.685.2,6.683,6.683,0,0,1,13.95-.366,4.6,4.6,0,0,1,11.992-1.9,3.754,3.754,0,0,1,11.3-4.121h1.885a2.449,2.449,0,0,0,.952,2.036,4.009,4.009,0,0,0,2.544.747,3.685,3.685,0,0,0,2.275-.605,1.967,1.967,0,0,0,.791-1.65,1.931,1.931,0,0,0-.732-1.616A8.444,8.444,0,0,0,16.362-6.338Zm9.844-6.787v2.559h1.973v1.4H26.206v6.561a1.467,1.467,0,0,0,.264.953,1.11,1.11,0,0,0,.9.318,4.374,4.374,0,0,0,.859-.117V0A5.268,5.268,0,0,1,26.841.2a2.25,2.25,0,0,1-1.826-.732,3.147,3.147,0,0,1-.615-2.08V-9.17H22.476v-1.4H24.4v-2.559ZM35.4-8.945a5.414,5.414,0,0,0-.889-.068A2.381,2.381,0,0,0,32.095-7.5V0H30.288V-10.566h1.758l.029,1.221a2.813,2.813,0,0,1,2.52-1.416,1.846,1.846,0,0,1,.8.137ZM39.019,0H37.212V-10.566h1.807ZM37.065-13.369a1.078,1.078,0,0,1,.269-.742,1.008,1.008,0,0,1,.8-.3,1.024,1.024,0,0,1,.8.3,1.067,1.067,0,0,1,.273.742,1.032,1.032,0,0,1-.273.732,1.043,1.043,0,0,1-.8.293,1.026,1.026,0,0,1-.8-.293A1.043,1.043,0,0,1,37.065-13.369Zm6.553,2.8.059,1.328a3.851,3.851,0,0,1,3.164-1.523q3.35,0,3.379,3.779V0H48.413V-6.992a2.432,2.432,0,0,0-.522-1.689,2.094,2.094,0,0,0-1.6-.547,2.607,2.607,0,0,0-1.543.469,3.183,3.183,0,0,0-1.035,1.23V0H41.909V-10.566Zm8.9,5.2A6.21,6.21,0,0,1,53.657-9.3a3.654,3.654,0,0,1,3.027-1.46A3.635,3.635,0,0,1,59.7-9.395l.088-1.172h1.65V-.254a4.3,4.3,0,0,1-1.216,3.232A4.487,4.487,0,0,1,56.958,4.16a5.435,5.435,0,0,1-2.236-.488,3.85,3.85,0,0,1-1.67-1.338l.938-1.084a3.533,3.533,0,0,0,2.842,1.436,2.768,2.768,0,0,0,2.056-.742,2.837,2.837,0,0,0,.737-2.09v-.908A3.713,3.713,0,0,1,56.665.2a3.609,3.609,0,0,1-3-1.494A6.529,6.529,0,0,1,52.515-5.371Zm1.816.205a4.738,4.738,0,0,0,.732,2.808,2.38,2.38,0,0,0,2.051,1.021,2.646,2.646,0,0,0,2.51-1.553V-7.715a2.677,2.677,0,0,0-2.49-1.514A2.4,2.4,0,0,0,55.073-8.2,5.16,5.16,0,0,0,54.331-5.166Z" transform="translate(339 1701)" fill="#12263f"/>
    <path id="Trazado_101426" data-name="Trazado 101426" d="M-40.82-1.279a2.6,2.6,0,0,0,1.689-.586,2.061,2.061,0,0,0,.8-1.465h1.709A3.276,3.276,0,0,1-37.246-1.6,4.116,4.116,0,0,1-38.784-.293,4.438,4.438,0,0,1-40.82.2a4.353,4.353,0,0,1-3.433-1.44,5.737,5.737,0,0,1-1.274-3.94v-.3a6.361,6.361,0,0,1,.566-2.744A4.314,4.314,0,0,1-43.335-10.1a4.619,4.619,0,0,1,2.5-.664A4.238,4.238,0,0,1-37.876-9.7a3.8,3.8,0,0,1,1.255,2.764H-38.33a2.49,2.49,0,0,0-.776-1.685,2.415,2.415,0,0,0-1.724-.659,2.529,2.529,0,0,0-2.134.991,4.655,4.655,0,0,0-.757,2.866v.342a4.562,4.562,0,0,0,.752,2.813A2.541,2.541,0,0,0-40.82-1.279Zm5.752-4.1a6.241,6.241,0,0,1,.61-2.793,4.553,4.553,0,0,1,1.7-1.914,4.626,4.626,0,0,1,2.485-.674,4.456,4.456,0,0,1,3.491,1.494,5.748,5.748,0,0,1,1.333,3.975v.127A6.3,6.3,0,0,1-26.04-2.4,4.486,4.486,0,0,1-27.729-.488,4.679,4.679,0,0,1-30.254.2,4.445,4.445,0,0,1-33.735-1.3a5.719,5.719,0,0,1-1.333-3.955Zm1.816.215a4.52,4.52,0,0,0,.815,2.822,2.61,2.61,0,0,0,2.183,1.064,2.594,2.594,0,0,0,2.188-1.079,4.943,4.943,0,0,0,.811-3.022A4.513,4.513,0,0,0-28.081-8.2a2.623,2.623,0,0,0-2.192-1.079,2.594,2.594,0,0,0-2.158,1.064A4.906,4.906,0,0,0-33.252-5.166Zm9.629-.205a6.19,6.19,0,0,1,1.152-3.911,3.644,3.644,0,0,1,3.018-1.479,3.665,3.665,0,0,1,2.939,1.27V-15h1.807V0h-1.66l-.088-1.133A3.679,3.679,0,0,1-19.473.2a3.609,3.609,0,0,1-2.993-1.5,6.26,6.26,0,0,1-1.157-3.926Zm1.807.205a4.687,4.687,0,0,0,.742,2.813,2.4,2.4,0,0,0,2.051,1.016,2.636,2.636,0,0,0,2.51-1.543V-7.734A2.656,2.656,0,0,0-19-9.229,2.411,2.411,0,0,0-21.074-8.2,5.16,5.16,0,0,0-21.816-5.166ZM-9.941,0h-1.807V-10.566h1.807Zm-1.953-13.369a1.078,1.078,0,0,1,.269-.742,1.008,1.008,0,0,1,.8-.3,1.024,1.024,0,0,1,.8.3,1.067,1.067,0,0,1,.273.742,1.032,1.032,0,0,1-.273.732,1.043,1.043,0,0,1-.8.293,1.026,1.026,0,0,1-.8-.293A1.043,1.043,0,0,1-11.895-13.369Zm4.414,8A6.21,6.21,0,0,1-6.338-9.3a3.654,3.654,0,0,1,3.027-1.46A3.635,3.635,0,0,1-.293-9.395l.088-1.172h1.65V-.254A4.3,4.3,0,0,1,.229,2.979,4.487,4.487,0,0,1-3.037,4.16a5.435,5.435,0,0,1-2.236-.488,3.85,3.85,0,0,1-1.67-1.338l.938-1.084A3.533,3.533,0,0,0-3.164,2.686a2.768,2.768,0,0,0,2.056-.742A2.837,2.837,0,0,0-.371-.146v-.908A3.713,3.713,0,0,1-3.33.2a3.609,3.609,0,0,1-3-1.494A6.529,6.529,0,0,1-7.48-5.371Zm1.816.205a4.738,4.738,0,0,0,.732,2.808A2.38,2.38,0,0,0-2.881-1.338,2.646,2.646,0,0,0-.371-2.891V-7.715a2.677,2.677,0,0,0-2.49-1.514A2.4,2.4,0,0,0-4.922-8.2,5.16,5.16,0,0,0-5.664-5.166Zm9.355-.215A6.241,6.241,0,0,1,4.3-8.174,4.553,4.553,0,0,1,6-10.088a4.626,4.626,0,0,1,2.485-.674,4.456,4.456,0,0,1,3.491,1.494,5.748,5.748,0,0,1,1.333,3.975v.127A6.3,6.3,0,0,1,12.72-2.4,4.486,4.486,0,0,1,11.03-.488,4.679,4.679,0,0,1,8.506.2,4.445,4.445,0,0,1,5.024-1.3,5.719,5.719,0,0,1,3.691-5.254Zm1.816.215a4.52,4.52,0,0,0,.815,2.822A2.61,2.61,0,0,0,8.506-1.279a2.594,2.594,0,0,0,2.188-1.079A4.943,4.943,0,0,0,11.5-5.381,4.513,4.513,0,0,0,10.679-8.2,2.623,2.623,0,0,0,8.486-9.277,2.594,2.594,0,0,0,6.328-8.213,4.906,4.906,0,0,0,5.508-5.166ZM15.518-.947a1.131,1.131,0,0,1,.278-.781,1.061,1.061,0,0,1,.835-.312,1.092,1.092,0,0,1,.845.313,1.109,1.109,0,0,1,.288.781,1.048,1.048,0,0,1-.288.752,1.112,1.112,0,0,1-.845.3A1.079,1.079,0,0,1,15.8-.2,1.069,1.069,0,0,1,15.518-.947Zm.01-8.623a1.131,1.131,0,0,1,.278-.781,1.061,1.061,0,0,1,.835-.312,1.092,1.092,0,0,1,.845.313,1.109,1.109,0,0,1,.288.781,1.048,1.048,0,0,1-.288.752,1.112,1.112,0,0,1-.845.3,1.079,1.079,0,0,1-.835-.3A1.069,1.069,0,0,1,15.527-9.57ZM27.334,0H25.527V-10.566h1.807ZM25.381-13.369a1.078,1.078,0,0,1,.269-.742,1.008,1.008,0,0,1,.8-.3,1.024,1.024,0,0,1,.8.3,1.067,1.067,0,0,1,.273.742,1.032,1.032,0,0,1-.273.732,1.043,1.043,0,0,1-.8.293,1.026,1.026,0,0,1-.8-.293A1.043,1.043,0,0,1,25.381-13.369Zm6.553,2.8.059,1.328a3.851,3.851,0,0,1,3.164-1.523q3.35,0,3.379,3.779V0H36.729V-6.992a2.432,2.432,0,0,0-.522-1.689,2.094,2.094,0,0,0-1.6-.547,2.607,2.607,0,0,0-1.543.469,3.183,3.183,0,0,0-1.035,1.23V0H30.225V-10.566Zm11.777-2.559v2.559h1.973v1.4H43.711v6.561a1.467,1.467,0,0,0,.264.953,1.11,1.11,0,0,0,.9.318,4.374,4.374,0,0,0,.859-.117V0A5.268,5.268,0,0,1,44.346.2,2.25,2.25,0,0,1,42.52-.537a3.147,3.147,0,0,1-.615-2.08V-9.17H39.98v-1.4H41.9v-2.559Z" transform="translate(654 1701)" fill="#12263f"/>
    <path id="Trazado_101425" data-name="Trazado 101425" d="M-12.446-4.736a5.031,5.031,0,0,1-1.694,3.613A5.951,5.951,0,0,1-18.169.2a5.351,5.351,0,0,1-4.3-1.841A7.548,7.548,0,0,1-24.038-6.7v-.869a8.523,8.523,0,0,1,.723-3.613,5.416,5.416,0,0,1,2.065-2.4,5.786,5.786,0,0,1,3.12-.835A5.8,5.8,0,0,1-14.165-13.1a5.407,5.407,0,0,1,1.738,3.7h-2.93a2.97,2.97,0,0,0-.767-2,2.839,2.839,0,0,0-2.007-.62,2.489,2.489,0,0,0-2.192,1.05,5.883,5.883,0,0,0-.747,3.257v1.074a6.3,6.3,0,0,0,.7,3.369,2.443,2.443,0,0,0,2.2,1.064,2.892,2.892,0,0,0,2.026-.62,2.8,2.8,0,0,0,.767-1.919ZM-7.729,0h-2.832V-15h2.832ZM.718,0A3.134,3.134,0,0,1,.435-.947,3.415,3.415,0,0,1-2.231.2,3.752,3.752,0,0,1-4.8-.7,2.89,2.89,0,0,1-5.825-2.969,2.986,2.986,0,0,1-4.58-5.547a6.144,6.144,0,0,1,3.6-.908h1.3v-.605A1.741,1.741,0,0,0-.059-8.232a1.479,1.479,0,0,0-1.187-.439,1.682,1.682,0,0,0-1.118.342,1.161,1.161,0,0,0-.405.938H-5.591a2.835,2.835,0,0,1,.566-1.7,3.744,3.744,0,0,1,1.6-1.226A5.837,5.837,0,0,1-1.1-10.762,4.611,4.611,0,0,1,2-9.78,3.433,3.433,0,0,1,3.149-7.021v4.58a5.052,5.052,0,0,0,.42,2.275V0ZM-1.616-1.963A2.431,2.431,0,0,0-.464-2.241a1.828,1.828,0,0,0,.781-.747V-4.8H-.737q-2.119,0-2.256,1.465L-3-3.174a1.13,1.13,0,0,0,.371.869A1.441,1.441,0,0,0-1.616-1.963ZM9.126-3.447l1.963-7.119h2.949L10.474,0h-2.7L4.214-10.566H7.163ZM20.015.2A5.187,5.187,0,0,1,16.23-1.23a5.068,5.068,0,0,1-1.46-3.8V-5.3a6.383,6.383,0,0,1,.615-2.847,4.515,4.515,0,0,1,1.743-1.934,4.893,4.893,0,0,1,2.573-.679,4.385,4.385,0,0,1,3.413,1.367A5.555,5.555,0,0,1,24.36-5.518v1.152H17.632a2.622,2.622,0,0,0,.825,1.66A2.5,2.5,0,0,0,20.2-2.08a3.046,3.046,0,0,0,2.549-1.182l1.387,1.553a4.237,4.237,0,0,1-1.719,1.4A5.639,5.639,0,0,1,20.015.2Zm-.322-8.682a1.764,1.764,0,0,0-1.362.569,2.946,2.946,0,0,0-.669,1.628h3.926v-.226a2.1,2.1,0,0,0-.508-1.457A1.819,1.819,0,0,0,19.692-8.486Z" transform="translate(654 1649)" fill="#12263f"/>
    <path id="Polígono_4" data-name="Polígono 4" d="M12.236,7.122a4,4,0,0,1,7.15,0l9.327,18.583A4,4,0,0,1,25.138,31.5H6.483a4,4,0,0,1-3.575-5.794Z" transform="translate(515.25 1669.113) rotate(90)" fill="#4dd0e1"/>
  </g>
</svg>
