<svg xmlns="http://www.w3.org/2000/svg" xmlns:xlink="http://www.w3.org/1999/xlink" width="75.863" height="75.863" viewBox="0 0 75.863 75.863">
  <defs>
    <clipPath id="clip-path">
      <rect id="Rectángulo_5213" data-name="Rectángulo 5213" width="75.863" height="75.863" transform="translate(180 751.863)" fill="#ffa726" stroke="#707070" stroke-width="1"/>
    </clipPath>
  </defs>
  <g id="Enmascarar_grupo_4" data-name="Enmascarar grupo 4" transform="translate(-180 -751.863)" clip-path="url(#clip-path)">
    <g id="dato" transform="translate(180 751.863)">
      <path id="Trazado_101018" data-name="Trazado 101018" d="M77.234,11.16V1.371H45.421V11.16h2.447v2.447H45.421V23.4h2.447v2.447H45.421v9.789H67.445V46.869a3.667,3.667,0,0,0-2.222,2.222H58.462A11.582,11.582,0,0,0,39.3,43.712a11.581,11.581,0,0,0-19.159,5.379H13.381a3.662,3.662,0,0,0-2.221-2.222V35.632H33.185V25.843H30.737V23.4h2.447V13.607H30.737V11.16h2.447V1.371H1.371V11.16H3.818v2.447H1.371V23.4H3.818v2.447H1.371v9.789H8.713V46.869a3.662,3.662,0,1,0,4.669,4.669h6.374c-.011.2-.031.394-.031.593a11.52,11.52,0,0,0,3.212,8,3.794,3.794,0,0,0,2.92,6.076,3.809,3.809,0,0,0,3.671,3.671A3.809,3.809,0,0,0,33.2,73.55,3.811,3.811,0,0,0,39.7,76.116l.21-.21.21.21a3.811,3.811,0,0,0,6.506-2.566A3.809,3.809,0,0,0,50.3,69.879a3.809,3.809,0,0,0,3.671-3.671A3.811,3.811,0,0,0,56.538,59.7l-.255-.255a11.517,11.517,0,0,0,2.6-7.316c0-.2-.02-.4-.031-.593h6.374a3.662,3.662,0,1,0,4.669-4.669V35.632h7.342V25.843H74.787V23.4h2.447V13.607H74.787V11.16ZM3.818,3.818H30.737V8.713H3.818ZM6.265,11.16H28.29v2.447H6.265ZM3.818,16.054H30.737v4.894H3.818ZM6.265,23.4H28.29v2.447H6.265ZM3.818,28.29H30.737v4.894H3.818ZM9.936,51.539a1.224,1.224,0,1,1,1.224-1.224A1.226,1.226,0,0,1,9.936,51.539ZM24.619,62.4a1.366,1.366,0,0,1,.4-.97l.927-.927a1.372,1.372,0,0,1,1.941,1.941l-.927.927a1.372,1.372,0,0,1-2.342-.97Zm3.671,3.671a1.366,1.366,0,0,1,.4-.97l.927-.927a1.372,1.372,0,0,1,1.941,1.941l-.927.927a1.372,1.372,0,0,1-2.342-.97Zm3.671,3.671a1.366,1.366,0,0,1,.4-.97l.927-.927a1.372,1.372,0,0,1,1.941,1.941l-.927.927a1.372,1.372,0,0,1-2.342-.97Zm6.013,4.641a1.372,1.372,0,0,1-1.941-1.941l.927-.927A1.372,1.372,0,0,1,38.9,73.458ZM53.838,63.775a1.366,1.366,0,0,1-.97-.4l-2.911-2.911-1.73,1.73L51.137,65.1A1.372,1.372,0,0,1,49.2,67.044l-2.911-2.911-1.73,1.73,2.911,2.911a1.372,1.372,0,0,1-1.941,1.941L42.615,67.8l-1.73,1.73L43.8,72.445a1.372,1.372,0,0,1-1.941,1.941l-.409-.409a3.807,3.807,0,0,0-3.381-5.295,3.809,3.809,0,0,0-3.671-3.671,3.809,3.809,0,0,0-3.671-3.671,3.816,3.816,0,0,0-3.805-3.684,3.775,3.775,0,0,0-2.249.748A9.149,9.149,0,0,1,37.56,45.432L31.6,51.391a2.955,2.955,0,0,0,2.09,5.042h4.6a3.649,3.649,0,0,0,2.6-1.076l1.372-1.372h.926a9.566,9.566,0,0,0,3.511-.668l8.115,8.115a1.372,1.372,0,0,1-.97,2.342Zm.7-6.074L48.91,52.075a9.882,9.882,0,0,0,1.047-.893l-1.73-1.73a7.093,7.093,0,0,1-5.045,2.087H41.243l-2.089,2.089a1.218,1.218,0,0,1-.866.359h-4.6a.507.507,0,0,1-.359-.865L40.8,45.656A9.155,9.155,0,0,1,54.536,57.7Zm14.133-6.162a1.224,1.224,0,1,1,1.224-1.224A1.226,1.226,0,0,1,68.669,51.539Zm-20.8-47.72H74.787V8.713H47.868ZM74.787,33.185H47.868V28.29H74.787ZM72.34,25.843H50.315V23.4H72.34Zm2.447-4.894H47.868V16.054H74.787ZM72.34,13.607H50.315V11.16H72.34Z" transform="translate(-1.371 -1.371)" fill="#ffa726"/>
      <path id="Trazado_101019" data-name="Trazado 101019" d="M75.4,63.065H77.85v2.447H75.4Z" transform="translate(-9.329 -8.002)" fill="#ffa726"/>
      <path id="Trazado_101020" data-name="Trazado 101020" d="M75.4,68.548H77.85V71H75.4Z" transform="translate(-9.329 -8.592)" fill="#ffa726"/>
      <path id="Trazado_101021" data-name="Trazado 101021" d="M75.4,74.032H77.85v2.447H75.4Z" transform="translate(-9.329 -9.181)" fill="#ffa726"/>
      <path id="Trazado_101022" data-name="Trazado 101022" d="M69.919,74.032h2.447v2.447H69.919Z" transform="translate(-8.739 -9.181)" fill="#ffa726"/>
      <path id="Trazado_101023" data-name="Trazado 101023" d="M64.435,74.032h2.447v2.447H64.435Z" transform="translate(-8.15 -9.181)" fill="#ffa726"/>
      <path id="Trazado_101024" data-name="Trazado 101024" d="M9.6,63.065h2.447v2.447H9.6Z" transform="translate(-2.255 -8.002)" fill="#ffa726"/>
      <path id="Trazado_101025" data-name="Trazado 101025" d="M9.6,68.548h2.447V71H9.6Z" transform="translate(-2.255 -8.592)" fill="#ffa726"/>
      <path id="Trazado_101026" data-name="Trazado 101026" d="M9.6,74.032h2.447v2.447H9.6Z" transform="translate(-2.255 -9.181)" fill="#ffa726"/>
      <path id="Trazado_101027" data-name="Trazado 101027" d="M15.081,74.032h2.447v2.447H15.081Z" transform="translate(-2.845 -9.181)" fill="#ffa726"/>
      <path id="Trazado_101028" data-name="Trazado 101028" d="M20.565,74.032h2.447v2.447H20.565Z" transform="translate(-3.434 -9.181)" fill="#ffa726"/>
    </g>
  </g>
</svg>
