<svg xmlns="http://www.w3.org/2000/svg" width="1030" height="324.749" viewBox="0 0 1030 324.749">
  <g id="Grupo_54071" data-name="Grupo 54071" transform="translate(-285 -1133)">
    <path id="Trazado_101390" data-name="Trazado 101390" d="M15.551,0h-4.09V-7.125H5.4V0H1.289V-17.062H5.4v6.773h6.059v-6.773h4.09Zm8.555.234a6.518,6.518,0,0,1-4.723-1.74,6.009,6.009,0,0,1-1.8-4.529v-.328A7.787,7.787,0,0,1,18.3-9.8a5.274,5.274,0,0,1,2.1-2.3,6.35,6.35,0,0,1,3.281-.814A5.489,5.489,0,0,1,27.9-11.256a6.516,6.516,0,0,1,1.547,4.623V-5.1H21.6a2.846,2.846,0,0,0,.926,1.676,2.755,2.755,0,0,0,1.852.609A3.549,3.549,0,0,0,27.3-4.125l1.8,2.133A5.045,5.045,0,0,1,27.018-.369,7.069,7.069,0,0,1,24.105.234Zm-.445-10.1q-1.734,0-2.062,2.3h3.984v-.3a1.956,1.956,0,0,0-.48-1.471A1.912,1.912,0,0,0,23.66-9.867Zm15.047.762-1.3-.094a2.336,2.336,0,0,0-2.391,1.172V0H31.066V-12.68h3.7l.129,1.629a3.058,3.058,0,0,1,2.777-1.863,3.851,3.851,0,0,1,1.1.141ZM46.043.234a6.518,6.518,0,0,1-4.723-1.74,6.009,6.009,0,0,1-1.8-4.529v-.328A7.787,7.787,0,0,1,40.236-9.8a5.274,5.274,0,0,1,2.1-2.3,6.35,6.35,0,0,1,3.281-.814,5.489,5.489,0,0,1,4.219,1.658,6.516,6.516,0,0,1,1.547,4.623V-5.1H43.535a2.846,2.846,0,0,0,.926,1.676,2.755,2.755,0,0,0,1.852.609,3.549,3.549,0,0,0,2.93-1.312l1.8,2.133A5.045,5.045,0,0,1,48.955-.369,7.069,7.069,0,0,1,46.043.234ZM45.6-9.867q-1.734,0-2.062,2.3H47.52v-.3a1.956,1.956,0,0,0-.48-1.471A1.912,1.912,0,0,0,45.6-9.867Zm11-2.812.129,1.488a4.3,4.3,0,0,1,3.621-1.723,3.618,3.618,0,0,1,2.959,1.184,5.635,5.635,0,0,1,1.014,3.563V0H60.363V-8a2.14,2.14,0,0,0-.387-1.412,1.789,1.789,0,0,0-1.406-.451,1.883,1.883,0,0,0-1.723.914V0H52.9V-12.68Zm15.27,9.867a1.756,1.756,0,0,0,1.289-.451,1.654,1.654,0,0,0,.445-1.26h3.7A4.384,4.384,0,0,1,75.814-1.1,5.558,5.558,0,0,1,71.965.234,5.627,5.627,0,0,1,67.605-1.5a6.834,6.834,0,0,1-1.594-4.8v-.164a7.723,7.723,0,0,1,.709-3.393,5.162,5.162,0,0,1,2.045-2.262,6.1,6.1,0,0,1,3.164-.791,5.488,5.488,0,0,1,3.926,1.371,4.863,4.863,0,0,1,1.453,3.715h-3.7a2.168,2.168,0,0,0-.48-1.512,1.658,1.658,0,0,0-1.289-.527q-1.535,0-1.793,1.957A13.809,13.809,0,0,0,69.961-6.2a5.424,5.424,0,0,0,.457,2.648A1.582,1.582,0,0,0,71.871-2.812ZM83.145,0H79.184V-12.68h3.961Zm-4.2-15.961a1.778,1.778,0,0,1,.609-1.391,2.29,2.29,0,0,1,1.582-.542,2.29,2.29,0,0,1,1.582.542,1.778,1.778,0,0,1,.609,1.391,1.778,1.778,0,0,1-.609,1.391,2.29,2.29,0,0,1-1.582.542,2.29,2.29,0,0,1-1.582-.542A1.778,1.778,0,0,1,78.949-15.961ZM92.719,0a4.459,4.459,0,0,1-.375-1.137A3.672,3.672,0,0,1,89.3.234,4.5,4.5,0,0,1,86.25-.85,3.45,3.45,0,0,1,85-3.574,3.546,3.546,0,0,1,86.52-6.691a7.761,7.761,0,0,1,4.43-1.055h1.219v-.671q0-1.755-1.512-1.755a1.236,1.236,0,0,0-1.406,1.39H85.3a3.54,3.54,0,0,1,1.564-2.985,6.575,6.575,0,0,1,3.99-1.147,5.764,5.764,0,0,1,3.832,1.184,4.115,4.115,0,0,1,1.441,3.246v5.613A5.748,5.748,0,0,0,96.668-.2V0ZM90.246-2.578a2.2,2.2,0,0,0,1.225-.316,1.983,1.983,0,0,0,.7-.715V-5.637H91.02q-2.062,0-2.062,1.852a1.131,1.131,0,0,0,.363.873A1.315,1.315,0,0,0,90.246-2.578Z" transform="translate(390 1297)" fill="#12263f"/>
    <path id="Trazado_101391" data-name="Trazado 101391" d="M5.4-3.164h7.16V0H1.289V-17.062H5.4ZM18.281,0H14.32V-12.68h3.961Zm-4.2-15.961a1.778,1.778,0,0,1,.609-1.391,2.29,2.29,0,0,1,1.582-.542,2.29,2.29,0,0,1,1.582.542,1.778,1.778,0,0,1,.609,1.391,1.778,1.778,0,0,1-.609,1.391,2.29,2.29,0,0,1-1.582.542A2.29,2.29,0,0,1,14.7-14.57,1.778,1.778,0,0,1,14.086-15.961ZM20.25-6.434a8.561,8.561,0,0,1,.633-3.4A5.094,5.094,0,0,1,22.7-12.111a4.788,4.788,0,0,1,2.754-.8,3.807,3.807,0,0,1,3.094,1.336l.141-1.1h3.586V-.48a5.346,5.346,0,0,1-.779,2.912,5,5,0,0,1-2.256,1.9,8.292,8.292,0,0,1-3.422.662,7.153,7.153,0,0,1-2.7-.527,4.876,4.876,0,0,1-2-1.371L22.77.773a3.621,3.621,0,0,0,2.906,1.3q2.625,0,2.625-2.7v-.4A3.708,3.708,0,0,1,25.43.234a4.583,4.583,0,0,1-3.75-1.775,7.356,7.356,0,0,1-1.43-4.752Zm3.961.246A4.511,4.511,0,0,0,24.8-3.721a1.849,1.849,0,0,0,1.641.908A2.1,2.1,0,0,0,28.3-3.668V-9a2.045,2.045,0,0,0-1.84-.867,1.861,1.861,0,0,0-1.652.943A5.144,5.144,0,0,0,24.211-6.187ZM41.66,0a4.459,4.459,0,0,1-.375-1.137A3.672,3.672,0,0,1,38.238.234,4.5,4.5,0,0,1,35.191-.85a3.45,3.45,0,0,1-1.254-2.725,3.546,3.546,0,0,1,1.523-3.117,7.761,7.761,0,0,1,4.43-1.055h1.219v-.671q0-1.755-1.512-1.755a1.236,1.236,0,0,0-1.406,1.39H34.242a3.54,3.54,0,0,1,1.564-2.985,6.575,6.575,0,0,1,3.99-1.147,5.764,5.764,0,0,1,3.832,1.184A4.115,4.115,0,0,1,45.07-8.484v5.613A5.748,5.748,0,0,0,45.609-.2V0ZM39.188-2.578a2.2,2.2,0,0,0,1.225-.316,1.983,1.983,0,0,0,.7-.715V-5.637H39.961q-2.062,0-2.062,1.852a1.131,1.131,0,0,0,.363.873A1.315,1.315,0,0,0,39.188-2.578Zm7.57-3.855a7.746,7.746,0,0,1,1.3-4.746,4.282,4.282,0,0,1,3.633-1.734,3.641,3.641,0,0,1,2.859,1.336V-18h3.961V0H54.961l-.2-1.359A3.739,3.739,0,0,1,51.668.234,4.274,4.274,0,0,1,48.082-1.5,7.991,7.991,0,0,1,46.758-6.434Zm3.949.246q0,3.375,1.969,3.375a1.944,1.944,0,0,0,1.875-1.1V-8.742A1.892,1.892,0,0,0,52.7-9.867q-1.828,0-1.98,2.953Zm17.6,4.816A4.072,4.072,0,0,1,64.922.234,3.993,3.993,0,0,1,61.764-.979a5.1,5.1,0,0,1-1.072-3.486V-12.68h3.949v8.238a1.419,1.419,0,0,0,1.582,1.629,2.064,2.064,0,0,0,1.934-.973V-12.68h3.973V0h-3.7ZM81.961-9.105,80.66-9.2A2.336,2.336,0,0,0,78.27-8.027V0H74.32V-12.68h3.7l.129,1.629a3.058,3.058,0,0,1,2.777-1.863,3.851,3.851,0,0,1,1.1.141ZM90.176,0A4.459,4.459,0,0,1,89.8-1.137,3.672,3.672,0,0,1,86.754.234,4.5,4.5,0,0,1,83.707-.85a3.45,3.45,0,0,1-1.254-2.725,3.546,3.546,0,0,1,1.523-3.117,7.761,7.761,0,0,1,4.43-1.055h1.219v-.671q0-1.755-1.512-1.755a1.236,1.236,0,0,0-1.406,1.39H82.758a3.54,3.54,0,0,1,1.564-2.985,6.575,6.575,0,0,1,3.99-1.147,5.764,5.764,0,0,1,3.832,1.184,4.115,4.115,0,0,1,1.441,3.246v5.613A5.748,5.748,0,0,0,94.125-.2V0ZM87.7-2.578a2.2,2.2,0,0,0,1.225-.316,1.983,1.983,0,0,0,.7-.715V-5.637H88.477q-2.062,0-2.062,1.852a1.131,1.131,0,0,0,.363.873A1.315,1.315,0,0,0,87.7-2.578ZM.609,23.566a7.746,7.746,0,0,1,1.3-4.746,4.282,4.282,0,0,1,3.633-1.734A3.641,3.641,0,0,1,8.4,18.422V12h3.961V30H8.813l-.2-1.359A3.739,3.739,0,0,1,5.52,30.234,4.274,4.274,0,0,1,1.934,28.5,7.991,7.991,0,0,1,.609,23.566Zm3.949.246q0,3.375,1.969,3.375a1.944,1.944,0,0,0,1.875-1.1V21.258a1.892,1.892,0,0,0-1.852-1.125q-1.828,0-1.98,2.953ZM18.773,30H14.813V17.32h3.961Zm-4.2-15.961a1.778,1.778,0,0,1,.609-1.391,2.29,2.29,0,0,1,1.582-.542,2.29,2.29,0,0,1,1.582.542,1.893,1.893,0,0,1,0,2.782,2.29,2.29,0,0,1-1.582.542,2.29,2.29,0,0,1-1.582-.542A1.778,1.778,0,0,1,14.578,14.039ZM24.832,17.32l.129,1.488a4.3,4.3,0,0,1,3.621-1.723,3.618,3.618,0,0,1,2.959,1.184,5.635,5.635,0,0,1,1.014,3.563V30H28.594V22a2.14,2.14,0,0,0-.387-1.412,1.789,1.789,0,0,0-1.406-.451,1.883,1.883,0,0,0-1.723.914V30H21.129V17.32ZM41.883,30a4.459,4.459,0,0,1-.375-1.137,3.672,3.672,0,0,1-3.047,1.371,4.5,4.5,0,0,1-3.047-1.084,3.45,3.45,0,0,1-1.254-2.725,3.546,3.546,0,0,1,1.523-3.117,7.761,7.761,0,0,1,4.43-1.055h1.219v-.671q0-1.755-1.512-1.755a1.236,1.236,0,0,0-1.406,1.39H34.465a3.54,3.54,0,0,1,1.564-2.985,6.575,6.575,0,0,1,3.99-1.147,5.764,5.764,0,0,1,3.832,1.184,4.115,4.115,0,0,1,1.441,3.246v5.613a5.748,5.748,0,0,0,.539,2.672V30ZM39.41,27.422a2.2,2.2,0,0,0,1.225-.316,1.983,1.983,0,0,0,.7-.715V24.363H40.184q-2.062,0-2.062,1.852a1.131,1.131,0,0,0,.363.873A1.315,1.315,0,0,0,39.41,27.422ZM40.395,12h4.172l-3.258,3.68-3.223-.006Zm10.816,5.32.129,1.488a4.36,4.36,0,0,1,3.621-1.723A3.21,3.21,0,0,1,58.207,19a4.22,4.22,0,0,1,3.727-1.91q3.855,0,3.961,4.664V30H61.934V22a2.417,2.417,0,0,0-.328-1.418,1.4,1.4,0,0,0-1.2-.445,1.871,1.871,0,0,0-1.746,1.043l.012.164V30H54.715V22.02a2.541,2.541,0,0,0-.316-1.441,1.393,1.393,0,0,0-1.207-.445,1.894,1.894,0,0,0-1.734,1.043V30H47.508V17.32ZM72.316,30H68.355V17.32h3.961Zm-4.2-15.961a1.778,1.778,0,0,1,.609-1.391,2.579,2.579,0,0,1,3.164,0,1.893,1.893,0,0,1,0,2.782,2.579,2.579,0,0,1-3.164,0A1.778,1.778,0,0,1,68.121,14.039ZM80.109,27.188a1.756,1.756,0,0,0,1.289-.451,1.654,1.654,0,0,0,.445-1.26h3.7A4.384,4.384,0,0,1,84.053,28.9a5.558,5.558,0,0,1-3.85,1.336A5.627,5.627,0,0,1,75.844,28.5a6.834,6.834,0,0,1-1.594-4.8v-.164a7.723,7.723,0,0,1,.709-3.393A5.162,5.162,0,0,1,77,17.877a6.1,6.1,0,0,1,3.164-.791,5.488,5.488,0,0,1,3.926,1.371,4.863,4.863,0,0,1,1.453,3.715h-3.7a2.168,2.168,0,0,0-.48-1.512,1.658,1.658,0,0,0-1.289-.527q-1.535,0-1.793,1.957A13.809,13.809,0,0,0,78.2,23.8a5.424,5.424,0,0,0,.457,2.648A1.582,1.582,0,0,0,80.109,27.188ZM94.359,30a4.459,4.459,0,0,1-.375-1.137,3.672,3.672,0,0,1-3.047,1.371,4.5,4.5,0,0,1-3.047-1.084,3.45,3.45,0,0,1-1.254-2.725,3.546,3.546,0,0,1,1.523-3.117,7.761,7.761,0,0,1,4.43-1.055h1.219v-.671q0-1.755-1.512-1.755a1.236,1.236,0,0,0-1.406,1.39H86.941a3.54,3.54,0,0,1,1.564-2.985,6.575,6.575,0,0,1,3.99-1.147,5.764,5.764,0,0,1,3.832,1.184,4.115,4.115,0,0,1,1.441,3.246v5.613a5.748,5.748,0,0,0,.539,2.672V30Zm-2.473-2.578a2.2,2.2,0,0,0,1.225-.316,1.983,1.983,0,0,0,.7-.715V24.363H92.66q-2.062,0-2.062,1.852a1.131,1.131,0,0,0,.363.873A1.315,1.315,0,0,0,91.887,27.422Z" transform="translate(756 1282)" fill="#12263f"/>
    <path id="Trazado_101392" data-name="Trazado 101392" d="M62.439,17.223a6.231,6.231,0,0,1-.961,3.146,5.8,5.8,0,0,1-2.467,2.115,8.4,8.4,0,0,1-3.627.75,6.7,6.7,0,0,1-5.3-2.191,9.048,9.048,0,0,1-1.934-6.187v-.844a10.328,10.328,0,0,1,.873-4.389,6.615,6.615,0,0,1,2.514-2.906,7.013,7.013,0,0,1,3.8-1.025A7.354,7.354,0,0,1,60.33,7.326a6.459,6.459,0,0,1,2.145,4.506h-4.1a3.056,3.056,0,0,0-.785-2.238,3.229,3.229,0,0,0-2.25-.68,2.457,2.457,0,0,0-2.25,1.148,7.381,7.381,0,0,0-.75,3.668v1.207a8.167,8.167,0,0,0,.686,3.9,2.509,2.509,0,0,0,2.361,1.172,3.159,3.159,0,0,0,2.168-.668,2.835,2.835,0,0,0,.8-2.121ZM71.346,23a4.459,4.459,0,0,1-.375-1.137,3.672,3.672,0,0,1-3.047,1.371,4.5,4.5,0,0,1-3.047-1.084,3.45,3.45,0,0,1-1.254-2.725,3.546,3.546,0,0,1,1.523-3.117,7.761,7.761,0,0,1,4.43-1.055h1.219v-.671q0-1.755-1.512-1.755a1.236,1.236,0,0,0-1.406,1.39H63.928a3.54,3.54,0,0,1,1.564-2.985,6.575,6.575,0,0,1,3.99-1.147,5.764,5.764,0,0,1,3.832,1.184,4.115,4.115,0,0,1,1.441,3.246v5.613a5.748,5.748,0,0,0,.539,2.672V23Zm-2.473-2.578a2.2,2.2,0,0,0,1.225-.316,1.983,1.983,0,0,0,.7-.715V17.363H69.646q-2.062,0-2.062,1.852a1.131,1.131,0,0,0,.363.873A1.315,1.315,0,0,0,68.873,20.422Zm15.738-6.527-1.3-.094a2.336,2.336,0,0,0-2.391,1.172V23H76.971V10.32h3.7l.129,1.629a3.058,3.058,0,0,1,2.777-1.863,3.851,3.851,0,0,1,1.1.141ZM92.826,23a4.459,4.459,0,0,1-.375-1.137A3.672,3.672,0,0,1,89.4,23.234a4.5,4.5,0,0,1-3.047-1.084A3.45,3.45,0,0,1,85.1,19.426a3.546,3.546,0,0,1,1.523-3.117,7.761,7.761,0,0,1,4.43-1.055h1.219v-.671q0-1.755-1.512-1.755a1.236,1.236,0,0,0-1.406,1.39H85.408a3.54,3.54,0,0,1,1.564-2.985,6.575,6.575,0,0,1,3.99-1.147,5.764,5.764,0,0,1,3.832,1.184,4.115,4.115,0,0,1,1.441,3.246v5.613a5.748,5.748,0,0,0,.539,2.672V23Zm-2.473-2.578a2.2,2.2,0,0,0,1.225-.316,1.983,1.983,0,0,0,.7-.715V17.363H91.127q-2.062,0-2.062,1.852a1.131,1.131,0,0,0,.363.873A1.315,1.315,0,0,0,90.354,20.422Zm13.43-.234a1.756,1.756,0,0,0,1.289-.451,1.654,1.654,0,0,0,.445-1.26h3.7a4.384,4.384,0,0,1-1.494,3.422,5.558,5.558,0,0,1-3.85,1.336A5.627,5.627,0,0,1,99.518,21.5a6.834,6.834,0,0,1-1.594-4.8v-.164a7.723,7.723,0,0,1,.709-3.393,5.162,5.162,0,0,1,2.045-2.262,6.1,6.1,0,0,1,3.164-.791,5.488,5.488,0,0,1,3.926,1.371,4.863,4.863,0,0,1,1.453,3.715h-3.7a2.168,2.168,0,0,0-.48-1.512,1.658,1.658,0,0,0-1.289-.527q-1.535,0-1.793,1.957a13.809,13.809,0,0,0-.082,1.711,5.424,5.424,0,0,0,.457,2.648A1.582,1.582,0,0,0,103.783,20.188ZM115.49,7.168V10.32h2.086v2.742H115.49v5.8a1.481,1.481,0,0,0,.258,1,1.383,1.383,0,0,0,1.02.281,5.793,5.793,0,0,0,.984-.07v2.824a7.288,7.288,0,0,1-2.227.34,4.137,4.137,0,0,1-3.012-.961,3.939,3.939,0,0,1-.973-2.918V13.063h-1.617V10.32h1.617V7.168Zm9.773,16.066a6.518,6.518,0,0,1-4.723-1.74,6.009,6.009,0,0,1-1.8-4.529v-.328a7.787,7.787,0,0,1,.721-3.434,5.274,5.274,0,0,1,2.1-2.3,6.35,6.35,0,0,1,3.281-.814,5.489,5.489,0,0,1,4.219,1.658,6.516,6.516,0,0,1,1.547,4.623V17.9h-7.852a2.846,2.846,0,0,0,.926,1.676,2.755,2.755,0,0,0,1.852.609,3.549,3.549,0,0,0,2.93-1.312l1.8,2.133a5.045,5.045,0,0,1-2.092,1.623A7.069,7.069,0,0,1,125.264,23.234Zm-.445-10.1q-1.734,0-2.062,2.3h3.984v-.3a1.956,1.956,0,0,0-.48-1.471A1.912,1.912,0,0,0,124.818,13.133Zm15.047.762-1.3-.094a2.336,2.336,0,0,0-2.391,1.172V23h-3.949V10.32h3.7l.129,1.629a3.058,3.058,0,0,1,2.777-1.863,3.851,3.851,0,0,1,1.1.141ZM145.6,23h-3.973V10.32H145.6ZM144.119,5.234h4.172l-3.258,3.68-3.223-.006Zm10.652,14.2a.912.912,0,0,0-.527-.809,8.021,8.021,0,0,0-2-.633,9.138,9.138,0,0,1-2.437-.861,4.083,4.083,0,0,1-1.465-1.295,3.092,3.092,0,0,1-.5-1.746,3.5,3.5,0,0,1,1.441-2.877,5.938,5.938,0,0,1,3.773-1.131,6.579,6.579,0,0,1,4.031,1.137,3.555,3.555,0,0,1,1.523,2.988h-3.961q0-1.523-1.605-1.523a1.591,1.591,0,0,0-1.043.346,1.07,1.07,0,0,0-.422.861.982.982,0,0,0,.516.855,4.872,4.872,0,0,0,1.646.539,14.228,14.228,0,0,1,1.986.5q2.859.984,2.859,3.527a3.321,3.321,0,0,1-1.541,2.824,6.758,6.758,0,0,1-3.99,1.09,6.9,6.9,0,0,1-2.906-.586,4.86,4.86,0,0,1-1.992-1.594,3.609,3.609,0,0,1-.715-2.121h3.691a1.526,1.526,0,0,0,.586,1.283,2.41,2.41,0,0,0,1.441.4,1.9,1.9,0,0,0,1.213-.328A1.05,1.05,0,0,0,154.771,19.438Zm10.254-12.27V10.32h2.086v2.742h-2.086v5.8a1.481,1.481,0,0,0,.258,1,1.383,1.383,0,0,0,1.02.281,5.793,5.793,0,0,0,.984-.07v2.824a7.288,7.288,0,0,1-2.227.34,4.137,4.137,0,0,1-3.012-.961,3.939,3.939,0,0,1-.973-2.918V13.063h-1.617V10.32h1.617V7.168ZM172.83,23h-3.961V10.32h3.961Zm-4.2-15.961a1.778,1.778,0,0,1,.609-1.391,2.579,2.579,0,0,1,3.164,0,1.778,1.778,0,0,1,.609,1.391,1.778,1.778,0,0,1-.609,1.391,2.579,2.579,0,0,1-3.164,0A1.778,1.778,0,0,1,168.635,7.039Zm11.988,13.148a1.756,1.756,0,0,0,1.289-.451,1.654,1.654,0,0,0,.445-1.26h3.7a4.384,4.384,0,0,1-1.494,3.422,5.558,5.558,0,0,1-3.85,1.336,5.627,5.627,0,0,1-4.359-1.734,6.834,6.834,0,0,1-1.594-4.8v-.164a7.723,7.723,0,0,1,.709-3.393,5.162,5.162,0,0,1,2.045-2.262,6.1,6.1,0,0,1,3.164-.791,5.488,5.488,0,0,1,3.926,1.371,4.863,4.863,0,0,1,1.453,3.715h-3.7a2.168,2.168,0,0,0-.48-1.512,1.658,1.658,0,0,0-1.289-.527q-1.535,0-1.793,1.957a13.809,13.809,0,0,0-.082,1.711,5.424,5.424,0,0,0,.457,2.648A1.582,1.582,0,0,0,180.623,20.188ZM194.873,23a4.459,4.459,0,0,1-.375-1.137,3.672,3.672,0,0,1-3.047,1.371A4.5,4.5,0,0,1,188.4,22.15a3.45,3.45,0,0,1-1.254-2.725,3.546,3.546,0,0,1,1.523-3.117,7.761,7.761,0,0,1,4.43-1.055h1.219v-.671q0-1.755-1.512-1.755a1.236,1.236,0,0,0-1.406,1.39h-3.949a3.54,3.54,0,0,1,1.564-2.985,6.575,6.575,0,0,1,3.99-1.147,5.764,5.764,0,0,1,3.832,1.184,4.115,4.115,0,0,1,1.441,3.246v5.613a5.748,5.748,0,0,0,.539,2.672V23ZM192.4,20.422a2.2,2.2,0,0,0,1.225-.316,1.983,1.983,0,0,0,.7-.715V17.363h-1.148q-2.062,0-2.062,1.852a1.131,1.131,0,0,0,.363.873A1.315,1.315,0,0,0,192.4,20.422Zm14.707-.984a.912.912,0,0,0-.527-.809,8.021,8.021,0,0,0-2-.633,9.138,9.138,0,0,1-2.437-.861,4.083,4.083,0,0,1-1.465-1.295,3.092,3.092,0,0,1-.5-1.746,3.5,3.5,0,0,1,1.441-2.877,5.938,5.938,0,0,1,3.773-1.131,6.579,6.579,0,0,1,4.031,1.137,3.555,3.555,0,0,1,1.523,2.988h-3.961q0-1.523-1.605-1.523a1.591,1.591,0,0,0-1.043.346,1.07,1.07,0,0,0-.422.861.982.982,0,0,0,.516.855,4.872,4.872,0,0,0,1.646.539,14.228,14.228,0,0,1,1.986.5q2.859.984,2.859,3.527a3.321,3.321,0,0,1-1.541,2.824,6.758,6.758,0,0,1-3.99,1.09,6.9,6.9,0,0,1-2.906-.586,4.86,4.86,0,0,1-1.992-1.594,3.609,3.609,0,0,1-.715-2.121h3.691a1.526,1.526,0,0,0,.586,1.283,2.41,2.41,0,0,0,1.441.4,1.9,1.9,0,0,0,1.213-.328A1.05,1.05,0,0,0,207.107,19.438ZM38.1,46.766a7.728,7.728,0,0,1-1.289,4.793,4.318,4.318,0,0,1-3.633,1.676A3.747,3.747,0,0,1,30.061,51.7L29.9,53H26.357V35h3.949v6.34a3.615,3.615,0,0,1,2.848-1.254,4.319,4.319,0,0,1,3.656,1.7A7.768,7.768,0,0,1,38.1,46.566Zm-3.961-.252a5.155,5.155,0,0,0-.486-2.6,1.639,1.639,0,0,0-1.494-.778,1.891,1.891,0,0,0-1.852,1.018v5.031a1.9,1.9,0,0,0,1.875,1.006,1.677,1.677,0,0,0,1.77-1.357A9.745,9.745,0,0,0,34.139,46.514ZM46.982,53a4.459,4.459,0,0,1-.375-1.137,3.672,3.672,0,0,1-3.047,1.371,4.5,4.5,0,0,1-3.047-1.084,3.45,3.45,0,0,1-1.254-2.725,3.546,3.546,0,0,1,1.523-3.117,7.761,7.761,0,0,1,4.43-1.055h1.219v-.671q0-1.755-1.512-1.755a1.236,1.236,0,0,0-1.406,1.39H39.564a3.54,3.54,0,0,1,1.564-2.985,6.575,6.575,0,0,1,3.99-1.147,5.764,5.764,0,0,1,3.832,1.184,4.115,4.115,0,0,1,1.441,3.246v5.613a5.748,5.748,0,0,0,.539,2.672V53ZM44.51,50.422a2.2,2.2,0,0,0,1.225-.316,1.983,1.983,0,0,0,.7-.715V47.363H45.283q-2.062,0-2.062,1.852a1.131,1.131,0,0,0,.363.873A1.315,1.315,0,0,0,44.51,50.422Zm14.707-.984a.912.912,0,0,0-.527-.809,8.021,8.021,0,0,0-2-.633,9.138,9.138,0,0,1-2.437-.861,4.083,4.083,0,0,1-1.465-1.295,3.092,3.092,0,0,1-.5-1.746,3.5,3.5,0,0,1,1.441-2.877,5.938,5.938,0,0,1,3.773-1.131,6.579,6.579,0,0,1,4.031,1.137,3.555,3.555,0,0,1,1.523,2.988H59.088q0-1.523-1.605-1.523a1.591,1.591,0,0,0-1.043.346,1.07,1.07,0,0,0-.422.861.982.982,0,0,0,.516.855,4.872,4.872,0,0,0,1.646.539,14.228,14.228,0,0,1,1.986.5q2.859.984,2.859,3.527a3.321,3.321,0,0,1-1.541,2.824,6.758,6.758,0,0,1-3.99,1.09,6.9,6.9,0,0,1-2.906-.586A4.86,4.86,0,0,1,52.6,51.055a3.609,3.609,0,0,1-.715-2.121h3.691a1.526,1.526,0,0,0,.586,1.283,2.41,2.41,0,0,0,1.441.4,1.9,1.9,0,0,0,1.213-.328A1.05,1.05,0,0,0,59.217,49.438ZM72.014,53a4.459,4.459,0,0,1-.375-1.137,3.672,3.672,0,0,1-3.047,1.371,4.5,4.5,0,0,1-3.047-1.084,3.45,3.45,0,0,1-1.254-2.725,3.546,3.546,0,0,1,1.523-3.117,7.761,7.761,0,0,1,4.43-1.055h1.219v-.671q0-1.755-1.512-1.755a1.236,1.236,0,0,0-1.406,1.39H64.6a3.54,3.54,0,0,1,1.564-2.985,6.575,6.575,0,0,1,3.99-1.147,5.764,5.764,0,0,1,3.832,1.184,4.115,4.115,0,0,1,1.441,3.246v5.613a5.748,5.748,0,0,0,.539,2.672V53Zm-2.473-2.578a2.2,2.2,0,0,0,1.225-.316,1.983,1.983,0,0,0,.7-.715V47.363H70.314q-2.062,0-2.062,1.852a1.131,1.131,0,0,0,.363.873A1.315,1.315,0,0,0,69.541,50.422Zm7.57-3.855a7.746,7.746,0,0,1,1.3-4.746,4.282,4.282,0,0,1,3.633-1.734A3.641,3.641,0,0,1,84.9,41.422V35h3.961V53H85.314l-.2-1.359a3.739,3.739,0,0,1-3.094,1.594A4.274,4.274,0,0,1,78.436,51.5,7.991,7.991,0,0,1,77.111,46.566Zm3.949.246q0,3.375,1.969,3.375a1.944,1.944,0,0,0,1.875-1.1V44.258a1.892,1.892,0,0,0-1.852-1.125q-1.828,0-1.98,2.953ZM98.252,53a4.459,4.459,0,0,1-.375-1.137,3.672,3.672,0,0,1-3.047,1.371,4.5,4.5,0,0,1-3.047-1.084,3.45,3.45,0,0,1-1.254-2.725,3.546,3.546,0,0,1,1.523-3.117,7.761,7.761,0,0,1,4.43-1.055H97.7v-.671q0-1.755-1.512-1.755a1.236,1.236,0,0,0-1.406,1.39H90.834A3.54,3.54,0,0,1,92.4,41.233a6.575,6.575,0,0,1,3.99-1.147,5.764,5.764,0,0,1,3.832,1.184,4.115,4.115,0,0,1,1.441,3.246v5.613A5.748,5.748,0,0,0,102.2,52.8V53Zm-2.473-2.578A2.2,2.2,0,0,0,97,50.105a1.983,1.983,0,0,0,.7-.715V47.363H96.553q-2.062,0-2.062,1.852a1.131,1.131,0,0,0,.363.873A1.315,1.315,0,0,0,95.779,50.422Zm14.707-.984a.912.912,0,0,0-.527-.809,8.021,8.021,0,0,0-2-.633,9.138,9.138,0,0,1-2.437-.861,4.083,4.083,0,0,1-1.465-1.295,3.092,3.092,0,0,1-.5-1.746,3.5,3.5,0,0,1,1.441-2.877,5.938,5.938,0,0,1,3.773-1.131,6.579,6.579,0,0,1,4.031,1.137,3.555,3.555,0,0,1,1.523,2.988h-3.961q0-1.523-1.605-1.523a1.591,1.591,0,0,0-1.043.346,1.07,1.07,0,0,0-.422.861.982.982,0,0,0,.516.855,4.872,4.872,0,0,0,1.646.539,14.228,14.228,0,0,1,1.986.5q2.859.984,2.859,3.527a3.321,3.321,0,0,1-1.541,2.824,6.758,6.758,0,0,1-3.99,1.09,6.9,6.9,0,0,1-2.906-.586,4.86,4.86,0,0,1-1.992-1.594,3.609,3.609,0,0,1-.715-2.121h3.691a1.526,1.526,0,0,0,.586,1.283,2.41,2.41,0,0,0,1.441.4,1.9,1.9,0,0,0,1.213-.328A1.05,1.05,0,0,0,110.486,49.438Zm17.766,3.8a6.518,6.518,0,0,1-4.723-1.74,6.009,6.009,0,0,1-1.8-4.529v-.328a7.787,7.787,0,0,1,.721-3.434,5.274,5.274,0,0,1,2.1-2.3,6.35,6.35,0,0,1,3.281-.814,5.489,5.489,0,0,1,4.219,1.658,6.516,6.516,0,0,1,1.547,4.623V47.9h-7.852a2.846,2.846,0,0,0,.926,1.676,2.755,2.755,0,0,0,1.852.609,3.549,3.549,0,0,0,2.93-1.312l1.8,2.133a5.045,5.045,0,0,1-2.092,1.623A7.069,7.069,0,0,1,128.252,53.234Zm-.445-10.1q-1.734,0-2.062,2.3h3.984v-.3a1.956,1.956,0,0,0-.48-1.471A1.912,1.912,0,0,0,127.807,43.133Zm11-2.812.129,1.488a4.3,4.3,0,0,1,3.621-1.723,3.618,3.618,0,0,1,2.959,1.184,5.635,5.635,0,0,1,1.014,3.563V53h-3.961V45a2.14,2.14,0,0,0-.387-1.412,1.789,1.789,0,0,0-1.406-.451,1.883,1.883,0,0,0-1.723.914V53h-3.949V40.32ZM154.2,46.543a7.484,7.484,0,0,1,.738-3.381,5.28,5.28,0,0,1,2.121-2.279,6.388,6.388,0,0,1,3.246-.8,5.83,5.83,0,0,1,4.488,1.764,6.768,6.768,0,0,1,1.641,4.8v.141a6.566,6.566,0,0,1-1.646,4.705,5.846,5.846,0,0,1-4.459,1.74,5.912,5.912,0,0,1-4.348-1.623,6.348,6.348,0,0,1-1.77-4.4Zm3.949.246a4.718,4.718,0,0,0,.551,2.578,1.835,1.835,0,0,0,1.629.82q2.109,0,2.156-3.246v-.4q0-3.41-2.18-3.41-1.98,0-2.145,2.941Zm21.8-.023a7.728,7.728,0,0,1-1.289,4.793,4.318,4.318,0,0,1-3.633,1.676A3.747,3.747,0,0,1,171.9,51.7L171.74,53H168.2V35h3.949v6.34A3.615,3.615,0,0,1,175,40.086a4.319,4.319,0,0,1,3.656,1.7,7.768,7.768,0,0,1,1.289,4.781Zm-3.961-.252a5.155,5.155,0,0,0-.486-2.6A1.639,1.639,0,0,0,174,43.133a1.891,1.891,0,0,0-1.852,1.018v5.031a1.9,1.9,0,0,0,1.875,1.006,1.677,1.677,0,0,0,1.77-1.357A9.745,9.745,0,0,0,175.982,46.514Zm9.949-6.194V53.434a4.6,4.6,0,0,1-1.289,3.469,4.952,4.952,0,0,1-3.562,1.219,8.411,8.411,0,0,1-1.863-.2V54.934a7.556,7.556,0,0,0,1.113.105,1.445,1.445,0,0,0,1.641-1.629V40.32Zm-4.254-3.281a1.778,1.778,0,0,1,.609-1.391,2.579,2.579,0,0,1,3.164,0,1.893,1.893,0,0,1,0,2.782,2.579,2.579,0,0,1-3.164,0A1.778,1.778,0,0,1,181.678,37.039Zm12.621,16.2a6.518,6.518,0,0,1-4.723-1.74,6.009,6.009,0,0,1-1.8-4.529v-.328a7.787,7.787,0,0,1,.721-3.434,5.274,5.274,0,0,1,2.1-2.3,6.35,6.35,0,0,1,3.281-.814,5.489,5.489,0,0,1,4.219,1.658,6.516,6.516,0,0,1,1.547,4.623V47.9h-7.852a2.846,2.846,0,0,0,.926,1.676,2.755,2.755,0,0,0,1.852.609,3.549,3.549,0,0,0,2.93-1.312l1.8,2.133a5.045,5.045,0,0,1-2.092,1.623A7.069,7.069,0,0,1,194.3,53.234Zm-.445-10.1q-1.734,0-2.062,2.3h3.984v-.3a1.956,1.956,0,0,0-.48-1.471A1.912,1.912,0,0,0,193.854,43.133Zm11.977-5.965V40.32h2.086v2.742H205.83v5.8a1.481,1.481,0,0,0,.258,1,1.383,1.383,0,0,0,1.02.281,5.793,5.793,0,0,0,.984-.07v2.824a7.288,7.288,0,0,1-2.227.34,4.137,4.137,0,0,1-3.012-.961,3.939,3.939,0,0,1-.973-2.918V43.063h-1.617V40.32h1.617V37.168Zm2.789,9.375a7.484,7.484,0,0,1,.738-3.381,5.28,5.28,0,0,1,2.121-2.279,6.388,6.388,0,0,1,3.246-.8,5.83,5.83,0,0,1,4.488,1.764,6.768,6.768,0,0,1,1.641,4.8v.141a6.566,6.566,0,0,1-1.646,4.705,5.846,5.846,0,0,1-4.459,1.74,5.912,5.912,0,0,1-4.348-1.623,6.348,6.348,0,0,1-1.77-4.4Zm3.949.246a4.718,4.718,0,0,0,.551,2.578,1.835,1.835,0,0,0,1.629.82q2.109,0,2.156-3.246v-.4q0-3.41-2.18-3.41-1.98,0-2.145,2.941Zm16.664,2.648a.912.912,0,0,0-.527-.809,8.021,8.021,0,0,0-2-.633,9.138,9.138,0,0,1-2.437-.861A4.083,4.083,0,0,1,222.8,45.84a3.092,3.092,0,0,1-.5-1.746,3.5,3.5,0,0,1,1.441-2.877,5.938,5.938,0,0,1,3.773-1.131,6.579,6.579,0,0,1,4.031,1.137,3.555,3.555,0,0,1,1.523,2.988H229.1q0-1.523-1.605-1.523a1.591,1.591,0,0,0-1.043.346,1.07,1.07,0,0,0-.422.861.982.982,0,0,0,.516.855,4.872,4.872,0,0,0,1.646.539,14.228,14.228,0,0,1,1.986.5q2.859.984,2.859,3.527a3.321,3.321,0,0,1-1.541,2.824,6.758,6.758,0,0,1-3.99,1.09,6.9,6.9,0,0,1-2.906-.586,4.86,4.86,0,0,1-1.992-1.594,3.609,3.609,0,0,1-.715-2.121h3.691a1.526,1.526,0,0,0,.586,1.283,2.41,2.41,0,0,0,1.441.4,1.9,1.9,0,0,0,1.213-.328A1.05,1.05,0,0,0,229.232,49.438Z" transform="translate(1020 1259)" fill="#12263f"/>
    <g id="Grupo_53762" data-name="Grupo 53762" transform="translate(246.862 1063.169)">
      <g id="Grupo_53757" data-name="Grupo 53757" transform="translate(38.138 69.831)">
        <g id="Grupo_53754" data-name="Grupo 53754">
          <path id="Trazado_100469" data-name="Trazado 100469" d="M200.512,394.58a162.374,162.374,0,1,1,107.145-284.4,3.606,3.606,0,0,1-4.76,5.418A155.149,155.149,0,1,0,283.416,363.4c43.479-27.534,67.992-81.367,91.7-133.431,23.931-52.554,48.677-106.9,93.185-135.054a162.48,162.48,0,0,1,230.239,61.191,3.606,3.606,0,1,1-6.37,3.382,155.278,155.278,0,0,0-220.015-58.48c-42.689,27.006-66.982,80.355-90.473,131.95-24.145,53.021-49.109,107.849-94.4,136.532A161.776,161.776,0,0,1,200.512,394.58Z" transform="translate(-38.138 -69.831)" fill="#ffa726"/>
        </g>
        <g id="Grupo_53755" data-name="Grupo 53755" transform="translate(255.78 31.957)">
          <path id="Trazado_100470" data-name="Trazado 100470" d="M162.68,85.943a10.846,10.846,0,1,1-15.32.733A10.848,10.848,0,0,1,162.68,85.943Z" transform="translate(-144.54 -83.125)" fill="#ffa726"/>
        </g>
        <g id="Grupo_53756" data-name="Grupo 53756" transform="translate(645.994 76.689)">
          <path id="Trazado_100471" data-name="Trazado 100471" d="M308.034,117.474A10.846,10.846,0,1,0,312.82,102.9,10.849,10.849,0,0,0,308.034,117.474Z" transform="translate(-306.865 -101.733)" fill="#ffa726"/>
        </g>
      </g>
      <g id="Grupo_53761" data-name="Grupo 53761" transform="translate(395.251 69.831)">
        <g id="Grupo_53758" data-name="Grupo 53758" transform="translate(6.983)">
          <path id="Trazado_100472" data-name="Trazado 100472" d="M693.128,394.58A162.186,162.186,0,0,1,586,354.225a3.606,3.606,0,1,1,4.76-5.418,155.147,155.147,0,1,0,19.493-247.8c-43.494,27.537-68.006,81.365-91.711,133.417-23.931,52.549-48.677,106.89-93.2,135.044A162.395,162.395,0,0,1,189.9,297.481a3.605,3.605,0,1,1,6.6-2.9,155.183,155.183,0,0,0,224.977,68.79c42.708-27.008,67-80.351,90.493-131.938,24.142-53.013,49.107-107.837,94.413-136.52A162.39,162.39,0,1,1,693.128,394.58Z" transform="translate(-189.598 -69.831)" fill="#4dd0e1"/>
        </g>
        <g id="Grupo_53759" data-name="Grupo 53759" transform="translate(0 215.831)">
          <path id="Trazado_100473" data-name="Trazado 100473" d="M187.5,174.549a10.845,10.845,0,1,1,14.133,5.959A10.845,10.845,0,0,1,187.5,174.549Z" transform="translate(-186.693 -159.614)" fill="#4dd0e1"/>
        </g>
        <g id="Grupo_53760" data-name="Grupo 53760" transform="translate(395.442 271.101)">
          <path id="Trazado_100474" data-name="Trazado 100474" d="M369.333,185.426a10.846,10.846,0,1,0,.731,15.32A10.847,10.847,0,0,0,369.333,185.426Z" transform="translate(-351.193 -182.606)" fill="#4dd0e1"/>
        </g>
      </g>
    </g>
    <rect id="Rectángulo_5348" data-name="Rectángulo 5348" width="95" height="4" transform="translate(390 1309)" fill="#ffa726"/>
    <rect id="Rectángulo_5349" data-name="Rectángulo 5349" width="95" height="4" transform="translate(758 1324)" fill="#ffa726"/>
    <rect id="Rectángulo_5350" data-name="Rectángulo 5350" width="217" height="4" transform="translate(1041 1324)" fill="#ffa726"/>
  </g>
</svg>
