<svg xmlns="http://www.w3.org/2000/svg" xmlns:xlink="http://www.w3.org/1999/xlink" width="95" height="95" viewBox="0 0 95 95">
  <defs>
    <clipPath id="clip-path">
      <rect id="Rectángulo_5215" data-name="Rectángulo 5215" width="95" height="95" transform="translate(180 862)" fill="#ffa726" stroke="#707070" stroke-width="1"/>
    </clipPath>
  </defs>
  <g id="Enmascarar_grupo_5" data-name="Enmascarar grupo 5" transform="translate(-180 -862)" clip-path="url(#clip-path)">
    <path id="celulas-de-sangre" d="M18.059,29.313,31,34.3a15.2,15.2,0,0,0,21.2,15.99q.707-.314,1.371-.692l5.518,5.955A12.95,12.95,0,0,0,66.3,75a1.4,1.4,0,1,0,.793-2.681,10.145,10.145,0,1,1,6.512-19.2c9.025,3.476,8.477,16.465-.781,19.2A1.4,1.4,0,1,0,73.612,75a12.858,12.858,0,0,0,8.42-7.761c4.22-10.959-7.25-21.44-17.791-16.256l-5.619-6.064A15.143,15.143,0,0,0,60.627,32.2l9.355-5.224a14.3,14.3,0,0,0,24.483-3.807,14.466,14.466,0,0,0,.489-1.521,1.4,1.4,0,1,0-2.7-.71,11.726,11.726,0,0,1-.394,1.226,11.505,11.505,0,1,1,.393-7.04,1.4,1.4,0,0,0,2.7-.71A14.29,14.29,0,0,0,67.09,20.707l-9.815,5.481A15.173,15.173,0,0,0,45.95,21.209l-1.535-6.431a8.173,8.173,0,1,0-6.725,1.47l1.567,6.564a15.052,15.052,0,0,0-5.789,5.06L20.532,22.891a10.265,10.265,0,1,0-2.473,6.422ZM67.9,23.455q.246.6.546,1.174L59.6,29.568q-.29-.578-.628-1.129ZM61.839,52.5c-.254.2-.781.675-.966.857l-4.988-5.383q.492-.419.946-.878ZM41.888,21.79l-1.294-5.423a8.323,8.323,0,0,0,1.26-.278l1.289,5.4c-.421.083-.84.181-1.255.3ZM34.453,6.34A5.384,5.384,0,0,1,39.475,2.9c6.208,0,7.4,8.786,1.5,10.536A5.384,5.384,0,0,1,34.453,6.34Zm16.042,18.5a12.395,12.395,0,1,1-16.2,7.627,12.408,12.408,0,0,1,16.2-7.627ZM20.058,25.7,32.11,30.346c-.132.3-.346.856-.464,1.2L19.594,26.908a10.325,10.325,0,0,0,.464-1.2ZM10.265,15.153a7.47,7.47,0,1,1-6.822,10.5,7.47,7.47,0,0,1,6.822-10.5Zm0,0" transform="translate(180.001 871.931)" fill="#ffa726"/>
  </g>
</svg>
