<svg xmlns="http://www.w3.org/2000/svg" width="1030" height="612" viewBox="0 0 1030 612">
  <g id="Grupo_54196" data-name="Grupo 54196" transform="translate(-285 -4079)">
    <g id="Grupo_53833" data-name="Grupo 53833" transform="translate(0 -426)">
      <g id="Rectángulo_5229" data-name="Rectángulo 5229" transform="translate(600 4545)" fill="#fff" stroke="#4dd0e1" stroke-width="2">
        <rect width="400" height="276" rx="10" stroke="none"/>
        <rect x="1" y="1" width="398" height="274" rx="9" fill="none"/>
      </g>
      <g id="Rectángulo_5233" data-name="Rectángulo 5233" transform="translate(285 4907)" fill="#fff" stroke="#4dd0e1" stroke-width="2">
        <rect width="400" height="210" rx="10" stroke="none"/>
        <rect x="1" y="1" width="398" height="208" rx="9" fill="none"/>
      </g>
      <g id="Rectángulo_5235" data-name="Rectángulo 5235" transform="translate(915 4907)" fill="#fff" stroke="#4dd0e1" stroke-width="2">
        <rect width="400" height="210" rx="10" stroke="none"/>
        <rect x="1" y="1" width="398" height="208" rx="9" fill="none"/>
      </g>
      <g id="Rectángulo_5232" data-name="Rectángulo 5232" transform="translate(600 4545)" fill="#4dd0e1" stroke="#70d2df" stroke-width="1" opacity="0.2">
        <path d="M10,0H390a10,10,0,0,1,10,10V50a0,0,0,0,1,0,0H0a0,0,0,0,1,0,0V10A10,10,0,0,1,10,0Z" stroke="none"/>
        <path d="M10,.5H390a9.5,9.5,0,0,1,9.5,9.5V49a.5.5,0,0,1-.5.5H1A.5.5,0,0,1,.5,49V10A9.5,9.5,0,0,1,10,.5Z" fill="none"/>
      </g>
      <g id="Rectángulo_5234" data-name="Rectángulo 5234" transform="translate(285 4907)" fill="#4dd0e1" stroke="#70d2df" stroke-width="1" opacity="0.2">
        <path d="M10,0H390a10,10,0,0,1,10,10V50a0,0,0,0,1,0,0H0a0,0,0,0,1,0,0V10A10,10,0,0,1,10,0Z" stroke="none"/>
        <path d="M10,.5H390a9.5,9.5,0,0,1,9.5,9.5V49a.5.5,0,0,1-.5.5H1A.5.5,0,0,1,.5,49V10A9.5,9.5,0,0,1,10,.5Z" fill="none"/>
      </g>
      <g id="Rectángulo_5236" data-name="Rectángulo 5236" transform="translate(915 4907)" fill="#4dd0e1" stroke="#70d2df" stroke-width="1" opacity="0.2">
        <path d="M10,0H390a10,10,0,0,1,10,10V50a0,0,0,0,1,0,0H0a0,0,0,0,1,0,0V10A10,10,0,0,1,10,0Z" stroke="none"/>
        <path d="M10,.5H390a9.5,9.5,0,0,1,9.5,9.5V49a.5.5,0,0,1-.5.5H1A.5.5,0,0,1,.5,49V10A9.5,9.5,0,0,1,10,.5Z" fill="none"/>
      </g>
      <circle id="Elipse_4082" data-name="Elipse 4082" cx="42.5" cy="42.5" r="42.5" transform="translate(895 4505)" fill="#ffca28"/>
      <circle id="Elipse_4085" data-name="Elipse 4085" cx="42.5" cy="42.5" r="42.5" transform="translate(580 4867)" fill="#ffca28"/>
      <circle id="Elipse_4086" data-name="Elipse 4086" cx="42.5" cy="42.5" r="42.5" transform="translate(1210 4867)" fill="#ffca28"/>
      <path id="Trazado_100520" data-name="Trazado 100520" d="M-5260-6825.333h105v-176" transform="translate(5945 11852)" fill="none" stroke="#4dd0e1" stroke-width="2"/>
      <path id="Trazado_100521" data-name="Trazado 100521" d="M-5030-6825.333h-105V-7000" transform="translate(5945 11852)" fill="none" stroke="#4dd0e1" stroke-width="2"/>
      <path id="Polígono_2" data-name="Polígono 2" d="M8,0l8,14H0Z" transform="translate(782 4844)" fill="#ffca28"/>
      <path id="Polígono_3" data-name="Polígono 3" d="M8,0l8,14H0Z" transform="translate(802 4844)" fill="#ffca28"/>
      <path id="Trazado_101432" data-name="Trazado 101432" d="M6.152-6.363H.434v-1.77H6.152Zm4.16-6.316.07,1.594a4.621,4.621,0,0,1,3.8-1.828q4.02,0,4.055,4.535V0H16.066V-8.391a2.919,2.919,0,0,0-.627-2.027,2.512,2.512,0,0,0-1.916-.656,3.129,3.129,0,0,0-1.852.563A3.82,3.82,0,0,0,10.43-9.035V0H8.262V-12.68ZM20.93-6.457a7.489,7.489,0,0,1,.732-3.352,5.464,5.464,0,0,1,2.039-2.3,5.551,5.551,0,0,1,2.982-.809,5.347,5.347,0,0,1,4.189,1.793,6.9,6.9,0,0,1,1.6,4.77V-6.2a7.555,7.555,0,0,1-.709,3.322A5.383,5.383,0,0,1,29.736-.586a5.614,5.614,0,0,1-3.029.82,5.334,5.334,0,0,1-4.178-1.793A6.863,6.863,0,0,1,20.93-6.3Zm2.18.258a5.424,5.424,0,0,0,.979,3.387,3.132,3.132,0,0,0,2.619,1.277A3.113,3.113,0,0,0,29.332-2.83,5.932,5.932,0,0,0,30.3-6.457a5.415,5.415,0,0,0-.99-3.381,3.148,3.148,0,0,0-2.631-1.295,3.113,3.113,0,0,0-2.59,1.277A5.888,5.888,0,0,0,23.109-6.2ZM37.23-12.68l.059,1.406a4.683,4.683,0,0,1,3.762-1.641,3.625,3.625,0,0,1,3.621,2.039,4.8,4.8,0,0,1,1.646-1.477,4.863,4.863,0,0,1,2.4-.562q4.172,0,4.242,4.418V0H50.789V-8.367a2.911,2.911,0,0,0-.621-2.033,2.735,2.735,0,0,0-2.086-.674,2.875,2.875,0,0,0-2,.721,2.924,2.924,0,0,0-.926,1.939V0h-2.18V-8.309q0-2.766-2.707-2.766a2.9,2.9,0,0,0-2.918,1.816V0H35.18V-12.68ZM66.961-6.2a7.539,7.539,0,0,1-1.336,4.67A4.269,4.269,0,0,1,62.039.234a4.42,4.42,0,0,1-3.715-1.7L58.219,0H56.227V-18h2.168v6.715a4.4,4.4,0,0,1,3.621-1.629,4.3,4.3,0,0,1,3.627,1.746,7.766,7.766,0,0,1,1.318,4.781Zm-2.168-.246a5.858,5.858,0,0,0-.855-3.422,2.832,2.832,0,0,0-2.461-1.207,3.183,3.183,0,0,0-3.082,1.992V-3.6A3.272,3.272,0,0,0,61.5-1.605a2.816,2.816,0,0,0,2.426-1.207A6.23,6.23,0,0,0,64.793-6.445ZM75.82-10.734a6.5,6.5,0,0,0-1.066-.082A2.857,2.857,0,0,0,71.859-9V0H69.691V-12.68H71.8l.035,1.465a3.376,3.376,0,0,1,3.023-1.7,2.215,2.215,0,0,1,.961.164ZM82.852.234a5.54,5.54,0,0,1-4.2-1.693,6.285,6.285,0,0,1-1.617-4.529v-.4a7.609,7.609,0,0,1,.721-3.369,5.622,5.622,0,0,1,2.016-2.32,5.068,5.068,0,0,1,2.807-.838,4.749,4.749,0,0,1,3.844,1.629A7.053,7.053,0,0,1,87.8-6.621v.9h-8.59a4.507,4.507,0,0,0,1.1,3.029,3.444,3.444,0,0,0,2.666,1.154A3.776,3.776,0,0,0,84.914-2a4.888,4.888,0,0,0,1.395-1.242l1.324,1.031A5.325,5.325,0,0,1,82.852.234Zm-.27-11.367a2.892,2.892,0,0,0-2.2.955,4.642,4.642,0,0,0-1.1,2.678h6.352v-.164a4.129,4.129,0,0,0-.891-2.561A2.723,2.723,0,0,0,82.582-11.133ZM6.152,25.637H.434v-1.77H6.152ZM16.09,32a4.554,4.554,0,0,1-.3-1.336,4.837,4.837,0,0,1-3.609,1.57A4.476,4.476,0,0,1,9.1,31.174a3.431,3.431,0,0,1-1.2-2.689A3.584,3.584,0,0,1,9.4,25.408a7.1,7.1,0,0,1,4.236-1.1H15.75v-1a2.435,2.435,0,0,0-.68-1.811,2.732,2.732,0,0,0-2-.674,3.161,3.161,0,0,0-1.945.586,1.727,1.727,0,0,0-.785,1.418H8.156A2.992,2.992,0,0,1,8.83,21a4.6,4.6,0,0,1,1.828-1.4,6.15,6.15,0,0,1,2.537-.516,5.013,5.013,0,0,1,3.434,1.1A3.953,3.953,0,0,1,17.918,23.2v5.836a7.135,7.135,0,0,0,.445,2.777V32Zm-3.6-1.652a3.81,3.81,0,0,0,1.934-.527,3.19,3.19,0,0,0,1.324-1.371v-2.6h-1.7q-3.984,0-3.984,2.332a1.974,1.974,0,0,0,.68,1.594A2.612,2.612,0,0,0,12.492,30.348ZM32.027,25.8A7.592,7.592,0,0,1,30.7,30.465a4.244,4.244,0,0,1-3.586,1.77,4.65,4.65,0,0,1-3.633-1.465v6.105H21.316V19.32H23.3l.105,1.406a4.466,4.466,0,0,1,3.68-1.641A4.324,4.324,0,0,1,30.7,20.809a7.675,7.675,0,0,1,1.33,4.793Zm-2.168-.246a5.6,5.6,0,0,0-.914-3.387,2.945,2.945,0,0,0-2.508-1.242,3.187,3.187,0,0,0-2.953,1.746V28.73a3.193,3.193,0,0,0,2.977,1.734,2.931,2.931,0,0,0,2.479-1.236A6.115,6.115,0,0,0,29.859,25.555Zm10.184,6.68a5.54,5.54,0,0,1-4.2-1.693,6.285,6.285,0,0,1-1.617-4.529v-.4a7.609,7.609,0,0,1,.721-3.369,5.622,5.622,0,0,1,2.016-2.32,5.068,5.068,0,0,1,2.807-.838,4.749,4.749,0,0,1,3.844,1.629,7.053,7.053,0,0,1,1.371,4.664v.9H36.4a4.507,4.507,0,0,0,1.1,3.029,3.444,3.444,0,0,0,2.666,1.154A3.776,3.776,0,0,0,42.105,30,4.888,4.888,0,0,0,43.5,28.754l1.324,1.031A5.325,5.325,0,0,1,40.043,32.234Zm-.27-11.367a2.892,2.892,0,0,0-2.2.955,4.642,4.642,0,0,0-1.1,2.678H42.82v-.164a4.129,4.129,0,0,0-.891-2.561A2.723,2.723,0,0,0,39.773,20.867ZM49.852,32H47.684V14h2.168Zm5.824,0H53.508V14h2.168ZM61.5,32H59.332V19.32H61.5ZM59.156,15.957a1.294,1.294,0,0,1,.322-.891,1.21,1.21,0,0,1,.955-.363,1.229,1.229,0,0,1,.961.363,1.28,1.28,0,0,1,.328.891,1.238,1.238,0,0,1-.328.879,1.251,1.251,0,0,1-.961.352,1.232,1.232,0,0,1-.955-.352A1.251,1.251,0,0,1,59.156,15.957Zm5.285,9.6a7.428,7.428,0,0,1,1.383-4.693,4.7,4.7,0,0,1,7.148-.252V14h2.168V32H73.148l-.105-1.359a4.415,4.415,0,0,1-3.621,1.594,4.331,4.331,0,0,1-3.592-1.8,7.512,7.512,0,0,1-1.389-4.711Zm2.168.246a5.624,5.624,0,0,0,.891,3.375,2.879,2.879,0,0,0,2.461,1.219,3.163,3.163,0,0,0,3.012-1.852V22.719a3.187,3.187,0,0,0-2.988-1.793,2.893,2.893,0,0,0-2.484,1.23A6.192,6.192,0,0,0,66.609,25.8Zm11.32-.258a7.489,7.489,0,0,1,.732-3.352,5.464,5.464,0,0,1,2.039-2.3,5.551,5.551,0,0,1,2.982-.809,5.347,5.347,0,0,1,4.189,1.793,6.9,6.9,0,0,1,1.6,4.77V25.8a7.555,7.555,0,0,1-.709,3.322,5.383,5.383,0,0,1-2.027,2.291,5.614,5.614,0,0,1-3.029.82,5.334,5.334,0,0,1-4.178-1.793,6.863,6.863,0,0,1-1.6-4.746Zm2.18.258a5.424,5.424,0,0,0,.979,3.387,3.316,3.316,0,0,0,5.244-.018,5.932,5.932,0,0,0,.973-3.627,5.415,5.415,0,0,0-.99-3.381,3.148,3.148,0,0,0-2.631-1.295,3.113,3.113,0,0,0-2.59,1.277A5.888,5.888,0,0,0,80.109,25.8ZM6.152,57.637H.434v-1.77H6.152Zm1.582-.082a7.428,7.428,0,0,1,1.383-4.693,4.373,4.373,0,0,1,3.621-1.775,4.4,4.4,0,0,1,3.527,1.523V46h2.168V64H16.441l-.105-1.359a4.415,4.415,0,0,1-3.621,1.594,4.331,4.331,0,0,1-3.592-1.8,7.512,7.512,0,0,1-1.389-4.711ZM9.9,57.8a5.624,5.624,0,0,0,.891,3.375,2.879,2.879,0,0,0,2.461,1.219,3.163,3.163,0,0,0,3.012-1.852V54.719a3.187,3.187,0,0,0-2.988-1.793,2.893,2.893,0,0,0-2.484,1.23A6.192,6.192,0,0,0,9.9,57.8Zm11.32-.258a7.489,7.489,0,0,1,.732-3.352,5.464,5.464,0,0,1,2.039-2.3,5.551,5.551,0,0,1,2.982-.809,5.347,5.347,0,0,1,4.189,1.793,6.9,6.9,0,0,1,1.6,4.77V57.8a7.555,7.555,0,0,1-.709,3.322,5.383,5.383,0,0,1-2.027,2.291,5.614,5.614,0,0,1-3.029.82,5.334,5.334,0,0,1-4.178-1.793,6.863,6.863,0,0,1-1.6-4.746Zm2.18.258a5.424,5.424,0,0,0,.979,3.387,3.316,3.316,0,0,0,5.244-.018,5.932,5.932,0,0,0,.973-3.627,5.415,5.415,0,0,0-.99-3.381,3.148,3.148,0,0,0-2.631-1.295,3.113,3.113,0,0,0-2.59,1.277A5.888,5.888,0,0,0,23.4,57.8ZM40.57,62.465a3.123,3.123,0,0,0,2.027-.7A2.474,2.474,0,0,0,43.559,60h2.051a3.931,3.931,0,0,1-.75,2.074,4.94,4.94,0,0,1-1.846,1.57,5.326,5.326,0,0,1-2.443.586,5.223,5.223,0,0,1-4.119-1.729,6.884,6.884,0,0,1-1.529-4.729v-.363a7.634,7.634,0,0,1,.68-3.293,5.177,5.177,0,0,1,1.951-2.238,5.543,5.543,0,0,1,3.006-.8A5.085,5.085,0,0,1,44.1,52.363a4.565,4.565,0,0,1,1.506,3.316H43.559a2.988,2.988,0,0,0-.932-2.021,2.9,2.9,0,0,0-2.068-.791A3.034,3.034,0,0,0,38,54.057,5.586,5.586,0,0,0,37.09,57.5v.41a5.475,5.475,0,0,0,.9,3.375A3.049,3.049,0,0,0,40.57,62.465Zm15.3.281a4.6,4.6,0,0,1-3.715,1.488,3.942,3.942,0,0,1-3.088-1.178A5.1,5.1,0,0,1,48,59.57V51.32h2.168v8.191q0,2.883,2.344,2.883a3.245,3.245,0,0,0,3.3-1.852V51.32h2.168V64H55.922ZM63.316,51.32l.059,1.406a4.683,4.683,0,0,1,3.762-1.641,3.625,3.625,0,0,1,3.621,2.039A4.8,4.8,0,0,1,72.4,51.648a4.863,4.863,0,0,1,2.4-.562q4.172,0,4.242,4.418V64H76.875V55.633a2.911,2.911,0,0,0-.621-2.033,2.735,2.735,0,0,0-2.086-.674,2.875,2.875,0,0,0-2,.721,2.924,2.924,0,0,0-.926,1.939V64h-2.18V55.691q0-2.766-2.707-2.766a2.9,2.9,0,0,0-2.918,1.816V64H61.266V51.32ZM87.574,64.234a5.54,5.54,0,0,1-4.2-1.693,6.285,6.285,0,0,1-1.617-4.529v-.4a7.609,7.609,0,0,1,.721-3.369,5.622,5.622,0,0,1,2.016-2.32,5.068,5.068,0,0,1,2.807-.838,4.749,4.749,0,0,1,3.844,1.629,7.053,7.053,0,0,1,1.371,4.664v.9H83.93a4.507,4.507,0,0,0,1.1,3.029,3.444,3.444,0,0,0,2.666,1.154A3.776,3.776,0,0,0,89.637,62a4.888,4.888,0,0,0,1.395-1.242l1.324,1.031A5.325,5.325,0,0,1,87.574,64.234ZM87.3,52.867a2.892,2.892,0,0,0-2.2.955A4.642,4.642,0,0,0,84,56.5h6.352v-.164a4.129,4.129,0,0,0-.891-2.561A2.723,2.723,0,0,0,87.3,52.867Zm9.773-1.547.07,1.594a4.621,4.621,0,0,1,3.8-1.828q4.02,0,4.055,4.535V64h-2.168V55.609a2.919,2.919,0,0,0-.627-2.027,2.512,2.512,0,0,0-1.916-.656,3.129,3.129,0,0,0-1.852.563A3.82,3.82,0,0,0,97.2,54.965V64H95.027V51.32Zm14.133-3.07v3.07h2.367V53h-2.367v7.873a1.76,1.76,0,0,0,.316,1.144,1.332,1.332,0,0,0,1.078.381,5.249,5.249,0,0,0,1.031-.141V64a6.322,6.322,0,0,1-1.664.233,2.7,2.7,0,0,1-2.191-.879,3.776,3.776,0,0,1-.738-2.5V53h-2.309V51.32h2.309V48.25Zm4.09,9.293a7.489,7.489,0,0,1,.732-3.352,5.464,5.464,0,0,1,2.039-2.3,5.551,5.551,0,0,1,2.982-.809,5.347,5.347,0,0,1,4.189,1.793,6.9,6.9,0,0,1,1.6,4.77V57.8a7.555,7.555,0,0,1-.709,3.322,5.383,5.383,0,0,1-2.027,2.291,5.614,5.614,0,0,1-3.029.82,5.334,5.334,0,0,1-4.178-1.793,6.863,6.863,0,0,1-1.6-4.746Zm2.18.258a5.424,5.424,0,0,0,.979,3.387,3.316,3.316,0,0,0,5.244-.018,5.932,5.932,0,0,0,.973-3.627,5.415,5.415,0,0,0-.99-3.381,3.148,3.148,0,0,0-2.631-1.295,3.113,3.113,0,0,0-2.59,1.277A5.888,5.888,0,0,0,117.48,57.8Z" transform="translate(642 4629)" fill="#12263f"/>
      <path id="Trazado_101438" data-name="Trazado 101438" d="M6.152-6.363H.434v-1.77H6.152Zm7.2,4.828a3.123,3.123,0,0,0,2.027-.7A2.474,2.474,0,0,0,16.336-4h2.051a3.931,3.931,0,0,1-.75,2.074,4.94,4.94,0,0,1-1.846,1.57,5.326,5.326,0,0,1-2.443.586A5.223,5.223,0,0,1,9.229-1.494,6.884,6.884,0,0,1,7.7-6.223v-.363a7.634,7.634,0,0,1,.68-3.293,5.177,5.177,0,0,1,1.951-2.238,5.543,5.543,0,0,1,3.006-.8,5.085,5.085,0,0,1,3.545,1.277A4.565,4.565,0,0,1,18.387-8.32H16.336a2.988,2.988,0,0,0-.932-2.021,2.9,2.9,0,0,0-2.068-.791,3.034,3.034,0,0,0-2.561,1.189A5.586,5.586,0,0,0,9.867-6.5v.41a5.475,5.475,0,0,0,.9,3.375A3.049,3.049,0,0,0,13.348-1.535ZM28.652,0a4.554,4.554,0,0,1-.3-1.336A4.837,4.837,0,0,1,24.738.234,4.476,4.476,0,0,1,21.662-.826a3.431,3.431,0,0,1-1.2-2.689,3.584,3.584,0,0,1,1.506-3.076,7.1,7.1,0,0,1,4.236-1.1h2.109v-1a2.435,2.435,0,0,0-.68-1.811,2.732,2.732,0,0,0-2-.674,3.161,3.161,0,0,0-1.945.586A1.727,1.727,0,0,0,22.9-9.164h-2.18A2.992,2.992,0,0,1,21.393-11a4.6,4.6,0,0,1,1.828-1.4,6.15,6.15,0,0,1,2.537-.516,5.013,5.013,0,0,1,3.434,1.1A3.953,3.953,0,0,1,30.48-8.8v5.836a7.135,7.135,0,0,0,.445,2.777V0Zm-3.6-1.652a3.81,3.81,0,0,0,1.934-.527,3.19,3.19,0,0,0,1.324-1.371v-2.6h-1.7q-3.984,0-3.984,2.332a1.974,1.974,0,0,0,.68,1.594A2.612,2.612,0,0,0,25.055-1.652ZM36.82-15.75v3.07h2.367V-11H36.82v7.873a1.76,1.76,0,0,0,.316,1.144,1.332,1.332,0,0,0,1.078.381,5.249,5.249,0,0,0,1.031-.141V0a6.322,6.322,0,0,1-1.664.233,2.7,2.7,0,0,1-2.191-.879,3.776,3.776,0,0,1-.738-2.5V-11H32.344V-12.68h2.309v-3.07ZM46.98.234a5.54,5.54,0,0,1-4.2-1.693,6.285,6.285,0,0,1-1.617-4.529v-.4a7.609,7.609,0,0,1,.721-3.369,5.622,5.622,0,0,1,2.016-2.32,5.068,5.068,0,0,1,2.807-.838,4.749,4.749,0,0,1,3.844,1.629,7.053,7.053,0,0,1,1.371,4.664v.9h-8.59a4.507,4.507,0,0,0,1.1,3.029A3.444,3.444,0,0,0,47.1-1.535,3.776,3.776,0,0,0,49.043-2a4.888,4.888,0,0,0,1.395-1.242l1.324,1.031A5.325,5.325,0,0,1,46.98.234Zm-.27-11.367a2.892,2.892,0,0,0-2.2.955,4.642,4.642,0,0,0-1.1,2.678h6.352v-.164a4.129,4.129,0,0,0-.891-2.561A2.723,2.723,0,0,0,46.711-11.133Zm7.207,4.688a7.452,7.452,0,0,1,1.371-4.717,4.385,4.385,0,0,1,3.633-1.752,4.362,4.362,0,0,1,3.621,1.641l.105-1.406h1.98V-.3A5.158,5.158,0,0,1,63.17,3.574a5.384,5.384,0,0,1-3.92,1.418,6.521,6.521,0,0,1-2.684-.586,4.62,4.62,0,0,1-2-1.605l1.125-1.3A4.239,4.239,0,0,0,59.1,3.223a3.322,3.322,0,0,0,2.467-.891,3.4,3.4,0,0,0,.885-2.508v-1.09A4.456,4.456,0,0,1,58.9.234a4.331,4.331,0,0,1-3.6-1.793A7.835,7.835,0,0,1,53.918-6.445ZM56.1-6.2a5.685,5.685,0,0,0,.879,3.369,2.856,2.856,0,0,0,2.461,1.225,3.176,3.176,0,0,0,3.012-1.863V-9.258a3.213,3.213,0,0,0-2.988-1.816,2.882,2.882,0,0,0-2.473,1.23A6.192,6.192,0,0,0,56.1-6.2Zm11.227-.258a7.489,7.489,0,0,1,.732-3.352,5.464,5.464,0,0,1,2.039-2.3,5.551,5.551,0,0,1,2.982-.809,5.347,5.347,0,0,1,4.189,1.793,6.9,6.9,0,0,1,1.6,4.77V-6.2a7.555,7.555,0,0,1-.709,3.322A5.383,5.383,0,0,1,76.131-.586,5.614,5.614,0,0,1,73.1.234a5.334,5.334,0,0,1-4.178-1.793,6.863,6.863,0,0,1-1.6-4.746ZM69.5-6.2a5.424,5.424,0,0,0,.979,3.387A3.132,3.132,0,0,0,73.1-1.535,3.113,3.113,0,0,0,75.727-2.83,5.932,5.932,0,0,0,76.7-6.457a5.415,5.415,0,0,0-.99-3.381,3.148,3.148,0,0,0-2.631-1.295,3.113,3.113,0,0,0-2.59,1.277A5.888,5.888,0,0,0,69.5-6.2Zm18.211-4.535a6.5,6.5,0,0,0-1.066-.082A2.857,2.857,0,0,0,83.754-9V0H81.586V-12.68H83.7l.035,1.465a3.376,3.376,0,0,1,3.023-1.7,2.215,2.215,0,0,1,.961.164ZM92.063,0h-2.18V-12.68h2.18Zm.023-17.965h2.625L91.57-14.52l-1.746-.006ZM103.465,0a4.554,4.554,0,0,1-.3-1.336A4.837,4.837,0,0,1,99.551.234,4.476,4.476,0,0,1,96.475-.826a3.431,3.431,0,0,1-1.2-2.689,3.584,3.584,0,0,1,1.506-3.076,7.1,7.1,0,0,1,4.236-1.1h2.109v-1a2.435,2.435,0,0,0-.68-1.811,2.732,2.732,0,0,0-2-.674,3.161,3.161,0,0,0-1.945.586,1.727,1.727,0,0,0-.785,1.418h-2.18A2.992,2.992,0,0,1,96.205-11a4.6,4.6,0,0,1,1.828-1.4,6.15,6.15,0,0,1,2.537-.516,5.013,5.013,0,0,1,3.434,1.1A3.953,3.953,0,0,1,105.293-8.8v5.836a7.135,7.135,0,0,0,.445,2.777V0Zm-3.6-1.652A3.81,3.81,0,0,0,101.8-2.18a3.19,3.19,0,0,0,1.324-1.371v-2.6h-1.7q-3.984,0-3.984,2.332a1.974,1.974,0,0,0,.68,1.594A2.612,2.612,0,0,0,99.867-1.652Z" transform="translate(327 4997)" fill="#12263f"/>
      <path id="Trazado_101435" data-name="Trazado 101435" d="M6.152-6.363H.434v-1.77H6.152Zm9.492,3a1.6,1.6,0,0,0-.662-1.365,6.373,6.373,0,0,0-2.309-.838,10.915,10.915,0,0,1-2.613-.844,3.718,3.718,0,0,1-1.43-1.172A2.8,2.8,0,0,1,8.168-9.2a3.289,3.289,0,0,1,1.318-2.637,5.149,5.149,0,0,1,3.369-1.078,5.3,5.3,0,0,1,3.5,1.113A3.536,3.536,0,0,1,17.7-8.953h-2.18a1.957,1.957,0,0,0-.756-1.535,2.832,2.832,0,0,0-1.9-.645A2.964,2.964,0,0,0,11-10.617a1.623,1.623,0,0,0-.668,1.348,1.315,1.315,0,0,0,.621,1.184,7.642,7.642,0,0,0,2.244.762,11.693,11.693,0,0,1,2.631.867,3.838,3.838,0,0,1,1.494,1.213,2.982,2.982,0,0,1,.486,1.729A3.245,3.245,0,0,1,16.453-.791,5.7,5.7,0,0,1,12.926.234,6.385,6.385,0,0,1,10.23-.3,4.384,4.384,0,0,1,8.4-1.811,3.629,3.629,0,0,1,7.734-3.9H9.9a2.245,2.245,0,0,0,.873,1.729,3.387,3.387,0,0,0,2.15.639,3.5,3.5,0,0,0,1.975-.5A1.53,1.53,0,0,0,15.645-3.363Zm12.82,2.109A4.6,4.6,0,0,1,24.75.234,3.942,3.942,0,0,1,21.662-.943,5.1,5.1,0,0,1,20.59-4.43v-8.25h2.168v8.191q0,2.883,2.344,2.883a3.245,3.245,0,0,0,3.3-1.852V-12.68h2.168V0H28.512ZM39.129.234a5.54,5.54,0,0,1-4.2-1.693,6.285,6.285,0,0,1-1.617-4.529v-.4a7.609,7.609,0,0,1,.721-3.369,5.622,5.622,0,0,1,2.016-2.32,5.068,5.068,0,0,1,2.807-.838A4.749,4.749,0,0,1,42.7-11.285a7.053,7.053,0,0,1,1.371,4.664v.9h-8.59a4.507,4.507,0,0,0,1.1,3.029,3.444,3.444,0,0,0,2.666,1.154A3.776,3.776,0,0,0,41.191-2a4.888,4.888,0,0,0,1.395-1.242L43.91-2.215A5.325,5.325,0,0,1,39.129.234Zm-.27-11.367a2.892,2.892,0,0,0-2.2.955,4.642,4.642,0,0,0-1.1,2.678h6.352v-.164a4.129,4.129,0,0,0-.891-2.561A2.723,2.723,0,0,0,38.859-11.133ZM48.938,0H46.77V-18h2.168Zm2.941-6.445a7.428,7.428,0,0,1,1.383-4.693,4.373,4.373,0,0,1,3.621-1.775,4.4,4.4,0,0,1,3.527,1.523V-18h2.168V0H60.586L60.48-1.359A4.415,4.415,0,0,1,56.859.234a4.331,4.331,0,0,1-3.592-1.8,7.512,7.512,0,0,1-1.389-4.711Zm2.168.246a5.624,5.624,0,0,0,.891,3.375A2.879,2.879,0,0,0,57.4-1.605,3.163,3.163,0,0,0,60.41-3.457V-9.281a3.187,3.187,0,0,0-2.988-1.793,2.893,2.893,0,0,0-2.484,1.23A6.192,6.192,0,0,0,54.047-6.2Zm11.32-.258A7.489,7.489,0,0,1,66.1-9.809a5.464,5.464,0,0,1,2.039-2.3,5.551,5.551,0,0,1,2.982-.809,5.347,5.347,0,0,1,4.189,1.793,6.9,6.9,0,0,1,1.6,4.77V-6.2A7.555,7.555,0,0,1,76.2-2.877,5.383,5.383,0,0,1,74.174-.586a5.614,5.614,0,0,1-3.029.82,5.334,5.334,0,0,1-4.178-1.793,6.863,6.863,0,0,1-1.6-4.746Zm2.18.258a5.424,5.424,0,0,0,.979,3.387,3.132,3.132,0,0,0,2.619,1.277A3.113,3.113,0,0,0,73.77-2.83a5.932,5.932,0,0,0,.973-3.627,5.415,5.415,0,0,0-.99-3.381,3.148,3.148,0,0,0-2.631-1.295,3.113,3.113,0,0,0-2.59,1.277A5.888,5.888,0,0,0,67.547-6.2Z" transform="translate(957 4997)" fill="#12263f"/>
      <path id="Trazado_101431" data-name="Trazado 101431" d="M5.039-6.012V0H1.523V-17.062H8.18a7.7,7.7,0,0,1,3.381.7,5.181,5.181,0,0,1,2.244,2,5.571,5.571,0,0,1,.785,2.947,4.9,4.9,0,0,1-1.717,3.955A7.15,7.15,0,0,1,8.121-6.012Zm0-2.848H8.18a3.088,3.088,0,0,0,2.127-.656,2.387,2.387,0,0,0,.732-1.875,2.814,2.814,0,0,0-.738-2.027,2.758,2.758,0,0,0-2.039-.8H5.039ZM22.465.234a6.225,6.225,0,0,1-4.541-1.711,6.082,6.082,0,0,1-1.752-4.559v-.328a7.66,7.66,0,0,1,.738-3.416A5.418,5.418,0,0,1,19-12.1a5.871,5.871,0,0,1,3.088-.814,5.262,5.262,0,0,1,4.1,1.641A6.667,6.667,0,0,1,27.68-6.621v1.383H19.605a3.146,3.146,0,0,0,.99,1.992,2.993,2.993,0,0,0,2.092.75,3.656,3.656,0,0,0,3.059-1.418L27.41-2.051A5.084,5.084,0,0,1,25.348-.369,6.767,6.767,0,0,1,22.465.234Zm-.387-10.418a2.116,2.116,0,0,0-1.635.683,3.535,3.535,0,0,0-.8,1.954h4.711v-.271a2.521,2.521,0,0,0-.609-1.748A2.183,2.183,0,0,0,22.078-10.184Zm14.648.68A9.2,9.2,0,0,0,35.508-9.6a2.481,2.481,0,0,0-2.52,1.3V0H29.6V-12.68h3.2l.094,1.512a3.138,3.138,0,0,1,2.824-1.746,3.549,3.549,0,0,1,1.055.152Zm8.5,6a1.091,1.091,0,0,0-.615-.979,6.989,6.989,0,0,0-1.975-.639q-4.523-.949-4.523-3.844a3.484,3.484,0,0,1,1.4-2.818,5.649,5.649,0,0,1,3.662-1.131,6.08,6.08,0,0,1,3.861,1.137A3.582,3.582,0,0,1,48.48-8.824H45.094a1.639,1.639,0,0,0-.469-1.2A1.984,1.984,0,0,0,43.16-10.5a2.027,2.027,0,0,0-1.324.387,1.221,1.221,0,0,0-.469.984,1.044,1.044,0,0,0,.533.908,5.485,5.485,0,0,0,1.8.6,14.693,14.693,0,0,1,2.133.568q2.684.984,2.684,3.41A3.307,3.307,0,0,1,47.027-.838,6.42,6.42,0,0,1,43.184.234a6.706,6.706,0,0,1-2.83-.568,4.748,4.748,0,0,1-1.939-1.559,3.621,3.621,0,0,1-.7-2.139h3.211a1.768,1.768,0,0,0,.668,1.383,2.649,2.649,0,0,0,1.664.48,2.452,2.452,0,0,0,1.471-.369A1.149,1.149,0,0,0,45.223-3.5Zm4.945-2.953a7.52,7.52,0,0,1,.727-3.363,5.319,5.319,0,0,1,2.092-2.285,6.1,6.1,0,0,1,3.17-.809,5.774,5.774,0,0,1,4.189,1.57,6.3,6.3,0,0,1,1.811,4.266l.023.867a6.627,6.627,0,0,1-1.629,4.682A5.662,5.662,0,0,1,56.18.234,5.69,5.69,0,0,1,51.8-1.523,6.744,6.744,0,0,1,50.168-6.3Zm3.387.24a4.74,4.74,0,0,0,.68,2.764A2.242,2.242,0,0,0,56.18-2.5,2.247,2.247,0,0,0,58.1-3.441a5.186,5.186,0,0,0,.691-3.022A4.692,4.692,0,0,0,58.1-9.209a2.248,2.248,0,0,0-1.945-.974,2.211,2.211,0,0,0-1.922.968A5.274,5.274,0,0,0,53.555-6.217ZM67.383-12.68l.105,1.465a4.427,4.427,0,0,1,3.645-1.7,3.679,3.679,0,0,1,3,1.184,5.522,5.522,0,0,1,1.008,3.539V0H71.754V-8.128A2.206,2.206,0,0,0,71.285-9.7a2.1,2.1,0,0,0-1.559-.487,2.329,2.329,0,0,0-2.145,1.221V0H64.2V-12.68ZM85.055,0a3.761,3.761,0,0,1-.34-1.137,4.1,4.1,0,0,1-3.2,1.371A4.5,4.5,0,0,1,78.428-.844,3.467,3.467,0,0,1,77.2-3.562,3.583,3.583,0,0,1,78.7-6.656a7.373,7.373,0,0,1,4.318-1.09h1.559v-.727a2.089,2.089,0,0,0-.451-1.406,1.775,1.775,0,0,0-1.424-.527,2.018,2.018,0,0,0-1.342.41,1.393,1.393,0,0,0-.486,1.125H77.484a3.4,3.4,0,0,1,.68-2.039,4.493,4.493,0,0,1,1.922-1.471,7,7,0,0,1,2.789-.533A5.534,5.534,0,0,1,86.6-11.736a4.12,4.12,0,0,1,1.377,3.311v5.5a6.062,6.062,0,0,0,.5,2.73V0Zm-2.8-2.355a2.917,2.917,0,0,0,1.383-.334,2.194,2.194,0,0,0,.938-.9v-2.18H83.309q-2.543,0-2.707,1.758l-.012.2a1.356,1.356,0,0,0,.445,1.043A1.73,1.73,0,0,0,82.254-2.355Z" transform="translate(642 4579)" fill="#12263f"/>
      <path id="Trazado_101437" data-name="Trazado 101437" d="M14.918-5.684a6.038,6.038,0,0,1-2.033,4.336A7.141,7.141,0,0,1,8.051.234,6.421,6.421,0,0,1,2.889-1.975,9.058,9.058,0,0,1,1.008-8.039V-9.082a10.228,10.228,0,0,1,.867-4.336,6.5,6.5,0,0,1,2.479-2.877,6.943,6.943,0,0,1,3.744-1,6.956,6.956,0,0,1,4.758,1.582,6.488,6.488,0,0,1,2.086,4.441H11.426a3.563,3.563,0,0,0-.92-2.4A3.407,3.407,0,0,0,8.1-14.414a2.987,2.987,0,0,0-2.631,1.26,7.06,7.06,0,0,0-.9,3.908v1.289a7.556,7.556,0,0,0,.838,4.043A2.932,2.932,0,0,0,8.051-2.637a3.471,3.471,0,0,0,2.432-.744,3.361,3.361,0,0,0,.92-2.3ZM20.578,0h-3.4V-18h3.4Zm6.363,0h-3.4V-12.68h3.4Zm-3.6-15.961a1.668,1.668,0,0,1,.51-1.254,1.915,1.915,0,0,1,1.389-.492,1.919,1.919,0,0,1,1.383.492,1.658,1.658,0,0,1,.516,1.254,1.663,1.663,0,0,1-.521,1.266,1.924,1.924,0,0,1-1.377.492,1.924,1.924,0,0,1-1.377-.492A1.663,1.663,0,0,1,23.344-15.961ZM35.566.234a6.225,6.225,0,0,1-4.541-1.711,6.082,6.082,0,0,1-1.752-4.559v-.328a7.66,7.66,0,0,1,.738-3.416A5.418,5.418,0,0,1,32.1-12.1a5.871,5.871,0,0,1,3.088-.814,5.262,5.262,0,0,1,4.1,1.641,6.667,6.667,0,0,1,1.494,4.652v1.383H32.707a3.146,3.146,0,0,0,.99,1.992,2.993,2.993,0,0,0,2.092.75,3.656,3.656,0,0,0,3.059-1.418l1.664,1.863A5.084,5.084,0,0,1,38.449-.369,6.767,6.767,0,0,1,35.566.234ZM35.18-10.184a2.116,2.116,0,0,0-1.635.683,3.535,3.535,0,0,0-.8,1.954h4.711v-.271a2.521,2.521,0,0,0-.609-1.748A2.183,2.183,0,0,0,35.18-10.184Zm10.641-2.5.105,1.465a4.427,4.427,0,0,1,3.645-1.7,3.679,3.679,0,0,1,3,1.184,5.522,5.522,0,0,1,1.008,3.539V0H50.191V-8.128A2.206,2.206,0,0,0,49.723-9.7a2.1,2.1,0,0,0-1.559-.487A2.329,2.329,0,0,0,46.02-8.962V0H42.633V-12.68ZM60.2-15.8v3.117h2.168V-10.2H60.2v6.328a1.511,1.511,0,0,0,.27,1.008,1.354,1.354,0,0,0,1.031.3,5.4,5.4,0,0,0,1-.082V-.07a6.972,6.972,0,0,1-2.051.3q-3.562,0-3.633-3.6V-10.2H54.961V-12.68h1.852V-15.8ZM70.09.234a6.225,6.225,0,0,1-4.541-1.711A6.082,6.082,0,0,1,63.8-6.035v-.328a7.66,7.66,0,0,1,.738-3.416,5.418,5.418,0,0,1,2.092-2.32,5.871,5.871,0,0,1,3.088-.814,5.262,5.262,0,0,1,4.1,1.641A6.667,6.667,0,0,1,75.3-6.621v1.383H67.23a3.146,3.146,0,0,0,.99,1.992,2.993,2.993,0,0,0,2.092.75,3.656,3.656,0,0,0,3.059-1.418l1.664,1.863A5.084,5.084,0,0,1,72.973-.369,6.767,6.767,0,0,1,70.09.234ZM69.7-10.184a2.116,2.116,0,0,0-1.635.683,3.535,3.535,0,0,0-.8,1.954h4.711v-.271a2.521,2.521,0,0,0-.609-1.748A2.183,2.183,0,0,0,69.7-10.184Z" transform="translate(327 4941)" fill="#12263f"/>
      <path id="Trazado_101434" data-name="Trazado 101434" d="M11.789-7.418H5.039v4.594h7.922V0H1.523V-17.062H12.938v2.848h-7.9v4.066h6.75Zm6.188-5.262.105,1.418a4.456,4.456,0,0,1,3.645-1.652A3.382,3.382,0,0,1,25.09-10.98,4.354,4.354,0,0,1,28.9-12.914a3.782,3.782,0,0,1,3.07,1.2A5.521,5.521,0,0,1,32.977-8.1V0h-3.4V-8.1a2.424,2.424,0,0,0-.422-1.58,1.867,1.867,0,0,0-1.488-.5,2.114,2.114,0,0,0-2.109,1.456L25.57,0H22.184V-8.093a2.394,2.394,0,0,0-.434-1.6,1.885,1.885,0,0,0-1.477-.493,2.194,2.194,0,0,0-2.086,1.2V0H14.8V-12.68ZM46.992-6.223a7.6,7.6,0,0,1-1.33,4.693A4.264,4.264,0,0,1,42.07.234,3.95,3.95,0,0,1,38.965-1.1V4.875H35.578V-12.68h3.141l.117,1.242a3.98,3.98,0,0,1,3.211-1.477,4.294,4.294,0,0,1,3.645,1.734,7.811,7.811,0,0,1,1.3,4.781Zm-3.387-.258a5.018,5.018,0,0,0-.627-2.739,2.04,2.04,0,0,0-1.822-.964,2.217,2.217,0,0,0-2.191,1.222v5.207A2.254,2.254,0,0,0,41.18-2.5Q43.605-2.5,43.605-6.481ZM52.664,0h-3.4V-18h3.4Zm8.625.234a6.225,6.225,0,0,1-4.541-1.711A6.082,6.082,0,0,1,55-6.035v-.328a7.66,7.66,0,0,1,.738-3.416,5.418,5.418,0,0,1,2.092-2.32,5.871,5.871,0,0,1,3.088-.814,5.262,5.262,0,0,1,4.1,1.641A6.667,6.667,0,0,1,66.5-6.621v1.383H58.43a3.146,3.146,0,0,0,.99,1.992,2.993,2.993,0,0,0,2.092.75A3.656,3.656,0,0,0,64.57-3.914l1.664,1.863A5.084,5.084,0,0,1,64.172-.369,6.767,6.767,0,0,1,61.289.234ZM60.9-10.184a2.116,2.116,0,0,0-1.635.683,3.535,3.535,0,0,0-.8,1.954h4.711v-.271a2.521,2.521,0,0,0-.609-1.748A2.183,2.183,0,0,0,60.9-10.184ZM75.773,0a3.761,3.761,0,0,1-.34-1.137,4.1,4.1,0,0,1-3.2,1.371A4.5,4.5,0,0,1,69.146-.844a3.467,3.467,0,0,1-1.225-2.719,3.583,3.583,0,0,1,1.494-3.094,7.373,7.373,0,0,1,4.318-1.09h1.559v-.727a2.089,2.089,0,0,0-.451-1.406,1.775,1.775,0,0,0-1.424-.527,2.018,2.018,0,0,0-1.342.41,1.393,1.393,0,0,0-.486,1.125H68.2a3.4,3.4,0,0,1,.68-2.039A4.493,4.493,0,0,1,70.8-12.381a7,7,0,0,1,2.789-.533,5.534,5.534,0,0,1,3.721,1.178,4.12,4.12,0,0,1,1.377,3.311v5.5A6.062,6.062,0,0,0,79.2-.2V0Zm-2.8-2.355a2.917,2.917,0,0,0,1.383-.334,2.194,2.194,0,0,0,.938-.9v-2.18H74.027q-2.543,0-2.707,1.758l-.012.2a1.356,1.356,0,0,0,.445,1.043A1.73,1.73,0,0,0,72.973-2.355Zm7.793-4.078a7.641,7.641,0,0,1,1.33-4.723,4.316,4.316,0,0,1,3.639-1.758,3.884,3.884,0,0,1,3.059,1.383V-18h3.4V0H89.133l-.164-1.348A3.985,3.985,0,0,1,85.711.234a4.3,4.3,0,0,1-3.592-1.764A7.887,7.887,0,0,1,80.766-6.434Zm3.387.241a5.033,5.033,0,0,0,.621,2.743,2.022,2.022,0,0,0,1.8.954,2.265,2.265,0,0,0,2.215-1.33V-8.853a2.233,2.233,0,0,0-2.191-1.33Q84.152-10.184,84.152-6.193Zm10.137-.264a7.52,7.52,0,0,1,.727-3.363,5.319,5.319,0,0,1,2.092-2.285,6.1,6.1,0,0,1,3.17-.809,5.774,5.774,0,0,1,4.189,1.57,6.3,6.3,0,0,1,1.811,4.266l.023.867a6.627,6.627,0,0,1-1.629,4.682A5.662,5.662,0,0,1,100.3.234a5.69,5.69,0,0,1-4.377-1.758A6.744,6.744,0,0,1,94.289-6.3Zm3.387.24a4.74,4.74,0,0,0,.68,2.764A2.242,2.242,0,0,0,100.3-2.5a2.247,2.247,0,0,0,1.922-.945,5.186,5.186,0,0,0,.691-3.022,4.692,4.692,0,0,0-.691-2.746,2.248,2.248,0,0,0-1.945-.974,2.211,2.211,0,0,0-1.922.968A5.274,5.274,0,0,0,97.676-6.217Z" transform="translate(957 4941)" fill="#12263f"/>
      <path id="Trazado_101433" data-name="Trazado 101433" d="M7.852-9.152h4.758V-7.1H7.852v5.391H5.672V-7.1H.914V-9.152H5.672v-4.98h2.18ZM14.73-6.445A7.452,7.452,0,0,1,16.1-11.162a4.385,4.385,0,0,1,3.633-1.752,4.362,4.362,0,0,1,3.621,1.641l.105-1.406h1.98V-.3a5.158,5.158,0,0,1-1.459,3.879,5.384,5.384,0,0,1-3.92,1.418,6.521,6.521,0,0,1-2.684-.586,4.62,4.62,0,0,1-2-1.605L16.5,1.5a4.239,4.239,0,0,0,3.41,1.723,3.322,3.322,0,0,0,2.467-.891,3.4,3.4,0,0,0,.885-2.508v-1.09a4.456,4.456,0,0,1-3.551,1.5,4.331,4.331,0,0,1-3.6-1.793A7.835,7.835,0,0,1,14.73-6.445Zm2.18.246a5.685,5.685,0,0,0,.879,3.369A2.856,2.856,0,0,0,20.25-1.605a3.176,3.176,0,0,0,3.012-1.863V-9.258a3.213,3.213,0,0,0-2.988-1.816A2.882,2.882,0,0,0,17.8-9.844,6.192,6.192,0,0,0,16.91-6.2ZM33.973.234a5.54,5.54,0,0,1-4.2-1.693A6.285,6.285,0,0,1,28.16-5.988v-.4a7.609,7.609,0,0,1,.721-3.369,5.622,5.622,0,0,1,2.016-2.32,5.068,5.068,0,0,1,2.807-.838,4.749,4.749,0,0,1,3.844,1.629,7.053,7.053,0,0,1,1.371,4.664v.9h-8.59a4.507,4.507,0,0,0,1.1,3.029A3.444,3.444,0,0,0,34.09-1.535,3.776,3.776,0,0,0,36.035-2,4.888,4.888,0,0,0,37.43-3.246l1.324,1.031A5.325,5.325,0,0,1,33.973.234ZM33.7-11.133a2.892,2.892,0,0,0-2.2.955A4.642,4.642,0,0,0,30.4-7.5H36.75v-.164a4.129,4.129,0,0,0-.891-2.561A2.723,2.723,0,0,0,33.7-11.133ZM44.367-15.75v3.07h2.367V-11H44.367v7.873a1.76,1.76,0,0,0,.316,1.144,1.332,1.332,0,0,0,1.078.381,5.249,5.249,0,0,0,1.031-.141V0a6.322,6.322,0,0,1-1.664.233,2.7,2.7,0,0,1-2.191-.879,3.776,3.776,0,0,1-.738-2.5V-11H39.891V-12.68H42.2v-3.07ZM62.719,0H60.457l-8.59-13.148V0H49.605V-17.062h2.262L60.48-3.855V-17.062h2.238ZM65.8-6.457a7.489,7.489,0,0,1,.732-3.352,5.464,5.464,0,0,1,2.039-2.3,5.551,5.551,0,0,1,2.982-.809,5.347,5.347,0,0,1,4.189,1.793,6.9,6.9,0,0,1,1.6,4.77V-6.2a7.555,7.555,0,0,1-.709,3.322A5.383,5.383,0,0,1,74.607-.586a5.614,5.614,0,0,1-3.029.82A5.334,5.334,0,0,1,67.4-1.559,6.863,6.863,0,0,1,65.8-6.3Zm2.18.258a5.424,5.424,0,0,0,.979,3.387,3.132,3.132,0,0,0,2.619,1.277A3.113,3.113,0,0,0,74.2-2.83a5.932,5.932,0,0,0,.973-3.627,5.415,5.415,0,0,0-.99-3.381,3.148,3.148,0,0,0-2.631-1.295,3.113,3.113,0,0,0-2.59,1.277A5.888,5.888,0,0,0,67.98-6.2ZM82.1-12.68l.059,1.406a4.683,4.683,0,0,1,3.762-1.641,3.625,3.625,0,0,1,3.621,2.039,4.8,4.8,0,0,1,1.646-1.477,4.863,4.863,0,0,1,2.4-.562q4.172,0,4.242,4.418V0H95.66V-8.367a2.911,2.911,0,0,0-.621-2.033,2.735,2.735,0,0,0-2.086-.674,2.875,2.875,0,0,0-2,.721,2.924,2.924,0,0,0-.926,1.939V0h-2.18V-8.309q0-2.766-2.707-2.766a2.9,2.9,0,0,0-2.918,1.816V0H80.051V-12.68Zm29.73,6.48a7.539,7.539,0,0,1-1.336,4.67A4.269,4.269,0,0,1,106.91.234a4.42,4.42,0,0,1-3.715-1.7L103.09,0H101.1V-18h2.168v6.715a4.4,4.4,0,0,1,3.621-1.629,4.3,4.3,0,0,1,3.627,1.746,7.766,7.766,0,0,1,1.318,4.781Zm-2.168-.246a5.858,5.858,0,0,0-.855-3.422,2.832,2.832,0,0,0-2.461-1.207,3.183,3.183,0,0,0-3.082,1.992V-3.6a3.272,3.272,0,0,0,3.105,1.992A2.816,2.816,0,0,0,108.8-2.812,6.23,6.23,0,0,0,109.664-6.445Zm11.027-4.289a6.5,6.5,0,0,0-1.066-.082A2.857,2.857,0,0,0,116.73-9V0h-2.168V-12.68h2.109l.035,1.465a3.376,3.376,0,0,1,3.023-1.7,2.215,2.215,0,0,1,.961.164ZM127.723.234a5.54,5.54,0,0,1-4.2-1.693,6.285,6.285,0,0,1-1.617-4.529v-.4a7.609,7.609,0,0,1,.721-3.369,5.622,5.622,0,0,1,2.016-2.32,5.068,5.068,0,0,1,2.807-.838,4.749,4.749,0,0,1,3.844,1.629,7.053,7.053,0,0,1,1.371,4.664v.9h-8.59a4.507,4.507,0,0,0,1.1,3.029,3.444,3.444,0,0,0,2.666,1.154A3.776,3.776,0,0,0,129.785-2a4.888,4.888,0,0,0,1.395-1.242L132.5-2.215A5.325,5.325,0,0,1,127.723.234Zm-.27-11.367a2.892,2.892,0,0,0-2.2.955,4.642,4.642,0,0,0-1.1,2.678H130.5v-.164a4.129,4.129,0,0,0-.891-2.561A2.723,2.723,0,0,0,127.453-11.133ZM7.852,22.848h4.758V24.9H7.852v5.391H5.672V24.9H.914V22.848H5.672v-4.98h2.18Zm6.879,2.707A7.452,7.452,0,0,1,16.1,20.838a4.385,4.385,0,0,1,3.633-1.752,4.362,4.362,0,0,1,3.621,1.641l.105-1.406h1.98V31.7a5.158,5.158,0,0,1-1.459,3.879,5.384,5.384,0,0,1-3.92,1.418,6.521,6.521,0,0,1-2.684-.586,4.62,4.62,0,0,1-2-1.605L16.5,33.5a4.239,4.239,0,0,0,3.41,1.723,3.322,3.322,0,0,0,2.467-.891,3.4,3.4,0,0,0,.885-2.508v-1.09a4.456,4.456,0,0,1-3.551,1.5,4.331,4.331,0,0,1-3.6-1.793A7.835,7.835,0,0,1,14.73,25.555Zm2.18.246a5.685,5.685,0,0,0,.879,3.369,2.856,2.856,0,0,0,2.461,1.225,3.176,3.176,0,0,0,3.012-1.863V22.742a3.213,3.213,0,0,0-2.988-1.816,2.882,2.882,0,0,0-2.473,1.23A6.192,6.192,0,0,0,16.91,25.8Zm17.063,6.434a5.54,5.54,0,0,1-4.2-1.693,6.285,6.285,0,0,1-1.617-4.529v-.4a7.609,7.609,0,0,1,.721-3.369,5.622,5.622,0,0,1,2.016-2.32,5.068,5.068,0,0,1,2.807-.838,4.749,4.749,0,0,1,3.844,1.629,7.053,7.053,0,0,1,1.371,4.664v.9h-8.59a4.507,4.507,0,0,0,1.1,3.029,3.444,3.444,0,0,0,2.666,1.154A3.776,3.776,0,0,0,36.035,30a4.888,4.888,0,0,0,1.395-1.242l1.324,1.031A5.325,5.325,0,0,1,33.973,32.234ZM33.7,20.867a2.892,2.892,0,0,0-2.2.955A4.642,4.642,0,0,0,30.4,24.5H36.75v-.164a4.129,4.129,0,0,0-.891-2.561A2.723,2.723,0,0,0,33.7,20.867ZM44.367,16.25v3.07h2.367V21H44.367v7.873a1.76,1.76,0,0,0,.316,1.144,1.332,1.332,0,0,0,1.078.381,5.249,5.249,0,0,0,1.031-.141V32a6.322,6.322,0,0,1-1.664.233,2.7,2.7,0,0,1-2.191-.879,3.776,3.776,0,0,1-.738-2.5V21H39.891V19.32H42.2V16.25Zm14.66,11.285H51.879L50.273,32h-2.32l6.516-17.062h1.969L62.965,32H60.656ZM52.559,25.7h5.8l-2.906-7.98Zm23.074.105a7.592,7.592,0,0,1-1.324,4.664,4.244,4.244,0,0,1-3.586,1.77A4.65,4.65,0,0,1,67.09,30.77v6.105H64.922V19.32H66.9l.105,1.406a4.466,4.466,0,0,1,3.68-1.641A4.324,4.324,0,0,1,74.3,20.809a7.675,7.675,0,0,1,1.33,4.793Zm-2.168-.246a5.6,5.6,0,0,0-.914-3.387,2.945,2.945,0,0,0-2.508-1.242,3.187,3.187,0,0,0-2.953,1.746V28.73a3.193,3.193,0,0,0,2.977,1.734,2.931,2.931,0,0,0,2.479-1.236A6.115,6.115,0,0,0,73.465,25.555Zm10.184,6.68a5.54,5.54,0,0,1-4.2-1.693,6.285,6.285,0,0,1-1.617-4.529v-.4a7.609,7.609,0,0,1,.721-3.369,5.622,5.622,0,0,1,2.016-2.32,5.068,5.068,0,0,1,2.807-.838,4.749,4.749,0,0,1,3.844,1.629,7.053,7.053,0,0,1,1.371,4.664v.9H80a4.507,4.507,0,0,0,1.1,3.029,3.444,3.444,0,0,0,2.666,1.154A3.776,3.776,0,0,0,85.711,30a4.888,4.888,0,0,0,1.395-1.242l1.324,1.031A5.325,5.325,0,0,1,83.648,32.234Zm-.27-11.367a2.892,2.892,0,0,0-2.2.955,4.642,4.642,0,0,0-1.1,2.678h6.352v-.164a4.129,4.129,0,0,0-.891-2.561A2.723,2.723,0,0,0,83.379,20.867ZM93.457,32H91.289V14h2.168Zm5.824,0H97.113V14h2.168Zm5.824,0h-2.168V19.32h2.168Zm-2.344-16.043a1.294,1.294,0,0,1,.322-.891,1.21,1.21,0,0,1,.955-.363,1.229,1.229,0,0,1,.961.363,1.28,1.28,0,0,1,.328.891,1.238,1.238,0,0,1-.328.879,1.251,1.251,0,0,1-.961.352,1.232,1.232,0,0,1-.955-.352A1.251,1.251,0,0,1,102.762,15.957Zm5.285,9.6a7.428,7.428,0,0,1,1.383-4.693,4.7,4.7,0,0,1,7.148-.252V14h2.168V32h-1.992l-.105-1.359a4.415,4.415,0,0,1-3.621,1.594,4.331,4.331,0,0,1-3.592-1.8,7.512,7.512,0,0,1-1.389-4.711Zm2.168.246a5.624,5.624,0,0,0,.891,3.375,2.879,2.879,0,0,0,2.461,1.219,3.163,3.163,0,0,0,3.012-1.852V22.719a3.187,3.187,0,0,0-2.988-1.793,2.893,2.893,0,0,0-2.484,1.23A6.192,6.192,0,0,0,110.215,25.8Zm11.32-.258a7.489,7.489,0,0,1,.732-3.352,5.464,5.464,0,0,1,2.039-2.3,5.551,5.551,0,0,1,2.982-.809,5.347,5.347,0,0,1,4.189,1.793,6.9,6.9,0,0,1,1.6,4.77V25.8a7.555,7.555,0,0,1-.709,3.322,5.383,5.383,0,0,1-2.027,2.291,5.614,5.614,0,0,1-3.029.82,5.334,5.334,0,0,1-4.178-1.793,6.863,6.863,0,0,1-1.6-4.746Zm2.18.258a5.424,5.424,0,0,0,.979,3.387,3.316,3.316,0,0,0,5.244-.018,5.932,5.932,0,0,0,.973-3.627,5.415,5.415,0,0,0-.99-3.381,3.148,3.148,0,0,0-2.631-1.295,3.113,3.113,0,0,0-2.59,1.277A5.888,5.888,0,0,0,123.715,25.8Z" transform="translate(642 4764)" fill="#12263f"/>
      <path id="Trazado_101439" data-name="Trazado 101439" d="M7.852-9.152h4.758V-7.1H7.852v5.391H5.672V-7.1H.914V-9.152H5.672v-4.98h2.18Zm9.434-3.527.059,1.406a4.683,4.683,0,0,1,3.762-1.641,3.625,3.625,0,0,1,3.621,2.039,4.8,4.8,0,0,1,1.646-1.477,4.863,4.863,0,0,1,2.4-.562q4.172,0,4.242,4.418V0H30.844V-8.367a2.911,2.911,0,0,0-.621-2.033,2.735,2.735,0,0,0-2.086-.674,2.875,2.875,0,0,0-2,.721,2.924,2.924,0,0,0-.926,1.939V0h-2.18V-8.309q0-2.766-2.707-2.766A2.9,2.9,0,0,0,17.4-9.258V0H15.234V-12.68ZM35.707-6.457a7.489,7.489,0,0,1,.732-3.352,5.464,5.464,0,0,1,2.039-2.3,5.551,5.551,0,0,1,2.982-.809,5.347,5.347,0,0,1,4.189,1.793,6.9,6.9,0,0,1,1.6,4.77V-6.2a7.555,7.555,0,0,1-.709,3.322A5.383,5.383,0,0,1,44.514-.586a5.614,5.614,0,0,1-3.029.82,5.334,5.334,0,0,1-4.178-1.793,6.863,6.863,0,0,1-1.6-4.746Zm2.18.258a5.424,5.424,0,0,0,.979,3.387,3.132,3.132,0,0,0,2.619,1.277A3.113,3.113,0,0,0,44.109-2.83a5.932,5.932,0,0,0,.973-3.627,5.415,5.415,0,0,0-.99-3.381,3.148,3.148,0,0,0-2.631-1.295,3.113,3.113,0,0,0-2.59,1.277A5.888,5.888,0,0,0,37.887-6.2ZM57.352-3.363a1.6,1.6,0,0,0-.662-1.365,6.373,6.373,0,0,0-2.309-.838,10.915,10.915,0,0,1-2.613-.844,3.718,3.718,0,0,1-1.43-1.172A2.8,2.8,0,0,1,49.875-9.2a3.289,3.289,0,0,1,1.318-2.637,5.149,5.149,0,0,1,3.369-1.078,5.3,5.3,0,0,1,3.5,1.113A3.536,3.536,0,0,1,59.4-8.953h-2.18a1.957,1.957,0,0,0-.756-1.535,2.832,2.832,0,0,0-1.9-.645,2.964,2.964,0,0,0-1.852.516,1.623,1.623,0,0,0-.668,1.348,1.315,1.315,0,0,0,.621,1.184,7.642,7.642,0,0,0,2.244.762,11.693,11.693,0,0,1,2.631.867,3.838,3.838,0,0,1,1.494,1.213,2.982,2.982,0,0,1,.486,1.729A3.245,3.245,0,0,1,58.16-.791,5.7,5.7,0,0,1,54.633.234a6.385,6.385,0,0,1-2.7-.539A4.384,4.384,0,0,1,50.1-1.811,3.629,3.629,0,0,1,49.441-3.9h2.168a2.245,2.245,0,0,0,.873,1.729,3.387,3.387,0,0,0,2.15.639,3.5,3.5,0,0,0,1.975-.5A1.53,1.53,0,0,0,57.352-3.363ZM65.285-15.75v3.07h2.367V-11H65.285v7.873A1.76,1.76,0,0,0,65.6-1.987a1.332,1.332,0,0,0,1.078.381,5.249,5.249,0,0,0,1.031-.141V0a6.322,6.322,0,0,1-1.664.233,2.7,2.7,0,0,1-2.191-.879,3.776,3.776,0,0,1-.738-2.5V-11H60.809V-12.68h2.309v-3.07Zm11.027,5.016a6.5,6.5,0,0,0-1.066-.082A2.857,2.857,0,0,0,72.352-9V0H70.184V-12.68h2.109l.035,1.465a3.376,3.376,0,0,1,3.023-1.7,2.215,2.215,0,0,1,.961.164ZM85.664,0a4.554,4.554,0,0,1-.3-1.336A4.837,4.837,0,0,1,81.75.234,4.476,4.476,0,0,1,78.674-.826a3.431,3.431,0,0,1-1.2-2.689,3.584,3.584,0,0,1,1.506-3.076,7.1,7.1,0,0,1,4.236-1.1h2.109v-1a2.435,2.435,0,0,0-.68-1.811,2.732,2.732,0,0,0-2-.674,3.161,3.161,0,0,0-1.945.586,1.727,1.727,0,0,0-.785,1.418H77.73A2.992,2.992,0,0,1,78.4-11a4.6,4.6,0,0,1,1.828-1.4,6.15,6.15,0,0,1,2.537-.516,5.013,5.013,0,0,1,3.434,1.1A3.953,3.953,0,0,1,87.492-8.8v5.836a7.135,7.135,0,0,0,.445,2.777V0Zm-3.6-1.652A3.81,3.81,0,0,0,84-2.18a3.19,3.19,0,0,0,1.324-1.371v-2.6h-1.7q-3.984,0-3.984,2.332a1.974,1.974,0,0,0,.68,1.594A2.612,2.612,0,0,0,82.066-1.652ZM97.02-10.734a6.5,6.5,0,0,0-1.066-.082A2.857,2.857,0,0,0,93.059-9V0H90.891V-12.68H93l.035,1.465a3.376,3.376,0,0,1,3.023-1.7,2.215,2.215,0,0,1,.961.164ZM99.352,0V-17.062h4.816a7.753,7.753,0,0,1,3.938.984,6.658,6.658,0,0,1,2.643,2.8,9.116,9.116,0,0,1,.943,4.172v1.09a9.148,9.148,0,0,1-.932,4.23A6.553,6.553,0,0,1,108.1-1a8.247,8.247,0,0,1-4.025,1Zm2.25-15.223V-1.84h2.367a5.15,5.15,0,0,0,4.049-1.619,6.687,6.687,0,0,0,1.447-4.61v-1a6.793,6.793,0,0,0-1.365-4.521,4.858,4.858,0,0,0-3.873-1.636ZM122.578,0a4.554,4.554,0,0,1-.3-1.336,4.837,4.837,0,0,1-3.609,1.57,4.476,4.476,0,0,1-3.076-1.061,3.431,3.431,0,0,1-1.2-2.689,3.584,3.584,0,0,1,1.506-3.076,7.1,7.1,0,0,1,4.236-1.1h2.109v-1a2.435,2.435,0,0,0-.68-1.811,2.732,2.732,0,0,0-2-.674,3.161,3.161,0,0,0-1.945.586,1.727,1.727,0,0,0-.785,1.418h-2.18A2.992,2.992,0,0,1,115.318-11a4.6,4.6,0,0,1,1.828-1.4,6.15,6.15,0,0,1,2.537-.516,5.013,5.013,0,0,1,3.434,1.1A3.953,3.953,0,0,1,124.406-8.8v5.836a7.135,7.135,0,0,0,.445,2.777V0Zm-3.6-1.652a3.81,3.81,0,0,0,1.934-.527,3.19,3.19,0,0,0,1.324-1.371v-2.6h-1.7q-3.984,0-3.984,2.332a1.974,1.974,0,0,0,.68,1.594A2.612,2.612,0,0,0,118.98-1.652Zm11.766-14.1v3.07h2.367V-11h-2.367v7.873a1.76,1.76,0,0,0,.316,1.144,1.332,1.332,0,0,0,1.078.381,5.249,5.249,0,0,0,1.031-.141V0a6.322,6.322,0,0,1-1.664.233,2.7,2.7,0,0,1-2.191-.879,3.776,3.776,0,0,1-.738-2.5V-11H126.27V-12.68h2.309v-3.07Zm4.09,9.293a7.489,7.489,0,0,1,.732-3.352,5.464,5.464,0,0,1,2.039-2.3,5.551,5.551,0,0,1,2.982-.809,5.347,5.347,0,0,1,4.189,1.793,6.9,6.9,0,0,1,1.6,4.77V-6.2a7.555,7.555,0,0,1-.709,3.322,5.383,5.383,0,0,1-2.027,2.291,5.614,5.614,0,0,1-3.029.82,5.334,5.334,0,0,1-4.178-1.793,6.863,6.863,0,0,1-1.6-4.746Zm2.18.258a5.424,5.424,0,0,0,.979,3.387,3.132,3.132,0,0,0,2.619,1.277,3.113,3.113,0,0,0,2.625-1.295,5.932,5.932,0,0,0,.973-3.627,5.415,5.415,0,0,0-.99-3.381,3.148,3.148,0,0,0-2.631-1.295A3.113,3.113,0,0,0,138-9.855,5.888,5.888,0,0,0,137.016-6.2ZM156.48-3.363a1.6,1.6,0,0,0-.662-1.365,6.373,6.373,0,0,0-2.309-.838A10.915,10.915,0,0,1,150.9-6.41a3.718,3.718,0,0,1-1.43-1.172A2.8,2.8,0,0,1,149-9.2a3.289,3.289,0,0,1,1.318-2.637,5.149,5.149,0,0,1,3.369-1.078,5.3,5.3,0,0,1,3.5,1.113,3.536,3.536,0,0,1,1.342,2.848h-2.18a1.957,1.957,0,0,0-.756-1.535,2.832,2.832,0,0,0-1.9-.645,2.964,2.964,0,0,0-1.852.516,1.623,1.623,0,0,0-.668,1.348,1.315,1.315,0,0,0,.621,1.184,7.642,7.642,0,0,0,2.244.762,11.693,11.693,0,0,1,2.631.867,3.838,3.838,0,0,1,1.494,1.213,2.982,2.982,0,0,1,.486,1.729,3.245,3.245,0,0,1-1.359,2.725A5.7,5.7,0,0,1,153.762.234a6.385,6.385,0,0,1-2.7-.539,4.384,4.384,0,0,1-1.834-1.506A3.629,3.629,0,0,1,148.57-3.9h2.168a2.245,2.245,0,0,0,.873,1.729,3.387,3.387,0,0,0,2.15.639,3.5,3.5,0,0,0,1.975-.5A1.53,1.53,0,0,0,156.48-3.363Z" transform="translate(327 5080)" fill="#12263f"/>
      <path id="Trazado_101436" data-name="Trazado 101436" d="M7.852-9.152h4.758V-7.1H7.852v5.391H5.672V-7.1H.914V-9.152H5.672v-4.98h2.18Zm9.434-3.527.059,1.406a4.683,4.683,0,0,1,3.762-1.641,3.625,3.625,0,0,1,3.621,2.039,4.8,4.8,0,0,1,1.646-1.477,4.863,4.863,0,0,1,2.4-.562q4.172,0,4.242,4.418V0H30.844V-8.367a2.911,2.911,0,0,0-.621-2.033,2.735,2.735,0,0,0-2.086-.674,2.875,2.875,0,0,0-2,.721,2.924,2.924,0,0,0-.926,1.939V0h-2.18V-8.309q0-2.766-2.707-2.766A2.9,2.9,0,0,0,17.4-9.258V0H15.234V-12.68ZM35.707-6.457a7.489,7.489,0,0,1,.732-3.352,5.464,5.464,0,0,1,2.039-2.3,5.551,5.551,0,0,1,2.982-.809,5.347,5.347,0,0,1,4.189,1.793,6.9,6.9,0,0,1,1.6,4.77V-6.2a7.555,7.555,0,0,1-.709,3.322A5.383,5.383,0,0,1,44.514-.586a5.614,5.614,0,0,1-3.029.82,5.334,5.334,0,0,1-4.178-1.793,6.863,6.863,0,0,1-1.6-4.746Zm2.18.258a5.424,5.424,0,0,0,.979,3.387,3.132,3.132,0,0,0,2.619,1.277A3.113,3.113,0,0,0,44.109-2.83a5.932,5.932,0,0,0,.973-3.627,5.415,5.415,0,0,0-.99-3.381,3.148,3.148,0,0,0-2.631-1.295,3.113,3.113,0,0,0-2.59,1.277A5.888,5.888,0,0,0,37.887-6.2ZM57.352-3.363a1.6,1.6,0,0,0-.662-1.365,6.373,6.373,0,0,0-2.309-.838,10.915,10.915,0,0,1-2.613-.844,3.718,3.718,0,0,1-1.43-1.172A2.8,2.8,0,0,1,49.875-9.2a3.289,3.289,0,0,1,1.318-2.637,5.149,5.149,0,0,1,3.369-1.078,5.3,5.3,0,0,1,3.5,1.113A3.536,3.536,0,0,1,59.4-8.953h-2.18a1.957,1.957,0,0,0-.756-1.535,2.832,2.832,0,0,0-1.9-.645,2.964,2.964,0,0,0-1.852.516,1.623,1.623,0,0,0-.668,1.348,1.315,1.315,0,0,0,.621,1.184,7.642,7.642,0,0,0,2.244.762,11.693,11.693,0,0,1,2.631.867,3.838,3.838,0,0,1,1.494,1.213,2.982,2.982,0,0,1,.486,1.729A3.245,3.245,0,0,1,58.16-.791,5.7,5.7,0,0,1,54.633.234a6.385,6.385,0,0,1-2.7-.539A4.384,4.384,0,0,1,50.1-1.811,3.629,3.629,0,0,1,49.441-3.9h2.168a2.245,2.245,0,0,0,.873,1.729,3.387,3.387,0,0,0,2.15.639,3.5,3.5,0,0,0,1.975-.5A1.53,1.53,0,0,0,57.352-3.363ZM65.285-15.75v3.07h2.367V-11H65.285v7.873A1.76,1.76,0,0,0,65.6-1.987a1.332,1.332,0,0,0,1.078.381,5.249,5.249,0,0,0,1.031-.141V0a6.322,6.322,0,0,1-1.664.233,2.7,2.7,0,0,1-2.191-.879,3.776,3.776,0,0,1-.738-2.5V-11H60.809V-12.68h2.309v-3.07Zm11.027,5.016a6.5,6.5,0,0,0-1.066-.082A2.857,2.857,0,0,0,72.352-9V0H70.184V-12.68h2.109l.035,1.465a3.376,3.376,0,0,1,3.023-1.7,2.215,2.215,0,0,1,.961.164ZM85.664,0a4.554,4.554,0,0,1-.3-1.336A4.837,4.837,0,0,1,81.75.234,4.476,4.476,0,0,1,78.674-.826a3.431,3.431,0,0,1-1.2-2.689,3.584,3.584,0,0,1,1.506-3.076,7.1,7.1,0,0,1,4.236-1.1h2.109v-1a2.435,2.435,0,0,0-.68-1.811,2.732,2.732,0,0,0-2-.674,3.161,3.161,0,0,0-1.945.586,1.727,1.727,0,0,0-.785,1.418H77.73A2.992,2.992,0,0,1,78.4-11a4.6,4.6,0,0,1,1.828-1.4,6.15,6.15,0,0,1,2.537-.516,5.013,5.013,0,0,1,3.434,1.1A3.953,3.953,0,0,1,87.492-8.8v5.836a7.135,7.135,0,0,0,.445,2.777V0Zm-3.6-1.652A3.81,3.81,0,0,0,84-2.18a3.19,3.19,0,0,0,1.324-1.371v-2.6h-1.7q-3.984,0-3.984,2.332a1.974,1.974,0,0,0,.68,1.594A2.612,2.612,0,0,0,82.066-1.652ZM97.02-10.734a6.5,6.5,0,0,0-1.066-.082A2.857,2.857,0,0,0,93.059-9V0H90.891V-12.68H93l.035,1.465a3.376,3.376,0,0,1,3.023-1.7,2.215,2.215,0,0,1,.961.164ZM109-7.887H101.6V-1.84h8.59V0H99.352V-17.062h10.723v1.84H101.6v5.5H109Zm5.7-4.793.059,1.406a4.683,4.683,0,0,1,3.762-1.641,3.625,3.625,0,0,1,3.621,2.039,4.8,4.8,0,0,1,1.646-1.477,4.863,4.863,0,0,1,2.4-.562q4.172,0,4.242,4.418V0H128.25V-8.367a2.911,2.911,0,0,0-.621-2.033,2.735,2.735,0,0,0-2.086-.674,2.875,2.875,0,0,0-2,.721,2.924,2.924,0,0,0-.926,1.939V0h-2.18V-8.309q0-2.766-2.707-2.766a2.9,2.9,0,0,0-2.918,1.816V0h-2.168V-12.68ZM144.4-6.2a7.592,7.592,0,0,1-1.324,4.664,4.244,4.244,0,0,1-3.586,1.77,4.65,4.65,0,0,1-3.633-1.465V4.875h-2.168V-12.68h1.98l.105,1.406a4.466,4.466,0,0,1,3.68-1.641,4.324,4.324,0,0,1,3.615,1.723A7.675,7.675,0,0,1,144.4-6.4Zm-2.168-.246a5.6,5.6,0,0,0-.914-3.387,2.945,2.945,0,0,0-2.508-1.242,3.187,3.187,0,0,0-2.953,1.746V-3.27a3.193,3.193,0,0,0,2.977,1.734,2.931,2.931,0,0,0,2.479-1.236A6.115,6.115,0,0,0,142.23-6.445ZM149.508,0H147.34V-18h2.168Zm8.73.234a5.54,5.54,0,0,1-4.2-1.693,6.285,6.285,0,0,1-1.617-4.529v-.4a7.609,7.609,0,0,1,.721-3.369,5.622,5.622,0,0,1,2.016-2.32,5.068,5.068,0,0,1,2.807-.838,4.749,4.749,0,0,1,3.844,1.629,7.053,7.053,0,0,1,1.371,4.664v.9h-8.59a4.507,4.507,0,0,0,1.1,3.029,3.444,3.444,0,0,0,2.666,1.154A3.776,3.776,0,0,0,160.3-2,4.888,4.888,0,0,0,161.7-3.246l1.324,1.031A5.325,5.325,0,0,1,158.238.234Zm-.27-11.367a2.892,2.892,0,0,0-2.2.955,4.642,4.642,0,0,0-1.1,2.678h6.352v-.164a4.129,4.129,0,0,0-.891-2.561A2.723,2.723,0,0,0,157.969-11.133ZM173.52,0a4.554,4.554,0,0,1-.3-1.336,4.837,4.837,0,0,1-3.609,1.57,4.476,4.476,0,0,1-3.076-1.061,3.431,3.431,0,0,1-1.2-2.689,3.584,3.584,0,0,1,1.506-3.076,7.1,7.1,0,0,1,4.236-1.1h2.109v-1a2.435,2.435,0,0,0-.68-1.811,2.732,2.732,0,0,0-2-.674,3.161,3.161,0,0,0-1.945.586,1.727,1.727,0,0,0-.785,1.418h-2.18A2.992,2.992,0,0,1,166.26-11a4.6,4.6,0,0,1,1.828-1.4,6.15,6.15,0,0,1,2.537-.516,5.013,5.013,0,0,1,3.434,1.1A3.953,3.953,0,0,1,175.348-8.8v5.836a7.135,7.135,0,0,0,.445,2.777V0Zm-3.6-1.652a3.81,3.81,0,0,0,1.934-.527,3.19,3.19,0,0,0,1.324-1.371v-2.6h-1.7q-3.984,0-3.984,2.332a1.974,1.974,0,0,0,.68,1.594A2.612,2.612,0,0,0,169.922-1.652Zm8.3-4.793a7.428,7.428,0,0,1,1.383-4.693,4.373,4.373,0,0,1,3.621-1.775,4.4,4.4,0,0,1,3.527,1.523V-18h2.168V0h-1.992l-.105-1.359A4.415,4.415,0,0,1,183.2.234a4.331,4.331,0,0,1-3.592-1.8,7.512,7.512,0,0,1-1.389-4.711Zm2.168.246a5.624,5.624,0,0,0,.891,3.375,2.879,2.879,0,0,0,2.461,1.219,3.163,3.163,0,0,0,3.012-1.852V-9.281a3.187,3.187,0,0,0-2.988-1.793,2.893,2.893,0,0,0-2.484,1.23A6.192,6.192,0,0,0,180.387-6.2Zm11.32-.258a7.489,7.489,0,0,1,.732-3.352,5.464,5.464,0,0,1,2.039-2.3,5.551,5.551,0,0,1,2.982-.809,5.347,5.347,0,0,1,4.189,1.793,6.9,6.9,0,0,1,1.6,4.77V-6.2a7.555,7.555,0,0,1-.709,3.322,5.383,5.383,0,0,1-2.027,2.291,5.614,5.614,0,0,1-3.029.82,5.334,5.334,0,0,1-4.178-1.793,6.863,6.863,0,0,1-1.6-4.746Zm2.18.258a5.424,5.424,0,0,0,.979,3.387,3.132,3.132,0,0,0,2.619,1.277,3.113,3.113,0,0,0,2.625-1.295,5.932,5.932,0,0,0,.973-3.627,5.415,5.415,0,0,0-.99-3.381,3.148,3.148,0,0,0-2.631-1.295,3.113,3.113,0,0,0-2.59,1.277A5.888,5.888,0,0,0,193.887-6.2Zm19.465,2.836a1.6,1.6,0,0,0-.662-1.365,6.373,6.373,0,0,0-2.309-.838,10.915,10.915,0,0,1-2.613-.844,3.718,3.718,0,0,1-1.43-1.172,2.8,2.8,0,0,1-.463-1.617,3.289,3.289,0,0,1,1.318-2.637,5.149,5.149,0,0,1,3.369-1.078,5.3,5.3,0,0,1,3.5,1.113A3.536,3.536,0,0,1,215.4-8.953h-2.18a1.957,1.957,0,0,0-.756-1.535,2.832,2.832,0,0,0-1.9-.645,2.964,2.964,0,0,0-1.852.516,1.623,1.623,0,0,0-.668,1.348,1.315,1.315,0,0,0,.621,1.184,7.642,7.642,0,0,0,2.244.762,11.693,11.693,0,0,1,2.631.867,3.838,3.838,0,0,1,1.494,1.213,2.982,2.982,0,0,1,.486,1.729A3.245,3.245,0,0,1,214.16-.791,5.7,5.7,0,0,1,210.633.234a6.385,6.385,0,0,1-2.7-.539A4.384,4.384,0,0,1,206.1-1.811a3.629,3.629,0,0,1-.662-2.092h2.168a2.245,2.245,0,0,0,.873,1.729,3.387,3.387,0,0,0,2.15.639,3.5,3.5,0,0,0,1.975-.5A1.53,1.53,0,0,0,213.352-3.363Z" transform="translate(957 5080)" fill="#12263f"/>
      <line id="Línea_158" data-name="Línea 158" x2="400" transform="translate(600 4720)" fill="none" stroke="#70d2df" stroke-width="2"/>
      <line id="Línea_159" data-name="Línea 159" x2="400" transform="translate(285 5027)" fill="none" stroke="#70d2df" stroke-width="2"/>
      <line id="Línea_160" data-name="Línea 160" x2="400" transform="translate(915 5027)" fill="none" stroke="#70d2df" stroke-width="2"/>
      <g id="Authorization_manager" data-name="Authorization manager" transform="translate(912 4518.125)">
        <path id="Trazado_100529" data-name="Trazado 100529" d="M49.262,33.508V27.7a7.462,7.462,0,1,0-14.925,0v1.611a13.847,13.847,0,0,0-3.681-1.352l-3.781-.906V25.389a9.121,9.121,0,0,0,4.146-7.635V15.267h.829a.829.829,0,0,0,.829-.829V11.121A9.132,9.132,0,0,0,23.558,2H20.242a9.132,9.132,0,0,0-9.121,9.121v3.317a.829.829,0,0,0,.829.829h.829v2.488a9.121,9.121,0,0,0,4.146,7.635v1.667l-3.783.906A14.168,14.168,0,0,0,2,41.746v10H49.262a2.487,2.487,0,0,0,2.488-2.487V36a2.487,2.487,0,0,0-2.487-2.487ZM36,27.7a5.8,5.8,0,0,1,11.608,0v5.8h-.829V27.7a4.975,4.975,0,0,0-9.95,0v5.8H36Zm9.121,5.8H38.483V27.7a3.317,3.317,0,0,1,6.633,0Zm-10.779,0A2.488,2.488,0,0,0,31.85,36V49.262a2.459,2.459,0,0,0,.153.829H27.87L31.6,29.943a12.264,12.264,0,0,1,2.736,1.3ZM21.9,31.253l.929.746.124,1.117-1.054.347-1.054-.35L20.971,32ZM20.656,34.8l.981.325a.829.829,0,0,0,.522,0l.981-.325,1.206,10.842L21.9,48.09l-2.449-2.449Zm2.691-4.51,2.828-1.7,1.842.46L25.856,32.3ZM12.779,11.121a7.472,7.472,0,0,1,7.462-7.462h3.317a7.472,7.472,0,0,1,7.463,7.463v2.487h-.893a2.479,2.479,0,0,1-1.943-.933l-2.322-2.9a.829.829,0,0,0-1.3,0l-1.327,1.658a5.776,5.776,0,0,1-4.53,2.177H12.779Zm1.658,6.633V15.267h4.274a7.425,7.425,0,0,0,5.827-2.8l.677-.847L26.89,13.71a4.123,4.123,0,0,0,2.473,1.48v2.564a7.462,7.462,0,1,1-14.925,0ZM21.9,26.875a9.06,9.06,0,0,0,3.317-.633v1L21.9,29.227l-3.317-1.99v-1a9.06,9.06,0,0,0,3.317.633Zm-4.278,1.717,2.828,1.7L17.942,32.3,15.78,29.052ZM3.658,41.746a12.5,12.5,0,0,1,8.54-11.8L15.93,50.092H11.95V40.971a.829.829,0,0,0-1.658,0v9.121H3.658Zm13.957,8.346L13.8,29.517l.255-.055,3,4.507a.829.829,0,0,0,.563.359.81.81,0,0,0,.131.01.829.829,0,0,0,.518-.182l.866-.694-1.38,12.392a.829.829,0,0,0,.238.678l3.317,3.317a.829.829,0,0,0,1.172,0L25.8,46.532a.829.829,0,0,0,.238-.678l-1.38-12.392.866.694a.829.829,0,0,0,.518.182.809.809,0,0,0,.127-.01.829.829,0,0,0,.563-.359l3-4.506.255.055-3.81,20.574Zm32.477-.829a.829.829,0,0,1-.829.829H34.337a.829.829,0,0,1-.829-.829V36a.829.829,0,0,1,.829-.829H49.262a.829.829,0,0,1,.829.829Z" fill="#12263f"/>
        <path id="Trazado_100530" data-name="Trazado 100530" d="M49.488,46a2.482,2.482,0,0,0-.829,4.822v4.3a.829.829,0,0,0,1.658,0v-4.3A2.482,2.482,0,0,0,49.488,46Zm0,3.317a.829.829,0,1,1,.829-.829A.829.829,0,0,1,49.488,49.317Z" transform="translate(-7.688 -7.517)" fill="#12263f"/>
      </g>
      <g id="clasificacion" transform="translate(581.413 4880.833)">
        <path id="Trazado_100531" data-name="Trazado 100531" d="M377.042,128.444a1.115,1.115,0,0,0,1.005-.011c.9-.469,3.839-2.184,3.873-4.542a2.837,2.837,0,0,0-4.381-2.384,2.809,2.809,0,0,0-1.539-.457,2.92,2.92,0,0,0-2.846,2.813C373.1,126.31,376.118,127.988,377.042,128.444Zm-1.051-5.7H376a1.131,1.131,0,0,1,.778.312h0a1.113,1.113,0,0,0,1.518,0,1.144,1.144,0,0,1,1.93.81c-.016,1.116-1.6,2.3-2.7,2.921-1.113-.6-2.7-1.754-2.679-2.892A1.2,1.2,0,0,1,375.992,122.744Z" transform="translate(-318.95 -107.376)" fill="#12263f"/>
        <path id="Trazado_100532" data-name="Trazado 100532" d="M64.9,128.445a1.115,1.115,0,0,0,1-.011c.9-.469,3.839-2.184,3.873-4.542a2.837,2.837,0,0,0-4.382-2.384,2.81,2.81,0,0,0-1.559-.457,2.878,2.878,0,0,0-2.826,2.813C60.966,126.31,63.979,127.988,64.9,128.445Zm-1.051-5.7h.008a1.13,1.13,0,0,1,.778.312h0a1.113,1.113,0,0,0,1.518,0,1.144,1.144,0,0,1,1.93.81c-.016,1.116-1.6,2.3-2.7,2.921-1.113-.6-2.7-1.754-2.679-2.892A1.2,1.2,0,0,1,63.853,122.744Z" transform="translate(-42.069 -107.376)" fill="#12263f"/>
        <path id="Trazado_100533" data-name="Trazado 100533" d="M24.243,23.683h2.726a.363.363,0,0,1,.257.106l1.845,1.841a1.457,1.457,0,0,0,2.045.007L33,23.788a.362.362,0,0,1,.256-.1h2.693a3.031,3.031,0,0,0,3.028-3.028V17.479a3.859,3.859,0,0,0,1.315.23h3.653a.971.971,0,0,1,.728.329l1.847,2.1a1.7,1.7,0,0,0,1.266.575h.007a1.7,1.7,0,0,0,1.264-.565l1.891-2.114a.971.971,0,0,1,.723-.323h3.612a3.862,3.862,0,0,0,1.194-.189v3.135A3.031,3.031,0,0,0,59.5,23.683h2.726a.363.363,0,0,1,.257.106l1.845,1.841a1.457,1.457,0,0,0,2.045.007l1.881-1.85a.363.363,0,0,1,.256-.1H71.2a3.031,3.031,0,0,0,3.028-3.028V12.794A3.031,3.031,0,0,0,71.2,9.766H59.155V3.876A3.881,3.881,0,0,0,55.279,0h-6.9a.847.847,0,1,0,0,1.694h6.9A2.184,2.184,0,0,1,57.46,3.876v9.957a2.184,2.184,0,0,1-2.182,2.182H51.667a2.668,2.668,0,0,0-1.986.888l-1.893,2.114-1.847-2.1a2.666,2.666,0,0,0-2-.9H40.289a2.184,2.184,0,0,1-2.182-2.182V3.876a2.184,2.184,0,0,1,2.182-2.182h4.135a.847.847,0,1,0,0-1.694H40.289a3.881,3.881,0,0,0-3.876,3.876v5.89H24.243a3.031,3.031,0,0,0-3.028,3.028v7.861a3.031,3.031,0,0,0,3.028,3.028ZM71.2,11.46a1.335,1.335,0,0,1,1.334,1.334v7.861A1.335,1.335,0,0,1,71.2,21.989H68.51a2.046,2.046,0,0,0-1.444.591l-1.71,1.683L63.68,22.59a2.045,2.045,0,0,0-1.454-.6H59.5a1.335,1.335,0,0,1-1.334-1.334V16.414a3.86,3.86,0,0,0,.988-2.581V11.46H71.2ZM22.909,12.794a1.335,1.335,0,0,1,1.334-1.334h12.17v2.372a3.858,3.858,0,0,0,.867,2.439v4.383a1.335,1.335,0,0,1-1.334,1.334H33.253a2.047,2.047,0,0,0-1.444.591L30.1,24.263,28.423,22.59a2.045,2.045,0,0,0-1.454-.6H24.243a1.335,1.335,0,0,1-1.334-1.334V12.794Z" transform="translate(-6.765)" fill="#12263f"/>
        <path id="Trazado_100534" data-name="Trazado 100534" d="M200.9,40.324c-.07,3.489,4.355,5.946,5.713,6.615a1.256,1.256,0,0,0,1.133-.012c1.325-.69,5.651-3.205,5.7-6.574a3.9,3.9,0,0,0-6.271-3.1,3.878,3.878,0,0,0-2.388-.8A3.96,3.96,0,0,0,200.9,40.324Zm3.9-2.177h.016a2.186,2.186,0,0,1,1.5.6h0a1.253,1.253,0,0,0,1.711,0,2.208,2.208,0,0,1,3.722,1.581c-.027,1.875-2.444,3.832-4.589,4.99-2.176-1.115-4.606-3.04-4.568-4.961A2.282,2.282,0,0,1,204.794,38.147Z" transform="translate(-166.149 -32.334)" fill="#12263f"/>
        <path id="Trazado_100535" data-name="Trazado 100535" d="M67.841,221.627v-12.34a9.214,9.214,0,0,0-13.414-8.2A.847.847,0,1,0,55.2,202.6a7.433,7.433,0,0,1,3.429-.826,7.525,7.525,0,0,1,7.516,7.516v10.845c-.023-.01-.045-.022-.069-.031h0l-4.267-1.758v-1.656a10.023,10.023,0,0,0,2.884-6.64c0-3.093-1.377-5.523-3.683-6.5a.849.849,0,0,0-.657,0,.881.881,0,0,0-.5.6,6.111,6.111,0,0,1-4.681,4.659l-1.939.415a.983.983,0,0,0-.668,1,10.047,10.047,0,0,0,2.883,6.481v1.646l-3.37,1.389a4.218,4.218,0,0,0-.965-.871v-9.574a7.469,7.469,0,0,1,1.357-4.31A.847.847,0,0,0,51.084,204a9.154,9.154,0,0,0-1.664,5.282v8.789l-4.636-1.91v-3.218c2.122-1.719,3.38-4.812,3.614-7.855a6.913,6.913,0,0,0,2.118-3.7,3.143,3.143,0,0,0-.412-2.588,3.105,3.105,0,0,0-1.276-1.095,3.249,3.249,0,0,0,.038-.864,3.217,3.217,0,0,0-4.586-2.615,3.729,3.729,0,0,0-5.1-1.544,3.22,3.22,0,0,0-5.05,1.535,4.236,4.236,0,0,0-2.546,6.753,10.7,10.7,0,0,0,.144,2.194,4.031,4.031,0,0,0,1.978,2.776,13.879,13.879,0,0,0,.324,1.641.893.893,0,0,0,1.034.6.847.847,0,0,0,.6-1.034,12.2,12.2,0,0,1-.325-1.76c-.037-.328.085-.472.828-.834a3.423,3.423,0,0,0,1.543-1.179,4.956,4.956,0,0,0,4.49-2.192,3.789,3.789,0,0,0,2.357.622,3.929,3.929,0,0,0,1.511,1.667c.5.348.66.456.663,1.1-.175,3.959-2.366,8.048-5.736,8.048a4.778,4.778,0,0,1-3.834-2.176.847.847,0,1,0-1.371,1,7.9,7.9,0,0,0,1.419,1.513v3.209l-5.614,2.313a4.235,4.235,0,0,0-1.694,1.268l-3.408-1.4v-2.6a9.865,9.865,0,0,0,2.75-4.309.846.846,0,0,0,.593-.381c.881-1.376,2.572-5.548-.14-8.294a4.2,4.2,0,0,0-3.8-1.069,2.679,2.679,0,0,0-.177-.326c-1.144-1.788-4.1-2.038-6.732-.57a.847.847,0,1,0,.825,1.48c1.973-1.1,3.909-.887,4.48,0a1.848,1.848,0,0,1,.042,1.555,4.549,4.549,0,0,1-2.774,2.679,9.947,9.947,0,0,0-3.829,2.506,7.715,7.715,0,0,1-.065-4.165.847.847,0,0,0-1.622-.489,9.284,9.284,0,0,0,.748,6.759.847.847,0,0,0,.613.384,9.892,9.892,0,0,0,2.727,4.229v2.612c-.078.034-4.232,1.74-4.314,1.78a3.661,3.661,0,0,0-2.227,3.375v2.67a1.98,1.98,0,0,0,1.978,1.978H66.374a1.98,1.98,0,0,0,1.978-1.978V223.5a3.667,3.667,0,0,0-.511-1.871Zm-21.924-21.01a.847.847,0,0,0-1.077-.577,1.921,1.921,0,0,1-2.184-.751.847.847,0,0,0-1.506.211,3.212,3.212,0,0,1-3.059,2.215,5.766,5.766,0,0,1-.745-.1.847.847,0,0,0-.986.65c-.073.332-.325.482-.924.768a3.451,3.451,0,0,0-1.419,1.037,2.317,2.317,0,0,1-.628-1.214,9.464,9.464,0,0,1-.1-2.108.847.847,0,0,0-.223-.642,2.54,2.54,0,0,1,1.788-4.265.847.847,0,0,0,.818-.768,1.522,1.522,0,0,1,2.73-.776.847.847,0,0,0,1.233.125,2.032,2.032,0,0,1,3.358,1.3.847.847,0,0,0,1.494.446,1.511,1.511,0,0,1,1.314-.546,1.525,1.525,0,0,1,1.2,2.251.847.847,0,0,0,.654,1.251,1.422,1.422,0,0,1,1.043.624,1.45,1.45,0,0,1,.189,1.194,8,8,0,0,1-.86,2.082,3.286,3.286,0,0,0-.993-.936,2.265,2.265,0,0,1-1.113-1.47Zm9.61,9.844a7.813,7.813,0,0,0,5.658-4.863A5.491,5.491,0,0,1,63,210.047c0,3.04-2.646,6.557-4.372,6.557-1.6,0-3.988-2.994-4.33-5.881ZM39.491,226.451a16.646,16.646,0,0,0-3.154-8.093l1.519-.626A4.731,4.731,0,0,0,41,218.924h0a4.732,4.732,0,0,0,3.14-1.192l1.5.616a16.654,16.654,0,0,0-3.18,8.1Zm7.763-7.434,2.5,1.029a2.537,2.537,0,0,1,1.575,2.353v4.052H44.159A14.937,14.937,0,0,1,47.255,219.017Zm-6.26-4.7a5.819,5.819,0,0,0,2.094-.383V216.4a3.04,3.04,0,0,1-2.093.834h0A3.039,3.039,0,0,1,38.9,216.4v-2.458A5.857,5.857,0,0,0,41,214.318ZM28.971,226.451H27.493l1.477-1.715Zm.01-4.323-3.724,4.323H21.4l-3.884-5.2,3.266-1.346a3.932,3.932,0,0,0,2.526.919h0a3.931,3.931,0,0,0,2.527-.919l3.289,1.355A4.244,4.244,0,0,0,28.981,222.128Zm-.49-18.183c1.475,1.493,1.01,3.758.429,5.177a14.339,14.339,0,0,0-2.32-1.876,4.086,4.086,0,0,1-1.395-1.455,5.526,5.526,0,0,0,.731-1.421,4.4,4.4,0,0,0,.216-1A2.57,2.57,0,0,1,28.491,203.945Zm-9.662,6.37a8.229,8.229,0,0,1,3.307-2.216A6.669,6.669,0,0,0,24,207.061a5.9,5.9,0,0,0,1.688,1.612,12.714,12.714,0,0,1,2.091,1.7c-.653,2.782-2.931,5.1-4.466,5.1S19.464,213.119,18.829,210.315Zm4.481,6.853a3.813,3.813,0,0,0,1.488-.327v1.724a2.239,2.239,0,0,1-1.487.565h0a2.238,2.238,0,0,1-1.486-.565v-1.726A3.793,3.793,0,0,0,23.31,217.169Zm-8.027,9V223.5A1.972,1.972,0,0,1,15.965,222l3.322,4.447h-3.72A.284.284,0,0,1,15.283,226.168ZM30.665,222.4a2.537,2.537,0,0,1,1.575-2.353l2.476-1.02a14.932,14.932,0,0,1,3.068,7.426H30.665V222.4Zm22.357,4.052V222.4a4.257,4.257,0,0,0-.162-1.157l2.6-1.07a11.948,11.948,0,0,0,1.418,6.278Zm4.121-7.543v-.978a3.185,3.185,0,0,0,2.974,0s0,.9,0,.983c0,2.542,0,5.166-1.487,7.1-1.486-1.93-1.487-4.556-1.487-7.1a.01.01,0,0,0,0,0Zm9.515,7.259a.284.284,0,0,1-.284.284H60.386a11.95,11.95,0,0,0,1.419-6.278l3.628,1.495h0a1.973,1.973,0,0,1,1.225,1.83Z" transform="translate(0 -170.313)" fill="#12263f"/>
      </g>
      <g id="alquiler" transform="translate(1197.208 4878.519)">
        <path id="Trazado_100536" data-name="Trazado 100536" d="M161.325,132.767a.866.866,0,0,0,.866-.866v-1.137a.866.866,0,0,0-1.732,0V131.9A.866.866,0,0,0,161.325,132.767Z" transform="translate(-113.589 -114.901)" fill="#12263f"/>
        <path id="Trazado_100537" data-name="Trazado 100537" d="M225.942,132.767a.866.866,0,0,0,.866-.866v-1.137a.866.866,0,0,0-1.732,0V131.9A.866.866,0,0,0,225.942,132.767Z" transform="translate(-170.745 -114.901)" fill="#12263f"/>
        <path id="Trazado_100538" data-name="Trazado 100538" d="M177.07,184.427a3.041,3.041,0,0,0,3.038-3.038.866.866,0,1,0-1.732,0,1.306,1.306,0,0,1-2.611,0,.866.866,0,0,0-1.732,0A3.041,3.041,0,0,0,177.07,184.427Z" transform="translate(-125.595 -159.682)" fill="#12263f"/>
        <path id="Trazado_100539" data-name="Trazado 100539" d="M83.077,48.552a.866.866,0,0,0-1,.7,9.864,9.864,0,1,1,0-3.472.866.866,0,1,0,1.705-.3,11.6,11.6,0,0,0-14.441-9.153A5.611,5.611,0,0,0,67.1,34.9l-9.691-3.315V28.123a9.842,9.842,0,0,0,3.621-8.048H61.9A3.282,3.282,0,0,0,65.18,16.8V14.988A3.283,3.283,0,0,0,63.238,12V8.024A8.033,8.033,0,0,0,55.214,0h-7.2a8.033,8.033,0,0,0-8.024,8.024v3.862a3.284,3.284,0,0,0-2.219,3.1V16.8a3.282,3.282,0,0,0,3.279,3.279h.873a9.842,9.842,0,0,0,3.621,8.048v3.461L35.851,34.9a5.629,5.629,0,0,0-3.807,5.324v2.7a.866.866,0,0,0,1.732,0v-2.7a3.9,3.9,0,0,1,2.636-3.686l7.025-2.4V40.4a.876.876,0,0,0,1.317.739l2.82-1.723,1.218,2.165-1.678,15.83H39.789V44.277a.866.866,0,1,0-1.732,0V57.416H33.776V46.7a.866.866,0,1,0-1.732,0v11.58a.866.866,0,0,0,.866.866H72.36a11.6,11.6,0,0,0,11.419-9.592.866.866,0,0,0-.7-1Zm-30.064-12.6L56.7,33.175l1.085.368v5.318Zm-3.961,2.569,2.422-1.479L53.9,38.517l-1.135,2.019H50.188Zm-1.775-6.739V29.123a12.019,12.019,0,0,0,8.395,0v2.655l-4.2,3.16ZM63.448,16.8A1.549,1.549,0,0,1,61.9,18.343h-.873v-4.9H61.9a1.549,1.549,0,0,1,1.547,1.547ZM41.921,18.343h-.873A1.549,1.549,0,0,1,39.5,16.8V14.988a1.549,1.549,0,0,1,1.547-1.547h.873Zm1.732,2.625V11.36c2.211-1.8,3.5-.921,5.669.225a.866.866,0,0,0,1.17-.362.92.92,0,0,0-.362-1.17c-3.055-2.254-5.921-1.918-8.41.667v-2.7a6.3,6.3,0,0,1,6.292-6.292h7.2a6.3,6.3,0,0,1,6.292,6.292v2.688c-2.723-2.64-5.276-2.81-8.391-.627a.85.85,0,0,0-.391,1.161.866.866,0,0,0,1.161.391C56,10.586,56.948,9.529,59.3,11.114v9.854C59.3,30.473,43.653,30.473,43.653,20.968Zm1.515,12.576,1.085-.368,3.683,2.773-4.768,2.913Zm5.292,8.725h2.028l1.606,15.147h-5.24Zm5.376,15.147-1.678-15.83,1.218-2.165,2.82,1.723a.876.876,0,0,0,1.317-.739v-6.27l7.025,2.4a3.894,3.894,0,0,1,.934.469,11.593,11.593,0,0,0-1.158,20.409H55.836Z" fill="#12263f"/>
        <path id="Trazado_100540" data-name="Trazado 100540" d="M332.507,357.942a2.676,2.676,0,0,0-3.742.535l-3.53,4.707-1.407-1.407a2.673,2.673,0,1,0-3.78,3.78l3.586,3.586a2.674,2.674,0,0,0,4.028-.286l5.379-7.173A2.676,2.676,0,0,0,332.507,357.942Zm-.851,2.7-5.379,7.173a.931.931,0,0,1-1.418.1l-3.586-3.586A.941.941,0,1,1,322.6,363l2.113,2.113a.866.866,0,0,0,1.3-.093l4.13-5.506a.941.941,0,0,1,1.506,1.129Z" transform="translate(-254.061 -316.144)" fill="#12263f"/>
      </g>
    </g>
  </g>
</svg>
