<svg xmlns="http://www.w3.org/2000/svg" width="85" height="85" viewBox="0 0 85 85">
  <g id="Grupo_54312" data-name="Grupo 54312" transform="translate(-180 -6290)">
    <circle id="Elipse_4088" data-name="Elipse 4088" cx="42.5" cy="42.5" r="42.5" transform="translate(180 6290)" fill="#ffa726"/>
    <path id="Trazado_101441" data-name="Trazado 101441" d="M-1.077,0H-21.913V-4.512l9.6-10.09q3.548-4.04,3.548-6.419a4.465,4.465,0,0,0-.841-2.933,3,3,0,0,0-2.44-1,3.039,3.039,0,0,0-2.563,1.343,5.52,5.52,0,0,0-.984,3.353h-6.932a9.806,9.806,0,0,1,1.374-5.076,9.635,9.635,0,0,1,3.814-3.64,11.331,11.331,0,0,1,5.455-1.312q4.84,0,7.455,2.235a7.98,7.98,0,0,1,2.615,6.419A9.321,9.321,0,0,1-2.471-18.2a15.064,15.064,0,0,1-2.041,3.507,51.4,51.4,0,0,1-4.46,4.912l-3.855,4.45H-1.077ZM6.8-6.706a3.934,3.934,0,0,1,2.728.974A3.2,3.2,0,0,1,10.613-3.24,3.2,3.2,0,0,1,9.526-.749,3.934,3.934,0,0,1,6.8.226,3.9,3.9,0,0,1,4.061-.759,3.219,3.219,0,0,1,2.984-3.24,3.219,3.219,0,0,1,4.061-5.722,3.9,3.9,0,0,1,6.8-6.706Z" transform="translate(229 6347)" fill="#12263f"/>
  </g>
</svg>
