<svg xmlns="http://www.w3.org/2000/svg" width="85" height="85" viewBox="0 0 85 85">
  <g id="Grupo_54311" data-name="Grupo 54311" transform="translate(-180 -4937)">
    <circle id="Elipse_4087" data-name="Elipse 4087" cx="42.5" cy="42.5" r="42.5" transform="translate(180 4937)" fill="#ffa726"/>
    <path id="Trazado_101440" data-name="Trazado 101440" d="M-6.593,0h-6.932V-22.066l-6.809,1.989v-5.25l13.1-4.532h.636ZM6.8-6.706a3.934,3.934,0,0,1,2.728.974A3.2,3.2,0,0,1,10.613-3.24,3.2,3.2,0,0,1,9.526-.749,3.934,3.934,0,0,1,6.8.226,3.9,3.9,0,0,1,4.061-.759,3.219,3.219,0,0,1,2.984-3.24,3.219,3.219,0,0,1,4.061-5.722,3.9,3.9,0,0,1,6.8-6.706Z" transform="translate(228 4994)" fill="#12263f"/>
  </g>
</svg>
