<svg id="Eclipse__software_-Logo.wine" data-name="Eclipse_(software)-Logo.wine" xmlns="http://www.w3.org/2000/svg" xmlns:xlink="http://www.w3.org/1999/xlink" width="228.569" height="53.671" viewBox="0 0 228.569 53.671">
  <defs>
    <linearGradient id="linear-gradient" x1="6.076" y1="-69.584" x2="6.076" y2="-82.073" gradientUnits="objectBoundingBox">
      <stop offset="0.303" stop-color="#473788"/>
      <stop offset="0.872" stop-color="#2c2255"/>
    </linearGradient>
    <linearGradient id="linear-gradient-2" x1="6.076" y1="-71.513" x2="6.076" y2="-84.001" xlink:href="#linear-gradient"/>
    <linearGradient id="linear-gradient-3" x1="6.63" y1="-22.458" x2="6.63" y2="-26.277" gradientUnits="objectBoundingBox">
      <stop offset="0.303" stop-color="#473788"/>
      <stop offset="0.863" stop-color="#2c2255"/>
    </linearGradient>
  </defs>
  <path id="Trazado_100507" data-name="Trazado 100507" d="M20.493,36.889H12.348a23.066,23.066,0,0,0,6.01,9.946,22.971,22.971,0,0,0,16.856,7,25.576,25.576,0,0,0,3.821-.284,22.719,22.719,0,0,0,12.99-6.72,23.051,23.051,0,0,0,6.051-9.946H20.493ZM16,25.826H11.747a24.88,24.88,0,0,0-.31,2.868H58.992a24.664,24.664,0,0,0-.312-2.868M11.437,31.357a24.749,24.749,0,0,0,.31,2.868H58.681a24.748,24.748,0,0,0,.312-2.868m-.917-8.2a23.245,23.245,0,0,0-6.052-9.992A22.778,22.778,0,0,0,39.072,6.5a25.676,25.676,0,0,0-3.859-.288A23.059,23.059,0,0,0,18.358,13.17a23.266,23.266,0,0,0-6.011,9.992" transform="translate(-5.873 -3.19)" fill="#2c2255"/>
  <path id="Trazado_100508" data-name="Trazado 100508" d="M4.15,26.836A25.307,25.307,0,0,1,25.858,2c-.3-.011-.611-.024-.918-.024a24.86,24.86,0,1,0,0,49.72c.308,0,.614-.011.92-.023A25.308,25.308,0,0,1,4.15,26.836ZM136.012,0h4.96V6.281h-4.96Z" fill="#f7941e"/>
  <path id="Trazado_100509" data-name="Trazado 100509" d="M164.918,26.1v2.425H142.11q.323,5.124,3.087,7.8t7.7,2.682a21.868,21.868,0,0,0,5.541-.7,24.614,24.614,0,0,0,5.324-2.1V40.9a29.787,29.787,0,0,1-5.473,1.726,27.438,27.438,0,0,1-5.688.593q-7.225,0-11.444-4.206t-4.219-11.375q0-7.414,4-11.768t10.8-4.354a12.34,12.34,0,0,1,9.638,3.922q3.546,3.918,3.546,10.66m-4.96-1.455a9.439,9.439,0,0,0-2.278-6.5,7.608,7.608,0,0,0-5.891-2.426,9.3,9.3,0,0,0-6.646,2.346,9.89,9.89,0,0,0-2.871,6.6ZM190.648,13.4v4.636a19.345,19.345,0,0,0-4.219-1.738,16.1,16.1,0,0,0-4.274-.579,9.413,9.413,0,0,0-7.494,3.059q-2.669,3.06-2.669,8.586t2.669,8.587a9.41,9.41,0,0,0,7.494,3.059,16.157,16.157,0,0,0,4.274-.578,19.334,19.334,0,0,0,4.219-1.74v4.583a20.375,20.375,0,0,1-4.3,1.455,22.132,22.132,0,0,1-4.732.485q-6.821,0-10.837-4.287t-4.017-11.565q0-7.385,4.057-11.62t11.12-4.232a21.16,21.16,0,0,1,4.476.472,20.353,20.353,0,0,1,4.233,1.415M195.134.488H200.1V42.436h-4.961Zm11.2,11.753h4.96V42.436h-4.96Zm16,25.666V53.921h-4.987V12.241h4.987v4.584a10.336,10.336,0,0,1,3.95-4,11.716,11.716,0,0,1,5.7-1.308,10.842,10.842,0,0,1,8.936,4.368q3.438,4.368,3.437,11.484T240.919,38.85a10.847,10.847,0,0,1-8.936,4.368,11.694,11.694,0,0,1-5.7-1.308,10.3,10.3,0,0,1-3.95-4m16.877-10.541q0-5.473-2.251-8.586a7.706,7.706,0,0,0-12.375,0q-2.251,3.115-2.252,8.586t2.252,8.587a7.705,7.705,0,0,0,12.375,0q2.251-3.111,2.251-8.587m28.48-14.234v4.691a19.417,19.417,0,0,0-4.368-1.618,20.208,20.208,0,0,0-4.691-.538,10.788,10.788,0,0,0-5.541,1.132,3.724,3.724,0,0,0-1.846,3.4,3.19,3.19,0,0,0,1.32,2.71,15.588,15.588,0,0,0,5.311,1.874l1.7.377q5.284,1.133,7.509,3.195a7.459,7.459,0,0,1,2.225,5.755,7.835,7.835,0,0,1-3.331,6.659q-3.329,2.451-9.151,2.453a28.719,28.719,0,0,1-5.056-.471,42.25,42.25,0,0,1-5.54-1.416V36.208a26.789,26.789,0,0,0,5.419,2.144,20.369,20.369,0,0,0,5.284.714,10.072,10.072,0,0,0,5.392-1.2,3.793,3.793,0,0,0,1.886-3.383,3.726,3.726,0,0,0-1.36-3.1q-1.362-1.078-5.973-2.077l-1.725-.4q-4.609-.97-6.659-2.979a7.364,7.364,0,0,1-2.049-5.514,7.8,7.8,0,0,1,3.019-6.577q3.02-2.319,8.573-2.319a31.514,31.514,0,0,1,5.176.4,22.127,22.127,0,0,1,4.477,1.215M298.89,26.1v2.425H276.082q.323,5.124,3.088,7.8t7.7,2.682a21.86,21.86,0,0,0,5.541-.7,24.6,24.6,0,0,0,5.325-2.1V40.9a29.8,29.8,0,0,1-5.474,1.726,27.425,27.425,0,0,1-5.687.593q-7.226,0-11.444-4.206t-4.22-11.375q0-7.414,4-11.768t10.8-4.354a12.342,12.342,0,0,1,9.638,3.922q3.543,3.918,3.544,10.66m-4.96-1.455a9.435,9.435,0,0,0-2.28-6.5,7.608,7.608,0,0,0-5.889-2.426,9.3,9.3,0,0,0-6.645,2.346,9.884,9.884,0,0,0-2.872,6.6Z" transform="translate(-70.321 -0.251)" fill="#2c2255"/>
  <g id="Grupo_53783" data-name="Grupo 53783" transform="translate(13.158 22.635)">
    <path id="Trazado_100510" data-name="Trazado 100510" d="M130.485,373.061a16.207,16.207,0,0,0-.492-2.868H98.611a16.182,16.182,0,0,0-.493,2.868Z" transform="translate(-98.118 -370.193)" fill="url(#linear-gradient)"/>
    <path id="Trazado_100511" data-name="Trazado 100511" d="M130.485,381.565H98.119a16.167,16.167,0,0,0,.492,2.868h31.382a16.2,16.2,0,0,0,.492-2.868Z" transform="translate(-98.119 -376.033)" fill="url(#linear-gradient-2)"/>
    <path id="Trazado_100512" data-name="Trazado 100512" d="M115.845,402.315a16.241,16.241,0,0,0,14.722-9.379H101.123A16.241,16.241,0,0,0,115.845,402.315Z" transform="translate(-99.661 -381.872)" fill="url(#linear-gradient-3)"/>
  </g>
  <path id="Trazado_100513" data-name="Trazado 100513" d="M16.587,49.25H58.914c.022-.424.035-.85.035-1.28,0-.465-.017-.925-.043-1.384H11.391c-.026.458-.043.919-.043,1.384,0,.43.013.857.035,1.28Zm3.765-8.2H12.3a23.254,23.254,0,0,0-.6,2.664H58.484a23.669,23.669,0,0,0-.64-2.664M55.425,52.118H11.7a23.344,23.344,0,0,0,.6,2.664H58a23.53,23.53,0,0,0,.629-2.664Z" transform="translate(-5.828 -21.083)" fill="#fff"/>
</svg>
