<svg xmlns="http://www.w3.org/2000/svg" xmlns:xlink="http://www.w3.org/1999/xlink" width="610" height="303.5" viewBox="0 0 610 303.5">
  <defs>
    <linearGradient id="linear-gradient" x1="0.741" y1="-0.368" x2="0.525" y2="1.414" gradientUnits="objectBoundingBox">
      <stop offset="0" stop-color="#c5e7e8"/>
      <stop offset="1" stop-color="#fff5fe"/>
    </linearGradient>
    <linearGradient id="linear-gradient-2" y1="0.5" x2="1" y2="0.5" gradientUnits="objectBoundingBox">
      <stop offset="0" stop-color="#fe99b7"/>
      <stop offset="1" stop-color="#fe688e"/>
    </linearGradient>
    <linearGradient id="linear-gradient-4" x1="1.164" y1="1.905" x2="-2.218" y2="-4.352" xlink:href="#linear-gradient-2"/>
    <linearGradient id="linear-gradient-5" x1="2.444" y1="5.656" x2="-0.291" y2="-1.891" xlink:href="#linear-gradient-2"/>
  </defs>
  <g id="Grupo_53869" data-name="Grupo 53869" transform="translate(-646 -1260)">
    <rect id="Rectángulo_5148" data-name="Rectángulo 5148" width="610" height="279" transform="translate(646 1260)" fill="#4dd0e1" opacity="0.3"/>
    <g id="Grupo_53868" data-name="Grupo 53868" transform="translate(741 1267.432)">
      <path id="Trazado_100541" data-name="Trazado 100541" d="M863.657,602.332c-33.67,12.254-70.381,34.28-86.1,52.212-22.213,25.341-11.1,44.093,15.743,47.133,39.81,4.509-19.746,44.245,0,72.567,23.315,33.44,99.221,19.907,148.442-13.773C1015.6,709.93,1067.8,635.1,1040.782,604.24,1012.467,571.9,937.552,575.439,863.657,602.332Z" transform="translate(-685.964 -529.043)" opacity="0.41" fill="url(#linear-gradient)"/>
      <g id="Grupo_53837" data-name="Grupo 53837" transform="translate(154.057 162.548)" opacity="0.5">
        <path id="Trazado_100542" data-name="Trazado 100542" d="M1397.97,1455.22a26.326,26.326,0,0,0-.842-3.769l4.13-5.094a30.642,30.642,0,0,0-3.766-6.351l-6.39,1.309a25.038,25.038,0,0,0-6.1-4.58l-.635-6.577a30.063,30.063,0,0,0-7.092-1.793l-3.6,5.5a24.594,24.594,0,0,0-7.51,1.139l-5.034-4.194a30.009,30.009,0,0,0-6.264,3.818l1.291,6.478a25.185,25.185,0,0,0-4.517,6.19l-6.479.642a30.51,30.51,0,0,0-1.776,7.192l5.427,3.645a25.633,25.633,0,0,0,1.124,7.622l-4.138,5.1a30.454,30.454,0,0,0,3.776,6.358l6.381-1.307a25.034,25.034,0,0,0,6.1,4.571l.635,6.577a29.742,29.742,0,0,0,7.092,1.793l3.6-5.5a24.585,24.585,0,0,0,7.51-1.139l5.034,4.194a30.329,30.329,0,0,0,6.264-3.818l-1.291-6.478a25.483,25.483,0,0,0,4.509-6.18l6.488-.644a31.11,31.11,0,0,0,1.767-7.2l-5.419-3.646A26.281,26.281,0,0,0,1397.97,1455.22Zm-22.24,18.626a15.079,15.079,0,1,1,12.515-17.152A15.059,15.059,0,0,1,1375.729,1473.847Z" transform="translate(-1343.385 -1428.364)" fill="#c5e7e8"/>
        <path id="Trazado_101362" data-name="Trazado 101362" d="M7.365-.026A7.26,7.26,0,0,1,14.7,7.227a7.386,7.386,0,0,1-7.391,7.305A7.26,7.26,0,0,1-.026,7.279,7.386,7.386,0,0,1,7.365-.026Z" transform="matrix(0.269, -0.963, 0.963, 0.269, 21.182, 35.677)" fill="#c5e7e8"/>
      </g>
      <g id="Grupo_53838" data-name="Grupo 53838" transform="translate(81.824 93.928)" opacity="0.5">
        <path id="Trazado_100543" data-name="Trazado 100543" d="M807.574,914.913a12.318,12.318,0,0,0-.4-1.769l1.939-2.391a14.371,14.371,0,0,0-1.768-2.981l-3,.614a11.752,11.752,0,0,0-2.862-2.15l-.3-3.087a14.114,14.114,0,0,0-3.329-.842l-1.692,2.584a11.535,11.535,0,0,0-3.525.534l-2.363-1.969a14.08,14.08,0,0,0-2.941,1.792l.606,3.041a11.824,11.824,0,0,0-2.12,2.905l-3.041.3a14.322,14.322,0,0,0-.834,3.376l2.548,1.711a12.03,12.03,0,0,0,.528,3.578l-1.943,2.392a14.308,14.308,0,0,0,1.772,2.984l3-.614a11.745,11.745,0,0,0,2.865,2.146l.3,3.088a13.975,13.975,0,0,0,3.329.841l1.692-2.584a11.542,11.542,0,0,0,3.525-.534l2.363,1.969a14.231,14.231,0,0,0,2.94-1.792l-.606-3.041a11.968,11.968,0,0,0,2.117-2.9l3.045-.3a14.6,14.6,0,0,0,.83-3.379l-2.544-1.712A12.32,12.32,0,0,0,807.574,914.913Zm-10.44,8.743a7.078,7.078,0,1,1,5.875-8.051A7.069,7.069,0,0,1,797.134,923.656Z" transform="translate(-781.951 -902.306)" fill="#c5e7e8"/>
        <ellipse id="Elipse_4090" data-name="Elipse 4090" cx="3.413" cy="3.461" rx="3.413" ry="3.461" transform="translate(10.736 10.885)" fill="#c5e7e8"/>
      </g>
      <path id="Trazado_100544" data-name="Trazado 100544" d="M1630.44,266.975s-3.351-4.383-4.107-7.506.493-6.684,3.435-6.848c0,0,1.23-3.488,6.364-3.269s9.493,3.159,10.411,5.954-.379,3.853-3.134,3.981S1630.44,266.975,1630.44,266.975Z" transform="translate(-1435.684 -240.588)" fill="#002144"/>
      <path id="Trazado_100545" data-name="Trazado 100545" d="M1522.543,397.8a31.042,31.042,0,0,0-16.188,2.447c-7.89,3.728.865,29.877.865,29.877H1531.1s8.322-19.066,7.889-24.325S1522.543,397.8,1522.543,397.8Z" transform="translate(-1328.459 -369.5)" fill="#4dd0e1"/>
      <path id="Trazado_100546" data-name="Trazado 100546" d="M1638.063,397.592a4.587,4.587,0,0,0-.514,4.447,5.221,5.221,0,0,0,6.212,3.2c2.635-.668,4.047-4.914,3.059-4.962s-7.4-2.469-7.4-2.469Z" transform="translate(-1445.335 -369.5)" fill="#fff"/>
      <path id="Trazado_100547" data-name="Trazado 100547" d="M1509.74,499.718s.847,5.63,4.141,7.061,6.143,2.971,8.471,5.753,7.059,1.316,8.283,4.461-21.638,0-21.638,0-2.988-11.573-3.193-14.328S1509.74,499.718,1509.74,499.718Z" transform="translate(-1330.844 -458.305)" fill="#2fb0c1"/>
      <path id="Trazado_100548" data-name="Trazado 100548" d="M1933.687,1585.468a12.534,12.534,0,0,0-.4-1.795l1.967-2.426a14.594,14.594,0,0,0-1.793-3.025l-3.043.623a11.921,11.921,0,0,0-2.9-2.181l-.3-3.132a14.319,14.319,0,0,0-3.377-.854l-1.716,2.621a11.7,11.7,0,0,0-3.576.542l-2.4-2a14.3,14.3,0,0,0-2.983,1.819l.615,3.085a11.994,11.994,0,0,0-2.151,2.948l-3.086.306a14.532,14.532,0,0,0-.846,3.425l2.585,1.736a12.21,12.21,0,0,0,.535,3.63l-1.97,2.427a14.5,14.5,0,0,0,1.8,3.028l3.039-.623a11.922,11.922,0,0,0,2.907,2.177l.3,3.132a14.173,14.173,0,0,0,3.377.854l1.716-2.621a11.7,11.7,0,0,0,3.576-.542l2.4,2a14.443,14.443,0,0,0,2.983-1.818l-.615-3.085a12.146,12.146,0,0,0,2.147-2.943l3.089-.307a14.809,14.809,0,0,0,.842-3.428l-2.581-1.736A12.545,12.545,0,0,0,1933.687,1585.468Zm-10.591,8.87a7.181,7.181,0,1,1,5.96-8.168A7.171,7.171,0,0,1,1923.1,1594.338Z" transform="translate(-1681.032 -1391.306)" fill="#c5e7e8" opacity="0.5"/>
      <g id="Grupo_53840" data-name="Grupo 53840" transform="translate(126.744 31.874)">
        <rect id="Rectángulo_5249" data-name="Rectángulo 5249" width="18.819" height="19.079" rx="9.409" transform="translate(0 0)" fill="#ffe8b5"/>
        <g id="Grupo_53839" data-name="Grupo 53839" transform="translate(2.104 6.677)">
          <path id="Trazado_100549" data-name="Trazado 100549" d="M1147.45,483.411v-5.637h1.8a6.449,6.449,0,0,1,1.335.085,1.458,1.458,0,0,1,.8.552,1.767,1.767,0,0,1,.322,1.1,1.861,1.861,0,0,1-.186.873,1.54,1.54,0,0,1-.472.556,1.618,1.618,0,0,1-.582.267,6.34,6.34,0,0,1-1.164.081h-.732v2.126Zm1.122-4.683v1.6h.614a2.866,2.866,0,0,0,.887-.088.739.739,0,0,0,.351-.277.765.765,0,0,0,.127-.438.735.735,0,0,0-.178-.507.775.775,0,0,0-.452-.25,5.333,5.333,0,0,0-.807-.038Z" transform="translate(-1147.45 -477.774)" fill="#fff"/>
          <path id="Trazado_100550" data-name="Trazado 100550" d="M1187.743,483.411v-5.637h1.123v2.218h2.2v-2.218h1.122v5.637h-1.122v-2.464h-2.2v2.464Z" transform="translate(-1182.559 -477.774)" fill="#fff"/>
          <path id="Trazado_100551" data-name="Trazado 100551" d="M1231.306,483.411v-5.637h1.8a6.449,6.449,0,0,1,1.335.085,1.457,1.457,0,0,1,.8.552,1.767,1.767,0,0,1,.323,1.1,1.859,1.859,0,0,1-.186.873,1.539,1.539,0,0,1-.472.556,1.617,1.617,0,0,1-.582.267,6.335,6.335,0,0,1-1.164.081h-.732v2.126Zm1.122-4.683v1.6h.614a2.867,2.867,0,0,0,.888-.088.739.739,0,0,0,.35-.277.765.765,0,0,0,.127-.438.734.734,0,0,0-.178-.507.775.775,0,0,0-.451-.25,5.337,5.337,0,0,0-.808-.038Z" transform="translate(-1220.517 -477.774)" fill="#fff"/>
        </g>
      </g>
      <g id="Grupo_53841" data-name="Grupo 53841" transform="translate(222.76 224.433)">
        <path id="Trazado_100552" data-name="Trazado 100552" d="M1884.931,1995.769a2.012,2.012,0,0,0-1.453.617,2.089,2.089,0,0,0,.022,2.925,2.02,2.02,0,0,0,2.885-.023,2.089,2.089,0,0,0-.022-2.925A2.015,2.015,0,0,0,1884.931,1995.769Z" transform="translate(-1882.182 -1983.641)" fill="#ffe8b5"/>
        <path id="Trazado_100553" data-name="Trazado 100553" d="M1879.828,1960.609a7.184,7.184,0,0,0-1.408.14.731.731,0,0,0-.469.317.755.755,0,0,0,.095.948.733.733,0,0,0,.66.2,5.725,5.725,0,0,1,5.185,1.578,5.925,5.925,0,0,1,1.636,5.232.75.75,0,0,0,.12.558.733.733,0,0,0,.606.321.739.739,0,0,0,.724-.614,7.431,7.431,0,0,0-2.052-6.562A7.172,7.172,0,0,0,1879.828,1960.609Z" transform="translate(-1877.769 -1953.068)" fill="#ffe8b5"/>
        <path id="Trazado_100554" data-name="Trazado 100554" d="M1879.636,1930.34a11.271,11.271,0,0,0-1.4.088.73.73,0,0,0-.49.282.748.748,0,0,0,.672,1.2,9.753,9.753,0,0,1,1.215-.076,9.549,9.549,0,0,1,6.784,2.825,9.844,9.844,0,0,1,2.831,8.066.749.749,0,0,0,.216.614.735.735,0,0,0,.517.215.739.739,0,0,0,.732-.666,11.341,11.341,0,0,0-3.261-9.292A11,11,0,0,0,1879.636,1930.34Z" transform="translate(-1877.564 -1926.747)" fill="#ffe8b5"/>
        <path id="Trazado_100555" data-name="Trazado 100555" d="M1889.754,1907.08a14.508,14.508,0,0,0-10.31-4.287c-.464,0-.935.022-1.4.067a.729.729,0,0,0-.5.268.755.755,0,0,0,.051,1.008.726.726,0,0,0,.587.212c.417-.04.84-.06,1.258-.06a13.055,13.055,0,0,1,9.277,3.857,13.491,13.491,0,0,1,3.906,10.621.745.745,0,0,0,.676.8l.059,0a.745.745,0,0,0,.734-.688A15,15,0,0,0,1889.754,1907.08Z" transform="translate(-1877.379 -1902.793)" fill="#ffe8b5"/>
      </g>
      <path id="Trazado_100556" data-name="Trazado 100556" d="M1235.825,760.328H1044.3a5.74,5.74,0,0,1-5.7-5.779V632.336a5.74,5.74,0,0,1,5.7-5.779h191.522a5.74,5.74,0,0,1,5.7,5.779V754.548A5.74,5.74,0,0,1,1235.825,760.328Z" transform="translate(-923.759 -568.598)" fill="#12263f"/>
      <path id="Trazado_100557" data-name="Trazado 100557" d="M1258.094,651.668v121.2a3.441,3.441,0,0,1-3.414,3.462H1064.328a3.441,3.441,0,0,1-3.414-3.462v-121.2a3.441,3.441,0,0,1,3.414-3.462H1254.68A3.441,3.441,0,0,1,1258.094,651.668Z" transform="translate(-943.199 -587.424)" fill="#fff5fe"/>
      <path id="Trazado_100558" data-name="Trazado 100558" d="M1258.094,651.668v5.643h-197.18v-5.643a3.441,3.441,0,0,1,3.414-3.462H1254.68A3.441,3.441,0,0,1,1258.094,651.668Z" transform="translate(-943.199 -587.424)" fill="#ffa726"/>
      <path id="Trazado_101363" data-name="Trazado 101363" d="M1.53,0A1.512,1.512,0,0,1,3.056,1.5,1.528,1.528,0,0,1,1.523,3.017,1.512,1.512,0,0,1,0,1.51,1.528,1.528,0,0,1,1.53,0Z" transform="matrix(0.156, -0.988, 0.988, 0.156, 123.018, 66.608)" fill="#fe99b7"/>
      <path id="Trazado_101364" data-name="Trazado 101364" d="M1.53,0A1.512,1.512,0,0,1,3.056,1.5,1.528,1.528,0,0,1,1.523,3.017,1.512,1.512,0,0,1,0,1.51,1.528,1.528,0,0,1,1.53,0Z" transform="matrix(0.156, -0.988, 0.988, 0.156, 130.435, 66.608)" fill="#71cfd2"/>
      <path id="Trazado_101365" data-name="Trazado 101365" d="M1.52-.01A1.5,1.5,0,0,1,3.029,1.5,1.545,1.545,0,0,1,1.5,3.029,1.5,1.5,0,0,1-.01,1.52,1.545,1.545,0,0,1,1.52-.01Z" transform="translate(137.751 65.335) rotate(-45)" fill="#ffcb5b"/>
      <path id="Trazado_100559" data-name="Trazado 100559" d="M1646.812,364.78l-2.5,5.04a4.481,4.481,0,0,0,1.729,5.534c3.242,2.246,6.484-1.808,7.187-4.273S1646.812,364.78,1646.812,364.78Z" transform="translate(-1451.228 -340.968)" fill="#eb9d76"/>
      <rect id="Rectángulo_5250" data-name="Rectángulo 5250" width="167.239" height="8.906" rx="4.453" transform="translate(132.685 82.192)" fill="#ffa726"/>
      <path id="Trazado_101366" data-name="Trazado 101366" d="M1.529,0A1.508,1.508,0,0,1,3.053,1.5,1.532,1.532,0,0,1,1.519,3.016,1.508,1.508,0,0,1,0,1.511,1.532,1.532,0,0,1,1.529,0Z" transform="translate(137.006 87.764) rotate(-76.132)" fill="#fe99b7"/>
      <path id="Trazado_101367" data-name="Trazado 101367" d="M1.529,0A1.509,1.509,0,0,1,3.054,1.5,1.531,1.531,0,0,1,1.52,3.016,1.509,1.509,0,0,1,0,1.51,1.531,1.531,0,0,1,1.529,0Z" transform="translate(144.436 87.785) rotate(-76.785)" fill="#71cfd2"/>
      <path id="Trazado_101368" data-name="Trazado 101368" d="M1.519-.01A1.5,1.5,0,0,1,3.027,1.5,1.545,1.545,0,0,1,1.5,3.032,1.5,1.5,0,0,1-.01,1.521,1.545,1.545,0,0,1,1.519-.01Z" transform="matrix(0.751, -0.661, 0.661, 0.751, 151.845, 86.507)" fill="#ffcb5b"/>
      <g id="Grupo_53842" data-name="Grupo 53842" transform="translate(289.239 83.84)">
        <path id="Trazado_100560" data-name="Trazado 100560" d="M2394.653,830.581a.559.559,0,0,1-.4-.168.578.578,0,0,1,0-.81l4.4-4.465a.559.559,0,0,1,.8,0,.577.577,0,0,1,0,.81l-4.4,4.464A.558.558,0,0,1,2394.653,830.581Z" transform="translate(-2394.088 -824.972)" fill="#96d0d2"/>
        <path id="Trazado_100561" data-name="Trazado 100561" d="M2399.056,830.581a.558.558,0,0,1-.4-.168l-4.4-4.464a.578.578,0,0,1,0-.81.559.559,0,0,1,.8,0l4.4,4.465a.577.577,0,0,1,0,.81A.558.558,0,0,1,2399.056,830.581Z" transform="translate(-2394.088 -824.972)" fill="#96d0d2"/>
      </g>
      <path id="Trazado_100562" data-name="Trazado 100562" d="M2327.425,859.811h-4.4a.573.573,0,0,1,0-1.145h4.4a.573.573,0,0,1,0,1.145Z" transform="translate(-2042.434 -770.431)" fill="#96d0d2"/>
      <path id="Trazado_100563" data-name="Trazado 100563" d="M1339.708,996.619H1176.853a2.6,2.6,0,0,1-2.578-2.614V913.314a2.6,2.6,0,0,1,2.578-2.614h162.855a2.6,2.6,0,0,1,2.578,2.614v80.692A2.6,2.6,0,0,1,1339.708,996.619Zm-162.855-85.137a1.821,1.821,0,0,0-1.806,1.831v80.692a1.821,1.821,0,0,0,1.806,1.831h162.855a1.821,1.821,0,0,0,1.806-1.831V913.314a1.821,1.821,0,0,0-1.806-1.831Z" transform="translate(-1041.976 -815.677)" fill="#c5e7e8"/>
      <path id="Trazado_100644" data-name="Trazado 100644" d="M10.046,0h55.1A10.117,10.117,0,0,1,75.189,10.186,10.117,10.117,0,0,1,65.142,20.372h-55.1A10.117,10.117,0,0,1,0,10.186H0A10.117,10.117,0,0,1,10.046,0Z" transform="translate(141.116 104.472)" fill="#4dd0e1"/>
      <rect id="Rectángulo_5252" data-name="Rectángulo 5252" width="30.199" height="20.372" rx="5" transform="translate(224.736 104.472)" fill="#4dd0e1"/>
      <path id="Trazado_101369" data-name="Trazado 101369" d="M5.665-.039A5.571,5.571,0,0,1,11.29,5.587a5.76,5.76,0,0,1-5.7,5.7A5.571,5.571,0,0,1-.039,5.665,5.76,5.76,0,0,1,5.665-.039Z" transform="translate(144.51 114.658) rotate(-45)" fill="#fff5fe"/>
      <path id="Trazado_100564" data-name="Trazado 100564" d="M1531.241,1018.766h-21.565a.626.626,0,0,1-.621-.63h0a.626.626,0,0,1,.621-.63h21.565a.626.626,0,0,1,.622.63h0A.626.626,0,0,1,1531.241,1018.766Z" transform="translate(-1333.682 -908.55)" fill="#fff5fe"/>
      <path id="Trazado_100565" data-name="Trazado 100565" d="M1716.576,1018.766h-7.918a.626.626,0,0,1-.622-.63h0a.626.626,0,0,1,.622-.63h7.918a.626.626,0,0,1,.622.63h0A.626.626,0,0,1,1716.576,1018.766Z" transform="translate(-1507.064 -908.55)" fill="#fff5fe"/>
      <path id="Trazado_100566" data-name="Trazado 100566" d="M1934.091,1018.766h-7.918a.626.626,0,0,1-.622-.63h0a.626.626,0,0,1,.622-.63h7.918a.626.626,0,0,1,.621.63h0A.626.626,0,0,1,1934.091,1018.766Z" transform="translate(-1696.594 -908.55)" fill="#96d0d2"/>
      <path id="Trazado_100567" data-name="Trazado 100567" d="M2022.958,1018.766h-9.486a.626.626,0,0,1-.622-.63h0a.626.626,0,0,1,.622-.63h9.486a.626.626,0,0,1,.621.63h0A.626.626,0,0,1,2022.958,1018.766Z" transform="translate(-1772.661 -908.55)" fill="#fff5fe"/>
      <path id="Trazado_100568" data-name="Trazado 100568" d="M1430.447,1018.766H1423.6a.626.626,0,0,1-.622-.63h0a.626.626,0,0,1,.622-.63h6.851a.626.626,0,0,1,.622.63h0A.626.626,0,0,1,1430.447,1018.766Z" transform="translate(-1258.678 -908.55)" fill="#fff5fe"/>
      <path id="Trazado_100569" data-name="Trazado 100569" d="M1438.541,1057.66H1423.6a.626.626,0,0,1-.622-.63h0a.626.626,0,0,1,.622-.63h14.945a.626.626,0,0,1,.622.63h0A.626.626,0,0,1,1438.541,1057.66Z" transform="translate(-1258.678 -942.371)" fill="#fff5fe"/>
      <path id="Trazado_100570" data-name="Trazado 100570" d="M1941.118,1057.66h-14.946a.626.626,0,0,1-.622-.63h0a.626.626,0,0,1,.622-.63h14.946a.626.626,0,0,1,.622.63h0A.626.626,0,0,1,1941.118,1057.66Z" transform="translate(-1696.594 -942.371)" fill="#fff5fe"/>
      <path id="Trazado_100571" data-name="Trazado 100571" d="M2068,1057.66h-2.835a.626.626,0,0,1-.622-.63h0a.626.626,0,0,1,.622-.63H2068a.626.626,0,0,1,.622.63h0A.626.626,0,0,1,2068,1057.66Z" transform="translate(-1817.707 -942.371)" fill="#96d0d2"/>
      <path id="Trazado_100572" data-name="Trazado 100572" d="M1642.846,1096.554h-18.8a.626.626,0,0,1-.621-.63h0a.626.626,0,0,1,.621-.63h18.8a.626.626,0,0,1,.622.63h0A.626.626,0,0,1,1642.846,1096.554Z" transform="translate(-1433.334 -976.192)" fill="#fff5fe"/>
      <path id="Trazado_100573" data-name="Trazado 100573" d="M1946.891,1096.554h-20.718a.626.626,0,0,1-.622-.63h0a.626.626,0,0,1,.622-.63h20.718a.626.626,0,0,1,.622.63h0A.626.626,0,0,1,1946.891,1096.554Z" transform="translate(-1696.594 -976.192)" fill="#fff5fe"/>
      <path id="Trazado_100574" data-name="Trazado 100574" d="M1600.457,1057.66h-25.064a.626.626,0,0,1-.621-.63h0a.626.626,0,0,1,.621-.63h25.064a.626.626,0,0,1,.621.63h0A.626.626,0,0,1,1600.457,1057.66Z" transform="translate(-1390.945 -942.371)" fill="#fff5fe"/>
      <path id="Trazado_100575" data-name="Trazado 100575" d="M1445.161,1096.554H1423.6a.626.626,0,0,1-.622-.63h0a.626.626,0,0,1,.622-.63h21.565a.626.626,0,0,1,.622.63h0A.626.626,0,0,1,1445.161,1096.554Z" transform="translate(-1258.678 -976.192)" fill="#96d0d2"/>
      <rect id="Rectángulo_5253" data-name="Rectángulo 5253" width="77.242" height="1.44" transform="translate(177.693 166.334)" fill="#c5e7e8"/>
      <g id="Grupo_53843" data-name="Grupo 53843" transform="translate(251.484 141.228)">
        <rect id="Rectángulo_5254" data-name="Rectángulo 5254" width="1.239" height="22.663" fill="#c5e7e8"/>
      </g>
      <g id="Grupo_53844" data-name="Grupo 53844" transform="translate(239.436 155.072)">
        <rect id="Rectángulo_5255" data-name="Rectángulo 5255" width="1.239" height="8.82" fill="#c5e7e8"/>
      </g>
      <g id="Grupo_53845" data-name="Grupo 53845" transform="translate(227.389 143.264)">
        <rect id="Rectángulo_5256" data-name="Rectángulo 5256" width="1.239" height="20.628" fill="#c5e7e8"/>
      </g>
      <g id="Grupo_53846" data-name="Grupo 53846" transform="translate(215.341 150.898)">
        <rect id="Rectángulo_5257" data-name="Rectángulo 5257" width="1.239" height="12.994" fill="#c5e7e8"/>
      </g>
      <g id="Grupo_53847" data-name="Grupo 53847" transform="translate(203.294 139.554)">
        <rect id="Rectángulo_5258" data-name="Rectángulo 5258" width="1.239" height="24.338" fill="#c5e7e8"/>
      </g>
      <g id="Grupo_53848" data-name="Grupo 53848" transform="translate(191.247 146.251)">
        <rect id="Rectángulo_5259" data-name="Rectángulo 5259" width="1.239" height="17.64" fill="#c5e7e8"/>
      </g>
      <g id="Grupo_53849" data-name="Grupo 53849" transform="translate(179.199 152.949)">
        <rect id="Rectángulo_5260" data-name="Rectángulo 5260" width="1.239" height="10.943" fill="#c5e7e8"/>
      </g>
      <ellipse id="Elipse_4098" data-name="Elipse 4098" cx="2.611" cy="2.647" rx="2.611" ry="2.647" transform="translate(189.255 149.778)" fill="#96d0d2"/>
      <ellipse id="Elipse_4099" data-name="Elipse 4099" cx="2.611" cy="2.647" rx="2.611" ry="2.647" transform="translate(213.35 154.188)" fill="#96d0d2"/>
      <ellipse id="Elipse_4100" data-name="Elipse 4100" cx="2.611" cy="2.647" rx="2.611" ry="2.647" transform="translate(225.398 147.131)" fill="#96d0d2"/>
      <ellipse id="Elipse_4101" data-name="Elipse 4101" cx="2.611" cy="2.647" rx="2.611" ry="2.647" transform="translate(249.493 145.604)" fill="#96d0d2"/>
      <path id="Trazado_100576" data-name="Trazado 100576" d="M2214.412,1009.9a14.129,14.129,0,1,1,13.935-14.128A14.048,14.048,0,0,1,2214.412,1009.9Zm0-27.864a13.738,13.738,0,1,0,13.549,13.736A13.659,13.659,0,0,0,2214.412,982.035Z" transform="translate(-1936.148 -877.367)" fill="#c5e7e8"/>
      <path id="Trazado_100577" data-name="Trazado 100577" d="M2296.73,1079.726a1.8,1.8,0,1,1,1.78-1.8A1.794,1.794,0,0,1,2296.73,1079.726Zm0-3.218a1.413,1.413,0,1,0,1.394,1.413A1.405,1.405,0,0,0,2296.73,1076.508Z" transform="translate(-2018.466 -959.517)" fill="#c5e7e8"/>
      <path id="Trazado_101370" data-name="Trazado 101370" d="M0,0,12.291-.085l0,.389L0,.389Z" transform="matrix(0.716, -0.698, 0.698, 0.716, 279.061, 116.965)" fill="#c5e7e8"/>
      <path id="Trazado_100578" data-name="Trazado 100578" d="M2323.091,993.26h-1.129a13.284,13.284,0,0,0-13.177-13.359v-1.145A14.423,14.423,0,0,1,2323.091,993.26Z" transform="translate(-2030.521 -874.855)" fill="#96d0d2"/>
      <g id="Grupo_53850" data-name="Grupo 53850" transform="translate(267.767 138.031)">
        <path id="Rectángulo_5262" data-name="Rectángulo 5262" d="M0,0H20.212a0,0,0,0,1,0,0V6.69A10.106,10.106,0,0,1,10.106,16.8h0A10.106,10.106,0,0,1,0,6.69V0A0,0,0,0,1,0,0Z" transform="translate(0 12.78)" fill="#039be5"/>
        <path id="Trazado_100579" data-name="Trazado 100579" d="M2257.512,1262.658H2240.8v-13.771a8.357,8.357,0,1,1,16.712,0Zm-14.612-2.129h12.512v-11.642a6.257,6.257,0,1,0-12.512,0Z" transform="translate(-2239.05 -1240.415)" fill="#039be5"/>
        <path id="Trazado_101371" data-name="Trazado 101371" d="M1.607-.008a1.6,1.6,0,0,1,1.6,1.615A1.634,1.634,0,0,1,1.592,3.238a1.6,1.6,0,0,1-1.6-1.615A1.634,1.634,0,0,1,1.607-.008Z" transform="translate(8.01 17.459) rotate(-22.5)" fill="#fff5fe"/>
        <path id="Trazado_100580" data-name="Trazado 100580" d="M2294.883,1381.01l-1.6,4.717h3.208Z" transform="translate(-2284.776 -1362.67)" fill="#fff5fe"/>
      </g>
      <g id="Grupo_53851" data-name="Grupo 53851" transform="translate(279.85 42.18)">
        <path id="Trazado_100581" data-name="Trazado 100581" d="M2366.882,538.613h-42.627a3.159,3.159,0,0,1-3.137-3.181V508.777a3.159,3.159,0,0,1,3.137-3.181h42.627a3.159,3.159,0,0,1,3.137,3.181v26.656A3.159,3.159,0,0,1,2366.882,538.613Z" transform="translate(-2321.117 -505.596)" fill="#12263f"/>
        <path id="Trazado_100582" data-name="Trazado 100582" d="M2379.488,538.613H2336.86a3.159,3.159,0,0,1-3.137-3.181V508.777a3.159,3.159,0,0,1,3.137-3.181h42.628a3.159,3.159,0,0,1,3.137,3.181v26.656A3.159,3.159,0,0,1,2379.488,538.613Z" transform="translate(-2332.101 -505.596)" fill="#ffa726"/>
        <path id="Trazado_100583" data-name="Trazado 100583" d="M2349.61,549.427a1.265,1.265,0,0,1-1.255-1.272V521.5a1.265,1.265,0,0,1,1.255-1.272h42.627a1.265,1.265,0,0,1,1.255,1.272v26.656a1.265,1.265,0,0,1-1.255,1.272Z" transform="translate(-2344.851 -518.319)" fill="#fff"/>
      </g>
      <g id="Grupo_53856" data-name="Grupo 53856" transform="translate(0 129.535)">
        <path id="Trazado_100584" data-name="Trazado 100584" d="M359.921,1779.44l-1.074,2.874-.034.081-3.574,9.547-2.826,7.548s-.25.141-.706.395c-1.1.617-3.422,1.9-6.388,3.469-7.043,3.719-17.725,9.032-24.353,10.782a14.146,14.146,0,0,1-3.769.579c-8.037-.214-38.178-3.109-38.178-3.109,1.375-1.823,1.163-7.506,1.163-7.506s9.983-.463,17.187-.922c1.967-.124,3.727-.249,5.021-.365,6.028-.536,15.44,1.287,15.44,1.287s17.027-14.368,21.257-18.764c.965-1,1.853-1.853,2.648-2.569a26.228,26.228,0,0,1,4.332-3.328Z" transform="translate(-261.901 -1700.632)" fill="#fe99b7"/>
        <path id="Trazado_100585" data-name="Trazado 100585" d="M635.791,1895.349c-3.731,2.089-21.325,11.768-30.741,14.252l25.64-20.376Z" transform="translate(-545.986 -1796.096)" fill="url(#linear-gradient-2)"/>
        <path id="Trazado_100586" data-name="Trazado 100586" d="M162.755,1964.084l4.293.745s.482,5.019-1.031,7a22.851,22.851,0,0,0-6.192,2.959c-2.839,1.848-7.7,5.894-10.282,4.5s6.7-9.687,6.7-9.687Z" transform="translate(-148.687 -1861.191)" fill="#005f7b"/>
        <path id="Trazado_100587" data-name="Trazado 100587" d="M598.884,1813.88c-.6,2.2-1.324,4.6-2.115,7.093-4.6,14.518-11.646,32.325-12.936,33.972-1.519,1.93-37.366,18.6-37.366,18.6.99-4.074-3.033-5.417-3.033-5.417s9.188-8.1,14.768-12.609c0,0,.008-.009.013,0,.393-.322.766-.622,1.117-.9,5.36-4.216,13.782-6.506,13.782-6.506s1.536-14.415,2.6-25.227c.186-1.883.355-3.654.5-5.224a24.366,24.366,0,0,1,3.422-10.533,18.313,18.313,0,0,1,4.192-4.906,27.831,27.831,0,0,1,5.377-.3l.322.013h0c2.657.154,5.669.781,7.669,2.569C599.18,1806.28,600.174,1809.18,598.884,1813.88Z" transform="translate(-492.298 -1720.169)" fill="#fe99b7"/>
        <path id="Trazado_100588" data-name="Trazado 100588" d="M452.3,2308.612l4.028-.525s3.313,2.722,2.348,5.616c0,0-3.311,3.992-5.658,6.371s-5.1,7.761-9.453,6.625S452.3,2308.612,452.3,2308.612Z" transform="translate(-404.503 -2160.321)" fill="#005f7b"/>
        <path id="Trazado_100589" data-name="Trazado 100589" d="M160.979,1965.192c.3,1.412,0,2.9-2.366,4.52-2.287,1.563-2.642,2.343-5.228,5.356s-5.5,5.524-6.934,3.906.66-5.859,2.477-7.589,4.482-3.73,6.439-5.691C157.127,1963.929,160.594,1963.406,160.979,1965.192Z" transform="translate(-145.976 -1861.191)" fill="#00324b"/>
        <path id="Trazado_100590" data-name="Trazado 100590" d="M447.2,2312.279c2.344,1.594,1.712,4.217-1.537,8.518s-3.159,8.784-7.942,9.333c-2.433.28-2.319-4.64.271-8.327,2.828-4.026,5.018-7.334,5.505-8.144C444.487,2312.012,446.418,2311.749,447.2,2312.279Z" transform="translate(-398.657 -2163.752)" fill="#00324b"/>
        <path id="Trazado_100591" data-name="Trazado 100591" d="M793.241,1794.344c-.6,2.2-1.324,4.6-2.115,7.094a129.936,129.936,0,0,0-11.134-9.5c-2.145-1.639-4.175-3.092-5.994-4.345-3.553-2.449-6.3-4.117-7.509-4.829a26.23,26.23,0,0,1,4.332-3.328h4.2l8.583,2.874.288.094h0l7.669,2.569C793.537,1786.744,794.531,1789.643,793.241,1794.344Z" transform="translate(-686.655 -1700.632)" fill="url(#linear-gradient-2)"/>
        <path id="Trazado_100592" data-name="Trazado 100592" d="M950.107,1294.538s.555-3.666,1.189-5.954,3.1-5.075,3.737-4.217.272,3.135,0,5.006a6.215,6.215,0,0,0,.287,3.143s.559-3.927,1.334-3.143.282,6.055-.705,6.35a10.934,10.934,0,0,0-2.4,1.3Z" transform="translate(-846.649 -1269.999)" fill="#ffb691"/>
        <path id="Trazado_100593" data-name="Trazado 100593" d="M841.225,1363.4s-14.956,15.884-16.014,19.851,11.527-3.753,11.527-3.753l7.932-13.617Z" transform="translate(-737.767 -1338.861)" fill="#039be5"/>
        <path id="Trazado_100594" data-name="Trazado 100594" d="M824.681,1485.721c-.534,2.836.106,6,7.932,6.112s8.57-10.137,8.57-10.137a27.468,27.468,0,0,0-9.839,0C826.479,1482.719,824.863,1484.752,824.681,1485.721Z" transform="translate(-737.236 -1441.331)" fill="#068acb"/>
        <path id="Trazado_100595" data-name="Trazado 100595" d="M1040.2,1177.557v38.818a2.261,2.261,0,0,1-2.246,2.277H979.3a2.261,2.261,0,0,1-2.246-2.277v-38.818a2.261,2.261,0,0,1,2.246-2.277h58.656A2.261,2.261,0,0,1,1040.2,1177.557Z" transform="translate(-870.125 -1175.279)" fill="#ffa726"/>
        <rect id="Rectángulo_5263" data-name="Rectángulo 5263" width="59.626" height="39.802" rx="3.768" transform="translate(108.686 1.786)" fill="#fff"/>
        <g id="Grupo_53852" data-name="Grupo 53852" transform="translate(119.537 14.439)">
          <rect id="Rectángulo_5264" data-name="Rectángulo 5264" width="5.384" height="18.312" transform="translate(0 6.175)" fill="#c5e7e8"/>
          <rect id="Rectángulo_5265" data-name="Rectángulo 5265" width="5.384" height="22.557" transform="translate(10.047 1.93)" fill="#c5e7e8"/>
          <rect id="Rectángulo_5266" data-name="Rectángulo 5266" width="5.384" height="13.461" transform="translate(20.199 11.026)" fill="#c5e7e8"/>
          <rect id="Rectángulo_5267" data-name="Rectángulo 5267" width="5.384" height="24.487" transform="translate(30.246)" fill="#c5e7e8"/>
          <rect id="Rectángulo_5268" data-name="Rectángulo 5268" width="5.384" height="19.144" transform="translate(40.178 5.343)" fill="#c5e7e8"/>
        </g>
        <path id="Trazado_100596" data-name="Trazado 100596" d="M1388.3,1371.627h-5.623a.559.559,0,0,1-.555-.563h0a.559.559,0,0,1,.555-.563h5.623a.559.559,0,0,1,.555.563h0A.559.559,0,0,1,1388.3,1371.627Z" transform="translate(-1223.077 -1345.036)" fill="#fe99b7"/>
        <g id="Grupo_53853" data-name="Grupo 53853" transform="translate(106.057 14.866)">
          <path id="Trazado_100597" data-name="Trazado 100597" d="M990.513,1297.378a3.865,3.865,0,0,0,1.993-1.642,2.1,2.1,0,0,0-1.29-2.975c-3.48-.922-3.062-4.216-6.83-3.38-1.194.265-1.666,1.307-2.874,1.672-2.692.813-4.888-.878-6,2.6-.524,1.631-2.67,2.6-4.255,3.894-.89.725-1.788,4.479.516,5.609,3,1.472.224,5.643,3.6,5.162,2.907-.415,1.328,4.67,3.185,4.844s6.9-8.339,7.575-8.924S990.513,1297.378,990.513,1297.378Z" transform="translate(-970.308 -1289.247)" fill="#002144"/>
          <path id="Trazado_100598" data-name="Trazado 100598" d="M994.006,1362.405l-3.382,7.8,1.67,2.853,8.1-.494,1.716-6.573s4.006.06,5.093-2.085,2.36-9.989,1.013-12.323c0,0-4.462.378-4.971,2.111s-1.435,3.691-2.473,2.79c-1.289-1.12-2.372,1.723-1.075,2.912s-1.913,5.135-3.387,4.559A8.65,8.65,0,0,1,994.006,1362.405Z" transform="translate(-988.01 -1343.453)" fill="#ffb691"/>
          <path id="Trazado_100599" data-name="Trazado 100599" d="M1060.976,1440.224a5.114,5.114,0,0,0,2.3,2.845l-.67,2.564S1060.2,1444.432,1060.976,1440.224Z" transform="translate(-1049.176 -1420.53)" fill="#eb9d76"/>
        </g>
        <path id="Trazado_100600" data-name="Trazado 100600" d="M855.728,1370.9s-10.292,18.013-13.96,21.3c-1.777,1.591-7.758,3.779-13.668,6.1a.128.128,0,0,1-.03.008c-6.3,2.479-12.5,5.1-13.444,7.3a111.919,111.919,0,0,1-9.8,17.9c-.393.571-.778,1.184-1.155,1.818,0,0,0,.009-.009.013-3.82,6.511-6.523,15.779-7.42,15.517-.99-.283-7.3-4.975-12.454-8.8-5.1-3.8-11.185-7.6-13.774-8.728-1.2-.519,5.339-2.895,8.829-10.936,3.236-7.458,5.533-17.048,5.533-18.622s1.269-8,5.36-9.719,10.377.313,13.4,1.287c0,0,7.614,2.428,9.869,3.285s19.882-2.286,21.714-3.285,17.2-17.155,17.2-17.155Z" transform="translate(-689.601 -1343.02)" fill="#039be5"/>
        <path id="Trazado_100601" data-name="Trazado 100601" d="M1407.6,1303.448s1.2-4,2.609-5.79,2.256-3.5,2.75-2.788-.776,3.837-.987,4.206,1.9-.632,3.314-3.777,1.833-.786,2.045.572a9.4,9.4,0,0,1-.917,6.147c-1.34,2.43-5.006,4.146-5.006,4.146Z" transform="translate(-1245.286 -1278.286)" fill="#ffb691"/>
        <path id="Trazado_100602" data-name="Trazado 100602" d="M1124.275,1646.778" transform="translate(-998.409 -1585.275)" fill="#005f7b"/>
        <path id="Trazado_100603" data-name="Trazado 100603" d="M1056.982,1599.161c-6.3,2.479-12.5,5.1-13.444,7.3a111.914,111.914,0,0,1-9.8,17.9c-.393.571-.778,1.184-1.155,1.818,6.32-12.365,5.313-20.226,9.966-22.478C1047.058,1601.516,1056.4,1599.294,1056.982,1599.161Z" transform="translate(-918.513 -1543.869)" fill="#056797"/>
        <path id="Trazado_100604" data-name="Trazado 100604" d="M676.742,2160.607c-7.056-2.35-18.008,2.771-18.427,2.968.393-.322.766-.622,1.117-.9,5.36-4.216,13.782-6.506,13.782-6.506Z" transform="translate(-592.398 -2028.223)" fill="url(#linear-gradient-4)"/>
        <path id="Trazado_100605" data-name="Trazado 100605" d="M444.437,1964.013s-12.471-5.19-22.788-5.674c1.967-.124,3.727-.249,5.021-.365,6.028-.536,15.44,1.287,15.44,1.287S444.3,1961.869,444.437,1964.013Z" transform="translate(-386.181 -1855.792)" fill="url(#linear-gradient-5)"/>
        <path id="Trazado_100606" data-name="Trazado 100606" d="M1040.2,1177.557V1184H977.049v-6.442a2.261,2.261,0,0,1,2.246-2.277h58.656A2.261,2.261,0,0,1,1040.2,1177.557Z" transform="translate(-870.125 -1175.279)" fill="#ffa726"/>
        <g id="Grupo_53854" data-name="Grupo 53854" transform="translate(160.764 2.177)">
          <path id="Trazado_100607" data-name="Trazado 100607" d="M1395.955,1196.335a.434.434,0,0,1-.31-.131.449.449,0,0,1,0-.63l3.426-3.474a.435.435,0,0,1,.621,0,.45.45,0,0,1,0,.63l-3.426,3.474A.435.435,0,0,1,1395.955,1196.335Z" transform="translate(-1395.516 -1191.97)" fill="#fff5fe"/>
          <path id="Trazado_100608" data-name="Trazado 100608" d="M1399.381,1196.335a.434.434,0,0,1-.311-.131l-3.426-3.474a.45.45,0,0,1,0-.63.435.435,0,0,1,.621,0l3.426,3.474a.45.45,0,0,1,0,.63A.435.435,0,0,1,1399.381,1196.335Z" transform="translate(-1395.516 -1191.97)" fill="#fff5fe"/>
        </g>
        <g id="Grupo_53855" data-name="Grupo 53855" transform="translate(110.711 2.433)">
          <path id="Trazado_101372" data-name="Trazado 101372" d="M1.361,0a1.343,1.343,0,0,1,1.357,1.34A1.363,1.363,0,0,1,1.353,2.685,1.343,1.343,0,0,1,0,1.344,1.363,1.363,0,0,1,1.361,0Z" transform="translate(0 2.937) rotate(-76.657)" fill="#fff5fe"/>
          <path id="Trazado_101373" data-name="Trazado 101373" d="M1.353-.009A1.33,1.33,0,0,1,2.7,1.334,1.375,1.375,0,0,1,1.334,2.7,1.33,1.33,0,0,1-.009,1.353,1.375,1.375,0,0,1,1.353-.009Z" transform="translate(4.48 1.926) rotate(-45)" fill="#fff5fe"/>
          <path id="Trazado_101374" data-name="Trazado 101374" d="M1.362,0A1.346,1.346,0,0,1,2.72,1.338,1.36,1.36,0,0,1,1.356,2.685,1.346,1.346,0,0,1,0,1.344,1.36,1.36,0,0,1,1.362,0Z" transform="matrix(0.161, -0.987, 0.987, 0.161, 9.563, 3.052)" fill="#fff5fe"/>
        </g>
        <path id="Trazado_100609" data-name="Trazado 100609" d="M1154.1,1379.231h-5.623a.559.559,0,0,1-.555-.563h0a.559.559,0,0,1,.555-.563h5.623a.559.559,0,0,1,.555.563h0A.559.559,0,0,1,1154.1,1379.231Z" transform="translate(-1019.015 -1351.648)" fill="#fe99b7"/>
        <path id="Trazado_100610" data-name="Trazado 100610" d="M1233.013,1413.058h-5.623a.559.559,0,0,1-.555-.563h0a.559.559,0,0,1,.555-.563h5.623a.559.559,0,0,1,.555.563h0A.559.559,0,0,1,1233.013,1413.058Z" transform="translate(-1087.773 -1381.063)" fill="#fe99b7"/>
        <path id="Trazado_100611" data-name="Trazado 100611" d="M1311.1,1300.446h-5.623a.559.559,0,0,1-.555-.563h0a.559.559,0,0,1,.555-.563h5.623a.559.559,0,0,1,.555.563h0A.559.559,0,0,1,1311.1,1300.446Z" transform="translate(-1155.816 -1283.14)" fill="#fe99b7"/>
        <path id="Trazado_100612" data-name="Trazado 100612" d="M1341.854,1219.477h-3.436a.447.447,0,0,1,0-.894h3.436a.447.447,0,0,1,0,.894Z" transform="translate(-1184.617 -1212.934)" fill="#fff5fe"/>
      </g>
      <g id="Grupo_53859" data-name="Grupo 53859" transform="translate(267.389 92.218)">
        <path id="Trazado_100613" data-name="Trazado 100613" d="M3111.5,2024.659a96.615,96.615,0,0,0,9.97,7.07c3.836,2.133,6.531,1.545,6.307.3s-4.892-4.94-5.994-6.643-2.013-3.87-3.417-4.56-4.316-.167-5.24-.957S3111.5,2024.659,3111.5,2024.659Z" transform="translate(-2997.352 -1872.316)" fill="#005f7b"/>
        <path id="Trazado_100614" data-name="Trazado 100614" d="M3244.476,1941.225s7.124,4.906,11.861,6.265,5.022,1.219,4.974-.209c-.025-.746-4.828-4.967-6.33-6.9s-2.978-4.447-4.526-4.277a19.65,19.65,0,0,1-3.876-.158S3243.821,1939.3,3244.476,1941.225Z" transform="translate(-3113.129 -1799.404)" fill="#005f7b"/>
        <path id="Trazado_100615" data-name="Trazado 100615" d="M3018.421,1503.355a16.631,16.631,0,0,0,.543,5.513c.773,2.05,1.176,4.636,1.954,4.192s-.534-5.284-.015-5.041a20.366,20.366,0,0,1,3.615,3.265c.486.738,1.8,4.069,2.667,4.152.553.053.523-.606.523-.606s.691.808,1.03.2c.375-.676-.678-2.912-.678-2.912a4.288,4.288,0,0,0,.054-1.658,14.721,14.721,0,0,0-2.6-4.418c-.994-1.052-3.458-3.864-3.458-3.864Z" transform="translate(-2916.218 -1422.218)" fill="#ffb691"/>
        <path id="Trazado_100616" data-name="Trazado 100616" d="M2799.306,1448.109s6.982,6.092,6.67,13.411-8.86,38.4-8.86,38.4a55.258,55.258,0,0,1,15.271,9.052c8.133,6.621,16.806,14.063,16.806,14.063s-2.534,3.1-3.15,5.154c0,0-35.492-15.833-38.954-20.123s-4.044-8.8-1.686-25.809,3.571-30.079,3.571-30.079Z" transform="translate(-2711.968 -1375.203)" fill="#002144"/>
        <path id="Trazado_100617" data-name="Trazado 100617" d="M2728.64,1478.228s7.1,18.494,15.691,29.668,13.717,14.069,17.209,15.784,33.554,15.037,33.554,15.037,1.32-3.947,3.074-5.513c0,0-15.72-13.176-21.186-16.246s-11.048-3.395-11.515-5.1-13.144-24.939-13.144-24.939l-11.264-13.867Z" transform="translate(-2663.747 -1396.897)" fill="#002144"/>
        <path id="Trazado_100618" data-name="Trazado 100618" d="M2372.609,1035.555c1.628,5.6,5.706,26.073,5.706,26.073l-4.719,1.532s-8.981-24.441-10.1-26.641-9.167-12.128-9.167-12.128,1.429,11.65,2.771,16.339,4.659,13.876,4.659,13.876a58.07,58.07,0,0,1-8.523,4.222,18.882,18.882,0,0,1-3.728,1.035,59.994,59.994,0,0,0-13.477,4.025s-7.56-21.7-9-25.8-4.818-12.636-6.538-13.641-19.248-4.536-23.175-6.3-19.072-19.453-19.072-19.453l4.173-4.582s16.544,13.814,19.582,14.537,18.321,4.313,21.922,3.712a46.16,46.16,0,0,0,4.753-1.154c3.085-.885,6.291-1.95,7.6-2.283a56.885,56.885,0,0,1,6.578-1.451,30.684,30.684,0,0,1,9.435.243C2359.5,1008.894,2370.98,1029.959,2372.609,1035.555Z" transform="translate(-2271.306 -980.431)" fill="#ffca28"/>
        <path id="Trazado_100619" data-name="Trazado 100619" d="M2235.381,937.948s-10.17-9.366-11.008-8.347,3.264,4.105,3.077,4.629-1.881,2.5-1.494,3.833,5.252,4.469,5.252,4.469Z" transform="translate(-2224.26 -924.264)" fill="#ffb691"/>
        <path id="Trazado_100620" data-name="Trazado 100620" d="M2686.138,1050.8c-.607-1.9-1.218-4.115-1.577-5.452a1.16,1.16,0,0,0-1.506-.8l-5.764,2.032a1.183,1.183,0,0,0-.759,1.352l1.054,5.235a1.183,1.183,0,0,1-.812,1.37l-.026.008a1.189,1.189,0,0,0-.542,1.923,6.6,6.6,0,0,0,5.616,2.293c3.4-.262,5.992-3,7.044-5.594a1.176,1.176,0,0,0-1.311-1.591l-.088.017A1.158,1.158,0,0,1,2686.138,1050.8Z" transform="translate(-2617.8 -1024.222)" fill="#ffb691"/>
        <g id="Grupo_53858" data-name="Grupo 53858" transform="translate(46.523)">
          <path id="Trazado_100621" data-name="Trazado 100621" d="M2628.534,939.168l1.961,9.844,7.748-.533,1.244-1.514,1.36-1.654,1.764-6.216a42.222,42.222,0,0,0-1.153-4.331c-.116-.078-4.237.178-7.707.407-2.544.17-4.736.325-4.736.325Z" transform="translate(-2623.044 -928.808)" fill="#ffb691"/>
          <g id="Grupo_53857" data-name="Grupo 53857">
            <path id="Trazado_100622" data-name="Trazado 100622" d="M2585.967,897.6a3.566,3.566,0,0,0,.59,1.371,0,0,0,0,0,0,0,3.637,3.637,0,0,0,2.582,1.388,14.853,14.853,0,0,0,7.7-1.388c1.914-.828,2.7-.831,3.386-.6.281.094.426.566.559,1.159a16.525,16.525,0,0,0,.4,1.608c.393,1.149,1.077.2,1.241-.934s2.612-1.676,2.351.922-1.535,2.293-2.091,2.976-.407,1.556-1.758,2.6a3.036,3.036,0,0,1-3.487.245c-.859-.526-2.906-.165-3.613-.021s-1.442.384-1.272,1.051.823,4.531,1.544,5.392a3.838,3.838,0,0,0,.9.8,6.282,6.282,0,0,0,4.219.613,7.812,7.812,0,0,0,5.875-3.267,10.288,10.288,0,0,0,1.346-4.285c.142-.97.232-1.96.308-2.858.189-2.306,1.246-3.707.9-6.786-.019-.166-.041-.331-.068-.507,0-.04-.01-.083-.018-.122a9.668,9.668,0,0,0-5.034-6.785c-1.775-.866-4.378.413-5.346.567s-2.241-2.568-5.762-1.1-1.885,3.151-2.781,4.081a10.058,10.058,0,0,1-1.833,1.18,1.7,1.7,0,0,0-.943,1.408A5.172,5.172,0,0,0,2585.967,897.6Z" transform="translate(-2585.86 -889.196)" fill="#002144"/>
          </g>
        </g>
        <path id="Trazado_100623" data-name="Trazado 100623" d="M2853.718,1256.412a58.046,58.046,0,0,1-8.523,4.222c-.71-3.584,1.384-5.336-1.162-10.352-2.854-5.625.437-9.605-.193-14.254s2.448-9.831,2.448-9.831,1.428,11.65,2.771,16.339S2853.718,1256.412,2853.718,1256.412Z" transform="translate(-2763.264 -1182.238)" fill="#ffa302"/>
        <path id="Trazado_100624" data-name="Trazado 100624" d="M2883.708,1548.772c-1.364-.843-33.424-20.649-34.92-22.35-.245-.279-.992-1.129,2.207-26.452,1.576-12.475,3.357-24.9,3.375-25.025l.382.056c-.018.124-1.8,12.548-3.374,25.019-2.867,22.7-2.565,25.842-2.3,26.141,1.458,1.658,34.5,22.07,34.833,22.276Z" transform="translate(-2768.216 -1398.539)" fill="#fff"/>
        <path id="Trazado_100625" data-name="Trazado 100625" d="M3155.409,2025.052s-.3,1.059,1.387,2.815,3.5,4.263,5.511,6.462,3.243,2.81,3.711,2.243-3.531-4.9-4.826-5.871S3158.131,2024.542,3155.409,2025.052Z" transform="translate(-3035.59 -1876.858)" fill="#002144"/>
        <path id="Trazado_100626" data-name="Trazado 100626" d="M2671.3,1099.3a5.287,5.287,0,0,0,6.072,2.68,7.039,7.039,0,0,0,5.857-5.805l1.819-.265s-1.33,6.841-7.084,7.819c-2.93.5-5.472,1.359-7.745-4Z" transform="translate(-2612.84 -1068.948)" fill="#fff"/>
      </g>
      <path id="Trazado_100627" data-name="Trazado 100627" d="M1759.415,440.549a134.433,134.433,0,0,1,8.211,10.665c4.179,6.041,6.629,8.817,8.142,12.324s5.836,19.577,5.836,19.577l-4.611,1.826s-9.151-18.92-9.8-19.8-9.351-9.564-9.351-9.564Z" transform="translate(-1550.463 -406.854)" fill="#4dd0e1"/>
      <path id="Trazado_100628" data-name="Trazado 100628" d="M1909.227,767.133s.851,3.932,1.482,6.265,1.829,7.927,2.838,7.672-.357-5.8-.262-6.252,3.289-1,3.352-3.082-3.412-6.345-3.412-6.345Z" transform="translate(-1682.37 -689.323)" fill="#ffb691"/>
      <path id="Trazado_100629" data-name="Trazado 100629" d="M1577.675,598.766l1.648-.813s3.683.813,5.484,1.288,3.423,2.411,3.783,2.776-2.161.584-3.35.183-6.953-.183-6.953-.183Z" transform="translate(-1393.475 -543.726)" fill="#ffb691"/>
      <path id="Trazado_100630" data-name="Trazado 100630" d="M1657.112,307.464a1.813,1.813,0,0,0-2.233.365c-.937,1.1,0,3.36,1.117,3.872,0,0,.017,6.07,3.638,7.086,3.386.95,6.917-.292,8.5-12.2,0,0-5.787-.73-6.821-2.849C1661.316,303.739,1659.2,306.551,1657.112,307.464Z" transform="translate(-1460.412 -287.889)" fill="#ffb691"/>
      <g id="Grupo_53861" data-name="Grupo 53861" transform="translate(346.331 77.939)">
        <rect id="Rectángulo_5269" data-name="Rectángulo 5269" width="22.245" height="14.333" rx="7.167" fill="#fe99b7"/>
        <path id="Trazado_100631" data-name="Trazado 100631" d="M2854.208,875.4l-2.22,5.935,10.765-6.822Z" transform="translate(-2850.167 -862.15)" fill="#fe99b7"/>
        <g id="Grupo_53860" data-name="Grupo 53860" transform="translate(2.777 3.336)">
          <path id="Trazado_100632" data-name="Trazado 100632" d="M2864.21,811.077a.458.458,0,0,1-.242-.069l-4.548-2.818,4.545-2.82a.462.462,0,0,1,.64.156.476.476,0,0,1-.154.648l-3.249,2.016,3.251,2.013a.475.475,0,0,1,.154.648A.463.463,0,0,1,2864.21,811.077Z" transform="translate(-2859.42 -805.3)" fill="#fff5fe"/>
          <path id="Trazado_100633" data-name="Trazado 100633" d="M2948.779,825.321a.463.463,0,0,1-.4-.226.475.475,0,0,1,.155-.648l3.25-2.014-3.248-2.016a.475.475,0,0,1-.154-.648.462.462,0,0,1,.64-.156l4.545,2.82-4.548,2.818A.457.457,0,0,1,2948.779,825.321Z" transform="translate(-2936.876 -817.686)" fill="#fff5fe"/>
          <path id="Trazado_100634" data-name="Trazado 100634" d="M2904.269,812.984a.459.459,0,0,1-.254-.077.475.475,0,0,1-.134-.653l4.337-6.716a.462.462,0,0,1,.644-.136.475.475,0,0,1,.135.653l-4.338,6.716A.464.464,0,0,1,2904.269,812.984Z" transform="translate(-2898.094 -805.322)" fill="#fff5fe"/>
        </g>
      </g>
      <g id="Grupo_53866" data-name="Grupo 53866" transform="translate(222.149 0)">
        <g id="Grupo_53862" data-name="Grupo 53862" transform="translate(0 0)">
          <rect id="Rectángulo_5270" data-name="Rectángulo 5270" width="24.237" height="15.617" rx="7.808" fill="#96d0d2"/>
          <path id="Trazado_100635" data-name="Trazado 100635" d="M1890.464,286.47l-2.419,6.466,11.729-7.432Z" transform="translate(-1886.062 -272.032)" fill="#96d0d2"/>
        </g>
        <g id="Grupo_53865" data-name="Grupo 53865" transform="translate(5.232 2.254)">
          <g id="Grupo_53863" data-name="Grupo 53863">
            <path id="Trazado_100636" data-name="Trazado 100636" d="M1916.261,210.95a1.774,1.774,0,0,1-1.967-2.014v-1.949q0-1.312-1-1.377v-.754q1-.065,1-1.4v-1.9a1.786,1.786,0,0,1,1.967-2.04v.832q-1.019.026-1.019,1.286v1.9q0,1.364-.962,1.676v.026q.961.293.962,1.663v1.878a1.78,1.78,0,0,0,.227,1.03.95.95,0,0,0,.791.322Z" transform="translate(-1913.294 -199.514)" fill="#fff"/>
          </g>
          <g id="Grupo_53864" data-name="Grupo 53864" transform="translate(10.667)">
            <path id="Trazado_100637" data-name="Trazado 100637" d="M1996.2,210.131a.951.951,0,0,0,.792-.322,1.78,1.78,0,0,0,.227-1.03V206.9q0-1.371.962-1.663v-.026q-.961-.312-.962-1.676v-1.9q0-1.26-1.019-1.286v-.832a1.786,1.786,0,0,1,1.967,2.04v1.9q0,1.339,1,1.4v.754q-1,.065-1,1.377v1.949a1.774,1.774,0,0,1-1.967,2.014Z" transform="translate(-1996.204 -199.514)" fill="#fff"/>
          </g>
          <rect id="Rectángulo_5271" data-name="Rectángulo 5271" width="6.635" height="0.763" transform="translate(3.551 7.816)" fill="#fff"/>
          <rect id="Rectángulo_5272" data-name="Rectángulo 5272" width="6.635" height="0.763" transform="translate(3.551 5.336)" fill="#fff"/>
          <rect id="Rectángulo_5273" data-name="Rectángulo 5273" width="3.318" height="0.763" transform="translate(6.869 2.998)" fill="#fff"/>
        </g>
      </g>
      <path id="Trazado_100638" data-name="Trazado 100638" d="M1722.087,296.589a10.3,10.3,0,0,1-6.043-2.47l.086-.1c.042.038,4.257,3.79,8.437,1.909l.052.119A6.109,6.109,0,0,1,1722.087,296.589Z" transform="translate(-1514.041 -279.44)" fill="#005f7b"/>
      <path id="Trazado_100639" data-name="Trazado 100639" d="M1739.991,294.891a6.58,6.58,0,0,1-3.111-.812l.067-.112a6.113,6.113,0,0,0,4.964.44l.046.122A5.426,5.426,0,0,1,1739.991,294.891Z" transform="translate(-1532.197 -279.393)" fill="#005f7b"/>
      <path id="Trazado_100640" data-name="Trazado 100640" d="M1653.935,247.077c-.218-2.68,3.547-4.1,3.585-4.116l.044.122c-.037.014-3.71,1.4-3.5,3.983Z" transform="translate(-1459.915 -235.039)" fill="#002144"/>
      <path id="Trazado_100641" data-name="Trazado 100641" d="M2339.611,517.392h47.437l-.914-5.35-2.976-1.107h-42.208l-1.338,1.851Z" transform="translate(-2057.381 -468.058)" fill="#ffa726"/>
      <g id="Grupo_53867" data-name="Grupo 53867" transform="translate(284.259 43.796)">
        <path id="Trazado_101375" data-name="Trazado 101375" d="M1.362,0A1.346,1.346,0,0,1,2.72,1.338,1.36,1.36,0,0,1,1.356,2.685,1.346,1.346,0,0,1,0,1.344,1.36,1.36,0,0,1,1.362,0Z" transform="matrix(0.16, -0.987, 0.987, 0.16, 0, 3.053)" fill="#fff5fe"/>
        <path id="Trazado_101376" data-name="Trazado 101376" d="M1.361,0a1.343,1.343,0,0,1,1.357,1.34A1.363,1.363,0,0,1,1.353,2.685,1.343,1.343,0,0,1,0,1.344,1.363,1.363,0,0,1,1.361,0Z" transform="translate(4.688 2.941) rotate(-76.778)" fill="#fff5fe"/>
        <path id="Trazado_101377" data-name="Trazado 101377" d="M1.353-.009A1.33,1.33,0,0,1,2.7,1.334,1.375,1.375,0,0,1,1.334,2.7,1.33,1.33,0,0,1-.009,1.353,1.375,1.375,0,0,1,1.353-.009Z" transform="translate(9.128 1.926) rotate(-45)" fill="#fff5fe"/>
      </g>
      <path id="Trazado_100642" data-name="Trazado 100642" d="M2448.924,602.269a4.779,4.779,0,0,0-1.936.409,7.23,7.23,0,0,0-14.184,2.038c-.1-.008-.192-.015-.291-.015a3.705,3.705,0,0,0-.238,7.4l0,.012h16.651a4.923,4.923,0,0,0,0-9.844Z" transform="translate(-2135.146 -543.268)" fill="#039be5"/>
      <path id="Trazado_100643" data-name="Trazado 100643" d="M1387.382,432.8c-.958,2.915,1.657,5.479,8.862,6.355s16.067,1.461,16.067,1.461l1.036-4.064-14.654-4.775s11.117-9.776,12.537-12.564c1.153-2.264,1.225-7.347-3.963-6.836S1388.679,428.856,1387.382,432.8Z" transform="translate(-1227.499 -382.326)" fill="#4dd0e1"/>
    </g>
  </g>
</svg>
